G75*
%MOIN*%
%OFA0B0*%
%FSLAX24Y24*%
%IPPOS*%
%LPD*%
%AMOC8*
5,1,8,0,0,1.08239X$1,22.5*
%
%ADD10C,0.0070*%
%ADD11C,0.0620*%
%ADD12C,0.0620*%
%ADD13OC8,0.0620*%
%ADD14C,0.0740*%
%ADD15C,0.0660*%
%ADD16C,0.1300*%
%ADD17OC8,0.0630*%
%ADD18C,0.0630*%
%ADD19OC8,0.0700*%
%ADD20C,0.0700*%
%ADD21R,0.0615X0.0615*%
%ADD22C,0.0615*%
%ADD23C,0.0100*%
%ADD24C,0.0317*%
D10*
X036616Y003036D02*
X037046Y003036D01*
X036616Y003036D01*
X036831Y003036D02*
X036903Y003108D01*
X036903Y003251D01*
X036831Y003323D01*
X036616Y003323D01*
X036831Y003323D01*
X036903Y003251D01*
X036903Y003108D01*
X036831Y003036D01*
X036903Y003496D02*
X036903Y003640D01*
X036903Y003496D01*
X036975Y003568D02*
X036688Y003568D01*
X036616Y003640D01*
X036688Y003568D01*
X036975Y003568D01*
X036903Y003803D02*
X036903Y003947D01*
X036903Y003803D01*
X036975Y003875D02*
X036688Y003875D01*
X036616Y003947D01*
X036688Y003875D01*
X036975Y003875D01*
X036903Y004110D02*
X036472Y004110D01*
X036903Y004110D01*
X036903Y004325D01*
X036831Y004397D01*
X036688Y004397D01*
X036616Y004325D01*
X036616Y004110D01*
X036616Y004325D01*
X036688Y004397D01*
X036831Y004397D01*
X036903Y004325D01*
X036903Y004110D01*
X036903Y004571D02*
X036831Y004571D01*
X036831Y004642D01*
X036903Y004642D01*
X036903Y004571D01*
X036831Y004571D01*
X036831Y004642D01*
X036903Y004642D01*
X036903Y004571D01*
X036688Y004571D02*
X036688Y004642D01*
X036616Y004642D01*
X036616Y004571D01*
X036688Y004571D01*
X036616Y004571D01*
X036616Y004642D01*
X036688Y004642D01*
X036688Y004571D01*
X036616Y004801D02*
X037046Y005088D01*
X036616Y004801D01*
X036616Y005261D02*
X037046Y005548D01*
X036616Y005261D01*
X036616Y005722D02*
X036616Y005937D01*
X036688Y006008D01*
X036831Y006008D01*
X036903Y005937D01*
X036903Y005722D01*
X036903Y005937D01*
X036831Y006008D01*
X036688Y006008D01*
X036616Y005937D01*
X036616Y005722D01*
X037046Y005722D01*
X036616Y005722D01*
X036616Y006182D02*
X036616Y006325D01*
X036616Y006182D01*
X036616Y006254D02*
X036903Y006254D01*
X036903Y006182D01*
X036903Y006254D01*
X036616Y006254D01*
X037046Y006254D02*
X037118Y006254D01*
X037046Y006254D01*
X036903Y006489D02*
X036903Y006632D01*
X036903Y006489D01*
X036975Y006561D02*
X036688Y006561D01*
X036616Y006632D01*
X036688Y006561D01*
X036975Y006561D01*
X037046Y006796D02*
X036616Y006796D01*
X037046Y006796D01*
X036903Y007011D02*
X036759Y006796D01*
X036616Y007011D01*
X036759Y006796D01*
X036903Y007011D01*
X036903Y007179D02*
X036903Y007251D01*
X036616Y007251D01*
X036903Y007251D01*
X036903Y007179D01*
X037046Y007251D02*
X037118Y007251D01*
X037046Y007251D01*
X036616Y007179D02*
X036616Y007323D01*
X036616Y007179D01*
X036903Y007486D02*
X036903Y007630D01*
X036903Y007486D01*
X036975Y007558D02*
X036688Y007558D01*
X036616Y007630D01*
X036688Y007558D01*
X036975Y007558D01*
X036688Y007793D02*
X036688Y007865D01*
X036616Y007865D01*
X036616Y007793D01*
X036688Y007793D01*
X036688Y007865D01*
X036616Y007865D01*
X036616Y007793D01*
X036688Y007793D01*
X036616Y008023D02*
X036616Y008167D01*
X036616Y008023D01*
X036616Y008095D02*
X036903Y008095D01*
X036903Y008023D01*
X036903Y008095D01*
X036616Y008095D01*
X037046Y008095D02*
X037118Y008095D01*
X037046Y008095D01*
X036831Y008330D02*
X036688Y008330D01*
X036616Y008402D01*
X036616Y008546D01*
X036688Y008617D01*
X036831Y008617D01*
X036903Y008546D01*
X036903Y008402D01*
X036831Y008330D01*
X036688Y008330D01*
X036616Y008402D01*
X036616Y008546D01*
X036688Y008617D01*
X036831Y008617D01*
X036903Y008546D01*
X036903Y008402D01*
X036831Y008330D01*
D11*
X029961Y007749D02*
X029961Y007129D01*
X028961Y007129D02*
X028961Y007749D01*
X027961Y007749D02*
X027961Y007129D01*
X026961Y007129D02*
X026961Y007749D01*
X025961Y007749D02*
X025961Y007129D01*
X024961Y007129D02*
X024961Y007749D01*
X023961Y007749D02*
X023961Y007129D01*
X022961Y007129D02*
X022961Y007749D01*
X021961Y007749D02*
X021961Y007129D01*
X020961Y007129D02*
X020961Y007749D01*
X019961Y007749D02*
X019961Y007129D01*
X018961Y007129D02*
X018961Y007749D01*
X017961Y007749D02*
X017961Y007129D01*
X016961Y007129D02*
X016961Y007749D01*
X016961Y004749D02*
X016961Y004129D01*
X017961Y004129D02*
X017961Y004749D01*
X018961Y004749D02*
X018961Y004129D01*
X019961Y004129D02*
X019961Y004749D01*
X020961Y004749D02*
X020961Y004129D01*
X021961Y004129D02*
X021961Y004749D01*
X022961Y004749D02*
X022961Y004129D01*
X023961Y004129D02*
X023961Y004749D01*
X024961Y004749D02*
X024961Y004129D01*
X025961Y004129D02*
X025961Y004749D01*
X026961Y004749D02*
X026961Y004129D01*
X027961Y004129D02*
X027961Y004749D01*
X028961Y004749D02*
X028961Y004129D01*
X029961Y004129D02*
X029961Y004749D01*
D12*
X024527Y001681D03*
X022627Y001681D03*
D13*
X020561Y001189D03*
X018561Y001189D03*
X018561Y002189D03*
X020561Y002189D03*
X026656Y002217D03*
X026656Y001217D03*
X011311Y004339D03*
X007311Y004339D03*
X007311Y005939D03*
X011311Y005939D03*
X011311Y007539D03*
X007311Y007539D03*
D14*
X013011Y007939D03*
X015011Y007939D03*
X015011Y003939D03*
X013011Y003939D03*
D15*
X005841Y005447D03*
X005061Y005447D03*
X005061Y006431D03*
X005841Y006431D03*
D16*
X003991Y008309D03*
X003991Y003569D03*
D17*
X029199Y001209D03*
D18*
X029199Y002209D03*
D19*
X032461Y005439D03*
X033461Y005439D03*
X034461Y005439D03*
X034461Y006439D03*
X033461Y006439D03*
X032461Y006439D03*
D20*
X016711Y001839D02*
X016711Y001139D01*
X015711Y001139D02*
X015711Y001839D01*
X014711Y001839D02*
X014711Y001139D01*
X013711Y001139D02*
X013711Y001839D01*
X012711Y001839D02*
X012711Y001139D01*
X011711Y001139D02*
X011711Y001839D01*
X010711Y001839D02*
X010711Y001139D01*
X009711Y001139D02*
X009711Y001839D01*
X008711Y001839D02*
X008711Y001139D01*
D21*
X005711Y009939D03*
X013661Y009939D03*
X021661Y009939D03*
X029561Y009939D03*
D22*
X030561Y009939D03*
X031561Y009939D03*
X032561Y009939D03*
X033561Y009939D03*
X034561Y009939D03*
X026661Y009939D03*
X025661Y009939D03*
X024661Y009939D03*
X023661Y009939D03*
X022661Y009939D03*
X018661Y009939D03*
X017661Y009939D03*
X016661Y009939D03*
X015661Y009939D03*
X014661Y009939D03*
X010711Y009939D03*
X009711Y009939D03*
X008711Y009939D03*
X007711Y009939D03*
X006711Y009939D03*
D23*
X001767Y000631D02*
X001812Y000523D01*
X001895Y000440D01*
X002003Y000395D01*
X002061Y000389D01*
X010674Y000389D01*
X010606Y000458D01*
X010606Y000458D01*
X010518Y000669D01*
X010518Y000700D01*
X010439Y000732D01*
X010304Y000867D01*
X010231Y001044D01*
X010231Y001935D01*
X010304Y002111D01*
X010439Y002246D01*
X010599Y002313D01*
X009846Y002313D01*
X009646Y002428D01*
X009646Y002428D01*
X009531Y002627D01*
X009531Y004790D01*
X009525Y004784D01*
X009419Y004740D01*
X009304Y004740D01*
X009198Y004784D01*
X009133Y004849D01*
X007561Y004849D01*
X007543Y004846D01*
X007512Y004828D01*
X007494Y004797D01*
X007491Y004779D01*
X007494Y004779D01*
X007751Y004522D01*
X007751Y004157D01*
X007494Y003899D01*
X007129Y003899D01*
X006891Y004137D01*
X006891Y001883D01*
X006895Y001841D01*
X006927Y001764D01*
X006986Y001705D01*
X007063Y001673D01*
X007105Y001669D01*
X008231Y001669D01*
X008231Y001935D01*
X008304Y002111D01*
X008439Y002246D01*
X008616Y002319D01*
X008807Y002319D01*
X008983Y002246D01*
X009118Y002111D01*
X009191Y001935D01*
X009191Y001044D01*
X009118Y000867D01*
X008983Y000732D01*
X008807Y000659D01*
X008616Y000659D01*
X008439Y000732D01*
X008304Y000867D01*
X008231Y001044D01*
X008231Y001309D01*
X006991Y001309D01*
X006780Y001397D01*
X006780Y001397D01*
X006619Y001558D01*
X006619Y001558D01*
X006531Y001769D01*
X006531Y009540D01*
X006463Y009568D01*
X006340Y009692D01*
X006274Y009852D01*
X006274Y010026D01*
X006340Y010187D01*
X006463Y010310D01*
X006546Y010344D01*
X006619Y010521D01*
X006619Y010521D01*
X006780Y010682D01*
X006780Y010682D01*
X006991Y010769D01*
X030297Y010769D01*
X030507Y010682D01*
X030507Y010682D01*
X030669Y010521D01*
X030669Y010521D01*
X030745Y010337D01*
X030809Y010310D01*
X030932Y010187D01*
X030999Y010026D01*
X030999Y009852D01*
X030932Y009692D01*
X030910Y009669D01*
X031213Y009669D01*
X031190Y009692D01*
X031124Y009852D01*
X031124Y010026D01*
X031190Y010187D01*
X031313Y010310D01*
X031474Y010377D01*
X031648Y010377D01*
X031809Y010310D01*
X031932Y010187D01*
X031999Y010026D01*
X031999Y009852D01*
X031932Y009692D01*
X031809Y009568D01*
X031678Y009514D01*
X031626Y009425D01*
X031626Y009425D01*
X031626Y009425D01*
X031426Y009309D01*
X030196Y009309D01*
X029996Y009425D01*
X029996Y009425D01*
X029950Y009505D01*
X029927Y009492D01*
X029888Y009482D01*
X029590Y009482D01*
X029590Y009911D01*
X029533Y009911D01*
X029533Y009482D01*
X029234Y009482D01*
X029196Y009492D01*
X029162Y009512D01*
X029134Y009540D01*
X029114Y009574D01*
X029104Y009612D01*
X029104Y009911D01*
X029533Y009911D01*
X029533Y009968D01*
X029104Y009968D01*
X029104Y010191D01*
X027028Y010191D01*
X027032Y010187D01*
X027099Y010026D01*
X027099Y009852D01*
X027032Y009692D01*
X026909Y009568D01*
X026748Y009502D01*
X026574Y009502D01*
X026413Y009568D01*
X026290Y009692D01*
X026224Y009852D01*
X026224Y010026D01*
X026290Y010187D01*
X026294Y010191D01*
X026028Y010191D01*
X026032Y010187D01*
X026099Y010026D01*
X026099Y009852D01*
X026032Y009692D01*
X025909Y009568D01*
X025841Y009540D01*
X025841Y009239D01*
X025844Y009221D01*
X025862Y009190D01*
X025893Y009172D01*
X025911Y009169D01*
X033781Y009169D01*
X033781Y009557D01*
X033648Y009502D01*
X033474Y009502D01*
X033313Y009568D01*
X033190Y009692D01*
X033124Y009852D01*
X033124Y010026D01*
X033190Y010187D01*
X033313Y010310D01*
X033474Y010377D01*
X033648Y010377D01*
X033809Y010310D01*
X033932Y010187D01*
X033999Y010026D01*
X033999Y009970D01*
X034026Y009954D01*
X034026Y009954D01*
X034141Y009755D01*
X034141Y006798D01*
X034262Y006919D01*
X034660Y006919D01*
X034941Y006638D01*
X034941Y006241D01*
X034660Y005959D01*
X034262Y005959D01*
X034141Y006081D01*
X034141Y005798D01*
X034262Y005919D01*
X034660Y005919D01*
X034941Y005638D01*
X034941Y005241D01*
X034660Y004959D01*
X034641Y004959D01*
X034641Y001409D01*
X034554Y001198D01*
X034554Y001198D01*
X034393Y001037D01*
X034393Y001037D01*
X034182Y000949D01*
X033610Y000949D01*
X033545Y000885D01*
X033439Y000841D01*
X033324Y000841D01*
X033218Y000885D01*
X033137Y000966D01*
X033093Y001072D01*
X033093Y001187D01*
X033137Y001293D01*
X033218Y001374D01*
X033324Y001418D01*
X033439Y001418D01*
X033545Y001374D01*
X033610Y001309D01*
X034068Y001309D01*
X034109Y001313D01*
X034186Y001345D01*
X034245Y001404D01*
X034277Y001481D01*
X034281Y001523D01*
X034281Y004959D01*
X034262Y004959D01*
X033981Y005241D01*
X033981Y005376D01*
X033941Y005399D01*
X033941Y005241D01*
X033660Y004959D01*
X033262Y004959D01*
X032981Y005241D01*
X032981Y005638D01*
X033115Y005772D01*
X032835Y005772D01*
X032961Y005646D01*
X032961Y005489D01*
X032511Y005489D01*
X032511Y005389D01*
X032511Y004939D01*
X032668Y004939D01*
X032961Y005232D01*
X032961Y005389D01*
X032511Y005389D01*
X032411Y005389D01*
X032411Y004939D01*
X032254Y004939D01*
X031961Y005232D01*
X031961Y005389D01*
X032411Y005389D01*
X032411Y005489D01*
X031961Y005489D01*
X031961Y005646D01*
X032087Y005772D01*
X028096Y005772D01*
X027896Y005888D01*
X027896Y005888D01*
X027781Y006087D01*
X027781Y006728D01*
X027712Y006756D01*
X027588Y006880D01*
X027521Y007042D01*
X027521Y007837D01*
X027588Y007999D01*
X027612Y008022D01*
X027311Y008022D01*
X027334Y007999D01*
X027401Y007837D01*
X027401Y007042D01*
X027334Y006880D01*
X027210Y006756D01*
X027049Y006689D01*
X026874Y006689D01*
X026712Y006756D01*
X026588Y006880D01*
X026521Y007042D01*
X026521Y007837D01*
X026588Y007999D01*
X026612Y008022D01*
X026311Y008022D01*
X026334Y007999D01*
X026401Y007837D01*
X026401Y007042D01*
X026334Y006880D01*
X026210Y006756D01*
X026049Y006689D01*
X025874Y006689D01*
X025712Y006756D01*
X025588Y006880D01*
X025521Y007042D01*
X025521Y007837D01*
X025588Y007999D01*
X025712Y008122D01*
X025845Y008177D01*
X025896Y008267D01*
X025896Y008267D01*
X026096Y008382D01*
X033326Y008382D01*
X033526Y008267D01*
X033526Y008267D01*
X033526Y008267D01*
X033641Y008067D01*
X033641Y006919D01*
X033660Y006919D01*
X033781Y006798D01*
X033781Y008809D01*
X025796Y008809D01*
X025596Y008925D01*
X025596Y008925D01*
X025481Y009124D01*
X025481Y009540D01*
X025413Y009568D01*
X025290Y009692D01*
X025224Y009852D01*
X025224Y010026D01*
X025290Y010187D01*
X025294Y010191D01*
X025028Y010191D01*
X025032Y010187D01*
X025099Y010026D01*
X025099Y009852D01*
X025032Y009692D01*
X024909Y009568D01*
X024841Y009540D01*
X024841Y008245D01*
X024789Y008154D01*
X024874Y008189D01*
X025049Y008189D01*
X025210Y008122D01*
X025334Y007999D01*
X025401Y007837D01*
X025401Y007042D01*
X025334Y006880D01*
X025210Y006756D01*
X025129Y006723D01*
X025129Y005448D01*
X026311Y005448D01*
X026510Y005333D01*
X026510Y005333D01*
X026626Y005133D01*
X026626Y005036D01*
X026712Y005122D01*
X026874Y005189D01*
X027049Y005189D01*
X027210Y005122D01*
X027334Y004999D01*
X027401Y004837D01*
X027401Y004042D01*
X027334Y003880D01*
X027210Y003756D01*
X027049Y003689D01*
X026874Y003689D01*
X026712Y003756D01*
X026626Y003843D01*
X026626Y002657D01*
X026838Y002657D01*
X027096Y002399D01*
X027096Y002035D01*
X026838Y001777D01*
X026473Y001777D01*
X026216Y002035D01*
X026216Y002399D01*
X026266Y002449D01*
X026266Y003811D01*
X026210Y003756D01*
X026151Y003732D01*
X026151Y001414D01*
X026063Y001203D01*
X026063Y001203D01*
X025902Y001042D01*
X025902Y001042D01*
X025691Y000954D01*
X020948Y000954D01*
X020744Y000749D01*
X020379Y000749D01*
X020121Y001007D01*
X020121Y001372D01*
X020251Y001501D01*
X018871Y001501D01*
X019001Y001372D01*
X019001Y001007D01*
X018744Y000749D01*
X018379Y000749D01*
X018121Y001007D01*
X018121Y001372D01*
X018379Y001629D01*
X018429Y001629D01*
X018487Y001729D01*
X018371Y001729D01*
X018101Y001999D01*
X018101Y002159D01*
X018531Y002159D01*
X018531Y002219D01*
X018101Y002219D01*
X018101Y002380D01*
X018371Y002649D01*
X018531Y002649D01*
X018531Y002219D01*
X018591Y002219D01*
X019021Y002219D01*
X019021Y002380D01*
X018752Y002649D01*
X018591Y002649D01*
X018591Y002219D01*
X018591Y002159D01*
X019021Y002159D01*
X019021Y001999D01*
X018884Y001861D01*
X020239Y001861D01*
X020101Y001999D01*
X020101Y002159D01*
X020531Y002159D01*
X020531Y002219D01*
X020101Y002219D01*
X020101Y002380D01*
X020371Y002649D01*
X020531Y002649D01*
X020531Y002219D01*
X020591Y002219D01*
X021021Y002219D01*
X021021Y002380D01*
X020752Y002649D01*
X020591Y002649D01*
X020591Y002219D01*
X020591Y002159D01*
X021021Y002159D01*
X021021Y001999D01*
X020884Y001861D01*
X022225Y001861D01*
X022254Y001931D01*
X022378Y002055D01*
X022481Y002097D01*
X022481Y002270D01*
X022596Y002469D01*
X022596Y002469D01*
X022596Y002469D01*
X022796Y002584D01*
X024697Y002584D01*
X024715Y002587D01*
X024747Y002605D01*
X024765Y002636D01*
X024767Y002654D01*
X024767Y003734D01*
X024712Y003756D01*
X024588Y003880D01*
X024521Y004042D01*
X024521Y004837D01*
X024588Y004999D01*
X024678Y005088D01*
X024273Y005088D01*
X024312Y005049D01*
X024355Y004990D01*
X024388Y004926D01*
X024410Y004857D01*
X024421Y004786D01*
X024421Y004469D01*
X023991Y004469D01*
X023991Y004409D01*
X023991Y003669D01*
X023997Y003669D01*
X024069Y003681D01*
X024138Y003703D01*
X024202Y003736D01*
X024261Y003779D01*
X024312Y003830D01*
X024355Y003888D01*
X024388Y003953D01*
X024410Y004022D01*
X024421Y004093D01*
X024421Y004409D01*
X023991Y004409D01*
X023931Y004409D01*
X023931Y003669D01*
X023925Y003669D01*
X023854Y003681D01*
X023785Y003703D01*
X023720Y003736D01*
X023662Y003779D01*
X023610Y003830D01*
X023568Y003888D01*
X023535Y003953D01*
X023513Y004022D01*
X023501Y004093D01*
X023501Y004409D01*
X023931Y004409D01*
X023931Y004469D01*
X023501Y004469D01*
X023501Y004786D01*
X023513Y004857D01*
X023535Y004926D01*
X023568Y004990D01*
X023610Y005049D01*
X023649Y005088D01*
X023245Y005088D01*
X023334Y004999D01*
X023401Y004837D01*
X023401Y004042D01*
X023334Y003880D01*
X023210Y003756D01*
X023049Y003689D01*
X022874Y003689D01*
X022712Y003756D01*
X022588Y003880D01*
X022521Y004042D01*
X022521Y004837D01*
X022588Y004999D01*
X022678Y005088D01*
X022245Y005088D01*
X022334Y004999D01*
X022401Y004837D01*
X022401Y004042D01*
X022334Y003880D01*
X022210Y003756D01*
X022049Y003689D01*
X021874Y003689D01*
X021712Y003756D01*
X021588Y003880D01*
X021521Y004042D01*
X021521Y004837D01*
X021588Y004999D01*
X021678Y005088D01*
X021245Y005088D01*
X021334Y004999D01*
X021401Y004837D01*
X021401Y004042D01*
X021334Y003880D01*
X021210Y003756D01*
X021049Y003689D01*
X020874Y003689D01*
X020712Y003756D01*
X020588Y003880D01*
X020521Y004042D01*
X020521Y004837D01*
X020588Y004999D01*
X020678Y005088D01*
X020245Y005088D01*
X020334Y004999D01*
X020401Y004837D01*
X020401Y004042D01*
X020334Y003880D01*
X020210Y003756D01*
X020141Y003728D01*
X020141Y003333D01*
X020060Y003191D01*
X020060Y003191D01*
X020060Y003191D01*
X019918Y003109D01*
X018290Y003109D01*
X018225Y003045D01*
X018119Y003001D01*
X018004Y003001D01*
X017898Y003045D01*
X017816Y003126D01*
X017773Y003232D01*
X017773Y003347D01*
X017816Y003453D01*
X017898Y003534D01*
X018004Y003578D01*
X018119Y003578D01*
X018225Y003534D01*
X018290Y003469D01*
X019781Y003469D01*
X019781Y003728D01*
X019712Y003756D01*
X019588Y003880D01*
X019521Y004042D01*
X019521Y004837D01*
X019588Y004999D01*
X019678Y005088D01*
X019505Y005088D01*
X019363Y005170D01*
X019363Y005170D01*
X019281Y005311D01*
X019141Y005311D01*
X019141Y006728D01*
X019210Y006756D01*
X019281Y006827D01*
X019281Y005311D01*
X019281Y005410D02*
X019141Y005410D01*
X019141Y005508D02*
X019281Y005508D01*
X019281Y005607D02*
X019141Y005607D01*
X019141Y005705D02*
X019281Y005705D01*
X019281Y005804D02*
X019141Y005804D01*
X019141Y005902D02*
X019281Y005902D01*
X019281Y006001D02*
X019141Y006001D01*
X019141Y006099D02*
X019281Y006099D01*
X019281Y006198D02*
X019141Y006198D01*
X019141Y006296D02*
X019281Y006296D01*
X019281Y006395D02*
X019141Y006395D01*
X019141Y006493D02*
X019281Y006493D01*
X019281Y006592D02*
X019141Y006592D01*
X019141Y006690D02*
X019281Y006690D01*
X019281Y006789D02*
X019243Y006789D01*
X019641Y006789D02*
X019679Y006789D01*
X019712Y006756D02*
X019874Y006689D01*
X020049Y006689D01*
X020210Y006756D01*
X020334Y006880D01*
X020401Y007042D01*
X020401Y007837D01*
X020334Y007999D01*
X020311Y008022D01*
X020612Y008022D01*
X020588Y007999D01*
X020521Y007837D01*
X020521Y007042D01*
X020588Y006880D01*
X020712Y006756D01*
X020874Y006689D01*
X021049Y006689D01*
X021210Y006756D01*
X021334Y006880D01*
X021401Y007042D01*
X021401Y007837D01*
X021334Y007999D01*
X021311Y008022D01*
X021612Y008022D01*
X021588Y007999D01*
X021521Y007837D01*
X021521Y007042D01*
X021588Y006880D01*
X021712Y006756D01*
X021874Y006689D01*
X022049Y006689D01*
X022210Y006756D01*
X022334Y006880D01*
X022401Y007042D01*
X022401Y007837D01*
X022334Y007999D01*
X022311Y008022D01*
X022591Y008022D01*
X022568Y007990D01*
X022535Y007926D01*
X022513Y007857D01*
X022501Y007786D01*
X022501Y007469D01*
X022931Y007469D01*
X022931Y007409D01*
X022991Y007409D01*
X022991Y006669D01*
X022997Y006669D01*
X023069Y006681D01*
X023138Y006703D01*
X023202Y006736D01*
X023261Y006779D01*
X023312Y006830D01*
X023355Y006888D01*
X023388Y006953D01*
X023410Y007022D01*
X023421Y007093D01*
X023421Y007409D01*
X022991Y007409D01*
X022991Y007469D01*
X023421Y007469D01*
X023421Y007786D01*
X023410Y007857D01*
X023388Y007926D01*
X023355Y007990D01*
X023332Y008022D01*
X023612Y008022D01*
X023588Y007999D01*
X023521Y007837D01*
X023521Y007042D01*
X023588Y006880D01*
X023712Y006756D01*
X023874Y006689D01*
X024049Y006689D01*
X024210Y006756D01*
X024334Y006880D01*
X024401Y007042D01*
X024401Y007837D01*
X024334Y007999D01*
X024311Y008022D01*
X024612Y008022D01*
X024588Y007999D01*
X024521Y007837D01*
X024521Y007042D01*
X024588Y006880D01*
X024712Y006756D01*
X024769Y006733D01*
X024769Y005448D01*
X019641Y005448D01*
X019641Y006827D01*
X019712Y006756D01*
X019641Y006690D02*
X019871Y006690D01*
X020051Y006690D02*
X020871Y006690D01*
X021051Y006690D02*
X021871Y006690D01*
X022051Y006690D02*
X022824Y006690D01*
X022854Y006681D02*
X022925Y006669D01*
X022931Y006669D01*
X022931Y007409D01*
X022501Y007409D01*
X022501Y007093D01*
X022513Y007022D01*
X022535Y006953D01*
X022568Y006888D01*
X022610Y006830D01*
X022662Y006779D01*
X022720Y006736D01*
X022785Y006703D01*
X022854Y006681D01*
X022931Y006690D02*
X022991Y006690D01*
X022991Y006789D02*
X022931Y006789D01*
X022931Y006887D02*
X022991Y006887D01*
X022991Y006986D02*
X022931Y006986D01*
X022931Y007084D02*
X022991Y007084D01*
X022991Y007183D02*
X022931Y007183D01*
X022931Y007281D02*
X022991Y007281D01*
X022991Y007380D02*
X022931Y007380D01*
X022501Y007380D02*
X022401Y007380D01*
X022401Y007478D02*
X022501Y007478D01*
X022501Y007577D02*
X022401Y007577D01*
X022401Y007675D02*
X022501Y007675D01*
X022501Y007774D02*
X022401Y007774D01*
X022387Y007872D02*
X022518Y007872D01*
X022558Y007971D02*
X022346Y007971D01*
X021577Y007971D02*
X021346Y007971D01*
X021387Y007872D02*
X021536Y007872D01*
X021521Y007774D02*
X021401Y007774D01*
X021401Y007675D02*
X021521Y007675D01*
X021521Y007577D02*
X021401Y007577D01*
X021401Y007478D02*
X021521Y007478D01*
X021521Y007380D02*
X021401Y007380D01*
X021401Y007281D02*
X021521Y007281D01*
X021521Y007183D02*
X021401Y007183D01*
X021401Y007084D02*
X021521Y007084D01*
X021544Y006986D02*
X021378Y006986D01*
X021337Y006887D02*
X021585Y006887D01*
X021679Y006789D02*
X021243Y006789D01*
X020679Y006789D02*
X020243Y006789D01*
X020337Y006887D02*
X020585Y006887D01*
X020544Y006986D02*
X020378Y006986D01*
X020401Y007084D02*
X020521Y007084D01*
X020521Y007183D02*
X020401Y007183D01*
X020401Y007281D02*
X020521Y007281D01*
X020521Y007380D02*
X020401Y007380D01*
X020401Y007478D02*
X020521Y007478D01*
X020521Y007577D02*
X020401Y007577D01*
X020401Y007675D02*
X020521Y007675D01*
X020521Y007774D02*
X020401Y007774D01*
X020387Y007872D02*
X020536Y007872D01*
X020577Y007971D02*
X020346Y007971D01*
X020086Y008202D02*
X020066Y008200D01*
X020047Y008196D01*
X020029Y008188D01*
X020013Y008178D01*
X019998Y008165D01*
X019985Y008150D01*
X019975Y008134D01*
X019967Y008116D01*
X019963Y008097D01*
X019961Y008077D01*
X019961Y007439D01*
X018961Y007439D02*
X018961Y005393D01*
X018959Y005373D01*
X018955Y005354D01*
X018947Y005336D01*
X018937Y005320D01*
X018924Y005305D01*
X018909Y005292D01*
X018893Y005282D01*
X018875Y005274D01*
X018856Y005270D01*
X018836Y005268D01*
X017586Y005268D01*
X017566Y005266D01*
X017547Y005262D01*
X017529Y005254D01*
X017513Y005244D01*
X017498Y005231D01*
X017485Y005216D01*
X017475Y005200D01*
X017467Y005182D01*
X017463Y005163D01*
X017461Y005143D01*
X017461Y000783D01*
X017641Y000780D02*
X018348Y000780D01*
X018250Y000879D02*
X017641Y000879D01*
X017641Y000977D02*
X018151Y000977D01*
X018121Y001076D02*
X017641Y001076D01*
X017641Y001174D02*
X018121Y001174D01*
X018121Y001273D02*
X017641Y001273D01*
X017641Y001371D02*
X018121Y001371D01*
X018220Y001470D02*
X017641Y001470D01*
X017641Y001568D02*
X018318Y001568D01*
X018451Y001667D02*
X017641Y001667D01*
X017641Y001765D02*
X018335Y001765D01*
X018236Y001864D02*
X017641Y001864D01*
X017641Y001962D02*
X018138Y001962D01*
X018101Y002061D02*
X017641Y002061D01*
X017641Y002159D02*
X018531Y002159D01*
X018591Y002159D02*
X020531Y002159D01*
X020591Y002159D02*
X022481Y002159D01*
X022481Y002258D02*
X021021Y002258D01*
X021021Y002356D02*
X022531Y002356D01*
X022588Y002455D02*
X020946Y002455D01*
X020848Y002553D02*
X022742Y002553D01*
X022911Y002404D02*
X024697Y002404D01*
X024812Y002224D02*
X025012Y002340D01*
X025127Y002539D01*
X025127Y003722D01*
X025210Y003756D01*
X025334Y003880D01*
X025401Y004042D01*
X025401Y004837D01*
X025334Y004999D01*
X025245Y005088D01*
X025678Y005088D01*
X025588Y004999D01*
X025521Y004837D01*
X025521Y004042D01*
X025588Y003880D01*
X025712Y003756D01*
X025791Y003724D01*
X025791Y001528D01*
X025787Y001486D01*
X025755Y001409D01*
X025696Y001350D01*
X025619Y001318D01*
X025577Y001314D01*
X024782Y001314D01*
X024900Y001432D01*
X024967Y001594D01*
X024967Y001769D01*
X024900Y001931D01*
X024776Y002055D01*
X024615Y002121D01*
X024439Y002121D01*
X024278Y002055D01*
X024154Y001931D01*
X024087Y001769D01*
X024087Y001594D01*
X024154Y001432D01*
X024272Y001314D01*
X022882Y001314D01*
X023000Y001432D01*
X023067Y001594D01*
X023067Y001769D01*
X023000Y001931D01*
X022876Y002055D01*
X022841Y002069D01*
X022841Y002154D01*
X022844Y002172D01*
X022862Y002204D01*
X022893Y002222D01*
X022911Y002224D01*
X024812Y002224D01*
X024870Y002258D02*
X025791Y002258D01*
X025791Y002356D02*
X025022Y002356D01*
X025012Y002340D02*
X025012Y002340D01*
X025078Y002455D02*
X025791Y002455D01*
X025791Y002553D02*
X025127Y002553D01*
X025127Y002652D02*
X025791Y002652D01*
X025791Y002750D02*
X025127Y002750D01*
X025127Y002849D02*
X025791Y002849D01*
X025791Y002947D02*
X025127Y002947D01*
X025127Y003046D02*
X025791Y003046D01*
X025791Y003144D02*
X025127Y003144D01*
X025127Y003243D02*
X025791Y003243D01*
X025791Y003341D02*
X025127Y003341D01*
X025127Y003440D02*
X025791Y003440D01*
X025791Y003538D02*
X025127Y003538D01*
X025127Y003637D02*
X025791Y003637D01*
X025763Y003735D02*
X025160Y003735D01*
X025288Y003834D02*
X025634Y003834D01*
X025567Y003932D02*
X025356Y003932D01*
X025397Y004031D02*
X025526Y004031D01*
X025521Y004129D02*
X025401Y004129D01*
X025401Y004228D02*
X025521Y004228D01*
X025521Y004326D02*
X025401Y004326D01*
X025401Y004425D02*
X025521Y004425D01*
X025521Y004523D02*
X025401Y004523D01*
X025401Y004622D02*
X025521Y004622D01*
X025521Y004720D02*
X025401Y004720D01*
X025401Y004819D02*
X025521Y004819D01*
X025555Y004917D02*
X025368Y004917D01*
X025317Y005016D02*
X025606Y005016D01*
X026196Y005268D02*
X026226Y005266D01*
X026256Y005261D01*
X026285Y005252D01*
X026312Y005239D01*
X026338Y005224D01*
X026362Y005205D01*
X026383Y005184D01*
X026402Y005160D01*
X026417Y005134D01*
X026430Y005107D01*
X026439Y005078D01*
X026444Y005048D01*
X026446Y005018D01*
X026446Y002208D01*
X026561Y002289D01*
X026656Y002217D01*
X027096Y002258D02*
X028754Y002258D01*
X028754Y002298D02*
X028754Y002121D01*
X028822Y001957D01*
X028947Y001832D01*
X029111Y001764D01*
X029288Y001764D01*
X029451Y001832D01*
X029576Y001957D01*
X029644Y002121D01*
X029644Y002298D01*
X029576Y002461D01*
X029451Y002586D01*
X029288Y002654D01*
X029111Y002654D01*
X028947Y002586D01*
X028822Y002461D01*
X028754Y002298D01*
X028778Y002356D02*
X027096Y002356D01*
X027040Y002455D02*
X028819Y002455D01*
X028914Y002553D02*
X026942Y002553D01*
X026843Y002652D02*
X029105Y002652D01*
X029293Y002652D02*
X034281Y002652D01*
X034281Y002750D02*
X026626Y002750D01*
X026626Y002849D02*
X034281Y002849D01*
X034281Y002947D02*
X026626Y002947D01*
X026626Y003046D02*
X034281Y003046D01*
X034281Y003144D02*
X026626Y003144D01*
X026626Y003243D02*
X034281Y003243D01*
X034281Y003341D02*
X026626Y003341D01*
X026626Y003440D02*
X034281Y003440D01*
X034281Y003538D02*
X026626Y003538D01*
X026626Y003637D02*
X034281Y003637D01*
X034281Y003735D02*
X030160Y003735D01*
X030210Y003756D02*
X030334Y003880D01*
X030401Y004042D01*
X030401Y004837D01*
X030334Y004999D01*
X030210Y005122D01*
X030049Y005189D01*
X029874Y005189D01*
X029712Y005122D01*
X029588Y004999D01*
X029521Y004837D01*
X029521Y004042D01*
X029588Y003880D01*
X029712Y003756D01*
X029874Y003689D01*
X030049Y003689D01*
X030210Y003756D01*
X030288Y003834D02*
X034281Y003834D01*
X034281Y003932D02*
X030356Y003932D01*
X030397Y004031D02*
X034281Y004031D01*
X034281Y004129D02*
X030401Y004129D01*
X030401Y004228D02*
X034281Y004228D01*
X034281Y004326D02*
X030401Y004326D01*
X030401Y004425D02*
X034281Y004425D01*
X034281Y004523D02*
X030401Y004523D01*
X030401Y004622D02*
X034281Y004622D01*
X034281Y004720D02*
X030401Y004720D01*
X030401Y004819D02*
X034281Y004819D01*
X034281Y004917D02*
X030368Y004917D01*
X030317Y005016D02*
X032178Y005016D01*
X032079Y005114D02*
X030219Y005114D01*
X029704Y005114D02*
X029219Y005114D01*
X029210Y005122D02*
X029049Y005189D01*
X028874Y005189D01*
X028712Y005122D01*
X028588Y004999D01*
X028521Y004837D01*
X028521Y004042D01*
X028588Y003880D01*
X028712Y003756D01*
X028874Y003689D01*
X029049Y003689D01*
X029210Y003756D01*
X029334Y003880D01*
X029401Y004042D01*
X029401Y004837D01*
X029334Y004999D01*
X029210Y005122D01*
X029317Y005016D02*
X029606Y005016D01*
X029555Y004917D02*
X029368Y004917D01*
X029401Y004819D02*
X029521Y004819D01*
X029521Y004720D02*
X029401Y004720D01*
X029401Y004622D02*
X029521Y004622D01*
X029521Y004523D02*
X029401Y004523D01*
X029401Y004425D02*
X029521Y004425D01*
X029521Y004326D02*
X029401Y004326D01*
X029401Y004228D02*
X029521Y004228D01*
X029521Y004129D02*
X029401Y004129D01*
X029397Y004031D02*
X029526Y004031D01*
X029567Y003932D02*
X029356Y003932D01*
X029288Y003834D02*
X029634Y003834D01*
X029763Y003735D02*
X029160Y003735D01*
X028763Y003735D02*
X028160Y003735D01*
X028210Y003756D02*
X028334Y003880D01*
X028401Y004042D01*
X028401Y004837D01*
X028334Y004999D01*
X028210Y005122D01*
X028049Y005189D01*
X027874Y005189D01*
X027712Y005122D01*
X027588Y004999D01*
X027521Y004837D01*
X027521Y004042D01*
X027588Y003880D01*
X027712Y003756D01*
X027874Y003689D01*
X028049Y003689D01*
X028210Y003756D01*
X028288Y003834D02*
X028634Y003834D01*
X028567Y003932D02*
X028356Y003932D01*
X028397Y004031D02*
X028526Y004031D01*
X028521Y004129D02*
X028401Y004129D01*
X028401Y004228D02*
X028521Y004228D01*
X028521Y004326D02*
X028401Y004326D01*
X028401Y004425D02*
X028521Y004425D01*
X028521Y004523D02*
X028401Y004523D01*
X028401Y004622D02*
X028521Y004622D01*
X028521Y004720D02*
X028401Y004720D01*
X028401Y004819D02*
X028521Y004819D01*
X028555Y004917D02*
X028368Y004917D01*
X028317Y005016D02*
X028606Y005016D01*
X028704Y005114D02*
X028219Y005114D01*
X027704Y005114D02*
X027219Y005114D01*
X027317Y005016D02*
X027606Y005016D01*
X027555Y004917D02*
X027368Y004917D01*
X027401Y004819D02*
X027521Y004819D01*
X027521Y004720D02*
X027401Y004720D01*
X027401Y004622D02*
X027521Y004622D01*
X027521Y004523D02*
X027401Y004523D01*
X027401Y004425D02*
X027521Y004425D01*
X027521Y004326D02*
X027401Y004326D01*
X027401Y004228D02*
X027521Y004228D01*
X027521Y004129D02*
X027401Y004129D01*
X027397Y004031D02*
X027526Y004031D01*
X027567Y003932D02*
X027356Y003932D01*
X027288Y003834D02*
X027634Y003834D01*
X027763Y003735D02*
X027160Y003735D01*
X026763Y003735D02*
X026626Y003735D01*
X026626Y003834D02*
X026634Y003834D01*
X026266Y003735D02*
X026160Y003735D01*
X026151Y003637D02*
X026266Y003637D01*
X026266Y003538D02*
X026151Y003538D01*
X026151Y003440D02*
X026266Y003440D01*
X026266Y003341D02*
X026151Y003341D01*
X026151Y003243D02*
X026266Y003243D01*
X026266Y003144D02*
X026151Y003144D01*
X026151Y003046D02*
X026266Y003046D01*
X026266Y002947D02*
X026151Y002947D01*
X026151Y002849D02*
X026266Y002849D01*
X026266Y002750D02*
X026151Y002750D01*
X026151Y002652D02*
X026266Y002652D01*
X026266Y002553D02*
X026151Y002553D01*
X026151Y002455D02*
X026266Y002455D01*
X026216Y002356D02*
X026151Y002356D01*
X026151Y002258D02*
X026216Y002258D01*
X026216Y002159D02*
X026151Y002159D01*
X026151Y002061D02*
X026216Y002061D01*
X026151Y001962D02*
X026288Y001962D01*
X026387Y001864D02*
X026151Y001864D01*
X026151Y001765D02*
X029107Y001765D01*
X029169Y001674D02*
X029006Y001674D01*
X028734Y001402D01*
X028734Y001239D01*
X029169Y001239D01*
X029169Y001179D01*
X028734Y001179D01*
X028734Y001016D01*
X029006Y000744D01*
X029169Y000744D01*
X029169Y001179D01*
X029229Y001179D01*
X029229Y000744D01*
X029392Y000744D01*
X029664Y001016D01*
X029664Y001179D01*
X029229Y001179D01*
X029229Y001239D01*
X029169Y001239D01*
X029169Y001674D01*
X029169Y001667D02*
X029229Y001667D01*
X029229Y001674D02*
X029229Y001239D01*
X029664Y001239D01*
X029664Y001402D01*
X029392Y001674D01*
X029229Y001674D01*
X029229Y001568D02*
X029169Y001568D01*
X029169Y001470D02*
X029229Y001470D01*
X029229Y001371D02*
X029169Y001371D01*
X029169Y001273D02*
X029229Y001273D01*
X029229Y001174D02*
X029169Y001174D01*
X029169Y001076D02*
X029229Y001076D01*
X029229Y000977D02*
X029169Y000977D01*
X029169Y000879D02*
X029229Y000879D01*
X029229Y000780D02*
X029169Y000780D01*
X028970Y000780D02*
X026870Y000780D01*
X026846Y000757D02*
X027116Y001026D01*
X027116Y001187D01*
X026686Y001187D01*
X026686Y001247D01*
X027116Y001247D01*
X027116Y001407D01*
X026846Y001677D01*
X026686Y001677D01*
X026686Y001247D01*
X026626Y001247D01*
X026626Y001677D01*
X026465Y001677D01*
X026196Y001407D01*
X026196Y001247D01*
X026626Y001247D01*
X026626Y001187D01*
X026686Y001187D01*
X026686Y000757D01*
X026846Y000757D01*
X026686Y000780D02*
X026626Y000780D01*
X026626Y000757D02*
X026626Y001187D01*
X026196Y001187D01*
X026196Y001026D01*
X026465Y000757D01*
X026626Y000757D01*
X026626Y000879D02*
X026686Y000879D01*
X026686Y000977D02*
X026626Y000977D01*
X026626Y001076D02*
X026686Y001076D01*
X026686Y001174D02*
X026626Y001174D01*
X026626Y001273D02*
X026686Y001273D01*
X026686Y001371D02*
X026626Y001371D01*
X026626Y001470D02*
X026686Y001470D01*
X026686Y001568D02*
X026626Y001568D01*
X026626Y001667D02*
X026686Y001667D01*
X026856Y001667D02*
X028999Y001667D01*
X028901Y001568D02*
X026955Y001568D01*
X027053Y001470D02*
X028802Y001470D01*
X028734Y001371D02*
X027116Y001371D01*
X027116Y001273D02*
X028734Y001273D01*
X028734Y001174D02*
X027116Y001174D01*
X027116Y001076D02*
X028734Y001076D01*
X028773Y000977D02*
X027067Y000977D01*
X026968Y000879D02*
X028872Y000879D01*
X029428Y000780D02*
X036354Y000780D01*
X036341Y000786D02*
X036646Y000659D01*
X036976Y000659D01*
X037281Y000786D01*
X037515Y001019D01*
X037641Y001324D01*
X037641Y001654D01*
X037515Y001959D01*
X037281Y002193D01*
X036976Y002319D01*
X036646Y002319D01*
X036341Y002193D01*
X036108Y001959D01*
X035981Y001654D01*
X035981Y001324D01*
X036108Y001019D01*
X036341Y000786D01*
X036248Y000879D02*
X033531Y000879D01*
X033232Y000879D02*
X029526Y000879D01*
X029625Y000977D02*
X033132Y000977D01*
X033093Y001076D02*
X029664Y001076D01*
X029664Y001174D02*
X033093Y001174D01*
X033129Y001273D02*
X029664Y001273D01*
X029664Y001371D02*
X033215Y001371D01*
X033548Y001371D02*
X034212Y001371D01*
X034272Y001470D02*
X029596Y001470D01*
X029497Y001568D02*
X034281Y001568D01*
X034281Y001667D02*
X029399Y001667D01*
X029291Y001765D02*
X034281Y001765D01*
X034281Y001864D02*
X029483Y001864D01*
X029579Y001962D02*
X034281Y001962D01*
X034281Y002061D02*
X029619Y002061D01*
X029644Y002159D02*
X034281Y002159D01*
X034281Y002258D02*
X029644Y002258D01*
X029620Y002356D02*
X034281Y002356D01*
X034281Y002455D02*
X029579Y002455D01*
X029484Y002553D02*
X034281Y002553D01*
X034641Y002553D02*
X037931Y002553D01*
X037931Y002455D02*
X034641Y002455D01*
X034641Y002356D02*
X037931Y002356D01*
X037931Y002258D02*
X037125Y002258D01*
X037315Y002159D02*
X037931Y002159D01*
X037931Y002061D02*
X037413Y002061D01*
X037512Y001962D02*
X037931Y001962D01*
X037931Y001864D02*
X037554Y001864D01*
X037595Y001765D02*
X037931Y001765D01*
X037931Y001667D02*
X037636Y001667D01*
X037641Y001568D02*
X037931Y001568D01*
X037931Y001470D02*
X037641Y001470D01*
X037641Y001371D02*
X037931Y001371D01*
X037931Y001273D02*
X037620Y001273D01*
X037579Y001174D02*
X037931Y001174D01*
X037931Y001076D02*
X037538Y001076D01*
X037473Y000977D02*
X037931Y000977D01*
X037931Y000879D02*
X037374Y000879D01*
X037268Y000780D02*
X037931Y000780D01*
X037931Y000689D02*
X037926Y000631D01*
X037881Y000523D01*
X037798Y000440D01*
X037690Y000395D01*
X037631Y000389D01*
X017485Y000389D01*
X017554Y000458D01*
X017641Y000669D01*
X017641Y003827D01*
X017712Y003756D01*
X017874Y003689D01*
X018049Y003689D01*
X018210Y003756D01*
X018334Y003880D01*
X018401Y004042D01*
X018401Y004837D01*
X018334Y004999D01*
X018245Y005088D01*
X018678Y005088D01*
X018588Y004999D01*
X018521Y004837D01*
X018521Y004042D01*
X018588Y003880D01*
X018712Y003756D01*
X018874Y003689D01*
X019049Y003689D01*
X019210Y003756D01*
X019334Y003880D01*
X019401Y004042D01*
X019401Y004837D01*
X019334Y004999D01*
X019210Y005122D01*
X019067Y005182D01*
X019141Y005311D01*
X019084Y005213D02*
X019338Y005213D01*
X019363Y005170D02*
X019363Y005170D01*
X019459Y005114D02*
X019219Y005114D01*
X019317Y005016D02*
X019606Y005016D01*
X019555Y004917D02*
X019368Y004917D01*
X019401Y004819D02*
X019521Y004819D01*
X019521Y004720D02*
X019401Y004720D01*
X019401Y004622D02*
X019521Y004622D01*
X019521Y004523D02*
X019401Y004523D01*
X019401Y004425D02*
X019521Y004425D01*
X019521Y004326D02*
X019401Y004326D01*
X019401Y004228D02*
X019521Y004228D01*
X019521Y004129D02*
X019401Y004129D01*
X019397Y004031D02*
X019526Y004031D01*
X019567Y003932D02*
X019356Y003932D01*
X019288Y003834D02*
X019634Y003834D01*
X019763Y003735D02*
X019160Y003735D01*
X018763Y003735D02*
X018160Y003735D01*
X018288Y003834D02*
X018634Y003834D01*
X018567Y003932D02*
X018356Y003932D01*
X018397Y004031D02*
X018526Y004031D01*
X018521Y004129D02*
X018401Y004129D01*
X018401Y004228D02*
X018521Y004228D01*
X018521Y004326D02*
X018401Y004326D01*
X018401Y004425D02*
X018521Y004425D01*
X018521Y004523D02*
X018401Y004523D01*
X018401Y004622D02*
X018521Y004622D01*
X018521Y004720D02*
X018401Y004720D01*
X018401Y004819D02*
X018521Y004819D01*
X018555Y004917D02*
X018368Y004917D01*
X018317Y005016D02*
X018606Y005016D01*
X017678Y005088D02*
X017641Y005052D01*
X017641Y005088D01*
X017661Y005088D01*
X017678Y005088D01*
X017281Y005114D02*
X017219Y005114D01*
X017210Y005122D02*
X017049Y005189D01*
X016874Y005189D01*
X016712Y005122D01*
X016641Y005052D01*
X016641Y005837D01*
X016924Y005837D01*
X016989Y005772D01*
X017095Y005728D01*
X017210Y005728D01*
X017316Y005772D01*
X017397Y005853D01*
X017441Y005959D01*
X017441Y006074D01*
X017397Y006180D01*
X017316Y006262D01*
X017289Y006273D01*
X017408Y006273D01*
X017416Y006273D01*
X017557Y006355D01*
X017639Y006496D01*
X017639Y006829D01*
X017712Y006756D01*
X017874Y006689D01*
X018049Y006689D01*
X018210Y006756D01*
X018334Y006880D01*
X018401Y007042D01*
X018401Y007837D01*
X018334Y007999D01*
X018311Y008022D01*
X018612Y008022D01*
X018588Y007999D01*
X018521Y007837D01*
X018521Y007042D01*
X018588Y006880D01*
X018712Y006756D01*
X018781Y006728D01*
X018781Y005448D01*
X017505Y005448D01*
X017363Y005366D01*
X017281Y005225D01*
X017281Y005052D01*
X017210Y005122D01*
X017281Y005213D02*
X016641Y005213D01*
X016641Y005311D02*
X017331Y005311D01*
X017363Y005366D02*
X017363Y005366D01*
X017363Y005366D01*
X017438Y005410D02*
X016641Y005410D01*
X016641Y005508D02*
X018781Y005508D01*
X018781Y005607D02*
X016641Y005607D01*
X016641Y005705D02*
X018781Y005705D01*
X018781Y005804D02*
X017348Y005804D01*
X017418Y005902D02*
X018781Y005902D01*
X018781Y006001D02*
X017441Y006001D01*
X017431Y006099D02*
X018781Y006099D01*
X018781Y006198D02*
X017380Y006198D01*
X017456Y006296D02*
X018781Y006296D01*
X018781Y006395D02*
X017580Y006395D01*
X017557Y006355D02*
X017557Y006355D01*
X017557Y006355D01*
X017334Y006453D02*
X014311Y006453D01*
X014291Y006451D01*
X014272Y006447D01*
X014254Y006439D01*
X014238Y006429D01*
X014223Y006416D01*
X014210Y006401D01*
X014200Y006385D01*
X014192Y006367D01*
X014188Y006348D01*
X014186Y006328D01*
X014186Y002743D01*
X014006Y002743D02*
X014003Y002724D01*
X013985Y002693D01*
X013954Y002675D01*
X013936Y002673D01*
X009961Y002673D01*
X009943Y002675D01*
X009912Y002693D01*
X009894Y002724D01*
X009891Y002743D01*
X009891Y009540D01*
X009959Y009568D01*
X010082Y009692D01*
X010149Y009852D01*
X010149Y010026D01*
X010082Y010187D01*
X010060Y010209D01*
X010363Y010209D01*
X010340Y010187D01*
X010274Y010026D01*
X010274Y009852D01*
X010340Y009692D01*
X010463Y009568D01*
X010624Y009502D01*
X010798Y009502D01*
X010959Y009568D01*
X011082Y009692D01*
X011149Y009852D01*
X011149Y010026D01*
X011082Y010187D01*
X011060Y010209D01*
X011783Y010209D01*
X011801Y010207D01*
X011832Y010189D01*
X011851Y010157D01*
X011853Y010139D01*
X011853Y006119D01*
X011751Y006119D01*
X011751Y006122D01*
X011494Y006379D01*
X011129Y006379D01*
X010871Y006122D01*
X010871Y005757D01*
X011129Y005499D01*
X011494Y005499D01*
X011751Y005757D01*
X011751Y005759D01*
X011853Y005759D01*
X011853Y003983D01*
X011935Y003841D01*
X012076Y003759D01*
X012545Y003759D01*
X012587Y003656D01*
X012728Y003515D01*
X012912Y003439D01*
X013111Y003439D01*
X013294Y003515D01*
X013435Y003656D01*
X013511Y003840D01*
X013511Y004039D01*
X013435Y004223D01*
X013294Y004363D01*
X013111Y004439D01*
X012912Y004439D01*
X012728Y004363D01*
X012587Y004223D01*
X012545Y004119D01*
X012213Y004119D01*
X012213Y010255D01*
X012124Y010409D01*
X014481Y010409D01*
X014481Y010338D01*
X014413Y010310D01*
X014290Y010187D01*
X014224Y010026D01*
X014224Y009852D01*
X014290Y009692D01*
X014413Y009568D01*
X014574Y009502D01*
X014748Y009502D01*
X014909Y009568D01*
X015032Y009692D01*
X015099Y009852D01*
X015099Y010026D01*
X015032Y010187D01*
X014909Y010310D01*
X014841Y010338D01*
X014841Y010409D01*
X015571Y010409D01*
X015545Y010365D01*
X015413Y010310D01*
X015290Y010187D01*
X015224Y010026D01*
X015224Y009852D01*
X015290Y009692D01*
X015413Y009568D01*
X015574Y009502D01*
X015748Y009502D01*
X015909Y009568D01*
X016032Y009692D01*
X016099Y009852D01*
X016099Y010026D01*
X016032Y010187D01*
X016010Y010209D01*
X016313Y010209D01*
X016290Y010187D01*
X016224Y010026D01*
X016224Y009852D01*
X016281Y009714D01*
X016281Y006947D01*
X013805Y006947D01*
X013663Y006864D01*
X013581Y006722D01*
X013581Y006641D01*
X013586Y004089D01*
X013586Y003567D01*
X013521Y003503D01*
X013477Y003396D01*
X013477Y003282D01*
X013521Y003175D01*
X013602Y003094D01*
X013709Y003050D01*
X013823Y003050D01*
X013930Y003094D01*
X014006Y003170D01*
X014006Y002743D01*
X014006Y002750D02*
X009891Y002750D01*
X009711Y002743D02*
X009713Y002713D01*
X009718Y002683D01*
X009727Y002654D01*
X009740Y002627D01*
X009755Y002601D01*
X009774Y002577D01*
X009795Y002556D01*
X009819Y002537D01*
X009845Y002522D01*
X009872Y002509D01*
X009901Y002500D01*
X009931Y002495D01*
X009961Y002493D01*
X012655Y002493D01*
X013936Y002493D01*
X013823Y002313D02*
X014051Y002313D01*
X014250Y002428D01*
X014279Y002477D01*
X014279Y002050D01*
X014231Y001935D01*
X014231Y001044D01*
X014304Y000867D01*
X014363Y000809D01*
X014059Y000809D01*
X014118Y000867D01*
X014191Y001044D01*
X014191Y001935D01*
X014118Y002111D01*
X013983Y002246D01*
X013823Y002313D01*
X013955Y002258D02*
X014279Y002258D01*
X014279Y002356D02*
X014127Y002356D01*
X014250Y002428D02*
X014250Y002428D01*
X014250Y002428D01*
X014266Y002455D02*
X014279Y002455D01*
X014639Y002455D02*
X017042Y002455D01*
X017042Y002553D02*
X014639Y002553D01*
X014639Y002652D02*
X017042Y002652D01*
X017042Y002750D02*
X014639Y002750D01*
X014639Y002849D02*
X017042Y002849D01*
X017042Y002947D02*
X014639Y002947D01*
X014639Y003046D02*
X017042Y003046D01*
X017042Y003144D02*
X014639Y003144D01*
X014639Y003243D02*
X017042Y003243D01*
X017042Y003341D02*
X014639Y003341D01*
X014639Y003440D02*
X014911Y003440D01*
X014912Y003439D02*
X015111Y003439D01*
X015294Y003515D01*
X015435Y003656D01*
X015511Y003840D01*
X015511Y004039D01*
X015435Y004223D01*
X015294Y004363D01*
X015111Y004439D01*
X014912Y004439D01*
X014728Y004363D01*
X014639Y004274D01*
X014639Y005376D01*
X015570Y005376D01*
X015635Y005312D01*
X015741Y005268D01*
X015856Y005268D01*
X015962Y005312D01*
X016043Y005393D01*
X016087Y005499D01*
X016087Y005614D01*
X016043Y005720D01*
X015962Y005801D01*
X015856Y005845D01*
X015741Y005845D01*
X015635Y005801D01*
X015570Y005736D01*
X014658Y005736D01*
X014584Y005736D01*
X014502Y005736D01*
X014366Y005657D01*
X014366Y006273D01*
X017017Y006273D01*
X016989Y006262D01*
X016924Y006197D01*
X016505Y006197D01*
X016363Y006115D01*
X016281Y005974D01*
X016281Y003757D01*
X016396Y003558D01*
X016396Y003558D01*
X016396Y003558D01*
X016596Y003442D01*
X016972Y003442D01*
X016990Y003440D01*
X017021Y003422D01*
X017040Y003391D01*
X017042Y003372D01*
X017042Y002188D01*
X016983Y002246D01*
X016807Y002319D01*
X016616Y002319D01*
X016439Y002246D01*
X016304Y002111D01*
X016231Y001935D01*
X016231Y001044D01*
X016304Y000867D01*
X016363Y000809D01*
X016088Y000809D01*
X016093Y000814D01*
X016139Y000877D01*
X016175Y000947D01*
X016199Y001022D01*
X016211Y001100D01*
X016211Y001439D01*
X015761Y001439D01*
X015761Y001539D01*
X016211Y001539D01*
X016211Y001879D01*
X016199Y001956D01*
X016175Y002031D01*
X016139Y002101D01*
X016093Y002165D01*
X016037Y002221D01*
X015973Y002267D01*
X015903Y002303D01*
X015828Y002327D01*
X015761Y002338D01*
X015761Y001539D01*
X015661Y001539D01*
X015661Y001439D01*
X015211Y001439D01*
X015211Y001100D01*
X015224Y001022D01*
X015248Y000947D01*
X015284Y000877D01*
X015330Y000814D01*
X015335Y000809D01*
X015059Y000809D01*
X015118Y000867D01*
X015191Y001044D01*
X015191Y001935D01*
X015118Y002111D01*
X014983Y002246D01*
X014807Y002319D01*
X014639Y002319D01*
X014639Y003605D01*
X014728Y003515D01*
X014912Y003439D01*
X015112Y003440D02*
X016990Y003440D01*
X016972Y003622D02*
X017002Y003620D01*
X017032Y003615D01*
X017061Y003606D01*
X017088Y003593D01*
X017114Y003578D01*
X017138Y003559D01*
X017159Y003538D01*
X017178Y003514D01*
X017193Y003488D01*
X017206Y003461D01*
X017215Y003432D01*
X017220Y003402D01*
X017222Y003372D01*
X017222Y000879D01*
X017462Y000783D02*
X017460Y000744D01*
X017454Y000706D01*
X017445Y000669D01*
X017432Y000632D01*
X017415Y000597D01*
X017396Y000564D01*
X017373Y000533D01*
X017347Y000504D01*
X017318Y000478D01*
X017287Y000455D01*
X017254Y000436D01*
X017219Y000419D01*
X017182Y000406D01*
X017145Y000397D01*
X017107Y000391D01*
X017068Y000389D01*
X011092Y000389D01*
X011092Y000569D02*
X011050Y000573D01*
X010973Y000605D01*
X010914Y000664D01*
X010900Y000698D01*
X010983Y000732D01*
X011118Y000867D01*
X011191Y001044D01*
X011191Y001935D01*
X011118Y002111D01*
X010983Y002246D01*
X010823Y002313D01*
X011599Y002313D01*
X011439Y002246D01*
X011304Y002111D01*
X011231Y001935D01*
X011231Y001044D01*
X011304Y000867D01*
X011439Y000732D01*
X011584Y000673D01*
X011643Y000569D01*
X011167Y000569D01*
X011092Y000569D01*
X011026Y000583D02*
X011635Y000583D01*
X011561Y000682D02*
X010907Y000682D01*
X011031Y000780D02*
X011391Y000780D01*
X011300Y000879D02*
X011123Y000879D01*
X010698Y000783D02*
X010700Y000744D01*
X010706Y000706D01*
X010715Y000669D01*
X010728Y000632D01*
X010745Y000597D01*
X010764Y000564D01*
X010787Y000533D01*
X010813Y000504D01*
X010842Y000478D01*
X010873Y000455D01*
X010906Y000436D01*
X010941Y000419D01*
X010978Y000406D01*
X011015Y000397D01*
X011053Y000391D01*
X011092Y000389D01*
X010595Y000485D02*
X001850Y000485D01*
X001787Y000583D02*
X010554Y000583D01*
X010518Y000682D02*
X009861Y000682D01*
X009807Y000659D02*
X009983Y000732D01*
X010118Y000867D01*
X010191Y001044D01*
X010191Y001935D01*
X010118Y002111D01*
X009983Y002246D01*
X009807Y002319D01*
X009616Y002319D01*
X009439Y002246D01*
X009304Y002111D01*
X009231Y001935D01*
X009231Y001044D01*
X009304Y000867D01*
X009439Y000732D01*
X009616Y000659D01*
X009807Y000659D01*
X009561Y000682D02*
X008861Y000682D01*
X009031Y000780D02*
X009391Y000780D01*
X009300Y000879D02*
X009123Y000879D01*
X009164Y000977D02*
X009259Y000977D01*
X009231Y001076D02*
X009191Y001076D01*
X009191Y001174D02*
X009231Y001174D01*
X009231Y001273D02*
X009191Y001273D01*
X009191Y001371D02*
X009231Y001371D01*
X009231Y001470D02*
X009191Y001470D01*
X009191Y001568D02*
X009231Y001568D01*
X009231Y001667D02*
X009191Y001667D01*
X009191Y001765D02*
X009231Y001765D01*
X009231Y001864D02*
X009191Y001864D01*
X009180Y001962D02*
X009243Y001962D01*
X009283Y002061D02*
X009139Y002061D01*
X009070Y002159D02*
X009352Y002159D01*
X009467Y002258D02*
X008955Y002258D01*
X008467Y002258D02*
X006891Y002258D01*
X006891Y002356D02*
X009770Y002356D01*
X009631Y002455D02*
X006891Y002455D01*
X006891Y002553D02*
X009574Y002553D01*
X009531Y002652D02*
X006891Y002652D01*
X006891Y002750D02*
X009531Y002750D01*
X009531Y002849D02*
X006891Y002849D01*
X006891Y002947D02*
X009531Y002947D01*
X009531Y003046D02*
X006891Y003046D01*
X006891Y003144D02*
X009531Y003144D01*
X009531Y003243D02*
X006891Y003243D01*
X006891Y003341D02*
X009531Y003341D01*
X009531Y003440D02*
X006891Y003440D01*
X006891Y003538D02*
X009531Y003538D01*
X009531Y003637D02*
X006891Y003637D01*
X006891Y003735D02*
X009531Y003735D01*
X009531Y003834D02*
X006891Y003834D01*
X006891Y003932D02*
X007096Y003932D01*
X006997Y004031D02*
X006891Y004031D01*
X006891Y004129D02*
X006899Y004129D01*
X006531Y004129D02*
X004534Y004129D01*
X004633Y004031D02*
X006531Y004031D01*
X006531Y003932D02*
X004685Y003932D01*
X004653Y004011D02*
X004433Y004231D01*
X004146Y004349D01*
X003836Y004349D01*
X003549Y004231D01*
X003330Y004011D01*
X003211Y003725D01*
X003211Y003414D01*
X003330Y003128D01*
X003549Y002908D01*
X003836Y002789D01*
X004146Y002789D01*
X004433Y002908D01*
X004653Y003128D01*
X004771Y003414D01*
X004771Y003725D01*
X004653Y004011D01*
X004726Y003834D02*
X006531Y003834D01*
X006531Y003735D02*
X004767Y003735D01*
X004771Y003637D02*
X006531Y003637D01*
X006531Y003538D02*
X004771Y003538D01*
X004771Y003440D02*
X006531Y003440D01*
X006531Y003341D02*
X004741Y003341D01*
X004700Y003243D02*
X006531Y003243D01*
X006531Y003144D02*
X004659Y003144D01*
X004571Y003046D02*
X006531Y003046D01*
X006531Y002947D02*
X004472Y002947D01*
X004290Y002849D02*
X006531Y002849D01*
X006531Y002750D02*
X001761Y002750D01*
X001761Y002652D02*
X006531Y002652D01*
X006531Y002553D02*
X001761Y002553D01*
X001761Y002455D02*
X006531Y002455D01*
X006531Y002356D02*
X001761Y002356D01*
X001761Y002258D02*
X002648Y002258D01*
X002796Y002319D02*
X002491Y002193D01*
X002258Y001959D01*
X002131Y001654D01*
X002131Y001324D01*
X002258Y001019D01*
X002491Y000786D01*
X002796Y000659D01*
X003126Y000659D01*
X003431Y000786D01*
X003665Y001019D01*
X003791Y001324D01*
X003791Y001654D01*
X003665Y001959D01*
X003431Y002193D01*
X003126Y002319D01*
X002796Y002319D01*
X003275Y002258D02*
X006531Y002258D01*
X006531Y002159D02*
X003465Y002159D01*
X003563Y002061D02*
X006531Y002061D01*
X006531Y001962D02*
X003662Y001962D01*
X003704Y001864D02*
X006531Y001864D01*
X006533Y001765D02*
X003745Y001765D01*
X003786Y001667D02*
X006574Y001667D01*
X006614Y001568D02*
X003791Y001568D01*
X003791Y001470D02*
X006707Y001470D01*
X006841Y001371D02*
X003791Y001371D01*
X003770Y001273D02*
X008231Y001273D01*
X008231Y001174D02*
X003729Y001174D01*
X003688Y001076D02*
X008231Y001076D01*
X008259Y000977D02*
X003623Y000977D01*
X003524Y000879D02*
X008300Y000879D01*
X008391Y000780D02*
X003418Y000780D01*
X003180Y000682D02*
X008561Y000682D01*
X010031Y000780D02*
X010391Y000780D01*
X010300Y000879D02*
X010123Y000879D01*
X010164Y000977D02*
X010259Y000977D01*
X010231Y001076D02*
X010191Y001076D01*
X010191Y001174D02*
X010231Y001174D01*
X010231Y001273D02*
X010191Y001273D01*
X010191Y001371D02*
X010231Y001371D01*
X010231Y001470D02*
X010191Y001470D01*
X010191Y001568D02*
X010231Y001568D01*
X010231Y001667D02*
X010191Y001667D01*
X010191Y001765D02*
X010231Y001765D01*
X010231Y001864D02*
X010191Y001864D01*
X010180Y001962D02*
X010243Y001962D01*
X010283Y002061D02*
X010139Y002061D01*
X010070Y002159D02*
X010352Y002159D01*
X010467Y002258D02*
X009955Y002258D01*
X010955Y002258D02*
X011467Y002258D01*
X011352Y002159D02*
X011070Y002159D01*
X011139Y002061D02*
X011283Y002061D01*
X011243Y001962D02*
X011180Y001962D01*
X011191Y001864D02*
X011231Y001864D01*
X011231Y001765D02*
X011191Y001765D01*
X011191Y001667D02*
X011231Y001667D01*
X011231Y001568D02*
X011191Y001568D01*
X011191Y001470D02*
X011231Y001470D01*
X011231Y001371D02*
X011191Y001371D01*
X011191Y001273D02*
X011231Y001273D01*
X011231Y001174D02*
X011191Y001174D01*
X011191Y001076D02*
X011231Y001076D01*
X011259Y000977D02*
X011164Y000977D01*
X011711Y000879D02*
X011711Y001489D01*
X012191Y001470D02*
X012231Y001470D01*
X012231Y001568D02*
X012191Y001568D01*
X012191Y001667D02*
X012231Y001667D01*
X012231Y001765D02*
X012191Y001765D01*
X012191Y001864D02*
X012231Y001864D01*
X012231Y001935D02*
X012231Y001044D01*
X012304Y000867D01*
X012363Y000809D01*
X012059Y000809D01*
X012118Y000867D01*
X012191Y001044D01*
X012191Y001935D01*
X012118Y002111D01*
X011983Y002246D01*
X011823Y002313D01*
X012475Y002313D01*
X012475Y002261D01*
X012439Y002246D01*
X012304Y002111D01*
X012231Y001935D01*
X012243Y001962D02*
X012180Y001962D01*
X012139Y002061D02*
X012283Y002061D01*
X012352Y002159D02*
X012070Y002159D01*
X011955Y002258D02*
X012467Y002258D01*
X012835Y002308D02*
X012835Y002313D01*
X013599Y002313D01*
X013439Y002246D01*
X013304Y002111D01*
X013231Y001935D01*
X013231Y001044D01*
X013304Y000867D01*
X013363Y000809D01*
X013059Y000809D01*
X013118Y000867D01*
X013191Y001044D01*
X013191Y001935D01*
X013118Y002111D01*
X012983Y002246D01*
X012835Y002308D01*
X012955Y002258D02*
X013467Y002258D01*
X013352Y002159D02*
X013070Y002159D01*
X013139Y002061D02*
X013283Y002061D01*
X013243Y001962D02*
X013180Y001962D01*
X013191Y001864D02*
X013231Y001864D01*
X013231Y001765D02*
X013191Y001765D01*
X013191Y001667D02*
X013231Y001667D01*
X013231Y001568D02*
X013191Y001568D01*
X013191Y001470D02*
X013231Y001470D01*
X013231Y001371D02*
X013191Y001371D01*
X013191Y001273D02*
X013231Y001273D01*
X013231Y001174D02*
X013191Y001174D01*
X013191Y001076D02*
X013231Y001076D01*
X013259Y000977D02*
X013164Y000977D01*
X013123Y000879D02*
X013300Y000879D01*
X014123Y000879D02*
X014300Y000879D01*
X014259Y000977D02*
X014164Y000977D01*
X014191Y001076D02*
X014231Y001076D01*
X014231Y001174D02*
X014191Y001174D01*
X014191Y001273D02*
X014231Y001273D01*
X014231Y001371D02*
X014191Y001371D01*
X014191Y001470D02*
X014231Y001470D01*
X014231Y001568D02*
X014191Y001568D01*
X014191Y001667D02*
X014231Y001667D01*
X014231Y001765D02*
X014191Y001765D01*
X014191Y001864D02*
X014231Y001864D01*
X014243Y001962D02*
X014180Y001962D01*
X014139Y002061D02*
X014279Y002061D01*
X014279Y002159D02*
X014070Y002159D01*
X014639Y002356D02*
X017042Y002356D01*
X017042Y002258D02*
X016955Y002258D01*
X016467Y002258D02*
X015986Y002258D01*
X016097Y002159D02*
X016352Y002159D01*
X016283Y002061D02*
X016160Y002061D01*
X016197Y001962D02*
X016243Y001962D01*
X016231Y001864D02*
X016211Y001864D01*
X016211Y001765D02*
X016231Y001765D01*
X016231Y001667D02*
X016211Y001667D01*
X016211Y001568D02*
X016231Y001568D01*
X016231Y001470D02*
X015761Y001470D01*
X015761Y001568D02*
X015661Y001568D01*
X015661Y001539D02*
X015661Y002338D01*
X015594Y002327D01*
X015519Y002303D01*
X015449Y002267D01*
X015386Y002221D01*
X015330Y002165D01*
X015284Y002101D01*
X015248Y002031D01*
X015224Y001956D01*
X015211Y001879D01*
X015211Y001539D01*
X015661Y001539D01*
X015661Y001470D02*
X015191Y001470D01*
X015191Y001568D02*
X015211Y001568D01*
X015211Y001667D02*
X015191Y001667D01*
X015191Y001765D02*
X015211Y001765D01*
X015211Y001864D02*
X015191Y001864D01*
X015180Y001962D02*
X015225Y001962D01*
X015263Y002061D02*
X015139Y002061D01*
X015070Y002159D02*
X015326Y002159D01*
X015437Y002258D02*
X014955Y002258D01*
X015661Y002258D02*
X015761Y002258D01*
X015761Y002159D02*
X015661Y002159D01*
X015661Y002061D02*
X015761Y002061D01*
X015761Y001962D02*
X015661Y001962D01*
X015661Y001864D02*
X015761Y001864D01*
X015761Y001765D02*
X015661Y001765D01*
X015661Y001667D02*
X015761Y001667D01*
X016211Y001371D02*
X016231Y001371D01*
X016231Y001273D02*
X016211Y001273D01*
X016211Y001174D02*
X016231Y001174D01*
X016231Y001076D02*
X016207Y001076D01*
X016184Y000977D02*
X016259Y000977D01*
X016300Y000879D02*
X016140Y000879D01*
X016972Y000629D02*
X017002Y000631D01*
X017032Y000636D01*
X017061Y000645D01*
X017088Y000658D01*
X017114Y000673D01*
X017138Y000692D01*
X017159Y000713D01*
X017178Y000737D01*
X017193Y000763D01*
X017206Y000790D01*
X017215Y000819D01*
X017220Y000849D01*
X017222Y000879D01*
X016972Y000629D02*
X011961Y000629D01*
X011931Y000631D01*
X011901Y000636D01*
X011872Y000645D01*
X011845Y000658D01*
X011819Y000673D01*
X011795Y000692D01*
X011774Y000713D01*
X011755Y000737D01*
X011740Y000763D01*
X011727Y000790D01*
X011718Y000819D01*
X011713Y000849D01*
X011711Y000879D01*
X012123Y000879D02*
X012300Y000879D01*
X012259Y000977D02*
X012164Y000977D01*
X012191Y001076D02*
X012231Y001076D01*
X012231Y001174D02*
X012191Y001174D01*
X012191Y001273D02*
X012231Y001273D01*
X012231Y001371D02*
X012191Y001371D01*
X012661Y001489D02*
X012711Y001489D01*
X012661Y001489D02*
X012655Y001771D01*
X012655Y002493D01*
X013936Y002493D02*
X013966Y002495D01*
X013996Y002500D01*
X014025Y002509D01*
X014052Y002522D01*
X014078Y002537D01*
X014102Y002556D01*
X014123Y002577D01*
X014142Y002601D01*
X014157Y002627D01*
X014170Y002654D01*
X014179Y002683D01*
X014184Y002713D01*
X014186Y002743D01*
X014006Y002849D02*
X009891Y002849D01*
X009891Y002947D02*
X014006Y002947D01*
X014006Y003046D02*
X009891Y003046D01*
X009891Y003144D02*
X013552Y003144D01*
X013493Y003243D02*
X009891Y003243D01*
X009891Y003341D02*
X013477Y003341D01*
X013495Y003440D02*
X013112Y003440D01*
X012911Y003440D02*
X009891Y003440D01*
X009891Y003538D02*
X012705Y003538D01*
X012607Y003637D02*
X009891Y003637D01*
X009891Y003735D02*
X012555Y003735D01*
X011947Y003834D02*
X009891Y003834D01*
X009891Y003932D02*
X011096Y003932D01*
X011129Y003899D02*
X010871Y004157D01*
X010871Y004522D01*
X011129Y004779D01*
X011494Y004779D01*
X011751Y004522D01*
X011751Y004157D01*
X011494Y003899D01*
X011129Y003899D01*
X010997Y004031D02*
X009891Y004031D01*
X009891Y004129D02*
X010899Y004129D01*
X010871Y004228D02*
X009891Y004228D01*
X009891Y004326D02*
X010871Y004326D01*
X010871Y004425D02*
X009891Y004425D01*
X009891Y004523D02*
X010873Y004523D01*
X010972Y004622D02*
X009891Y004622D01*
X009891Y004720D02*
X011070Y004720D01*
X011553Y004720D02*
X011853Y004720D01*
X011853Y004622D02*
X011651Y004622D01*
X011750Y004523D02*
X011853Y004523D01*
X011853Y004425D02*
X011751Y004425D01*
X011751Y004326D02*
X011853Y004326D01*
X011853Y004228D02*
X011751Y004228D01*
X011724Y004129D02*
X011853Y004129D01*
X011853Y004031D02*
X011625Y004031D01*
X011527Y003932D02*
X011882Y003932D01*
X011935Y003841D02*
X011935Y003841D01*
X011935Y003841D01*
X012158Y003939D02*
X013011Y003939D01*
X012549Y004129D02*
X012213Y004129D01*
X012033Y004064D02*
X012035Y004044D01*
X012039Y004025D01*
X012047Y004007D01*
X012057Y003991D01*
X012070Y003976D01*
X012085Y003963D01*
X012101Y003953D01*
X012119Y003945D01*
X012138Y003941D01*
X012158Y003939D01*
X012033Y004064D02*
X012033Y005939D01*
X011311Y005939D01*
X010871Y005902D02*
X009891Y005902D01*
X009891Y005804D02*
X010871Y005804D01*
X010923Y005705D02*
X009891Y005705D01*
X009891Y005607D02*
X011021Y005607D01*
X011120Y005508D02*
X009891Y005508D01*
X009891Y005410D02*
X011853Y005410D01*
X011853Y005508D02*
X011503Y005508D01*
X011601Y005607D02*
X011853Y005607D01*
X011853Y005705D02*
X011700Y005705D01*
X012213Y005705D02*
X013583Y005705D01*
X013583Y005607D02*
X012213Y005607D01*
X012213Y005508D02*
X013583Y005508D01*
X013584Y005410D02*
X012213Y005410D01*
X012213Y005311D02*
X013584Y005311D01*
X013584Y005213D02*
X012213Y005213D01*
X012213Y005114D02*
X013584Y005114D01*
X013584Y005016D02*
X012213Y005016D01*
X012213Y004917D02*
X013585Y004917D01*
X013585Y004819D02*
X012213Y004819D01*
X012213Y004720D02*
X013585Y004720D01*
X013585Y004622D02*
X012213Y004622D01*
X012213Y004523D02*
X013585Y004523D01*
X013585Y004425D02*
X013146Y004425D01*
X013331Y004326D02*
X013586Y004326D01*
X013586Y004228D02*
X013430Y004228D01*
X013474Y004129D02*
X013586Y004129D01*
X013586Y004031D02*
X013511Y004031D01*
X013511Y003932D02*
X013586Y003932D01*
X013586Y003834D02*
X013509Y003834D01*
X013468Y003735D02*
X013586Y003735D01*
X013586Y003637D02*
X013416Y003637D01*
X013317Y003538D02*
X013557Y003538D01*
X013946Y003567D02*
X013946Y004015D01*
X013946Y004015D01*
X013946Y004090D01*
X013946Y004164D01*
X013946Y004164D01*
X013942Y006567D01*
X013942Y006587D01*
X014148Y006587D01*
X014087Y006551D01*
X014006Y006410D01*
X014006Y003508D01*
X013946Y003567D01*
X013975Y003538D02*
X014006Y003538D01*
X014006Y003637D02*
X013946Y003637D01*
X013946Y003735D02*
X014006Y003735D01*
X014006Y003834D02*
X013946Y003834D01*
X013946Y003932D02*
X014006Y003932D01*
X014006Y004031D02*
X013946Y004031D01*
X013946Y004129D02*
X014006Y004129D01*
X014006Y004228D02*
X013946Y004228D01*
X013946Y004326D02*
X014006Y004326D01*
X014006Y004425D02*
X013945Y004425D01*
X013945Y004523D02*
X014006Y004523D01*
X014006Y004622D02*
X013945Y004622D01*
X013945Y004720D02*
X014006Y004720D01*
X014006Y004819D02*
X013945Y004819D01*
X013945Y004917D02*
X014006Y004917D01*
X014006Y005016D02*
X013944Y005016D01*
X013944Y005114D02*
X014006Y005114D01*
X014006Y005213D02*
X013944Y005213D01*
X013944Y005311D02*
X014006Y005311D01*
X014006Y005410D02*
X013944Y005410D01*
X013943Y005508D02*
X014006Y005508D01*
X014006Y005607D02*
X013943Y005607D01*
X013943Y005705D02*
X014006Y005705D01*
X014006Y005804D02*
X013943Y005804D01*
X013943Y005902D02*
X014006Y005902D01*
X014006Y006001D02*
X013943Y006001D01*
X013942Y006099D02*
X014006Y006099D01*
X014006Y006198D02*
X013942Y006198D01*
X013942Y006296D02*
X014006Y006296D01*
X014006Y006395D02*
X013942Y006395D01*
X013942Y006493D02*
X014054Y006493D01*
X014087Y006551D02*
X014087Y006551D01*
X014087Y006551D01*
X013942Y006567D02*
X013942Y006567D01*
X013761Y006642D02*
X013762Y006661D01*
X013767Y006680D01*
X013774Y006698D01*
X013785Y006715D01*
X013797Y006730D01*
X013812Y006743D01*
X013829Y006753D01*
X013847Y006761D01*
X013866Y006765D01*
X013886Y006767D01*
X016336Y006767D01*
X016356Y006769D01*
X016375Y006773D01*
X016393Y006781D01*
X016409Y006791D01*
X016424Y006804D01*
X016437Y006819D01*
X016447Y006835D01*
X016455Y006853D01*
X016459Y006872D01*
X016461Y006892D01*
X016461Y009886D01*
X016661Y009889D01*
X016661Y009939D01*
X016224Y009941D02*
X016099Y009941D01*
X016093Y010039D02*
X016229Y010039D01*
X016270Y010138D02*
X016053Y010138D01*
X015911Y010389D02*
X015881Y010387D01*
X015851Y010382D01*
X015822Y010373D01*
X015795Y010360D01*
X015769Y010345D01*
X015745Y010326D01*
X015724Y010305D01*
X015705Y010281D01*
X015690Y010255D01*
X015677Y010228D01*
X015668Y010199D01*
X015663Y010169D01*
X015661Y010139D01*
X015661Y009939D01*
X015224Y009941D02*
X015099Y009941D01*
X015093Y010039D02*
X015229Y010039D01*
X015270Y010138D02*
X015053Y010138D01*
X014983Y010236D02*
X015340Y010236D01*
X015473Y010335D02*
X014850Y010335D01*
X014473Y010335D02*
X014091Y010335D01*
X014089Y010339D02*
X014061Y010367D01*
X014027Y010387D01*
X013988Y010397D01*
X013690Y010397D01*
X013690Y009968D01*
X014119Y009968D01*
X014119Y010267D01*
X014109Y010305D01*
X014089Y010339D01*
X014119Y010236D02*
X014340Y010236D01*
X014270Y010138D02*
X014119Y010138D01*
X014119Y010039D02*
X014229Y010039D01*
X014224Y009941D02*
X013690Y009941D01*
X013690Y009968D02*
X013690Y009911D01*
X014119Y009911D01*
X014119Y009612D01*
X014109Y009574D01*
X014089Y009540D01*
X014061Y009512D01*
X014027Y009492D01*
X013988Y009482D01*
X013690Y009482D01*
X013690Y009911D01*
X013633Y009911D01*
X013633Y009482D01*
X013334Y009482D01*
X013296Y009492D01*
X013262Y009512D01*
X013234Y009540D01*
X013214Y009574D01*
X013204Y009612D01*
X013204Y009911D01*
X013633Y009911D01*
X013633Y009968D01*
X013633Y010397D01*
X013334Y010397D01*
X013296Y010387D01*
X013262Y010367D01*
X013234Y010339D01*
X013214Y010305D01*
X013204Y010267D01*
X013204Y009968D01*
X013633Y009968D01*
X013690Y009968D01*
X013633Y009941D02*
X012213Y009941D01*
X012213Y010039D02*
X013204Y010039D01*
X013204Y010138D02*
X012213Y010138D01*
X012213Y010236D02*
X013204Y010236D01*
X013231Y010335D02*
X012167Y010335D01*
X011783Y010389D02*
X007464Y010389D01*
X007123Y010409D02*
X007034Y010254D01*
X007034Y010236D01*
X006959Y010310D01*
X006934Y010321D01*
X006986Y010373D01*
X007063Y010405D01*
X007105Y010409D01*
X007123Y010409D01*
X007080Y010335D02*
X006948Y010335D01*
X007034Y010254D02*
X007034Y010254D01*
X007033Y010236D02*
X007034Y010236D01*
X006711Y010196D02*
X006713Y010235D01*
X006719Y010273D01*
X006728Y010310D01*
X006741Y010347D01*
X006758Y010382D01*
X006777Y010415D01*
X006800Y010446D01*
X006826Y010475D01*
X006855Y010501D01*
X006886Y010524D01*
X006919Y010543D01*
X006954Y010560D01*
X006991Y010573D01*
X007028Y010582D01*
X007066Y010588D01*
X007105Y010590D01*
X007105Y010589D02*
X014661Y010589D01*
X022652Y010589D01*
X030183Y010589D01*
X030183Y010409D02*
X030141Y010409D01*
X030241Y010237D01*
X030313Y010310D01*
X030349Y010325D01*
X030301Y010373D01*
X030224Y010405D01*
X030183Y010409D01*
X030184Y010335D02*
X030340Y010335D01*
X030577Y010196D02*
X030575Y010235D01*
X030569Y010273D01*
X030560Y010310D01*
X030547Y010347D01*
X030530Y010382D01*
X030511Y010415D01*
X030488Y010446D01*
X030462Y010475D01*
X030433Y010501D01*
X030402Y010524D01*
X030369Y010543D01*
X030334Y010560D01*
X030297Y010573D01*
X030260Y010582D01*
X030222Y010588D01*
X030183Y010590D01*
X030394Y010729D02*
X036227Y010729D01*
X036291Y010793D02*
X036058Y010559D01*
X035931Y010254D01*
X035931Y009924D01*
X036058Y009619D01*
X036291Y009386D01*
X036596Y009259D01*
X036926Y009259D01*
X037231Y009386D01*
X037465Y009619D01*
X037591Y009924D01*
X037591Y010254D01*
X037465Y010559D01*
X037231Y010793D01*
X036926Y010919D01*
X036596Y010919D01*
X036291Y010793D01*
X036374Y010827D02*
X003287Y010827D01*
X003370Y010793D02*
X003065Y010919D01*
X002735Y010919D01*
X002430Y010793D01*
X002196Y010559D01*
X002070Y010254D01*
X002070Y009924D01*
X002196Y009619D01*
X002430Y009386D01*
X002735Y009259D01*
X003065Y009259D01*
X003370Y009386D01*
X003603Y009619D01*
X003730Y009924D01*
X003730Y010254D01*
X003603Y010559D01*
X003370Y010793D01*
X003434Y010729D02*
X006893Y010729D01*
X006728Y010630D02*
X003533Y010630D01*
X003615Y010532D02*
X006630Y010532D01*
X006582Y010433D02*
X003656Y010433D01*
X003696Y010335D02*
X005281Y010335D01*
X005284Y010339D02*
X005264Y010305D01*
X005254Y010267D01*
X005254Y009968D01*
X005683Y009968D01*
X005683Y010397D01*
X005384Y010397D01*
X005346Y010387D01*
X005312Y010367D01*
X005284Y010339D01*
X005254Y010236D02*
X003730Y010236D01*
X003730Y010138D02*
X005254Y010138D01*
X005254Y010039D02*
X003730Y010039D01*
X003730Y009941D02*
X005683Y009941D01*
X005683Y009968D02*
X005683Y009911D01*
X005740Y009911D01*
X005740Y009968D01*
X006169Y009968D01*
X006169Y010267D01*
X006159Y010305D01*
X006139Y010339D01*
X006111Y010367D01*
X006077Y010387D01*
X006038Y010397D01*
X005740Y010397D01*
X005740Y009968D01*
X005683Y009968D01*
X005683Y009911D02*
X005254Y009911D01*
X005254Y009612D01*
X005264Y009574D01*
X005284Y009540D01*
X005312Y009512D01*
X005346Y009492D01*
X005384Y009482D01*
X005683Y009482D01*
X005683Y009911D01*
X005740Y009911D02*
X005740Y009482D01*
X006038Y009482D01*
X006077Y009492D01*
X006111Y009512D01*
X006139Y009540D01*
X006159Y009574D01*
X006169Y009612D01*
X006169Y009911D01*
X005740Y009911D01*
X005740Y009941D02*
X006274Y009941D01*
X006279Y010039D02*
X006169Y010039D01*
X006169Y010138D02*
X006320Y010138D01*
X006390Y010236D02*
X006169Y010236D01*
X006141Y010335D02*
X006523Y010335D01*
X006711Y010196D02*
X006711Y009939D01*
X006711Y001883D01*
X006893Y001864D02*
X008231Y001864D01*
X008231Y001765D02*
X006927Y001765D01*
X006891Y001962D02*
X008243Y001962D01*
X008283Y002061D02*
X006891Y002061D01*
X006891Y002159D02*
X008352Y002159D01*
X007105Y001489D02*
X007066Y001491D01*
X007028Y001497D01*
X006991Y001506D01*
X006954Y001519D01*
X006919Y001536D01*
X006886Y001555D01*
X006855Y001578D01*
X006826Y001604D01*
X006800Y001633D01*
X006777Y001664D01*
X006758Y001697D01*
X006741Y001732D01*
X006728Y001769D01*
X006719Y001806D01*
X006713Y001844D01*
X006711Y001883D01*
X007105Y001489D02*
X008711Y001489D01*
X010698Y001489D02*
X010711Y001489D01*
X010698Y001489D02*
X010698Y000783D01*
X014459Y001390D02*
X014722Y001390D01*
X014722Y001489D01*
X014711Y001489D01*
X014459Y001390D02*
X014459Y005431D01*
X014461Y005453D01*
X014467Y005474D01*
X014476Y005493D01*
X014488Y005511D01*
X014504Y005527D01*
X014521Y005539D01*
X014541Y005548D01*
X014562Y005554D01*
X014584Y005556D01*
X015798Y005556D01*
X016049Y005705D02*
X016281Y005705D01*
X016281Y005607D02*
X016087Y005607D01*
X016087Y005508D02*
X016281Y005508D01*
X016281Y005410D02*
X016050Y005410D01*
X015962Y005311D02*
X016281Y005311D01*
X016281Y005213D02*
X014639Y005213D01*
X014639Y005311D02*
X015635Y005311D01*
X016281Y005114D02*
X014639Y005114D01*
X014639Y005016D02*
X016281Y005016D01*
X016281Y004917D02*
X014639Y004917D01*
X014639Y004819D02*
X016281Y004819D01*
X016281Y004720D02*
X014639Y004720D01*
X014639Y004622D02*
X016281Y004622D01*
X016281Y004523D02*
X014639Y004523D01*
X014639Y004425D02*
X014877Y004425D01*
X014691Y004326D02*
X014639Y004326D01*
X015146Y004425D02*
X016281Y004425D01*
X016281Y004326D02*
X015331Y004326D01*
X015430Y004228D02*
X016281Y004228D01*
X016281Y004129D02*
X015474Y004129D01*
X015511Y004031D02*
X016281Y004031D01*
X016281Y003932D02*
X015511Y003932D01*
X015509Y003834D02*
X016281Y003834D01*
X016294Y003735D02*
X015468Y003735D01*
X015416Y003637D02*
X016351Y003637D01*
X016430Y003538D02*
X015317Y003538D01*
X014705Y003538D02*
X014639Y003538D01*
X014006Y003144D02*
X013980Y003144D01*
X013766Y003339D02*
X013766Y004089D01*
X013761Y006641D01*
X013582Y006592D02*
X012213Y006592D01*
X012213Y006690D02*
X013581Y006690D01*
X013581Y006722D02*
X013581Y006722D01*
X013619Y006789D02*
X012213Y006789D01*
X012213Y006887D02*
X013702Y006887D01*
X013663Y006864D02*
X013663Y006864D01*
X013663Y006864D01*
X013582Y006493D02*
X012213Y006493D01*
X012213Y006395D02*
X013582Y006395D01*
X013582Y006296D02*
X012213Y006296D01*
X012213Y006198D02*
X013582Y006198D01*
X013582Y006099D02*
X012213Y006099D01*
X012213Y006001D02*
X013583Y006001D01*
X013583Y005902D02*
X012213Y005902D01*
X012213Y005804D02*
X013583Y005804D01*
X014366Y005804D02*
X015641Y005804D01*
X015955Y005804D02*
X016281Y005804D01*
X016281Y005902D02*
X014366Y005902D01*
X014366Y006001D02*
X016297Y006001D01*
X016354Y006099D02*
X014366Y006099D01*
X014366Y006198D02*
X016925Y006198D01*
X017153Y006017D02*
X016586Y006017D01*
X016363Y006115D02*
X016363Y006115D01*
X016363Y006115D01*
X016461Y005892D02*
X016461Y003872D01*
X016463Y003842D01*
X016468Y003812D01*
X016477Y003783D01*
X016490Y003756D01*
X016505Y003730D01*
X016524Y003706D01*
X016545Y003685D01*
X016569Y003666D01*
X016595Y003651D01*
X016622Y003638D01*
X016651Y003629D01*
X016681Y003624D01*
X016711Y003622D01*
X016972Y003622D01*
X017185Y003746D02*
X017210Y003756D01*
X017281Y003827D01*
X017281Y003690D01*
X017185Y003746D01*
X017203Y003735D02*
X017281Y003735D01*
X017641Y003735D02*
X017763Y003735D01*
X017641Y003637D02*
X019781Y003637D01*
X019781Y003538D02*
X018215Y003538D01*
X017908Y003538D02*
X017641Y003538D01*
X017641Y003440D02*
X017811Y003440D01*
X017773Y003341D02*
X017641Y003341D01*
X017641Y003243D02*
X017773Y003243D01*
X017809Y003144D02*
X017641Y003144D01*
X017641Y003046D02*
X017896Y003046D01*
X017641Y002947D02*
X024767Y002947D01*
X024767Y002849D02*
X017641Y002849D01*
X017641Y002750D02*
X024767Y002750D01*
X024767Y002652D02*
X017641Y002652D01*
X017641Y002553D02*
X018275Y002553D01*
X018176Y002455D02*
X017641Y002455D01*
X017641Y002356D02*
X018101Y002356D01*
X018101Y002258D02*
X017641Y002258D01*
X018531Y002258D02*
X018591Y002258D01*
X018591Y002356D02*
X018531Y002356D01*
X018531Y002455D02*
X018591Y002455D01*
X018591Y002553D02*
X018531Y002553D01*
X018848Y002553D02*
X020275Y002553D01*
X020176Y002455D02*
X018946Y002455D01*
X019021Y002356D02*
X020101Y002356D01*
X020101Y002258D02*
X019021Y002258D01*
X019021Y002061D02*
X020101Y002061D01*
X020138Y001962D02*
X018985Y001962D01*
X018886Y001864D02*
X020236Y001864D01*
X020886Y001864D02*
X022226Y001864D01*
X022286Y001962D02*
X020985Y001962D01*
X021021Y002061D02*
X022393Y002061D01*
X022661Y002154D02*
X022661Y001689D01*
X022627Y001681D01*
X018811Y001681D01*
X018903Y001470D02*
X020220Y001470D01*
X020121Y001371D02*
X019001Y001371D01*
X019001Y001273D02*
X020121Y001273D01*
X020121Y001174D02*
X019001Y001174D01*
X019001Y001076D02*
X020121Y001076D01*
X020151Y000977D02*
X018972Y000977D01*
X018873Y000879D02*
X020250Y000879D01*
X020348Y000780D02*
X018775Y000780D01*
X017641Y000682D02*
X036592Y000682D01*
X037030Y000682D02*
X037931Y000682D01*
X037931Y000689D02*
X037931Y010885D01*
X037926Y010944D01*
X037881Y011052D01*
X037798Y011135D01*
X037690Y011180D01*
X037631Y011185D01*
X002061Y011185D01*
X002003Y011180D01*
X001895Y011135D01*
X001812Y011052D01*
X001767Y010944D01*
X001761Y010885D01*
X001761Y000689D01*
X001767Y000631D01*
X001762Y000682D02*
X002742Y000682D01*
X002504Y000780D02*
X001761Y000780D01*
X001761Y000879D02*
X002398Y000879D01*
X002300Y000977D02*
X001761Y000977D01*
X001761Y001076D02*
X002234Y001076D01*
X002193Y001174D02*
X001761Y001174D01*
X001761Y001273D02*
X002153Y001273D01*
X002131Y001371D02*
X001761Y001371D01*
X001761Y001470D02*
X002131Y001470D01*
X002131Y001568D02*
X001761Y001568D01*
X001761Y001667D02*
X002136Y001667D01*
X002177Y001765D02*
X001761Y001765D01*
X001761Y001864D02*
X002218Y001864D01*
X002261Y001962D02*
X001761Y001962D01*
X001761Y002061D02*
X002359Y002061D01*
X002458Y002159D02*
X001761Y002159D01*
X001761Y002849D02*
X003692Y002849D01*
X003510Y002947D02*
X001761Y002947D01*
X001761Y003046D02*
X003412Y003046D01*
X003323Y003144D02*
X001761Y003144D01*
X001761Y003243D02*
X003282Y003243D01*
X003241Y003341D02*
X001761Y003341D01*
X001761Y003440D02*
X003211Y003440D01*
X003211Y003538D02*
X001761Y003538D01*
X001761Y003637D02*
X003211Y003637D01*
X003216Y003735D02*
X001761Y003735D01*
X001761Y003834D02*
X003257Y003834D01*
X003297Y003932D02*
X001761Y003932D01*
X001761Y004031D02*
X003350Y004031D01*
X003448Y004129D02*
X001761Y004129D01*
X001761Y004228D02*
X003547Y004228D01*
X003781Y004326D02*
X001761Y004326D01*
X001761Y004425D02*
X006531Y004425D01*
X006531Y004523D02*
X001761Y004523D01*
X001761Y004622D02*
X006531Y004622D01*
X006531Y004720D02*
X001761Y004720D01*
X001761Y004819D02*
X006531Y004819D01*
X006531Y004917D02*
X001761Y004917D01*
X001761Y005016D02*
X004851Y005016D01*
X004877Y005002D02*
X004949Y004979D01*
X005021Y004968D01*
X005021Y005407D01*
X004582Y005407D01*
X004593Y005335D01*
X004616Y005263D01*
X004651Y005196D01*
X004695Y005135D01*
X004749Y005081D01*
X004810Y005037D01*
X004877Y005002D01*
X005021Y005016D02*
X005101Y005016D01*
X005101Y004968D02*
X005174Y004979D01*
X005246Y005002D01*
X005313Y005037D01*
X005374Y005081D01*
X005427Y005135D01*
X005459Y005179D01*
X005581Y005057D01*
X005750Y004987D01*
X005933Y004987D01*
X006102Y005057D01*
X006231Y005187D01*
X006301Y005356D01*
X006301Y005539D01*
X006231Y005708D01*
X006102Y005837D01*
X005933Y005907D01*
X005750Y005907D01*
X005581Y005837D01*
X005459Y005716D01*
X005427Y005760D01*
X005374Y005813D01*
X005313Y005858D01*
X005246Y005892D01*
X005174Y005915D01*
X005101Y005927D01*
X005101Y005487D01*
X005021Y005487D01*
X005021Y005407D01*
X005101Y005407D01*
X005101Y004968D01*
X005272Y005016D02*
X005681Y005016D01*
X005524Y005114D02*
X005407Y005114D01*
X005101Y005114D02*
X005021Y005114D01*
X005021Y005213D02*
X005101Y005213D01*
X005101Y005311D02*
X005021Y005311D01*
X005021Y005410D02*
X001761Y005410D01*
X001761Y005508D02*
X004585Y005508D01*
X004582Y005487D02*
X005021Y005487D01*
X005021Y005927D01*
X004949Y005915D01*
X004877Y005892D01*
X004810Y005858D01*
X004749Y005813D01*
X004695Y005760D01*
X004651Y005699D01*
X004616Y005631D01*
X004593Y005560D01*
X004582Y005487D01*
X004608Y005607D02*
X001761Y005607D01*
X001761Y005705D02*
X004655Y005705D01*
X004739Y005804D02*
X001761Y005804D01*
X001761Y005902D02*
X004909Y005902D01*
X004970Y005971D02*
X005153Y005971D01*
X005322Y006042D01*
X005451Y006171D01*
X005451Y006171D01*
X005451Y006171D01*
X005581Y006042D01*
X005750Y005971D01*
X005933Y005971D01*
X006102Y006042D01*
X006231Y006171D01*
X006301Y006340D01*
X006301Y006523D01*
X006231Y006692D01*
X006102Y006821D01*
X005933Y006891D01*
X005750Y006891D01*
X005581Y006821D01*
X005451Y006692D01*
X005322Y006821D01*
X005153Y006891D01*
X004970Y006891D01*
X004801Y006821D01*
X004671Y006692D01*
X004601Y006523D01*
X004601Y006340D01*
X004671Y006171D01*
X004801Y006042D01*
X004970Y005971D01*
X004899Y006001D02*
X001761Y006001D01*
X001761Y006099D02*
X004743Y006099D01*
X004660Y006198D02*
X001761Y006198D01*
X001761Y006296D02*
X004619Y006296D01*
X004601Y006395D02*
X001761Y006395D01*
X001761Y006493D02*
X004601Y006493D01*
X004630Y006592D02*
X001761Y006592D01*
X001761Y006690D02*
X004671Y006690D01*
X004768Y006789D02*
X001761Y006789D01*
X001761Y006887D02*
X004960Y006887D01*
X005163Y006887D02*
X005740Y006887D01*
X005943Y006887D02*
X006531Y006887D01*
X006531Y006789D02*
X006134Y006789D01*
X006232Y006690D02*
X006531Y006690D01*
X006531Y006592D02*
X006273Y006592D01*
X006301Y006493D02*
X006531Y006493D01*
X006531Y006395D02*
X006301Y006395D01*
X006283Y006296D02*
X006531Y006296D01*
X006531Y006198D02*
X006242Y006198D01*
X006160Y006099D02*
X006531Y006099D01*
X006531Y006001D02*
X006004Y006001D01*
X005944Y005902D02*
X006531Y005902D01*
X006531Y005804D02*
X006135Y005804D01*
X006232Y005705D02*
X006531Y005705D01*
X006531Y005607D02*
X006273Y005607D01*
X006301Y005508D02*
X006531Y005508D01*
X006531Y005410D02*
X006301Y005410D01*
X006283Y005311D02*
X006531Y005311D01*
X006531Y005213D02*
X006242Y005213D01*
X006159Y005114D02*
X006531Y005114D01*
X006531Y005016D02*
X006002Y005016D01*
X006891Y005016D02*
X007202Y005016D01*
X007246Y005094D02*
X007131Y004894D01*
X007131Y004779D01*
X007129Y004779D01*
X006891Y004542D01*
X006891Y005737D01*
X007129Y005499D01*
X007136Y005499D01*
X007246Y005307D01*
X007246Y005307D01*
X007246Y005307D01*
X007432Y005200D01*
X007246Y005094D01*
X007246Y005094D01*
X007283Y005114D02*
X006891Y005114D01*
X006891Y005213D02*
X007410Y005213D01*
X007244Y005311D02*
X006891Y005311D01*
X006891Y005410D02*
X007187Y005410D01*
X007120Y005508D02*
X006891Y005508D01*
X006891Y005607D02*
X007021Y005607D01*
X006923Y005705D02*
X006891Y005705D01*
X007311Y005622D02*
X007311Y005939D01*
X007751Y005902D02*
X009531Y005902D01*
X009531Y005804D02*
X007751Y005804D01*
X007751Y005757D02*
X007751Y006122D01*
X007494Y006379D01*
X007129Y006379D01*
X006891Y006142D01*
X006891Y007337D01*
X007129Y007099D01*
X007494Y007099D01*
X007751Y007357D01*
X007751Y007722D01*
X007494Y007979D01*
X007391Y007979D01*
X007393Y009639D01*
X007463Y009568D01*
X007624Y009502D01*
X007798Y009502D01*
X007959Y009568D01*
X008082Y009692D01*
X008149Y009852D01*
X008149Y010026D01*
X008082Y010187D01*
X008060Y010209D01*
X008363Y010209D01*
X008340Y010187D01*
X008274Y010026D01*
X008274Y009852D01*
X008340Y009692D01*
X008463Y009568D01*
X008624Y009502D01*
X008798Y009502D01*
X008959Y009568D01*
X009082Y009692D01*
X009149Y009852D01*
X009149Y010026D01*
X009082Y010187D01*
X009060Y010209D01*
X009363Y010209D01*
X009340Y010187D01*
X009274Y010026D01*
X009274Y009852D01*
X009340Y009692D01*
X009463Y009568D01*
X009531Y009540D01*
X009531Y005552D01*
X007561Y005552D01*
X007548Y005554D01*
X007751Y005757D01*
X007700Y005705D02*
X009531Y005705D01*
X009531Y005607D02*
X007601Y005607D01*
X007561Y005372D02*
X007531Y005374D01*
X007501Y005379D01*
X007472Y005388D01*
X007445Y005401D01*
X007419Y005416D01*
X007395Y005435D01*
X007374Y005456D01*
X007355Y005480D01*
X007340Y005506D01*
X007327Y005533D01*
X007318Y005562D01*
X007313Y005592D01*
X007311Y005622D01*
X007561Y005372D02*
X009711Y005372D01*
X009711Y002743D01*
X009531Y003932D02*
X007527Y003932D01*
X007625Y004031D02*
X009531Y004031D01*
X009531Y004129D02*
X007724Y004129D01*
X007751Y004228D02*
X009531Y004228D01*
X009531Y004326D02*
X007751Y004326D01*
X007751Y004425D02*
X009531Y004425D01*
X009531Y004523D02*
X007750Y004523D01*
X007651Y004622D02*
X009531Y004622D01*
X009531Y004720D02*
X007553Y004720D01*
X007311Y004779D02*
X007313Y004809D01*
X007318Y004839D01*
X007327Y004868D01*
X007340Y004895D01*
X007355Y004921D01*
X007374Y004945D01*
X007395Y004966D01*
X007419Y004985D01*
X007445Y005000D01*
X007472Y005013D01*
X007501Y005022D01*
X007531Y005027D01*
X007561Y005029D01*
X009361Y005029D01*
X009891Y005016D02*
X011853Y005016D01*
X011853Y005114D02*
X009891Y005114D01*
X009891Y005213D02*
X011853Y005213D01*
X011853Y005311D02*
X009891Y005311D01*
X009711Y005372D02*
X009711Y009939D01*
X009274Y009941D02*
X009149Y009941D01*
X009143Y010039D02*
X009279Y010039D01*
X009320Y010138D02*
X009103Y010138D01*
X009145Y009842D02*
X009278Y009842D01*
X009319Y009744D02*
X009104Y009744D01*
X009036Y009645D02*
X009387Y009645D01*
X009516Y009547D02*
X008907Y009547D01*
X008516Y009547D02*
X007907Y009547D01*
X008036Y009645D02*
X008387Y009645D01*
X008319Y009744D02*
X008104Y009744D01*
X008145Y009842D02*
X008278Y009842D01*
X008274Y009941D02*
X008149Y009941D01*
X008143Y010039D02*
X008279Y010039D01*
X008320Y010138D02*
X008103Y010138D01*
X007464Y010389D02*
X007434Y010387D01*
X007404Y010382D01*
X007375Y010373D01*
X007348Y010360D01*
X007322Y010345D01*
X007298Y010326D01*
X007277Y010305D01*
X007258Y010281D01*
X007243Y010255D01*
X007230Y010228D01*
X007221Y010199D01*
X007216Y010169D01*
X007214Y010139D01*
X007211Y007581D01*
X007290Y007557D01*
X007311Y007539D01*
X007751Y007577D02*
X009531Y007577D01*
X009531Y007675D02*
X007751Y007675D01*
X007699Y007774D02*
X009531Y007774D01*
X009531Y007872D02*
X007600Y007872D01*
X007502Y007971D02*
X009531Y007971D01*
X009531Y008069D02*
X007391Y008069D01*
X007392Y008168D02*
X009531Y008168D01*
X009531Y008266D02*
X007392Y008266D01*
X007392Y008365D02*
X009531Y008365D01*
X009531Y008463D02*
X007392Y008463D01*
X007392Y008562D02*
X009531Y008562D01*
X009531Y008660D02*
X007392Y008660D01*
X007392Y008759D02*
X009531Y008759D01*
X009531Y008857D02*
X007392Y008857D01*
X007392Y008956D02*
X009531Y008956D01*
X009531Y009054D02*
X007393Y009054D01*
X007393Y009153D02*
X009531Y009153D01*
X009531Y009251D02*
X007393Y009251D01*
X007393Y009350D02*
X009531Y009350D01*
X009531Y009448D02*
X007393Y009448D01*
X007393Y009547D02*
X007516Y009547D01*
X007033Y009547D02*
X006907Y009547D01*
X006891Y009540D02*
X006959Y009568D01*
X007033Y009643D01*
X007031Y007882D01*
X006891Y007742D01*
X006891Y009540D01*
X006891Y009448D02*
X007033Y009448D01*
X007033Y009350D02*
X006891Y009350D01*
X006891Y009251D02*
X007033Y009251D01*
X007033Y009153D02*
X006891Y009153D01*
X006891Y009054D02*
X007033Y009054D01*
X007032Y008956D02*
X006891Y008956D01*
X006891Y008857D02*
X007032Y008857D01*
X007032Y008759D02*
X006891Y008759D01*
X006891Y008660D02*
X007032Y008660D01*
X007032Y008562D02*
X006891Y008562D01*
X006891Y008463D02*
X007032Y008463D01*
X007032Y008365D02*
X006891Y008365D01*
X006891Y008266D02*
X007032Y008266D01*
X007032Y008168D02*
X006891Y008168D01*
X006891Y008069D02*
X007031Y008069D01*
X007031Y007971D02*
X006891Y007971D01*
X006891Y007872D02*
X007022Y007872D01*
X006924Y007774D02*
X006891Y007774D01*
X006531Y007774D02*
X004559Y007774D01*
X004653Y007868D02*
X004433Y007648D01*
X004146Y007529D01*
X003836Y007529D01*
X003549Y007648D01*
X003330Y007868D01*
X003211Y008154D01*
X003211Y008465D01*
X003330Y008751D01*
X003549Y008971D01*
X003836Y009089D01*
X004146Y009089D01*
X004433Y008971D01*
X004653Y008751D01*
X004771Y008465D01*
X004771Y008154D01*
X004653Y007868D01*
X004655Y007872D02*
X006531Y007872D01*
X006531Y007971D02*
X004695Y007971D01*
X004736Y008069D02*
X006531Y008069D01*
X006531Y008168D02*
X004771Y008168D01*
X004771Y008266D02*
X006531Y008266D01*
X006531Y008365D02*
X004771Y008365D01*
X004771Y008463D02*
X006531Y008463D01*
X006531Y008562D02*
X004731Y008562D01*
X004690Y008660D02*
X006531Y008660D01*
X006531Y008759D02*
X004645Y008759D01*
X004546Y008857D02*
X006531Y008857D01*
X006531Y008956D02*
X004448Y008956D01*
X004231Y009054D02*
X006531Y009054D01*
X006531Y009153D02*
X001761Y009153D01*
X001761Y009251D02*
X006531Y009251D01*
X006531Y009350D02*
X003283Y009350D01*
X003433Y009448D02*
X006531Y009448D01*
X006516Y009547D02*
X006143Y009547D01*
X006169Y009645D02*
X006387Y009645D01*
X006319Y009744D02*
X006169Y009744D01*
X006169Y009842D02*
X006278Y009842D01*
X005740Y009842D02*
X005683Y009842D01*
X005683Y009744D02*
X005740Y009744D01*
X005740Y009645D02*
X005683Y009645D01*
X005683Y009547D02*
X005740Y009547D01*
X005280Y009547D02*
X003531Y009547D01*
X003614Y009645D02*
X005254Y009645D01*
X005254Y009744D02*
X003655Y009744D01*
X003696Y009842D02*
X005254Y009842D01*
X005683Y010039D02*
X005740Y010039D01*
X005740Y010138D02*
X005683Y010138D01*
X005683Y010236D02*
X005740Y010236D01*
X005740Y010335D02*
X005683Y010335D01*
X002513Y010827D02*
X001761Y010827D01*
X001761Y010729D02*
X002366Y010729D01*
X002267Y010630D02*
X001761Y010630D01*
X001761Y010532D02*
X002185Y010532D01*
X002144Y010433D02*
X001761Y010433D01*
X001761Y010335D02*
X002103Y010335D01*
X002070Y010236D02*
X001761Y010236D01*
X001761Y010138D02*
X002070Y010138D01*
X002070Y010039D02*
X001761Y010039D01*
X001761Y009941D02*
X002070Y009941D01*
X002104Y009842D02*
X001761Y009842D01*
X001761Y009744D02*
X002145Y009744D01*
X002185Y009645D02*
X001761Y009645D01*
X001761Y009547D02*
X002269Y009547D01*
X002367Y009448D02*
X001761Y009448D01*
X001761Y009350D02*
X002516Y009350D01*
X001761Y009054D02*
X003752Y009054D01*
X003535Y008956D02*
X001761Y008956D01*
X001761Y008857D02*
X003436Y008857D01*
X003338Y008759D02*
X001761Y008759D01*
X001761Y008660D02*
X003292Y008660D01*
X003252Y008562D02*
X001761Y008562D01*
X001761Y008463D02*
X003211Y008463D01*
X003211Y008365D02*
X001761Y008365D01*
X001761Y008266D02*
X003211Y008266D01*
X003211Y008168D02*
X001761Y008168D01*
X001761Y008069D02*
X003246Y008069D01*
X003287Y007971D02*
X001761Y007971D01*
X001761Y007872D02*
X003328Y007872D01*
X003424Y007774D02*
X001761Y007774D01*
X001761Y007675D02*
X003522Y007675D01*
X003721Y007577D02*
X001761Y007577D01*
X001761Y007478D02*
X006531Y007478D01*
X006531Y007380D02*
X001761Y007380D01*
X001761Y007281D02*
X006531Y007281D01*
X006531Y007183D02*
X001761Y007183D01*
X001761Y007084D02*
X006531Y007084D01*
X006531Y006986D02*
X001761Y006986D01*
X004261Y007577D02*
X006531Y007577D01*
X006531Y007675D02*
X004460Y007675D01*
X006891Y007281D02*
X006947Y007281D01*
X006891Y007183D02*
X007045Y007183D01*
X006891Y007084D02*
X009531Y007084D01*
X009531Y006986D02*
X006891Y006986D01*
X006891Y006887D02*
X009531Y006887D01*
X009531Y006789D02*
X006891Y006789D01*
X006891Y006690D02*
X009531Y006690D01*
X009531Y006592D02*
X006891Y006592D01*
X006891Y006493D02*
X009531Y006493D01*
X009531Y006395D02*
X006891Y006395D01*
X006891Y006296D02*
X007046Y006296D01*
X006948Y006198D02*
X006891Y006198D01*
X007576Y006296D02*
X009531Y006296D01*
X009531Y006198D02*
X007675Y006198D01*
X007751Y006099D02*
X009531Y006099D01*
X009531Y006001D02*
X007751Y006001D01*
X009891Y006001D02*
X010871Y006001D01*
X010871Y006099D02*
X009891Y006099D01*
X009891Y006198D02*
X010948Y006198D01*
X011046Y006296D02*
X009891Y006296D01*
X009891Y006395D02*
X011853Y006395D01*
X011853Y006493D02*
X009891Y006493D01*
X009891Y006592D02*
X011853Y006592D01*
X011853Y006690D02*
X009891Y006690D01*
X009891Y006789D02*
X011853Y006789D01*
X011853Y006887D02*
X009891Y006887D01*
X009891Y006986D02*
X011853Y006986D01*
X011853Y007084D02*
X009891Y007084D01*
X009891Y007183D02*
X011045Y007183D01*
X011129Y007099D02*
X010871Y007357D01*
X010871Y007722D01*
X011129Y007979D01*
X011494Y007979D01*
X011751Y007722D01*
X011751Y007357D01*
X011494Y007099D01*
X011129Y007099D01*
X010947Y007281D02*
X009891Y007281D01*
X009891Y007380D02*
X010871Y007380D01*
X010871Y007478D02*
X009891Y007478D01*
X009891Y007577D02*
X010871Y007577D01*
X010871Y007675D02*
X009891Y007675D01*
X009891Y007774D02*
X010924Y007774D01*
X011022Y007872D02*
X009891Y007872D01*
X009891Y007971D02*
X011121Y007971D01*
X011502Y007971D02*
X011853Y007971D01*
X011853Y008069D02*
X009891Y008069D01*
X009891Y008168D02*
X011853Y008168D01*
X011853Y008266D02*
X009891Y008266D01*
X009891Y008365D02*
X011853Y008365D01*
X011853Y008463D02*
X009891Y008463D01*
X009891Y008562D02*
X011853Y008562D01*
X011853Y008660D02*
X009891Y008660D01*
X009891Y008759D02*
X011853Y008759D01*
X011853Y008857D02*
X009891Y008857D01*
X009891Y008956D02*
X011853Y008956D01*
X011853Y009054D02*
X009891Y009054D01*
X009891Y009153D02*
X011853Y009153D01*
X011853Y009251D02*
X009891Y009251D01*
X009891Y009350D02*
X011853Y009350D01*
X011853Y009448D02*
X009891Y009448D01*
X009907Y009547D02*
X010516Y009547D01*
X010387Y009645D02*
X010036Y009645D01*
X010104Y009744D02*
X010319Y009744D01*
X010278Y009842D02*
X010145Y009842D01*
X010149Y009941D02*
X010274Y009941D01*
X010279Y010039D02*
X010143Y010039D01*
X010103Y010138D02*
X010320Y010138D01*
X011103Y010138D02*
X011853Y010138D01*
X012033Y010139D02*
X012031Y010169D01*
X012026Y010199D01*
X012017Y010228D01*
X012004Y010255D01*
X011989Y010281D01*
X011970Y010305D01*
X011949Y010326D01*
X011925Y010345D01*
X011899Y010360D01*
X011872Y010373D01*
X011843Y010382D01*
X011813Y010387D01*
X011783Y010389D01*
X012033Y010139D02*
X012033Y005939D01*
X011853Y006198D02*
X011675Y006198D01*
X011576Y006296D02*
X011853Y006296D01*
X012213Y006986D02*
X016281Y006986D01*
X016281Y007084D02*
X012213Y007084D01*
X012213Y007183D02*
X016281Y007183D01*
X016281Y007281D02*
X012213Y007281D01*
X012213Y007380D02*
X016281Y007380D01*
X016281Y007478D02*
X015252Y007478D01*
X015284Y007495D02*
X015350Y007543D01*
X015408Y007601D01*
X015456Y007667D01*
X015493Y007740D01*
X015518Y007818D01*
X015530Y007889D01*
X015061Y007889D01*
X015061Y007421D01*
X015133Y007432D01*
X015211Y007457D01*
X015284Y007495D01*
X015384Y007577D02*
X016281Y007577D01*
X016281Y007675D02*
X015460Y007675D01*
X015504Y007774D02*
X016281Y007774D01*
X016281Y007872D02*
X015527Y007872D01*
X015530Y007989D02*
X015061Y007989D01*
X015061Y007889D01*
X014961Y007889D01*
X014961Y007421D01*
X014889Y007432D01*
X014812Y007457D01*
X014739Y007495D01*
X014673Y007543D01*
X014615Y007601D01*
X014567Y007667D01*
X014529Y007740D01*
X014504Y007818D01*
X014493Y007889D01*
X014961Y007889D01*
X014961Y007989D01*
X014493Y007989D01*
X014504Y008061D01*
X014529Y008139D01*
X014567Y008212D01*
X014615Y008278D01*
X014673Y008336D01*
X014739Y008384D01*
X014812Y008421D01*
X014889Y008447D01*
X014961Y008458D01*
X014961Y007989D01*
X015061Y007989D01*
X015061Y008458D01*
X015133Y008447D01*
X015211Y008421D01*
X015284Y008384D01*
X015350Y008336D01*
X015408Y008278D01*
X015456Y008212D01*
X015493Y008139D01*
X015518Y008061D01*
X015530Y007989D01*
X015516Y008069D02*
X016281Y008069D01*
X016281Y007971D02*
X015061Y007971D01*
X015061Y008069D02*
X014961Y008069D01*
X014961Y007971D02*
X013061Y007971D01*
X013061Y007989D02*
X013061Y007889D01*
X013061Y007421D01*
X013133Y007432D01*
X013211Y007457D01*
X013284Y007495D01*
X013350Y007543D01*
X013408Y007601D01*
X013456Y007667D01*
X013493Y007740D01*
X013518Y007818D01*
X013530Y007889D01*
X013061Y007889D01*
X012961Y007889D01*
X012961Y007421D01*
X012889Y007432D01*
X012812Y007457D01*
X012739Y007495D01*
X012673Y007543D01*
X012615Y007601D01*
X012567Y007667D01*
X012529Y007740D01*
X012504Y007818D01*
X012493Y007889D01*
X012961Y007889D01*
X012961Y007989D01*
X012493Y007989D01*
X012504Y008061D01*
X012529Y008139D01*
X012567Y008212D01*
X012615Y008278D01*
X012673Y008336D01*
X012739Y008384D01*
X012812Y008421D01*
X012889Y008447D01*
X012961Y008458D01*
X012961Y007989D01*
X013061Y007989D01*
X013530Y007989D01*
X013518Y008061D01*
X013493Y008139D01*
X013456Y008212D01*
X013408Y008278D01*
X013350Y008336D01*
X013284Y008384D01*
X013211Y008421D01*
X013133Y008447D01*
X013061Y008458D01*
X013061Y007989D01*
X013061Y008069D02*
X012961Y008069D01*
X012961Y007971D02*
X012213Y007971D01*
X012213Y008069D02*
X012507Y008069D01*
X012544Y008168D02*
X012213Y008168D01*
X012213Y008266D02*
X012606Y008266D01*
X012712Y008365D02*
X012213Y008365D01*
X012213Y008463D02*
X016281Y008463D01*
X016281Y008365D02*
X015310Y008365D01*
X015416Y008266D02*
X016281Y008266D01*
X016281Y008168D02*
X015478Y008168D01*
X015061Y008168D02*
X014961Y008168D01*
X014961Y008266D02*
X015061Y008266D01*
X015061Y008365D02*
X014961Y008365D01*
X014712Y008365D02*
X013310Y008365D01*
X013416Y008266D02*
X014606Y008266D01*
X014544Y008168D02*
X013478Y008168D01*
X013516Y008069D02*
X014507Y008069D01*
X014495Y007872D02*
X013527Y007872D01*
X013504Y007774D02*
X014518Y007774D01*
X014562Y007675D02*
X013460Y007675D01*
X013384Y007577D02*
X014638Y007577D01*
X014771Y007478D02*
X013252Y007478D01*
X013061Y007478D02*
X012961Y007478D01*
X012961Y007577D02*
X013061Y007577D01*
X013061Y007675D02*
X012961Y007675D01*
X012961Y007774D02*
X013061Y007774D01*
X013061Y007872D02*
X012961Y007872D01*
X012518Y007774D02*
X012213Y007774D01*
X012213Y007872D02*
X012495Y007872D01*
X012562Y007675D02*
X012213Y007675D01*
X012213Y007577D02*
X012638Y007577D01*
X012771Y007478D02*
X012213Y007478D01*
X011853Y007478D02*
X011751Y007478D01*
X011751Y007380D02*
X011853Y007380D01*
X011853Y007281D02*
X011676Y007281D01*
X011577Y007183D02*
X011853Y007183D01*
X011853Y007577D02*
X011751Y007577D01*
X011751Y007675D02*
X011853Y007675D01*
X011853Y007774D02*
X011699Y007774D01*
X011600Y007872D02*
X011853Y007872D01*
X012961Y008168D02*
X013061Y008168D01*
X013061Y008266D02*
X012961Y008266D01*
X012961Y008365D02*
X013061Y008365D01*
X012213Y008562D02*
X016281Y008562D01*
X016281Y008660D02*
X012213Y008660D01*
X012213Y008759D02*
X016281Y008759D01*
X016281Y008857D02*
X012213Y008857D01*
X012213Y008956D02*
X016281Y008956D01*
X016281Y009054D02*
X012213Y009054D01*
X012213Y009153D02*
X016281Y009153D01*
X016281Y009251D02*
X012213Y009251D01*
X012213Y009350D02*
X016281Y009350D01*
X016281Y009448D02*
X012213Y009448D01*
X012213Y009547D02*
X013230Y009547D01*
X013204Y009645D02*
X012213Y009645D01*
X012213Y009744D02*
X013204Y009744D01*
X013204Y009842D02*
X012213Y009842D01*
X011853Y009842D02*
X011145Y009842D01*
X011149Y009941D02*
X011853Y009941D01*
X011853Y010039D02*
X011143Y010039D01*
X011104Y009744D02*
X011853Y009744D01*
X011853Y009645D02*
X011036Y009645D01*
X010907Y009547D02*
X011853Y009547D01*
X013633Y009547D02*
X013690Y009547D01*
X013690Y009645D02*
X013633Y009645D01*
X013633Y009744D02*
X013690Y009744D01*
X013690Y009842D02*
X013633Y009842D01*
X013633Y010039D02*
X013690Y010039D01*
X013690Y010138D02*
X013633Y010138D01*
X013633Y010236D02*
X013690Y010236D01*
X013690Y010335D02*
X013633Y010335D01*
X014661Y010589D02*
X014661Y009939D01*
X014269Y009744D02*
X014119Y009744D01*
X014119Y009842D02*
X014228Y009842D01*
X014119Y009645D02*
X014337Y009645D01*
X014466Y009547D02*
X014093Y009547D01*
X014857Y009547D02*
X015466Y009547D01*
X015337Y009645D02*
X014986Y009645D01*
X015054Y009744D02*
X015269Y009744D01*
X015228Y009842D02*
X015095Y009842D01*
X015986Y009645D02*
X016281Y009645D01*
X016281Y009547D02*
X015857Y009547D01*
X016054Y009744D02*
X016269Y009744D01*
X016228Y009842D02*
X016095Y009842D01*
X016641Y009502D02*
X016748Y009502D01*
X016909Y009568D01*
X017032Y009692D01*
X017099Y009852D01*
X017099Y010026D01*
X017032Y010187D01*
X017010Y010209D01*
X017313Y010209D01*
X017290Y010187D01*
X017224Y010026D01*
X017224Y009852D01*
X017279Y009719D01*
X017279Y008054D01*
X017210Y008122D01*
X017049Y008189D01*
X016874Y008189D01*
X016712Y008122D01*
X016641Y008052D01*
X016641Y009502D01*
X016641Y009448D02*
X017279Y009448D01*
X017279Y009350D02*
X016641Y009350D01*
X016641Y009251D02*
X017279Y009251D01*
X017279Y009153D02*
X016641Y009153D01*
X016641Y009054D02*
X017279Y009054D01*
X017279Y008956D02*
X016641Y008956D01*
X016641Y008857D02*
X017279Y008857D01*
X017279Y008759D02*
X016641Y008759D01*
X016641Y008660D02*
X017279Y008660D01*
X017279Y008562D02*
X016641Y008562D01*
X016641Y008463D02*
X017279Y008463D01*
X017279Y008365D02*
X016641Y008365D01*
X016641Y008266D02*
X017279Y008266D01*
X017279Y008168D02*
X017101Y008168D01*
X017263Y008069D02*
X017279Y008069D01*
X017459Y008202D02*
X017459Y006578D01*
X017457Y006558D01*
X017453Y006539D01*
X017445Y006521D01*
X017435Y006505D01*
X017422Y006490D01*
X017407Y006477D01*
X017391Y006467D01*
X017373Y006459D01*
X017354Y006455D01*
X017334Y006453D01*
X017637Y006493D02*
X018781Y006493D01*
X018781Y006592D02*
X017639Y006592D01*
X017639Y006690D02*
X017871Y006690D01*
X018051Y006690D02*
X018781Y006690D01*
X018679Y006789D02*
X018243Y006789D01*
X018337Y006887D02*
X018585Y006887D01*
X018544Y006986D02*
X018378Y006986D01*
X018401Y007084D02*
X018521Y007084D01*
X018521Y007183D02*
X018401Y007183D01*
X018401Y007281D02*
X018521Y007281D01*
X018521Y007380D02*
X018401Y007380D01*
X018401Y007478D02*
X018521Y007478D01*
X018521Y007577D02*
X018401Y007577D01*
X018401Y007675D02*
X018521Y007675D01*
X018521Y007774D02*
X018401Y007774D01*
X018387Y007872D02*
X018536Y007872D01*
X018577Y007971D02*
X018346Y007971D01*
X017459Y008202D02*
X017459Y009929D01*
X017661Y009939D01*
X018099Y009941D02*
X018224Y009941D01*
X018224Y010026D02*
X018224Y009852D01*
X018290Y009692D01*
X018413Y009568D01*
X018574Y009502D01*
X018748Y009502D01*
X018909Y009568D01*
X019032Y009692D01*
X019099Y009852D01*
X019099Y010026D01*
X019032Y010187D01*
X019010Y010209D01*
X019211Y010209D01*
X019229Y010207D01*
X019261Y010189D01*
X019279Y010157D01*
X019281Y010139D01*
X019281Y009524D01*
X019396Y009325D01*
X019396Y009325D01*
X019396Y009325D01*
X019596Y009209D01*
X023526Y009209D01*
X023726Y009325D01*
X023841Y009524D01*
X023841Y009540D01*
X023909Y009568D01*
X024032Y009692D01*
X024099Y009852D01*
X024099Y010026D01*
X024032Y010187D01*
X024028Y010191D01*
X024294Y010191D01*
X024290Y010187D01*
X024224Y010026D01*
X024224Y009852D01*
X024290Y009692D01*
X024413Y009568D01*
X024481Y009540D01*
X024481Y008382D01*
X024476Y008382D01*
X020005Y008382D01*
X020005Y008382D01*
X019863Y008300D01*
X019781Y008159D01*
X019781Y008151D01*
X019712Y008122D01*
X019641Y008052D01*
X019641Y008159D01*
X019560Y008300D01*
X019560Y008300D01*
X019560Y008300D01*
X019418Y008382D01*
X017639Y008382D01*
X017639Y009502D01*
X017748Y009502D01*
X017909Y009568D01*
X018032Y009692D01*
X018099Y009852D01*
X018099Y010026D01*
X018032Y010187D01*
X018010Y010209D01*
X018313Y010209D01*
X018290Y010187D01*
X018224Y010026D01*
X018229Y010039D02*
X018093Y010039D01*
X018053Y010138D02*
X018270Y010138D01*
X018228Y009842D02*
X018095Y009842D01*
X018054Y009744D02*
X018269Y009744D01*
X018337Y009645D02*
X017986Y009645D01*
X017857Y009547D02*
X018466Y009547D01*
X018857Y009547D02*
X019281Y009547D01*
X019281Y009645D02*
X018986Y009645D01*
X019054Y009744D02*
X019281Y009744D01*
X019281Y009842D02*
X019095Y009842D01*
X019099Y009941D02*
X019281Y009941D01*
X019281Y010039D02*
X019093Y010039D01*
X019053Y010138D02*
X019281Y010138D01*
X019461Y010139D02*
X019459Y010169D01*
X019454Y010199D01*
X019445Y010228D01*
X019432Y010255D01*
X019417Y010281D01*
X019398Y010305D01*
X019377Y010326D01*
X019353Y010345D01*
X019327Y010360D01*
X019300Y010373D01*
X019271Y010382D01*
X019241Y010387D01*
X019211Y010389D01*
X015911Y010389D01*
X017053Y010138D02*
X017270Y010138D01*
X017229Y010039D02*
X017093Y010039D01*
X017099Y009941D02*
X017224Y009941D01*
X017228Y009842D02*
X017095Y009842D01*
X017054Y009744D02*
X017269Y009744D01*
X017279Y009645D02*
X016986Y009645D01*
X016857Y009547D02*
X017279Y009547D01*
X017639Y009448D02*
X019325Y009448D01*
X019382Y009350D02*
X017639Y009350D01*
X017639Y009251D02*
X019523Y009251D01*
X019711Y009389D02*
X023411Y009389D01*
X023411Y009569D02*
X022910Y009569D01*
X023032Y009692D01*
X023099Y009852D01*
X023099Y010026D01*
X023032Y010187D01*
X022909Y010310D01*
X022832Y010342D01*
X022832Y010409D01*
X023581Y010409D01*
X023559Y010370D01*
X023413Y010310D01*
X023290Y010187D01*
X023224Y010026D01*
X023224Y009852D01*
X023290Y009692D01*
X023412Y009570D01*
X023411Y009569D01*
X023411Y009389D02*
X023441Y009391D01*
X023471Y009396D01*
X023500Y009405D01*
X023527Y009418D01*
X023553Y009433D01*
X023577Y009452D01*
X023598Y009473D01*
X023617Y009497D01*
X023632Y009523D01*
X023645Y009550D01*
X023654Y009579D01*
X023659Y009609D01*
X023661Y009639D01*
X023661Y009939D01*
X023661Y010121D01*
X023663Y010151D01*
X023668Y010181D01*
X023677Y010210D01*
X023690Y010237D01*
X023705Y010263D01*
X023724Y010287D01*
X023745Y010308D01*
X023769Y010327D01*
X023795Y010342D01*
X023822Y010355D01*
X023851Y010364D01*
X023881Y010369D01*
X023911Y010371D01*
X029811Y010371D01*
X029841Y010369D01*
X029871Y010364D01*
X029900Y010355D01*
X029927Y010342D01*
X029953Y010327D01*
X029977Y010308D01*
X029998Y010287D01*
X030017Y010263D01*
X030032Y010237D01*
X030045Y010210D01*
X030054Y010181D01*
X030059Y010151D01*
X030061Y010121D01*
X030061Y009739D01*
X030063Y009709D01*
X030068Y009679D01*
X030077Y009650D01*
X030090Y009623D01*
X030105Y009597D01*
X030124Y009573D01*
X030145Y009552D01*
X030169Y009533D01*
X030195Y009518D01*
X030222Y009505D01*
X030251Y009496D01*
X030281Y009491D01*
X030311Y009489D01*
X031311Y009489D01*
X031640Y009448D02*
X033781Y009448D01*
X033781Y009350D02*
X031497Y009350D01*
X031757Y009547D02*
X032366Y009547D01*
X032313Y009568D02*
X032474Y009502D01*
X032648Y009502D01*
X032809Y009568D01*
X032932Y009692D01*
X032999Y009852D01*
X032999Y010026D01*
X032932Y010187D01*
X032809Y010310D01*
X032648Y010377D01*
X032474Y010377D01*
X032313Y010310D01*
X032190Y010187D01*
X032124Y010026D01*
X032124Y009852D01*
X032190Y009692D01*
X032313Y009568D01*
X032237Y009645D02*
X031886Y009645D01*
X031954Y009744D02*
X032169Y009744D01*
X032128Y009842D02*
X031995Y009842D01*
X031999Y009941D02*
X032124Y009941D01*
X032129Y010039D02*
X031993Y010039D01*
X031953Y010138D02*
X032170Y010138D01*
X032240Y010236D02*
X031883Y010236D01*
X031750Y010335D02*
X032373Y010335D01*
X032750Y010335D02*
X033373Y010335D01*
X033240Y010236D02*
X032883Y010236D01*
X032953Y010138D02*
X033170Y010138D01*
X033129Y010039D02*
X032993Y010039D01*
X032999Y009941D02*
X033124Y009941D01*
X033128Y009842D02*
X032995Y009842D01*
X032954Y009744D02*
X033169Y009744D01*
X033237Y009645D02*
X032886Y009645D01*
X032757Y009547D02*
X033366Y009547D01*
X033711Y009889D02*
X033741Y009887D01*
X033771Y009882D01*
X033800Y009873D01*
X033827Y009860D01*
X033853Y009845D01*
X033877Y009826D01*
X033898Y009805D01*
X033917Y009781D01*
X033932Y009755D01*
X033945Y009728D01*
X033954Y009699D01*
X033959Y009669D01*
X033961Y009639D01*
X033961Y008989D01*
X025911Y008989D01*
X025713Y008857D02*
X024841Y008857D01*
X024841Y008759D02*
X033781Y008759D01*
X033781Y008660D02*
X024841Y008660D01*
X024841Y008562D02*
X033781Y008562D01*
X033781Y008463D02*
X024841Y008463D01*
X024841Y008365D02*
X026066Y008365D01*
X025896Y008266D02*
X024841Y008266D01*
X024822Y008168D02*
X024797Y008168D01*
X024536Y008202D02*
X020086Y008202D01*
X019863Y008300D02*
X019863Y008300D01*
X019843Y008266D02*
X019579Y008266D01*
X019636Y008168D02*
X019787Y008168D01*
X019659Y008069D02*
X019641Y008069D01*
X019461Y008077D02*
X019461Y005393D01*
X019463Y005373D01*
X019467Y005354D01*
X019475Y005336D01*
X019485Y005320D01*
X019498Y005305D01*
X019513Y005292D01*
X019529Y005282D01*
X019547Y005274D01*
X019566Y005270D01*
X019586Y005268D01*
X022961Y005268D01*
X024949Y005268D01*
X024949Y007389D01*
X024961Y007439D01*
X025401Y007478D02*
X025521Y007478D01*
X025521Y007380D02*
X025401Y007380D01*
X025401Y007281D02*
X025521Y007281D01*
X025521Y007183D02*
X025401Y007183D01*
X025401Y007084D02*
X025521Y007084D01*
X025544Y006986D02*
X025378Y006986D01*
X025337Y006887D02*
X025585Y006887D01*
X025679Y006789D02*
X025243Y006789D01*
X025129Y006690D02*
X025871Y006690D01*
X026051Y006690D02*
X026871Y006690D01*
X027051Y006690D02*
X027781Y006690D01*
X027781Y006592D02*
X025129Y006592D01*
X025129Y006493D02*
X027781Y006493D01*
X027781Y006395D02*
X025129Y006395D01*
X025129Y006296D02*
X027781Y006296D01*
X027781Y006198D02*
X025129Y006198D01*
X025129Y006099D02*
X027781Y006099D01*
X027831Y006001D02*
X025129Y006001D01*
X025129Y005902D02*
X027888Y005902D01*
X027896Y005888D02*
X027896Y005888D01*
X028041Y005804D02*
X025129Y005804D01*
X025129Y005705D02*
X032020Y005705D01*
X031961Y005607D02*
X025129Y005607D01*
X025129Y005508D02*
X031961Y005508D01*
X032411Y005410D02*
X026377Y005410D01*
X026523Y005311D02*
X031961Y005311D01*
X031981Y005213D02*
X026580Y005213D01*
X026626Y005114D02*
X026704Y005114D01*
X026196Y005268D02*
X024949Y005268D01*
X024769Y005508D02*
X019641Y005508D01*
X019641Y005607D02*
X024769Y005607D01*
X024769Y005705D02*
X019641Y005705D01*
X019641Y005804D02*
X024769Y005804D01*
X024769Y005902D02*
X019641Y005902D01*
X019641Y006001D02*
X024769Y006001D01*
X024769Y006099D02*
X019641Y006099D01*
X019641Y006198D02*
X024769Y006198D01*
X024769Y006296D02*
X019641Y006296D01*
X019641Y006395D02*
X024769Y006395D01*
X024769Y006493D02*
X019641Y006493D01*
X019641Y006592D02*
X024769Y006592D01*
X024769Y006690D02*
X024051Y006690D01*
X023871Y006690D02*
X023099Y006690D01*
X023271Y006789D02*
X023679Y006789D01*
X023585Y006887D02*
X023354Y006887D01*
X023398Y006986D02*
X023544Y006986D01*
X023521Y007084D02*
X023420Y007084D01*
X023421Y007183D02*
X023521Y007183D01*
X023521Y007281D02*
X023421Y007281D01*
X023421Y007380D02*
X023521Y007380D01*
X023521Y007478D02*
X023421Y007478D01*
X023421Y007577D02*
X023521Y007577D01*
X023521Y007675D02*
X023421Y007675D01*
X023421Y007774D02*
X023521Y007774D01*
X023536Y007872D02*
X023405Y007872D01*
X023365Y007971D02*
X023577Y007971D01*
X024346Y007971D02*
X024577Y007971D01*
X024536Y007872D02*
X024387Y007872D01*
X024401Y007774D02*
X024521Y007774D01*
X024521Y007675D02*
X024401Y007675D01*
X024401Y007577D02*
X024521Y007577D01*
X024521Y007478D02*
X024401Y007478D01*
X024401Y007380D02*
X024521Y007380D01*
X024521Y007281D02*
X024401Y007281D01*
X024401Y007183D02*
X024521Y007183D01*
X024521Y007084D02*
X024401Y007084D01*
X024378Y006986D02*
X024544Y006986D01*
X024585Y006887D02*
X024337Y006887D01*
X024243Y006789D02*
X024679Y006789D01*
X026243Y006789D02*
X026679Y006789D01*
X026585Y006887D02*
X026337Y006887D01*
X026378Y006986D02*
X026544Y006986D01*
X026521Y007084D02*
X026401Y007084D01*
X026401Y007183D02*
X026521Y007183D01*
X026521Y007281D02*
X026401Y007281D01*
X026401Y007380D02*
X026521Y007380D01*
X026521Y007478D02*
X026401Y007478D01*
X026401Y007577D02*
X026521Y007577D01*
X026521Y007675D02*
X026401Y007675D01*
X026401Y007774D02*
X026521Y007774D01*
X026536Y007872D02*
X026387Y007872D01*
X026346Y007971D02*
X026577Y007971D01*
X026211Y008202D02*
X026181Y008200D01*
X026151Y008195D01*
X026122Y008186D01*
X026095Y008173D01*
X026069Y008158D01*
X026045Y008139D01*
X026024Y008118D01*
X026005Y008094D01*
X025990Y008068D01*
X025977Y008041D01*
X025968Y008012D01*
X025963Y007982D01*
X025961Y007952D01*
X025961Y007439D01*
X025521Y007577D02*
X025401Y007577D01*
X025401Y007675D02*
X025521Y007675D01*
X025521Y007774D02*
X025401Y007774D01*
X025387Y007872D02*
X025536Y007872D01*
X025577Y007971D02*
X025346Y007971D01*
X025263Y008069D02*
X025659Y008069D01*
X025822Y008168D02*
X025101Y008168D01*
X024661Y008327D02*
X024661Y009939D01*
X024224Y009941D02*
X024099Y009941D01*
X024093Y010039D02*
X024229Y010039D01*
X024270Y010138D02*
X024053Y010138D01*
X024095Y009842D02*
X024228Y009842D01*
X024269Y009744D02*
X024054Y009744D01*
X023986Y009645D02*
X024337Y009645D01*
X024466Y009547D02*
X023857Y009547D01*
X023798Y009448D02*
X024481Y009448D01*
X024481Y009350D02*
X023741Y009350D01*
X023726Y009325D02*
X023726Y009325D01*
X023726Y009325D01*
X023599Y009251D02*
X024481Y009251D01*
X024481Y009153D02*
X017639Y009153D01*
X017639Y009054D02*
X024481Y009054D01*
X024481Y008956D02*
X017639Y008956D01*
X017639Y008857D02*
X024481Y008857D01*
X024481Y008759D02*
X017639Y008759D01*
X017639Y008660D02*
X024481Y008660D01*
X024481Y008562D02*
X017639Y008562D01*
X017639Y008463D02*
X024481Y008463D01*
X024661Y008327D02*
X024659Y008307D01*
X024655Y008288D01*
X024647Y008270D01*
X024637Y008254D01*
X024624Y008239D01*
X024609Y008226D01*
X024593Y008216D01*
X024575Y008208D01*
X024556Y008204D01*
X024536Y008202D01*
X026211Y008202D02*
X033211Y008202D01*
X033211Y008022D02*
X033229Y008020D01*
X033261Y008001D01*
X033279Y007970D01*
X033281Y007952D01*
X033281Y006919D01*
X033262Y006919D01*
X032981Y006638D01*
X032981Y006241D01*
X033089Y006132D01*
X032833Y006132D01*
X032941Y006241D01*
X032941Y006638D01*
X032660Y006919D01*
X032262Y006919D01*
X031981Y006638D01*
X031981Y006241D01*
X032089Y006132D01*
X028211Y006132D01*
X028193Y006135D01*
X028162Y006153D01*
X028144Y006184D01*
X028141Y006202D01*
X028141Y006728D01*
X028210Y006756D01*
X028334Y006880D01*
X028401Y007042D01*
X028401Y007837D01*
X028334Y007999D01*
X028311Y008022D01*
X028612Y008022D01*
X028588Y007999D01*
X028521Y007837D01*
X028521Y007042D01*
X028588Y006880D01*
X028712Y006756D01*
X028874Y006689D01*
X029049Y006689D01*
X029210Y006756D01*
X029334Y006880D01*
X029401Y007042D01*
X029401Y007837D01*
X029334Y007999D01*
X029311Y008022D01*
X029612Y008022D01*
X029588Y007999D01*
X029521Y007837D01*
X029521Y007042D01*
X029588Y006880D01*
X029712Y006756D01*
X029874Y006689D01*
X030049Y006689D01*
X030210Y006756D01*
X030334Y006880D01*
X030401Y007042D01*
X030401Y007837D01*
X030334Y007999D01*
X030311Y008022D01*
X033211Y008022D01*
X033211Y008202D02*
X033241Y008200D01*
X033271Y008195D01*
X033300Y008186D01*
X033327Y008173D01*
X033353Y008158D01*
X033377Y008139D01*
X033398Y008118D01*
X033417Y008094D01*
X033432Y008068D01*
X033445Y008041D01*
X033454Y008012D01*
X033459Y007982D01*
X033461Y007952D01*
X033461Y006439D01*
X032981Y006395D02*
X032941Y006395D01*
X032941Y006493D02*
X032981Y006493D01*
X032981Y006592D02*
X032941Y006592D01*
X032889Y006690D02*
X033033Y006690D01*
X033132Y006789D02*
X032791Y006789D01*
X032692Y006887D02*
X033230Y006887D01*
X033281Y006986D02*
X030378Y006986D01*
X030401Y007084D02*
X033281Y007084D01*
X033281Y007183D02*
X030401Y007183D01*
X030401Y007281D02*
X033281Y007281D01*
X033281Y007380D02*
X030401Y007380D01*
X030401Y007478D02*
X033281Y007478D01*
X033281Y007577D02*
X030401Y007577D01*
X030401Y007675D02*
X033281Y007675D01*
X033281Y007774D02*
X030401Y007774D01*
X030387Y007872D02*
X033281Y007872D01*
X033278Y007971D02*
X030346Y007971D01*
X029577Y007971D02*
X029346Y007971D01*
X029387Y007872D02*
X029536Y007872D01*
X029521Y007774D02*
X029401Y007774D01*
X029401Y007675D02*
X029521Y007675D01*
X029521Y007577D02*
X029401Y007577D01*
X029401Y007478D02*
X029521Y007478D01*
X029521Y007380D02*
X029401Y007380D01*
X029401Y007281D02*
X029521Y007281D01*
X029521Y007183D02*
X029401Y007183D01*
X029401Y007084D02*
X029521Y007084D01*
X029544Y006986D02*
X029378Y006986D01*
X029337Y006887D02*
X029585Y006887D01*
X029679Y006789D02*
X029243Y006789D01*
X029051Y006690D02*
X029871Y006690D01*
X030051Y006690D02*
X032033Y006690D01*
X031981Y006592D02*
X028141Y006592D01*
X028141Y006690D02*
X028871Y006690D01*
X028679Y006789D02*
X028243Y006789D01*
X028337Y006887D02*
X028585Y006887D01*
X028544Y006986D02*
X028378Y006986D01*
X028401Y007084D02*
X028521Y007084D01*
X028521Y007183D02*
X028401Y007183D01*
X028401Y007281D02*
X028521Y007281D01*
X028521Y007380D02*
X028401Y007380D01*
X028401Y007478D02*
X028521Y007478D01*
X028521Y007577D02*
X028401Y007577D01*
X028401Y007675D02*
X028521Y007675D01*
X028521Y007774D02*
X028401Y007774D01*
X028387Y007872D02*
X028536Y007872D01*
X028577Y007971D02*
X028346Y007971D01*
X027577Y007971D02*
X027346Y007971D01*
X027387Y007872D02*
X027536Y007872D01*
X027521Y007774D02*
X027401Y007774D01*
X027401Y007675D02*
X027521Y007675D01*
X027521Y007577D02*
X027401Y007577D01*
X027401Y007478D02*
X027521Y007478D01*
X027521Y007380D02*
X027401Y007380D01*
X027401Y007281D02*
X027521Y007281D01*
X027521Y007183D02*
X027401Y007183D01*
X027401Y007084D02*
X027521Y007084D01*
X027544Y006986D02*
X027378Y006986D01*
X027337Y006887D02*
X027585Y006887D01*
X027679Y006789D02*
X027243Y006789D01*
X028141Y006493D02*
X031981Y006493D01*
X031981Y006395D02*
X028141Y006395D01*
X028141Y006296D02*
X031981Y006296D01*
X032024Y006198D02*
X028142Y006198D01*
X027961Y006202D02*
X027963Y006172D01*
X027968Y006142D01*
X027977Y006113D01*
X027990Y006086D01*
X028005Y006060D01*
X028024Y006036D01*
X028045Y006015D01*
X028069Y005996D01*
X028095Y005981D01*
X028122Y005968D01*
X028151Y005959D01*
X028181Y005954D01*
X028211Y005952D01*
X033211Y005952D01*
X033559Y005959D02*
X033660Y005959D01*
X033781Y006081D01*
X033781Y005798D01*
X033660Y005919D01*
X033582Y005919D01*
X033559Y005959D01*
X033677Y005902D02*
X033781Y005902D01*
X033776Y005804D02*
X033781Y005804D01*
X033961Y005739D02*
X033961Y008989D01*
X034141Y008956D02*
X037931Y008956D01*
X037931Y009054D02*
X034141Y009054D01*
X034141Y009153D02*
X037931Y009153D01*
X037931Y009251D02*
X034141Y009251D01*
X034141Y009350D02*
X036378Y009350D01*
X036229Y009448D02*
X034141Y009448D01*
X034141Y009547D02*
X034366Y009547D01*
X034313Y009568D02*
X034474Y009502D01*
X034648Y009502D01*
X034809Y009568D01*
X034932Y009692D01*
X034999Y009852D01*
X034999Y010026D01*
X034932Y010187D01*
X034809Y010310D01*
X034648Y010377D01*
X034474Y010377D01*
X034313Y010310D01*
X034190Y010187D01*
X034124Y010026D01*
X034124Y009852D01*
X034190Y009692D01*
X034313Y009568D01*
X034237Y009645D02*
X034141Y009645D01*
X034141Y009744D02*
X034169Y009744D01*
X034128Y009842D02*
X034091Y009842D01*
X034124Y009941D02*
X034034Y009941D01*
X034026Y009954D02*
X034026Y009954D01*
X033993Y010039D02*
X034129Y010039D01*
X034170Y010138D02*
X033953Y010138D01*
X033883Y010236D02*
X034240Y010236D01*
X034373Y010335D02*
X033750Y010335D01*
X034750Y010335D02*
X035965Y010335D01*
X035931Y010236D02*
X034883Y010236D01*
X034953Y010138D02*
X035931Y010138D01*
X035931Y010039D02*
X034993Y010039D01*
X034999Y009941D02*
X035931Y009941D01*
X035965Y009842D02*
X034995Y009842D01*
X034954Y009744D02*
X036006Y009744D01*
X036047Y009645D02*
X034886Y009645D01*
X034757Y009547D02*
X036130Y009547D01*
X037145Y009350D02*
X037931Y009350D01*
X037931Y009448D02*
X037294Y009448D01*
X037392Y009547D02*
X037931Y009547D01*
X037931Y009645D02*
X037476Y009645D01*
X037516Y009744D02*
X037931Y009744D01*
X037931Y009842D02*
X037557Y009842D01*
X037591Y009941D02*
X037931Y009941D01*
X037931Y010039D02*
X037591Y010039D01*
X037591Y010138D02*
X037931Y010138D01*
X037931Y010236D02*
X037591Y010236D01*
X037558Y010335D02*
X037931Y010335D01*
X037931Y010433D02*
X037517Y010433D01*
X037476Y010532D02*
X037931Y010532D01*
X037931Y010630D02*
X037394Y010630D01*
X037295Y010729D02*
X037931Y010729D01*
X037931Y010827D02*
X037148Y010827D01*
X037892Y011024D02*
X001800Y011024D01*
X001765Y010926D02*
X037927Y010926D01*
X037810Y011123D02*
X001883Y011123D01*
X007751Y007478D02*
X009531Y007478D01*
X009531Y007380D02*
X007751Y007380D01*
X007676Y007281D02*
X009531Y007281D01*
X009531Y007183D02*
X007577Y007183D01*
X005548Y006789D02*
X005354Y006789D01*
X005451Y006692D02*
X005451Y006692D01*
X005451Y006692D01*
X005380Y006099D02*
X005523Y006099D01*
X005679Y006001D02*
X005224Y006001D01*
X005214Y005902D02*
X005738Y005902D01*
X005547Y005804D02*
X005383Y005804D01*
X005101Y005804D02*
X005021Y005804D01*
X005021Y005902D02*
X005101Y005902D01*
X005101Y005705D02*
X005021Y005705D01*
X005021Y005607D02*
X005101Y005607D01*
X005101Y005508D02*
X005021Y005508D01*
X004601Y005311D02*
X001761Y005311D01*
X001761Y005213D02*
X004642Y005213D01*
X004715Y005114D02*
X001761Y005114D01*
X004202Y004326D02*
X006531Y004326D01*
X006531Y004228D02*
X004436Y004228D01*
X006891Y004622D02*
X006972Y004622D01*
X006891Y004720D02*
X007070Y004720D01*
X007131Y004819D02*
X006891Y004819D01*
X006891Y004917D02*
X007145Y004917D01*
X007311Y004779D02*
X007311Y004339D01*
X007506Y004819D02*
X009163Y004819D01*
X009891Y004819D02*
X011853Y004819D01*
X011853Y004917D02*
X009891Y004917D01*
X012213Y004425D02*
X012877Y004425D01*
X012691Y004326D02*
X012213Y004326D01*
X012213Y004228D02*
X012593Y004228D01*
X016641Y005114D02*
X016704Y005114D01*
X014658Y005736D02*
X014658Y005736D01*
X014502Y005736D02*
X014502Y005736D01*
X014450Y005705D02*
X014366Y005705D01*
X016461Y005892D02*
X016463Y005912D01*
X016467Y005931D01*
X016475Y005949D01*
X016485Y005965D01*
X016498Y005980D01*
X016513Y005993D01*
X016529Y006003D01*
X016547Y006011D01*
X016566Y006015D01*
X016586Y006017D01*
X016641Y005804D02*
X016957Y005804D01*
X016874Y006689D02*
X017049Y006689D01*
X017210Y006756D01*
X017279Y006825D01*
X017279Y006633D01*
X016499Y006633D01*
X016560Y006668D01*
X016560Y006668D01*
X016560Y006668D01*
X016641Y006810D01*
X016641Y006827D01*
X016712Y006756D01*
X016874Y006689D01*
X016871Y006690D02*
X016572Y006690D01*
X016629Y006789D02*
X016679Y006789D01*
X017051Y006690D02*
X017279Y006690D01*
X017279Y006789D02*
X017243Y006789D01*
X017639Y006789D02*
X017679Y006789D01*
X015061Y007478D02*
X014961Y007478D01*
X014961Y007577D02*
X015061Y007577D01*
X015061Y007675D02*
X014961Y007675D01*
X014961Y007774D02*
X015061Y007774D01*
X015061Y007872D02*
X014961Y007872D01*
X016641Y008069D02*
X016659Y008069D01*
X016641Y008168D02*
X016822Y008168D01*
X017459Y008202D02*
X019336Y008202D01*
X019356Y008200D01*
X019375Y008196D01*
X019393Y008188D01*
X019409Y008178D01*
X019424Y008165D01*
X019437Y008150D01*
X019447Y008134D01*
X019455Y008116D01*
X019459Y008097D01*
X019461Y008077D01*
X019448Y008365D02*
X019975Y008365D01*
X019711Y009569D02*
X019693Y009572D01*
X019662Y009590D01*
X019644Y009621D01*
X019641Y009639D01*
X019641Y010255D01*
X019552Y010409D01*
X022472Y010409D01*
X022472Y010334D01*
X022413Y010310D01*
X022290Y010187D01*
X022224Y010026D01*
X022224Y009852D01*
X022290Y009692D01*
X022413Y009569D01*
X022106Y009569D01*
X022109Y009574D01*
X022119Y009612D01*
X022119Y009911D01*
X021690Y009911D01*
X021690Y009968D01*
X022119Y009968D01*
X022119Y010267D01*
X022109Y010305D01*
X022089Y010339D01*
X022061Y010367D01*
X022027Y010387D01*
X021988Y010397D01*
X021690Y010397D01*
X021690Y009968D01*
X021633Y009968D01*
X021633Y010397D01*
X021334Y010397D01*
X021296Y010387D01*
X021262Y010367D01*
X021234Y010339D01*
X021214Y010305D01*
X021204Y010267D01*
X021204Y009968D01*
X021633Y009968D01*
X021633Y009911D01*
X021204Y009911D01*
X021204Y009612D01*
X021214Y009574D01*
X021217Y009569D01*
X019711Y009569D01*
X019711Y009389D02*
X019681Y009391D01*
X019651Y009396D01*
X019622Y009405D01*
X019595Y009418D01*
X019569Y009433D01*
X019545Y009452D01*
X019524Y009473D01*
X019505Y009497D01*
X019490Y009523D01*
X019477Y009550D01*
X019468Y009579D01*
X019463Y009609D01*
X019461Y009639D01*
X019461Y010139D01*
X019641Y010138D02*
X021204Y010138D01*
X021204Y010236D02*
X019641Y010236D01*
X019595Y010335D02*
X021231Y010335D01*
X021633Y010335D02*
X021690Y010335D01*
X021690Y010236D02*
X021633Y010236D01*
X021633Y010138D02*
X021690Y010138D01*
X021690Y010039D02*
X021633Y010039D01*
X021633Y009941D02*
X019641Y009941D01*
X019641Y010039D02*
X021204Y010039D01*
X021204Y009842D02*
X019641Y009842D01*
X019641Y009744D02*
X021204Y009744D01*
X021204Y009645D02*
X019641Y009645D01*
X021690Y009941D02*
X022224Y009941D01*
X022229Y010039D02*
X022119Y010039D01*
X022119Y010138D02*
X022270Y010138D01*
X022340Y010236D02*
X022119Y010236D01*
X022091Y010335D02*
X022472Y010335D01*
X022850Y010335D02*
X023473Y010335D01*
X023340Y010236D02*
X022983Y010236D01*
X023053Y010138D02*
X023270Y010138D01*
X023229Y010039D02*
X023093Y010039D01*
X023099Y009941D02*
X023224Y009941D01*
X023228Y009842D02*
X023095Y009842D01*
X023054Y009744D02*
X023269Y009744D01*
X023337Y009645D02*
X022986Y009645D01*
X022337Y009645D02*
X022119Y009645D01*
X022119Y009744D02*
X022269Y009744D01*
X022228Y009842D02*
X022119Y009842D01*
X022661Y009939D02*
X022652Y009989D01*
X022652Y010589D01*
X025053Y010138D02*
X025270Y010138D01*
X025229Y010039D02*
X025093Y010039D01*
X025099Y009941D02*
X025224Y009941D01*
X025228Y009842D02*
X025095Y009842D01*
X025054Y009744D02*
X025269Y009744D01*
X025337Y009645D02*
X024986Y009645D01*
X024857Y009547D02*
X025466Y009547D01*
X025481Y009448D02*
X024841Y009448D01*
X024841Y009350D02*
X025481Y009350D01*
X025481Y009251D02*
X024841Y009251D01*
X024841Y009153D02*
X025481Y009153D01*
X025522Y009054D02*
X024841Y009054D01*
X024841Y008956D02*
X025578Y008956D01*
X025596Y008925D02*
X025596Y008925D01*
X025661Y009239D02*
X025661Y009939D01*
X026054Y009744D02*
X026269Y009744D01*
X026228Y009842D02*
X026095Y009842D01*
X026099Y009941D02*
X026224Y009941D01*
X026229Y010039D02*
X026093Y010039D01*
X026053Y010138D02*
X026270Y010138D01*
X027053Y010138D02*
X029104Y010138D01*
X029104Y010039D02*
X027093Y010039D01*
X027099Y009941D02*
X029533Y009941D01*
X029533Y009842D02*
X029590Y009842D01*
X029590Y009744D02*
X029533Y009744D01*
X029533Y009645D02*
X029590Y009645D01*
X029590Y009547D02*
X029533Y009547D01*
X029983Y009448D02*
X025841Y009448D01*
X025841Y009350D02*
X030126Y009350D01*
X029130Y009547D02*
X026857Y009547D01*
X026986Y009645D02*
X029104Y009645D01*
X029104Y009744D02*
X027054Y009744D01*
X027095Y009842D02*
X029104Y009842D01*
X030561Y009871D02*
X030561Y009939D01*
X030561Y009871D02*
X030576Y010171D01*
X030576Y010196D01*
X030750Y010335D02*
X031373Y010335D01*
X031240Y010236D02*
X030883Y010236D01*
X030953Y010138D02*
X031170Y010138D01*
X031129Y010039D02*
X030993Y010039D01*
X030999Y009941D02*
X031124Y009941D01*
X031128Y009842D02*
X030995Y009842D01*
X030954Y009744D02*
X031169Y009744D01*
X031311Y009489D02*
X031341Y009491D01*
X031371Y009496D01*
X031400Y009505D01*
X031427Y009518D01*
X031453Y009533D01*
X031477Y009552D01*
X031498Y009573D01*
X031517Y009597D01*
X031532Y009623D01*
X031545Y009650D01*
X031554Y009679D01*
X031559Y009709D01*
X031561Y009739D01*
X031561Y009939D01*
X030705Y010433D02*
X036005Y010433D01*
X036046Y010532D02*
X030658Y010532D01*
X030559Y010630D02*
X036129Y010630D01*
X033711Y009889D02*
X033561Y009889D01*
X033561Y009939D01*
X033757Y009547D02*
X033781Y009547D01*
X033781Y009251D02*
X025841Y009251D01*
X025661Y009239D02*
X025663Y009209D01*
X025668Y009179D01*
X025677Y009150D01*
X025690Y009123D01*
X025705Y009097D01*
X025724Y009073D01*
X025745Y009052D01*
X025769Y009033D01*
X025795Y009018D01*
X025822Y009005D01*
X025851Y008996D01*
X025881Y008991D01*
X025911Y008989D01*
X025857Y009547D02*
X026466Y009547D01*
X026337Y009645D02*
X025986Y009645D01*
X027961Y007439D02*
X027961Y006202D01*
X030243Y006789D02*
X032132Y006789D01*
X032230Y006887D02*
X030337Y006887D01*
X032899Y006198D02*
X033024Y006198D01*
X032981Y006296D02*
X032941Y006296D01*
X033702Y006001D02*
X033781Y006001D01*
X034141Y006001D02*
X034221Y006001D01*
X034245Y005902D02*
X034141Y005902D01*
X034141Y005804D02*
X034147Y005804D01*
X033961Y005739D02*
X033963Y005709D01*
X033968Y005679D01*
X033977Y005650D01*
X033990Y005623D01*
X034005Y005597D01*
X034024Y005573D01*
X034045Y005552D01*
X034069Y005533D01*
X034095Y005518D01*
X034122Y005505D01*
X034151Y005496D01*
X034181Y005491D01*
X034211Y005489D01*
X034461Y005489D01*
X034461Y005439D01*
X034461Y001523D01*
X034641Y001568D02*
X035981Y001568D01*
X035981Y001470D02*
X034641Y001470D01*
X034626Y001371D02*
X035981Y001371D01*
X036003Y001273D02*
X034585Y001273D01*
X034530Y001174D02*
X036043Y001174D01*
X036084Y001076D02*
X034432Y001076D01*
X034249Y000977D02*
X036150Y000977D01*
X037843Y000485D02*
X017565Y000485D01*
X017554Y000458D02*
X017554Y000458D01*
X017606Y000583D02*
X037906Y000583D01*
X038136Y000204D02*
X038136Y000189D01*
X038121Y000189D01*
X038136Y000204D01*
X038136Y000189D02*
X038121Y000189D01*
X034068Y001129D02*
X033382Y001129D01*
X034068Y001129D02*
X034107Y001131D01*
X034145Y001137D01*
X034182Y001146D01*
X034219Y001159D01*
X034254Y001176D01*
X034287Y001195D01*
X034318Y001218D01*
X034347Y001244D01*
X034373Y001273D01*
X034396Y001304D01*
X034415Y001337D01*
X034432Y001372D01*
X034445Y001409D01*
X034454Y001446D01*
X034460Y001484D01*
X034462Y001523D01*
X034641Y001667D02*
X035986Y001667D01*
X036027Y001765D02*
X034641Y001765D01*
X034641Y001864D02*
X036068Y001864D01*
X036111Y001962D02*
X034641Y001962D01*
X034641Y002061D02*
X036209Y002061D01*
X036308Y002159D02*
X034641Y002159D01*
X034641Y002258D02*
X036498Y002258D01*
X037931Y002652D02*
X034641Y002652D01*
X034641Y002750D02*
X037931Y002750D01*
X037931Y002849D02*
X034641Y002849D01*
X034641Y002947D02*
X036471Y002947D01*
X036451Y002968D02*
X036548Y002871D01*
X037115Y002871D01*
X037211Y002968D01*
X037211Y003104D01*
X037115Y003201D01*
X037068Y003201D01*
X037068Y003319D01*
X037014Y003374D01*
X037043Y003403D01*
X037140Y003500D01*
X037140Y003636D01*
X037054Y003721D01*
X037140Y003807D01*
X037140Y003943D01*
X037054Y004028D01*
X037068Y004042D01*
X037068Y004394D01*
X037014Y004448D01*
X037068Y004502D01*
X037068Y004711D01*
X036971Y004807D01*
X036923Y004807D01*
X037195Y004988D01*
X037222Y005122D01*
X037146Y005236D01*
X037012Y005263D01*
X036468Y004900D01*
X036441Y004766D01*
X036467Y004727D01*
X036451Y004711D01*
X036451Y004502D01*
X036505Y004448D01*
X036451Y004394D01*
X036451Y004275D01*
X036404Y004275D01*
X036307Y004178D01*
X036307Y004042D01*
X036404Y003945D01*
X036451Y003945D01*
X036451Y003878D01*
X036536Y003793D01*
X036451Y003708D01*
X036451Y003571D01*
X036541Y003481D01*
X036451Y003391D01*
X036451Y003254D01*
X036526Y003179D01*
X036451Y003104D01*
X036451Y002968D01*
X036451Y003046D02*
X034641Y003046D01*
X034641Y003144D02*
X036491Y003144D01*
X036463Y003243D02*
X034641Y003243D01*
X034641Y003341D02*
X036451Y003341D01*
X036500Y003440D02*
X034641Y003440D01*
X034641Y003538D02*
X036484Y003538D01*
X036451Y003637D02*
X034641Y003637D01*
X034641Y003735D02*
X036478Y003735D01*
X036495Y003834D02*
X034641Y003834D01*
X034641Y003932D02*
X036451Y003932D01*
X036318Y004031D02*
X034641Y004031D01*
X034641Y004129D02*
X036307Y004129D01*
X036357Y004228D02*
X034641Y004228D01*
X034641Y004326D02*
X036451Y004326D01*
X036482Y004425D02*
X034641Y004425D01*
X034641Y004523D02*
X036451Y004523D01*
X036451Y004622D02*
X034641Y004622D01*
X034641Y004720D02*
X036461Y004720D01*
X036451Y004819D02*
X034641Y004819D01*
X034641Y004917D02*
X036493Y004917D01*
X036641Y005016D02*
X034717Y005016D01*
X034815Y005114D02*
X036515Y005114D01*
X036517Y005113D02*
X036651Y005086D01*
X037195Y005449D01*
X037222Y005583D01*
X037189Y005631D01*
X037211Y005653D01*
X037211Y005790D01*
X037115Y005887D01*
X037068Y005887D01*
X037068Y006005D01*
X037014Y006059D01*
X037043Y006089D01*
X037186Y006089D01*
X037283Y006185D01*
X037283Y006322D01*
X037186Y006419D01*
X037066Y006419D01*
X037140Y006492D01*
X037140Y006629D01*
X037126Y006642D01*
X037211Y006727D01*
X037211Y006864D01*
X037115Y006961D01*
X037068Y006961D01*
X037078Y006976D01*
X037056Y007086D01*
X037186Y007086D01*
X037283Y007183D01*
X037931Y007183D01*
X037931Y007281D02*
X037283Y007281D01*
X037283Y007319D02*
X037283Y007183D01*
X037283Y007319D02*
X037186Y007416D01*
X037066Y007416D01*
X037140Y007490D01*
X037140Y007626D01*
X037043Y007723D01*
X036971Y007795D01*
X036853Y007795D01*
X036853Y007858D01*
X036971Y007858D01*
X037043Y007930D01*
X037186Y007930D01*
X037283Y008027D01*
X037283Y008164D01*
X037186Y008260D01*
X036994Y008260D01*
X036996Y008262D01*
X037068Y008334D01*
X037068Y008614D01*
X036971Y008711D01*
X036899Y008782D01*
X036619Y008782D01*
X036523Y008686D01*
X036451Y008614D01*
X036451Y008334D01*
X036500Y008285D01*
X036451Y008235D01*
X036451Y007955D01*
X036462Y007944D01*
X036451Y007933D01*
X036451Y007725D01*
X036464Y007712D01*
X036451Y007698D01*
X036451Y007561D01*
X036536Y007476D01*
X036451Y007391D01*
X036451Y007111D01*
X036465Y007097D01*
X036441Y006976D01*
X036490Y006903D01*
X036451Y006864D01*
X036451Y006727D01*
X036464Y006714D01*
X036451Y006701D01*
X036451Y006564D01*
X036536Y006479D01*
X036451Y006394D01*
X036451Y006114D01*
X036505Y006059D01*
X036451Y006005D01*
X036451Y005653D01*
X036548Y005557D01*
X036762Y005557D01*
X036468Y005360D01*
X036441Y005226D01*
X036517Y005113D01*
X036450Y005213D02*
X034914Y005213D01*
X034941Y005311D02*
X036458Y005311D01*
X036542Y005410D02*
X034941Y005410D01*
X034941Y005508D02*
X036689Y005508D01*
X036497Y005607D02*
X034941Y005607D01*
X034874Y005705D02*
X036451Y005705D01*
X036451Y005804D02*
X034776Y005804D01*
X034677Y005902D02*
X036451Y005902D01*
X036451Y006001D02*
X034702Y006001D01*
X034800Y006099D02*
X036465Y006099D01*
X036451Y006198D02*
X034899Y006198D01*
X034941Y006296D02*
X036451Y006296D01*
X036452Y006395D02*
X034941Y006395D01*
X034941Y006493D02*
X036521Y006493D01*
X036451Y006592D02*
X034941Y006592D01*
X034889Y006690D02*
X036451Y006690D01*
X036451Y006789D02*
X034791Y006789D01*
X034692Y006887D02*
X036474Y006887D01*
X036443Y006986D02*
X034141Y006986D01*
X034141Y007084D02*
X036462Y007084D01*
X036451Y007183D02*
X034141Y007183D01*
X034141Y007281D02*
X036451Y007281D01*
X036451Y007380D02*
X034141Y007380D01*
X034141Y007478D02*
X036534Y007478D01*
X036451Y007577D02*
X034141Y007577D01*
X034141Y007675D02*
X036451Y007675D01*
X036451Y007774D02*
X034141Y007774D01*
X034141Y007872D02*
X036451Y007872D01*
X036451Y007971D02*
X034141Y007971D01*
X034141Y008069D02*
X036451Y008069D01*
X036451Y008168D02*
X034141Y008168D01*
X034141Y008266D02*
X036482Y008266D01*
X036451Y008365D02*
X034141Y008365D01*
X034141Y008463D02*
X036451Y008463D01*
X036451Y008562D02*
X034141Y008562D01*
X034141Y008660D02*
X036497Y008660D01*
X036596Y008759D02*
X034141Y008759D01*
X034141Y008857D02*
X037931Y008857D01*
X037931Y008759D02*
X036923Y008759D01*
X037021Y008660D02*
X037931Y008660D01*
X037931Y008562D02*
X037068Y008562D01*
X037068Y008463D02*
X037931Y008463D01*
X037931Y008365D02*
X037068Y008365D01*
X037000Y008266D02*
X037931Y008266D01*
X037931Y008168D02*
X037279Y008168D01*
X037283Y008069D02*
X037931Y008069D01*
X037931Y007971D02*
X037227Y007971D01*
X036985Y007872D02*
X037931Y007872D01*
X037931Y007774D02*
X036992Y007774D01*
X037043Y007723D02*
X037043Y007723D01*
X037091Y007675D02*
X037931Y007675D01*
X037931Y007577D02*
X037140Y007577D01*
X037128Y007478D02*
X037931Y007478D01*
X037931Y007380D02*
X037223Y007380D01*
X037056Y007084D02*
X037931Y007084D01*
X037931Y006986D02*
X037076Y006986D01*
X037188Y006887D02*
X037931Y006887D01*
X037931Y006789D02*
X037211Y006789D01*
X037174Y006690D02*
X037931Y006690D01*
X037931Y006592D02*
X037140Y006592D01*
X037140Y006493D02*
X037931Y006493D01*
X037931Y006395D02*
X037210Y006395D01*
X037283Y006296D02*
X037931Y006296D01*
X037931Y006198D02*
X037283Y006198D01*
X037197Y006099D02*
X037931Y006099D01*
X037931Y006001D02*
X037068Y006001D01*
X037068Y005902D02*
X037931Y005902D01*
X037931Y005804D02*
X037197Y005804D01*
X037211Y005705D02*
X037931Y005705D01*
X037931Y005607D02*
X037205Y005607D01*
X037207Y005508D02*
X037931Y005508D01*
X037931Y005410D02*
X037137Y005410D01*
X036989Y005311D02*
X037931Y005311D01*
X037931Y005213D02*
X037161Y005213D01*
X037220Y005114D02*
X037931Y005114D01*
X037931Y005016D02*
X037200Y005016D01*
X037088Y004917D02*
X037931Y004917D01*
X037931Y004819D02*
X036941Y004819D01*
X037058Y004720D02*
X037931Y004720D01*
X037931Y004622D02*
X037068Y004622D01*
X037068Y004523D02*
X037931Y004523D01*
X037931Y004425D02*
X037037Y004425D01*
X037068Y004326D02*
X037931Y004326D01*
X037931Y004228D02*
X037068Y004228D01*
X037068Y004129D02*
X037931Y004129D01*
X037931Y004031D02*
X037057Y004031D01*
X037140Y003932D02*
X037931Y003932D01*
X037931Y003834D02*
X037140Y003834D01*
X037068Y003735D02*
X037931Y003735D01*
X037931Y003637D02*
X037139Y003637D01*
X037140Y003538D02*
X037931Y003538D01*
X037931Y003440D02*
X037080Y003440D01*
X037043Y003403D02*
X037043Y003403D01*
X037046Y003341D02*
X037931Y003341D01*
X037931Y003243D02*
X037068Y003243D01*
X037171Y003144D02*
X037931Y003144D01*
X037931Y003046D02*
X037211Y003046D01*
X037191Y002947D02*
X037931Y002947D01*
X034206Y005016D02*
X033717Y005016D01*
X033815Y005114D02*
X034107Y005114D01*
X034009Y005213D02*
X033914Y005213D01*
X033941Y005311D02*
X033981Y005311D01*
X033461Y005439D02*
X033461Y005702D01*
X033459Y005732D01*
X033454Y005762D01*
X033445Y005791D01*
X033432Y005818D01*
X033417Y005844D01*
X033398Y005868D01*
X033377Y005889D01*
X033353Y005908D01*
X033327Y005923D01*
X033300Y005936D01*
X033271Y005945D01*
X033241Y005950D01*
X033211Y005952D01*
X033048Y005705D02*
X032902Y005705D01*
X032961Y005607D02*
X032981Y005607D01*
X032981Y005508D02*
X032961Y005508D01*
X032981Y005410D02*
X032511Y005410D01*
X032511Y005311D02*
X032411Y005311D01*
X032411Y005213D02*
X032511Y005213D01*
X032511Y005114D02*
X032411Y005114D01*
X032411Y005016D02*
X032511Y005016D01*
X032745Y005016D02*
X033206Y005016D01*
X033107Y005114D02*
X032843Y005114D01*
X032942Y005213D02*
X033009Y005213D01*
X032981Y005311D02*
X032961Y005311D01*
X036693Y005114D02*
X036789Y005114D01*
X036841Y005213D02*
X036937Y005213D01*
X034230Y006887D02*
X034141Y006887D01*
X033781Y006887D02*
X033692Y006887D01*
X033641Y006986D02*
X033781Y006986D01*
X033781Y007084D02*
X033641Y007084D01*
X033641Y007183D02*
X033781Y007183D01*
X033781Y007281D02*
X033641Y007281D01*
X033641Y007380D02*
X033781Y007380D01*
X033781Y007478D02*
X033641Y007478D01*
X033641Y007577D02*
X033781Y007577D01*
X033781Y007675D02*
X033641Y007675D01*
X033641Y007774D02*
X033781Y007774D01*
X033781Y007872D02*
X033641Y007872D01*
X033641Y007971D02*
X033781Y007971D01*
X033781Y008069D02*
X033640Y008069D01*
X033583Y008168D02*
X033781Y008168D01*
X033781Y008266D02*
X033526Y008266D01*
X033356Y008365D02*
X033781Y008365D01*
X024606Y005016D02*
X024336Y005016D01*
X024390Y004917D02*
X024555Y004917D01*
X024521Y004819D02*
X024416Y004819D01*
X024421Y004720D02*
X024521Y004720D01*
X024521Y004622D02*
X024421Y004622D01*
X024421Y004523D02*
X024521Y004523D01*
X024521Y004425D02*
X023991Y004425D01*
X023931Y004425D02*
X023401Y004425D01*
X023401Y004523D02*
X023501Y004523D01*
X023501Y004622D02*
X023401Y004622D01*
X023401Y004720D02*
X023501Y004720D01*
X023507Y004819D02*
X023401Y004819D01*
X023368Y004917D02*
X023532Y004917D01*
X023586Y005016D02*
X023317Y005016D01*
X022961Y005268D02*
X022961Y004439D01*
X022521Y004425D02*
X022401Y004425D01*
X022401Y004523D02*
X022521Y004523D01*
X022521Y004622D02*
X022401Y004622D01*
X022401Y004720D02*
X022521Y004720D01*
X022521Y004819D02*
X022401Y004819D01*
X022368Y004917D02*
X022555Y004917D01*
X022606Y005016D02*
X022317Y005016D01*
X021606Y005016D02*
X021317Y005016D01*
X021368Y004917D02*
X021555Y004917D01*
X021521Y004819D02*
X021401Y004819D01*
X021401Y004720D02*
X021521Y004720D01*
X021521Y004622D02*
X021401Y004622D01*
X021401Y004523D02*
X021521Y004523D01*
X021521Y004425D02*
X021401Y004425D01*
X021401Y004326D02*
X021521Y004326D01*
X021521Y004228D02*
X021401Y004228D01*
X021401Y004129D02*
X021521Y004129D01*
X021526Y004031D02*
X021397Y004031D01*
X021356Y003932D02*
X021567Y003932D01*
X021634Y003834D02*
X021288Y003834D01*
X021160Y003735D02*
X021763Y003735D01*
X022160Y003735D02*
X022763Y003735D01*
X022634Y003834D02*
X022288Y003834D01*
X022356Y003932D02*
X022567Y003932D01*
X022526Y004031D02*
X022397Y004031D01*
X022401Y004129D02*
X022521Y004129D01*
X022521Y004228D02*
X022401Y004228D01*
X022401Y004326D02*
X022521Y004326D01*
X023401Y004326D02*
X023501Y004326D01*
X023501Y004228D02*
X023401Y004228D01*
X023401Y004129D02*
X023501Y004129D01*
X023511Y004031D02*
X023397Y004031D01*
X023356Y003932D02*
X023545Y003932D01*
X023607Y003834D02*
X023288Y003834D01*
X023160Y003735D02*
X023721Y003735D01*
X023931Y003735D02*
X023991Y003735D01*
X023991Y003834D02*
X023931Y003834D01*
X023931Y003932D02*
X023991Y003932D01*
X023991Y004031D02*
X023931Y004031D01*
X023931Y004129D02*
X023991Y004129D01*
X023991Y004228D02*
X023931Y004228D01*
X023931Y004326D02*
X023991Y004326D01*
X024421Y004326D02*
X024521Y004326D01*
X024521Y004228D02*
X024421Y004228D01*
X024421Y004129D02*
X024521Y004129D01*
X024526Y004031D02*
X024411Y004031D01*
X024377Y003932D02*
X024567Y003932D01*
X024634Y003834D02*
X024315Y003834D01*
X024201Y003735D02*
X024763Y003735D01*
X024767Y003637D02*
X020141Y003637D01*
X020141Y003538D02*
X024767Y003538D01*
X024767Y003440D02*
X020141Y003440D01*
X020141Y003341D02*
X024767Y003341D01*
X024767Y003243D02*
X020089Y003243D01*
X019979Y003144D02*
X024767Y003144D01*
X024767Y003046D02*
X018226Y003046D01*
X018061Y003289D02*
X019836Y003289D01*
X019856Y003291D01*
X019875Y003295D01*
X019893Y003303D01*
X019909Y003313D01*
X019924Y003326D01*
X019937Y003341D01*
X019947Y003357D01*
X019955Y003375D01*
X019959Y003394D01*
X019961Y003414D01*
X019961Y004439D01*
X020401Y004425D02*
X020521Y004425D01*
X020521Y004523D02*
X020401Y004523D01*
X020401Y004622D02*
X020521Y004622D01*
X020521Y004720D02*
X020401Y004720D01*
X020401Y004819D02*
X020521Y004819D01*
X020555Y004917D02*
X020368Y004917D01*
X020317Y005016D02*
X020606Y005016D01*
X020521Y004326D02*
X020401Y004326D01*
X020401Y004228D02*
X020521Y004228D01*
X020521Y004129D02*
X020401Y004129D01*
X020397Y004031D02*
X020526Y004031D01*
X020567Y003932D02*
X020356Y003932D01*
X020288Y003834D02*
X020634Y003834D01*
X020763Y003735D02*
X020160Y003735D01*
X020531Y002553D02*
X020591Y002553D01*
X020591Y002455D02*
X020531Y002455D01*
X020531Y002356D02*
X020591Y002356D01*
X020591Y002258D02*
X020531Y002258D01*
X022842Y002159D02*
X025791Y002159D01*
X025791Y002061D02*
X024761Y002061D01*
X024868Y001962D02*
X025791Y001962D01*
X025791Y001864D02*
X024928Y001864D01*
X024967Y001765D02*
X025791Y001765D01*
X025791Y001667D02*
X024967Y001667D01*
X024956Y001568D02*
X025791Y001568D01*
X025780Y001470D02*
X024916Y001470D01*
X024839Y001371D02*
X025717Y001371D01*
X026035Y001174D02*
X026196Y001174D01*
X026196Y001076D02*
X025936Y001076D01*
X025747Y000977D02*
X026245Y000977D01*
X026343Y000879D02*
X020873Y000879D01*
X020775Y000780D02*
X026442Y000780D01*
X025577Y001134D02*
X024514Y001134D01*
X024514Y001681D01*
X024527Y001681D01*
X024087Y001667D02*
X023067Y001667D01*
X023067Y001765D02*
X024087Y001765D01*
X024126Y001864D02*
X023028Y001864D01*
X022968Y001962D02*
X024186Y001962D01*
X024293Y002061D02*
X022861Y002061D01*
X022661Y002154D02*
X022663Y002184D01*
X022668Y002214D01*
X022677Y002243D01*
X022690Y002270D01*
X022705Y002296D01*
X022724Y002320D01*
X022745Y002341D01*
X022769Y002360D01*
X022795Y002375D01*
X022822Y002388D01*
X022851Y002397D01*
X022881Y002402D01*
X022911Y002404D01*
X024697Y002404D02*
X024727Y002406D01*
X024757Y002411D01*
X024786Y002420D01*
X024813Y002433D01*
X024839Y002448D01*
X024863Y002467D01*
X024884Y002488D01*
X024903Y002512D01*
X024918Y002538D01*
X024931Y002565D01*
X024940Y002594D01*
X024945Y002624D01*
X024947Y002654D01*
X024947Y004363D01*
X024961Y004389D01*
X024961Y004439D01*
X025961Y004439D02*
X025971Y004439D01*
X025971Y001528D01*
X026151Y001568D02*
X026357Y001568D01*
X026258Y001470D02*
X026151Y001470D01*
X026133Y001371D02*
X026196Y001371D01*
X026196Y001273D02*
X026092Y001273D01*
X025971Y001528D02*
X025969Y001489D01*
X025963Y001451D01*
X025954Y001414D01*
X025941Y001377D01*
X025924Y001342D01*
X025905Y001309D01*
X025882Y001278D01*
X025856Y001249D01*
X025827Y001223D01*
X025796Y001200D01*
X025763Y001181D01*
X025728Y001164D01*
X025691Y001151D01*
X025654Y001142D01*
X025616Y001136D01*
X025577Y001134D01*
X024514Y001134D02*
X020561Y001134D01*
X020561Y001189D01*
X020871Y001501D02*
X021001Y001372D01*
X021001Y001314D01*
X022372Y001314D01*
X022254Y001432D01*
X022225Y001501D01*
X020871Y001501D01*
X020903Y001470D02*
X022238Y001470D01*
X022315Y001371D02*
X021001Y001371D01*
X022939Y001371D02*
X024215Y001371D01*
X024138Y001470D02*
X023016Y001470D01*
X023056Y001568D02*
X024098Y001568D01*
X026151Y001667D02*
X026455Y001667D01*
X026925Y001864D02*
X028915Y001864D01*
X028820Y001962D02*
X027023Y001962D01*
X027096Y002061D02*
X028779Y002061D01*
X028754Y002159D02*
X027096Y002159D01*
X018811Y001681D02*
X018781Y001679D01*
X018751Y001674D01*
X018722Y001665D01*
X018695Y001652D01*
X018669Y001637D01*
X018645Y001618D01*
X018624Y001597D01*
X018605Y001573D01*
X018590Y001547D01*
X018577Y001520D01*
X018568Y001491D01*
X018563Y001461D01*
X018561Y001431D01*
X018561Y001189D01*
X015283Y000879D02*
X015123Y000879D01*
X015164Y000977D02*
X015238Y000977D01*
X015215Y001076D02*
X015191Y001076D01*
X015191Y001174D02*
X015211Y001174D01*
X015211Y001273D02*
X015191Y001273D01*
X015191Y001371D02*
X015211Y001371D01*
X022243Y006789D02*
X022651Y006789D01*
X022568Y006887D02*
X022337Y006887D01*
X022378Y006986D02*
X022524Y006986D01*
X022503Y007084D02*
X022401Y007084D01*
X022401Y007183D02*
X022501Y007183D01*
X022501Y007281D02*
X022401Y007281D01*
D24*
X017153Y006017D03*
X015798Y005556D03*
X009361Y005029D03*
X013766Y003339D03*
X018061Y003289D03*
X033382Y001129D03*
X024160Y009520D03*
X019081Y009520D03*
M02*
