G75*
%MOIN*%
%OFA0B0*%
%FSLAX24Y24*%
%IPPOS*%
%LPD*%
%AMOC8*
5,1,8,0,0,1.08239X$1,22.5*
%
%ADD10C,0.0000*%
D10*
X001561Y000689D02*
X001561Y010885D01*
X001563Y010929D01*
X001569Y010972D01*
X001578Y011014D01*
X001591Y011056D01*
X001608Y011096D01*
X001628Y011135D01*
X001651Y011172D01*
X001678Y011206D01*
X001707Y011239D01*
X001740Y011268D01*
X001774Y011295D01*
X001811Y011318D01*
X001850Y011338D01*
X001890Y011355D01*
X001932Y011368D01*
X001974Y011377D01*
X002017Y011383D01*
X002061Y011385D01*
X037631Y011385D01*
X037675Y011383D01*
X037718Y011377D01*
X037760Y011368D01*
X037802Y011355D01*
X037842Y011338D01*
X037881Y011318D01*
X037918Y011295D01*
X037952Y011268D01*
X037985Y011239D01*
X038014Y011206D01*
X038041Y011172D01*
X038064Y011135D01*
X038084Y011096D01*
X038101Y011056D01*
X038114Y011014D01*
X038123Y010972D01*
X038129Y010929D01*
X038131Y010885D01*
X038131Y000689D01*
X038129Y000645D01*
X038123Y000602D01*
X038114Y000560D01*
X038101Y000518D01*
X038084Y000478D01*
X038064Y000439D01*
X038041Y000402D01*
X038014Y000368D01*
X037985Y000335D01*
X037952Y000306D01*
X037918Y000279D01*
X037881Y000256D01*
X037842Y000236D01*
X037802Y000219D01*
X037760Y000206D01*
X037718Y000197D01*
X037675Y000191D01*
X037631Y000189D01*
X002061Y000189D01*
X002017Y000191D01*
X001974Y000197D01*
X001932Y000206D01*
X001890Y000219D01*
X001850Y000236D01*
X001811Y000256D01*
X001774Y000279D01*
X001740Y000306D01*
X001707Y000335D01*
X001678Y000368D01*
X001651Y000402D01*
X001628Y000439D01*
X001608Y000478D01*
X001591Y000518D01*
X001578Y000560D01*
X001569Y000602D01*
X001563Y000645D01*
X001561Y000689D01*
X002331Y001489D02*
X002333Y001539D01*
X002339Y001589D01*
X002349Y001638D01*
X002363Y001686D01*
X002380Y001733D01*
X002401Y001778D01*
X002426Y001822D01*
X002454Y001863D01*
X002486Y001902D01*
X002520Y001939D01*
X002557Y001973D01*
X002597Y002003D01*
X002639Y002030D01*
X002683Y002054D01*
X002729Y002075D01*
X002776Y002091D01*
X002824Y002104D01*
X002874Y002113D01*
X002923Y002118D01*
X002974Y002119D01*
X003024Y002116D01*
X003073Y002109D01*
X003122Y002098D01*
X003170Y002083D01*
X003216Y002065D01*
X003261Y002043D01*
X003304Y002017D01*
X003345Y001988D01*
X003384Y001956D01*
X003420Y001921D01*
X003452Y001883D01*
X003482Y001843D01*
X003509Y001800D01*
X003532Y001756D01*
X003551Y001710D01*
X003567Y001662D01*
X003579Y001613D01*
X003587Y001564D01*
X003591Y001514D01*
X003591Y001464D01*
X003587Y001414D01*
X003579Y001365D01*
X003567Y001316D01*
X003551Y001268D01*
X003532Y001222D01*
X003509Y001178D01*
X003482Y001135D01*
X003452Y001095D01*
X003420Y001057D01*
X003384Y001022D01*
X003345Y000990D01*
X003304Y000961D01*
X003261Y000935D01*
X003216Y000913D01*
X003170Y000895D01*
X003122Y000880D01*
X003073Y000869D01*
X003024Y000862D01*
X002974Y000859D01*
X002923Y000860D01*
X002874Y000865D01*
X002824Y000874D01*
X002776Y000887D01*
X002729Y000903D01*
X002683Y000924D01*
X002639Y000948D01*
X002597Y000975D01*
X002557Y001005D01*
X002520Y001039D01*
X002486Y001076D01*
X002454Y001115D01*
X002426Y001156D01*
X002401Y001200D01*
X002380Y001245D01*
X002363Y001292D01*
X002349Y001340D01*
X002339Y001389D01*
X002333Y001439D01*
X002331Y001489D01*
X002270Y010089D02*
X002272Y010139D01*
X002278Y010189D01*
X002288Y010238D01*
X002302Y010286D01*
X002319Y010333D01*
X002340Y010378D01*
X002365Y010422D01*
X002393Y010463D01*
X002425Y010502D01*
X002459Y010539D01*
X002496Y010573D01*
X002536Y010603D01*
X002578Y010630D01*
X002622Y010654D01*
X002668Y010675D01*
X002715Y010691D01*
X002763Y010704D01*
X002813Y010713D01*
X002862Y010718D01*
X002913Y010719D01*
X002963Y010716D01*
X003012Y010709D01*
X003061Y010698D01*
X003109Y010683D01*
X003155Y010665D01*
X003200Y010643D01*
X003243Y010617D01*
X003284Y010588D01*
X003323Y010556D01*
X003359Y010521D01*
X003391Y010483D01*
X003421Y010443D01*
X003448Y010400D01*
X003471Y010356D01*
X003490Y010310D01*
X003506Y010262D01*
X003518Y010213D01*
X003526Y010164D01*
X003530Y010114D01*
X003530Y010064D01*
X003526Y010014D01*
X003518Y009965D01*
X003506Y009916D01*
X003490Y009868D01*
X003471Y009822D01*
X003448Y009778D01*
X003421Y009735D01*
X003391Y009695D01*
X003359Y009657D01*
X003323Y009622D01*
X003284Y009590D01*
X003243Y009561D01*
X003200Y009535D01*
X003155Y009513D01*
X003109Y009495D01*
X003061Y009480D01*
X003012Y009469D01*
X002963Y009462D01*
X002913Y009459D01*
X002862Y009460D01*
X002813Y009465D01*
X002763Y009474D01*
X002715Y009487D01*
X002668Y009503D01*
X002622Y009524D01*
X002578Y009548D01*
X002536Y009575D01*
X002496Y009605D01*
X002459Y009639D01*
X002425Y009676D01*
X002393Y009715D01*
X002365Y009756D01*
X002340Y009800D01*
X002319Y009845D01*
X002302Y009892D01*
X002288Y009940D01*
X002278Y009989D01*
X002272Y010039D01*
X002270Y010089D01*
X036131Y010089D02*
X036133Y010139D01*
X036139Y010189D01*
X036149Y010238D01*
X036163Y010286D01*
X036180Y010333D01*
X036201Y010378D01*
X036226Y010422D01*
X036254Y010463D01*
X036286Y010502D01*
X036320Y010539D01*
X036357Y010573D01*
X036397Y010603D01*
X036439Y010630D01*
X036483Y010654D01*
X036529Y010675D01*
X036576Y010691D01*
X036624Y010704D01*
X036674Y010713D01*
X036723Y010718D01*
X036774Y010719D01*
X036824Y010716D01*
X036873Y010709D01*
X036922Y010698D01*
X036970Y010683D01*
X037016Y010665D01*
X037061Y010643D01*
X037104Y010617D01*
X037145Y010588D01*
X037184Y010556D01*
X037220Y010521D01*
X037252Y010483D01*
X037282Y010443D01*
X037309Y010400D01*
X037332Y010356D01*
X037351Y010310D01*
X037367Y010262D01*
X037379Y010213D01*
X037387Y010164D01*
X037391Y010114D01*
X037391Y010064D01*
X037387Y010014D01*
X037379Y009965D01*
X037367Y009916D01*
X037351Y009868D01*
X037332Y009822D01*
X037309Y009778D01*
X037282Y009735D01*
X037252Y009695D01*
X037220Y009657D01*
X037184Y009622D01*
X037145Y009590D01*
X037104Y009561D01*
X037061Y009535D01*
X037016Y009513D01*
X036970Y009495D01*
X036922Y009480D01*
X036873Y009469D01*
X036824Y009462D01*
X036774Y009459D01*
X036723Y009460D01*
X036674Y009465D01*
X036624Y009474D01*
X036576Y009487D01*
X036529Y009503D01*
X036483Y009524D01*
X036439Y009548D01*
X036397Y009575D01*
X036357Y009605D01*
X036320Y009639D01*
X036286Y009676D01*
X036254Y009715D01*
X036226Y009756D01*
X036201Y009800D01*
X036180Y009845D01*
X036163Y009892D01*
X036149Y009940D01*
X036139Y009989D01*
X036133Y010039D01*
X036131Y010089D01*
X036181Y001489D02*
X036183Y001539D01*
X036189Y001589D01*
X036199Y001638D01*
X036213Y001686D01*
X036230Y001733D01*
X036251Y001778D01*
X036276Y001822D01*
X036304Y001863D01*
X036336Y001902D01*
X036370Y001939D01*
X036407Y001973D01*
X036447Y002003D01*
X036489Y002030D01*
X036533Y002054D01*
X036579Y002075D01*
X036626Y002091D01*
X036674Y002104D01*
X036724Y002113D01*
X036773Y002118D01*
X036824Y002119D01*
X036874Y002116D01*
X036923Y002109D01*
X036972Y002098D01*
X037020Y002083D01*
X037066Y002065D01*
X037111Y002043D01*
X037154Y002017D01*
X037195Y001988D01*
X037234Y001956D01*
X037270Y001921D01*
X037302Y001883D01*
X037332Y001843D01*
X037359Y001800D01*
X037382Y001756D01*
X037401Y001710D01*
X037417Y001662D01*
X037429Y001613D01*
X037437Y001564D01*
X037441Y001514D01*
X037441Y001464D01*
X037437Y001414D01*
X037429Y001365D01*
X037417Y001316D01*
X037401Y001268D01*
X037382Y001222D01*
X037359Y001178D01*
X037332Y001135D01*
X037302Y001095D01*
X037270Y001057D01*
X037234Y001022D01*
X037195Y000990D01*
X037154Y000961D01*
X037111Y000935D01*
X037066Y000913D01*
X037020Y000895D01*
X036972Y000880D01*
X036923Y000869D01*
X036874Y000862D01*
X036824Y000859D01*
X036773Y000860D01*
X036724Y000865D01*
X036674Y000874D01*
X036626Y000887D01*
X036579Y000903D01*
X036533Y000924D01*
X036489Y000948D01*
X036447Y000975D01*
X036407Y001005D01*
X036370Y001039D01*
X036336Y001076D01*
X036304Y001115D01*
X036276Y001156D01*
X036251Y001200D01*
X036230Y001245D01*
X036213Y001292D01*
X036199Y001340D01*
X036189Y001389D01*
X036183Y001439D01*
X036181Y001489D01*
M02*
