G75*
%MOIN*%
%OFA0B0*%
%FSLAX24Y24*%
%IPPOS*%
%LPD*%
%AMOC8*
5,1,8,0,0,1.08239X$1,22.5*
%
%ADD10C,0.0040*%
%ADD11C,0.0050*%
%ADD12C,0.0060*%
%ADD13C,0.0160*%
%ADD14C,0.0100*%
%ADD15R,0.0340X0.0240*%
%ADD16R,0.1000X0.0200*%
%ADD17R,0.0300X0.0750*%
%ADD18C,0.0080*%
D10*
X002400Y005721D02*
X002536Y005721D01*
X002605Y005790D01*
X002605Y006132D01*
X002746Y006063D02*
X002746Y005995D01*
X002814Y005926D01*
X002951Y005926D01*
X003019Y005858D01*
X003019Y005790D01*
X002951Y005721D01*
X002814Y005721D01*
X002746Y005790D01*
X002400Y005721D02*
X002331Y005790D01*
X002331Y006132D01*
X002746Y006063D02*
X002814Y006132D01*
X002951Y006132D01*
X003019Y006063D01*
X003160Y006132D02*
X003365Y006132D01*
X003434Y006063D01*
X003434Y005995D01*
X003365Y005926D01*
X003160Y005926D01*
X003365Y005926D02*
X003434Y005858D01*
X003434Y005790D01*
X003365Y005721D01*
X003160Y005721D01*
X003160Y006132D01*
X029331Y008061D02*
X029383Y008009D01*
X029590Y008009D01*
X029641Y008061D01*
X029641Y008165D01*
X029590Y008216D01*
X029486Y008216D01*
X029486Y008113D01*
X029383Y008216D02*
X029331Y008165D01*
X029331Y008061D01*
X029434Y008332D02*
X029434Y008487D01*
X029486Y008538D01*
X029641Y008538D01*
X029590Y008654D02*
X029486Y008654D01*
X029434Y008706D01*
X029434Y008861D01*
X029331Y008861D02*
X029641Y008861D01*
X029641Y008706D01*
X029590Y008654D01*
X029641Y008332D02*
X029434Y008332D01*
X030381Y008317D02*
X030381Y008214D01*
X030433Y008162D01*
X030640Y008162D01*
X030691Y008214D01*
X030691Y008317D01*
X030640Y008369D01*
X030691Y008484D02*
X030691Y008588D01*
X030691Y008536D02*
X030381Y008536D01*
X030381Y008484D01*
X030433Y008369D02*
X030381Y008317D01*
X031433Y008156D02*
X031640Y008156D01*
X031691Y008207D01*
X031640Y008319D02*
X031691Y008370D01*
X031691Y008526D01*
X031691Y008641D02*
X031381Y008641D01*
X031484Y008693D02*
X031484Y008796D01*
X031536Y008848D01*
X031691Y008848D01*
X031536Y008641D02*
X031484Y008693D01*
X031484Y008526D02*
X031484Y008370D01*
X031536Y008319D01*
X031640Y008319D01*
X031484Y008207D02*
X031484Y008104D01*
X031536Y007988D02*
X031691Y007988D01*
X031691Y007833D01*
X031640Y007782D01*
X031588Y007833D01*
X031588Y007988D01*
X031536Y007988D02*
X031484Y007937D01*
X031484Y007833D01*
X031691Y007666D02*
X031691Y007459D01*
X031381Y007459D01*
X032331Y007809D02*
X032331Y007965D01*
X032383Y008016D01*
X032590Y008016D01*
X032641Y007965D01*
X032641Y007809D01*
X032331Y007809D01*
X032434Y008183D02*
X032434Y008287D01*
X032486Y008338D01*
X032641Y008338D01*
X032641Y008183D01*
X032590Y008132D01*
X032538Y008183D01*
X032538Y008338D01*
X032434Y008454D02*
X032434Y008557D01*
X032383Y008506D02*
X032590Y008506D01*
X032641Y008557D01*
X032590Y008669D02*
X032538Y008720D01*
X032538Y008876D01*
X032486Y008876D02*
X032641Y008876D01*
X032641Y008720D01*
X032590Y008669D01*
X032434Y008720D02*
X032434Y008824D01*
X032486Y008876D01*
X033381Y008868D02*
X033621Y008868D01*
X033741Y008748D01*
X033621Y008628D01*
X033381Y008628D01*
X033381Y008500D02*
X033381Y008259D01*
X033561Y008259D01*
X033501Y008379D01*
X033501Y008440D01*
X033561Y008500D01*
X033681Y008500D01*
X033741Y008440D01*
X033741Y008319D01*
X033681Y008259D01*
X034381Y008322D02*
X034381Y008442D01*
X034441Y008502D01*
X034501Y008502D01*
X034561Y008442D01*
X034621Y008502D01*
X034681Y008502D01*
X034741Y008442D01*
X034741Y008322D01*
X034681Y008262D01*
X034681Y008138D02*
X034741Y008138D01*
X034741Y008078D01*
X034681Y008078D01*
X034681Y008138D01*
X034441Y008262D02*
X034381Y008322D01*
X034561Y008382D02*
X034561Y008442D01*
X034621Y008630D02*
X034381Y008630D01*
X034621Y008630D02*
X034741Y008750D01*
X034621Y008870D01*
X034381Y008870D01*
X036158Y008712D02*
X036568Y008712D01*
X036568Y008507D01*
X036500Y008438D01*
X036363Y008438D01*
X036295Y008507D01*
X036295Y008712D01*
X036363Y008298D02*
X036568Y008298D01*
X036568Y008092D01*
X036500Y008024D01*
X036432Y008092D01*
X036432Y008298D01*
X036363Y008298D02*
X036295Y008229D01*
X036295Y008092D01*
X036363Y007883D02*
X036500Y007883D01*
X036568Y007815D01*
X036568Y007610D01*
X036705Y007610D02*
X036295Y007610D01*
X036295Y007815D01*
X036363Y007883D01*
X037048Y007891D02*
X037185Y007754D01*
X037322Y007754D02*
X037048Y007754D01*
X037048Y007891D02*
X037048Y007959D01*
X037116Y007613D02*
X037185Y007613D01*
X037185Y007340D01*
X037253Y007340D02*
X037116Y007340D01*
X037048Y007408D01*
X037048Y007545D01*
X037116Y007613D01*
X037322Y007545D02*
X037322Y007408D01*
X037253Y007340D01*
X037322Y007200D02*
X037253Y007132D01*
X036980Y007132D01*
X037048Y007064D02*
X037048Y007200D01*
X036568Y007264D02*
X036500Y007195D01*
X036363Y007195D01*
X036295Y007264D01*
X036295Y007401D01*
X036363Y007469D01*
X036432Y007469D01*
X036432Y007195D01*
X036568Y007264D02*
X036568Y007401D01*
X036568Y007055D02*
X036363Y007055D01*
X036295Y006986D01*
X036363Y006918D01*
X036568Y006918D01*
X036568Y006781D02*
X036295Y006781D01*
X036295Y006849D01*
X036363Y006918D01*
X036363Y006640D02*
X036568Y006640D01*
X036568Y006435D01*
X036500Y006367D01*
X036432Y006435D01*
X036432Y006640D01*
X036363Y006640D02*
X036295Y006572D01*
X036295Y006435D01*
X036363Y006226D02*
X036363Y006089D01*
X036363Y006226D02*
X036500Y006226D01*
X036568Y006157D01*
X036568Y006021D01*
X036500Y005952D01*
X036226Y005952D01*
X036158Y006021D01*
X036158Y006157D01*
X036226Y006226D01*
X036911Y006094D02*
X037322Y006094D01*
X037322Y005889D01*
X037253Y005821D01*
X037116Y005821D01*
X037048Y005889D01*
X037048Y006094D01*
X037253Y006235D02*
X037185Y006303D01*
X037185Y006508D01*
X037116Y006508D02*
X037322Y006508D01*
X037322Y006303D01*
X037253Y006235D01*
X037048Y006303D02*
X037048Y006440D01*
X037116Y006508D01*
X037048Y006649D02*
X037048Y006854D01*
X037116Y006923D01*
X037253Y006923D01*
X037322Y006854D01*
X037322Y006649D01*
X037458Y006649D02*
X037048Y006649D01*
X037048Y005680D02*
X037322Y005680D01*
X037116Y005680D02*
X037116Y005406D01*
X037048Y005406D02*
X036911Y005543D01*
X037048Y005680D01*
X037048Y005406D02*
X037322Y005406D01*
X036568Y005397D02*
X036568Y005192D01*
X036500Y005124D01*
X036363Y005124D01*
X036295Y005192D01*
X036295Y005397D01*
X036568Y004984D02*
X036568Y004847D01*
X036568Y004916D02*
X036295Y004916D01*
X036295Y004847D01*
X036295Y004707D02*
X036295Y004501D01*
X036363Y004433D01*
X036432Y004501D01*
X036432Y004638D01*
X036500Y004707D01*
X036568Y004638D01*
X036568Y004433D01*
X036500Y004292D02*
X036432Y004224D01*
X036432Y004087D01*
X036363Y004019D01*
X036295Y004087D01*
X036295Y004292D01*
X036500Y004292D02*
X036568Y004224D01*
X036568Y004019D01*
X036568Y003878D02*
X036363Y003878D01*
X036295Y003809D01*
X036295Y003673D01*
X036432Y003673D02*
X036432Y003878D01*
X036568Y003878D02*
X036568Y003673D01*
X036500Y003604D01*
X036432Y003673D01*
X036911Y003749D02*
X037253Y003749D01*
X037322Y003817D01*
X037322Y003954D01*
X037253Y004022D01*
X036911Y004022D01*
X036980Y004163D02*
X037048Y004163D01*
X037116Y004231D01*
X037116Y004368D01*
X037185Y004437D01*
X037253Y004437D01*
X037322Y004368D01*
X037322Y004231D01*
X037253Y004163D01*
X036980Y004163D02*
X036911Y004231D01*
X036911Y004368D01*
X036980Y004437D01*
X036911Y004577D02*
X036911Y004783D01*
X036980Y004851D01*
X037048Y004851D01*
X037116Y004783D01*
X037116Y004577D01*
X036911Y004577D02*
X037322Y004577D01*
X037322Y004783D01*
X037253Y004851D01*
X037185Y004851D01*
X037116Y004783D01*
X036158Y004916D02*
X036090Y004916D01*
X036158Y003396D02*
X036568Y003396D01*
X036568Y003328D02*
X036568Y003465D01*
X036158Y003396D02*
X036158Y003328D01*
X036226Y003187D02*
X036158Y003119D01*
X036158Y002982D01*
X036226Y002914D01*
X036500Y002914D01*
X036568Y002982D01*
X036568Y003119D01*
X036500Y003187D01*
X033577Y002573D02*
X033440Y002437D01*
X033167Y002437D01*
X033440Y002710D02*
X033577Y002573D01*
X033440Y002710D02*
X033167Y002710D01*
X033235Y002296D02*
X033303Y002296D01*
X033372Y002227D01*
X033440Y002296D01*
X033508Y002296D01*
X033577Y002227D01*
X033577Y002091D01*
X033508Y002022D01*
X033508Y001883D02*
X033577Y001883D01*
X033577Y001815D01*
X033508Y001815D01*
X033508Y001883D01*
X033235Y002022D02*
X033167Y002091D01*
X033167Y002227D01*
X033235Y002296D01*
X033372Y002227D02*
X033372Y002159D01*
X033440Y001674D02*
X033508Y001674D01*
X033577Y001606D01*
X033577Y001469D01*
X033508Y001401D01*
X033372Y001537D02*
X033372Y001606D01*
X033440Y001674D01*
X033372Y001606D02*
X033303Y001674D01*
X033235Y001674D01*
X033167Y001606D01*
X033167Y001469D01*
X033235Y001401D01*
X034441Y007709D02*
X034381Y007769D01*
X034381Y007890D01*
X034441Y007950D01*
X034501Y007950D01*
X034561Y007890D01*
X034621Y007950D01*
X034681Y007950D01*
X034741Y007890D01*
X034741Y007769D01*
X034681Y007709D01*
X034561Y007829D02*
X034561Y007890D01*
X030691Y008699D02*
X030381Y008699D01*
X030484Y008854D02*
X030588Y008699D01*
X030691Y008854D01*
D11*
X004303Y001330D02*
X004303Y001096D01*
X004303Y001213D02*
X004420Y001330D01*
X004478Y001330D01*
X004668Y001330D02*
X004785Y001330D01*
X004843Y001271D01*
X004843Y001096D01*
X004668Y001096D01*
X004610Y001155D01*
X004668Y001213D01*
X004843Y001213D01*
X004978Y001096D02*
X005153Y001096D01*
X005212Y001155D01*
X005212Y001271D01*
X005153Y001330D01*
X004978Y001330D01*
X004978Y000979D01*
X005346Y001096D02*
X005346Y001447D01*
X005405Y001330D02*
X005522Y001330D01*
X005580Y001271D01*
X005580Y001096D01*
X005715Y001096D02*
X005715Y001330D01*
X005890Y001330D01*
X005948Y001271D01*
X005948Y001096D01*
X006083Y001155D02*
X006083Y001271D01*
X006141Y001330D01*
X006258Y001330D01*
X006317Y001271D01*
X006317Y001213D01*
X006083Y001213D01*
X006083Y001155D02*
X006141Y001096D01*
X006258Y001096D01*
X006510Y001155D02*
X006568Y001096D01*
X006510Y001155D02*
X006510Y001388D01*
X006451Y001330D02*
X006568Y001330D01*
X006881Y001330D02*
X007056Y001330D01*
X007115Y001271D01*
X007115Y001096D01*
X007249Y001155D02*
X007249Y001271D01*
X007308Y001330D01*
X007424Y001330D01*
X007483Y001271D01*
X007483Y001213D01*
X007249Y001213D01*
X007249Y001155D02*
X007308Y001096D01*
X007424Y001096D01*
X007676Y001155D02*
X007734Y001096D01*
X007676Y001155D02*
X007676Y001388D01*
X007618Y001330D02*
X007734Y001330D01*
X007115Y001616D02*
X007115Y001791D01*
X007056Y001849D01*
X006881Y001849D01*
X006881Y001616D01*
X006746Y001674D02*
X006688Y001616D01*
X006571Y001616D01*
X006513Y001674D01*
X006513Y001791D01*
X006571Y001849D01*
X006688Y001849D01*
X006746Y001791D01*
X006746Y001674D01*
X006010Y001616D02*
X005834Y001616D01*
X005776Y001674D01*
X005776Y001791D01*
X005834Y001849D01*
X006010Y001849D01*
X005641Y001791D02*
X005641Y001733D01*
X005408Y001733D01*
X005408Y001791D02*
X005408Y001674D01*
X005466Y001616D01*
X005583Y001616D01*
X005273Y001674D02*
X005215Y001733D01*
X005098Y001733D01*
X005039Y001791D01*
X005098Y001849D01*
X005273Y001849D01*
X005408Y001791D02*
X005466Y001849D01*
X005583Y001849D01*
X005641Y001791D01*
X005273Y001674D02*
X005215Y001616D01*
X005039Y001616D01*
X004905Y001616D02*
X004729Y001616D01*
X004671Y001674D01*
X004729Y001733D01*
X004905Y001733D01*
X004905Y001791D02*
X004905Y001616D01*
X004536Y001674D02*
X004536Y001791D01*
X004478Y001849D01*
X004303Y001849D01*
X004478Y001616D02*
X004536Y001674D01*
X004478Y001616D02*
X004303Y001616D01*
X004303Y001966D01*
X004729Y001849D02*
X004846Y001849D01*
X004905Y001791D01*
X006010Y001966D02*
X006010Y001616D01*
X005405Y001330D02*
X005346Y001271D01*
X006697Y001155D02*
X006755Y001155D01*
X006755Y001096D01*
X006697Y001096D01*
X006697Y001155D01*
X006881Y001096D02*
X006881Y001330D01*
X008206Y002352D02*
X008406Y002352D01*
X008473Y002419D01*
X008473Y002686D01*
X008406Y002753D01*
X008206Y002753D01*
X008206Y002352D01*
X008621Y002352D02*
X008821Y002352D01*
X008888Y002419D01*
X008888Y002486D01*
X008821Y002553D01*
X008621Y002553D01*
X008821Y002553D02*
X008888Y002619D01*
X008888Y002686D01*
X008821Y002753D01*
X008621Y002753D01*
X008621Y002352D01*
X009035Y002419D02*
X009102Y002352D01*
X009235Y002352D01*
X009302Y002419D01*
X009302Y002686D01*
X009235Y002753D01*
X009102Y002753D01*
X009035Y002686D01*
X009035Y002619D01*
X009102Y002553D01*
X009302Y002553D01*
X013774Y003903D02*
X013774Y004037D01*
X013840Y004103D01*
X013907Y004103D01*
X013974Y004037D01*
X014041Y004103D01*
X014107Y004103D01*
X014174Y004037D01*
X014174Y003903D01*
X014107Y003836D01*
X013974Y003970D02*
X013974Y004037D01*
X013774Y003903D02*
X013840Y003836D01*
X014107Y004251D02*
X014107Y004317D01*
X014174Y004317D01*
X014174Y004251D01*
X014107Y004251D01*
X014107Y004458D02*
X014174Y004525D01*
X014174Y004658D01*
X014107Y004725D01*
X014041Y004725D01*
X013974Y004658D01*
X013974Y004458D01*
X014107Y004458D01*
X013974Y004458D02*
X013840Y004591D01*
X013774Y004725D01*
X013774Y004872D02*
X014041Y004872D01*
X014174Y005006D01*
X014041Y005139D01*
X013774Y005139D01*
X013907Y005701D02*
X013907Y005968D01*
X014174Y005701D01*
X014174Y005968D01*
X014107Y006115D02*
X013974Y006115D01*
X013907Y006182D01*
X013907Y006316D01*
X013974Y006382D01*
X014041Y006382D01*
X014041Y006115D01*
X014107Y006115D02*
X014174Y006182D01*
X014174Y006316D01*
X014174Y006530D02*
X013907Y006530D01*
X013907Y006730D01*
X013974Y006797D01*
X014174Y006797D01*
X014107Y006944D02*
X013974Y006944D01*
X013907Y007011D01*
X013907Y007144D01*
X013974Y007211D01*
X014041Y007211D01*
X014041Y006944D01*
X014107Y006944D02*
X014174Y007011D01*
X014174Y007144D01*
X014174Y007358D02*
X013907Y007358D01*
X014041Y007358D02*
X013907Y007492D01*
X013907Y007559D01*
X013974Y007704D02*
X013907Y007770D01*
X013907Y007971D01*
X014041Y007904D02*
X014041Y007770D01*
X013974Y007704D01*
X014174Y007704D02*
X014174Y007904D01*
X014107Y007971D01*
X014041Y007904D01*
X012697Y009014D02*
X012697Y011278D01*
X019626Y011278D01*
X019626Y009014D01*
X012697Y009014D01*
X012536Y009092D02*
X012536Y009225D01*
X012470Y009292D01*
X012203Y009292D02*
X012136Y009225D01*
X012136Y009092D01*
X012203Y009025D01*
X012470Y009025D01*
X012536Y009092D01*
X012972Y009290D02*
X012972Y010439D01*
X019350Y010439D01*
X019350Y009290D01*
X012972Y009290D01*
X012536Y009573D02*
X012136Y009573D01*
X012136Y009706D02*
X012136Y009439D01*
X011400Y009290D02*
X005022Y009290D01*
X005022Y010439D01*
X011400Y010439D01*
X011400Y009290D01*
X011676Y009014D02*
X004747Y009014D01*
X004747Y011278D01*
X011676Y011278D01*
X011676Y009014D01*
X012136Y009854D02*
X012136Y010054D01*
X012203Y010121D01*
X012336Y010121D01*
X012403Y010054D01*
X012403Y009854D01*
X012403Y009987D02*
X012536Y010121D01*
X012536Y010268D02*
X012136Y010268D01*
X012536Y010268D02*
X012536Y010535D01*
X012470Y010682D02*
X012536Y010749D01*
X012536Y010883D01*
X012470Y010949D01*
X012403Y010949D01*
X012336Y010883D01*
X012336Y010816D01*
X012336Y010883D02*
X012269Y010949D01*
X012203Y010949D01*
X012136Y010883D01*
X012136Y010749D01*
X012203Y010682D01*
X012972Y010439D02*
X012972Y011002D01*
X019350Y011002D01*
X019350Y010439D01*
X020125Y010277D02*
X020526Y010277D01*
X020526Y010544D01*
X020526Y010691D02*
X020259Y010958D01*
X020192Y010958D01*
X020125Y010892D01*
X020125Y010758D01*
X020192Y010691D01*
X020526Y010691D02*
X020526Y010958D01*
X020972Y011002D02*
X020972Y010439D01*
X027350Y010439D01*
X027350Y009290D01*
X020972Y009290D01*
X020972Y010439D01*
X020526Y010130D02*
X020392Y009996D01*
X020392Y010063D02*
X020392Y009863D01*
X020526Y009863D02*
X020125Y009863D01*
X020125Y010063D01*
X020192Y010130D01*
X020325Y010130D01*
X020392Y010063D01*
X020125Y009715D02*
X020125Y009448D01*
X020125Y009582D02*
X020526Y009582D01*
X020459Y009301D02*
X020526Y009234D01*
X020526Y009101D01*
X020459Y009034D01*
X020192Y009034D01*
X020125Y009101D01*
X020125Y009234D01*
X020192Y009301D01*
X020697Y009014D02*
X020697Y011278D01*
X027626Y011278D01*
X027626Y009014D01*
X020697Y009014D01*
X020972Y011002D02*
X027350Y011002D01*
X027350Y010439D01*
X028036Y010268D02*
X028436Y010268D01*
X028436Y010535D01*
X028436Y010682D02*
X028436Y010949D01*
X028436Y010816D02*
X028036Y010816D01*
X028169Y010682D01*
X028872Y010439D02*
X035250Y010439D01*
X035250Y009290D01*
X028872Y009290D01*
X028872Y010439D01*
X028872Y011002D01*
X035250Y011002D01*
X035250Y010439D01*
X035526Y011278D02*
X035526Y009014D01*
X028597Y009014D01*
X028597Y011278D01*
X035526Y011278D01*
X028436Y010121D02*
X028303Y009987D01*
X028303Y010054D02*
X028303Y009854D01*
X028436Y009854D02*
X028036Y009854D01*
X028036Y010054D01*
X028103Y010121D01*
X028236Y010121D01*
X028303Y010054D01*
X028036Y009706D02*
X028036Y009439D01*
X028036Y009573D02*
X028436Y009573D01*
X028370Y009292D02*
X028436Y009225D01*
X028436Y009092D01*
X028370Y009025D01*
X028103Y009025D01*
X028036Y009092D01*
X028036Y009225D01*
X028103Y009292D01*
X035136Y006581D02*
X035270Y006715D01*
X035270Y006314D01*
X035403Y006314D02*
X035136Y006314D01*
X034751Y004665D02*
X034826Y004590D01*
X034826Y004440D01*
X034751Y004364D01*
X034526Y004364D01*
X034526Y004214D02*
X034526Y004665D01*
X034751Y004665D01*
X034366Y004590D02*
X034291Y004665D01*
X034141Y004665D01*
X034065Y004590D01*
X034065Y004515D01*
X034141Y004440D01*
X034291Y004440D01*
X034366Y004364D01*
X034366Y004289D01*
X034291Y004214D01*
X034141Y004214D01*
X034065Y004289D01*
X033909Y004214D02*
X033759Y004214D01*
X033834Y004214D02*
X033834Y004665D01*
X033759Y004665D02*
X033909Y004665D01*
X027596Y002493D02*
X027596Y002359D01*
X027462Y002426D02*
X027395Y002493D01*
X027462Y002426D02*
X027796Y002426D01*
X027796Y002212D02*
X027529Y002212D01*
X027796Y002212D02*
X027796Y002011D01*
X027729Y001945D01*
X027529Y001945D01*
X027796Y001797D02*
X027796Y001530D01*
X027796Y001664D02*
X027395Y001664D01*
X027529Y001530D01*
X027729Y001390D02*
X027796Y001390D01*
X027796Y001323D01*
X027729Y001323D01*
X027729Y001390D01*
X027729Y001176D02*
X027462Y001176D01*
X027729Y000909D01*
X027796Y000976D01*
X027796Y001109D01*
X027729Y001176D01*
X027462Y001176D02*
X027395Y001109D01*
X027395Y000976D01*
X027462Y000909D01*
X027729Y000909D01*
X030463Y001098D02*
X030597Y000965D01*
X030463Y001098D02*
X030863Y001098D01*
X030863Y000965D02*
X030863Y001232D01*
X030797Y001379D02*
X030530Y001379D01*
X030463Y001446D01*
X030463Y001579D01*
X030530Y001646D01*
X030797Y001379D01*
X030863Y001446D01*
X030863Y001579D01*
X030797Y001646D01*
X030530Y001646D01*
X030597Y001793D02*
X030797Y001793D01*
X030863Y001860D01*
X030863Y002060D01*
X030597Y002060D01*
X030663Y002208D02*
X030663Y002341D01*
X030530Y002275D02*
X030463Y002341D01*
X030530Y002275D02*
X030863Y002275D01*
X024514Y002834D02*
X024247Y002834D01*
X024514Y003101D01*
X024247Y003101D01*
X024099Y003034D02*
X024099Y002834D01*
X023832Y002834D02*
X023832Y003234D01*
X023685Y003234D02*
X023551Y003101D01*
X023418Y003234D01*
X023418Y002834D01*
X023271Y002834D02*
X023004Y002834D01*
X023271Y003101D01*
X023271Y003167D01*
X023204Y003234D01*
X023070Y003234D01*
X023004Y003167D01*
X022723Y003234D02*
X022723Y002834D01*
X022856Y002834D02*
X022589Y002834D01*
X022589Y003101D02*
X022723Y003234D01*
X023685Y003234D02*
X023685Y002834D01*
X023832Y003034D02*
X023899Y003101D01*
X024033Y003101D01*
X024099Y003034D01*
X019859Y001825D02*
X019459Y001825D01*
X019459Y002026D01*
X019525Y002092D01*
X019659Y002092D01*
X019726Y002026D01*
X019726Y001825D01*
X019726Y001678D02*
X019726Y001411D01*
X019459Y001678D01*
X019392Y001678D01*
X019325Y001611D01*
X019325Y001478D01*
X019392Y001411D01*
X019392Y001264D02*
X019325Y001197D01*
X019325Y001063D01*
X019392Y000997D01*
X019459Y001264D02*
X019726Y000997D01*
X019726Y001264D01*
X019459Y001264D02*
X019392Y001264D01*
X019525Y002240D02*
X019525Y002373D01*
X019392Y002306D02*
X019325Y002373D01*
X019392Y002306D02*
X019726Y002306D01*
X009658Y004211D02*
X009591Y004145D01*
X009457Y004145D01*
X009391Y004211D01*
X009391Y004278D01*
X009457Y004345D01*
X009591Y004345D01*
X009658Y004278D01*
X009658Y004211D01*
X009591Y004345D02*
X009658Y004412D01*
X009658Y004478D01*
X009591Y004545D01*
X009457Y004545D01*
X009391Y004478D01*
X009391Y004412D01*
X009457Y004345D01*
X009243Y004278D02*
X009176Y004345D01*
X008976Y004345D01*
X008976Y004211D01*
X009043Y004145D01*
X009176Y004145D01*
X009243Y004211D01*
X009243Y004278D01*
X009110Y004478D02*
X008976Y004345D01*
X009110Y004478D02*
X009243Y004545D01*
X009253Y005745D02*
X009187Y005745D01*
X009187Y005811D01*
X009253Y005811D01*
X009253Y005745D01*
X009394Y005811D02*
X009460Y005745D01*
X009594Y005745D01*
X009661Y005811D01*
X009661Y005945D01*
X009594Y006012D01*
X009527Y006012D01*
X009394Y005945D01*
X009394Y006145D01*
X009661Y006145D01*
X009808Y006145D02*
X009808Y005745D01*
X009808Y005878D02*
X010008Y006012D01*
X009808Y005878D02*
X010008Y005745D01*
X009039Y005745D02*
X008772Y005745D01*
X008906Y005745D02*
X008906Y006145D01*
X008772Y006012D01*
X009043Y007345D02*
X009176Y007345D01*
X009243Y007411D01*
X009243Y007478D01*
X009176Y007545D01*
X008976Y007545D01*
X008976Y007411D01*
X009043Y007345D01*
X009391Y007411D02*
X009391Y007478D01*
X009457Y007545D01*
X009591Y007545D01*
X009658Y007478D01*
X009658Y007411D01*
X009591Y007345D01*
X009457Y007345D01*
X009391Y007411D01*
X009457Y007545D02*
X009391Y007612D01*
X009391Y007678D01*
X009457Y007745D01*
X009591Y007745D01*
X009658Y007678D01*
X009658Y007612D01*
X009591Y007545D01*
X009243Y007745D02*
X009110Y007678D01*
X008976Y007545D01*
X004556Y009102D02*
X004556Y009236D01*
X004489Y009303D01*
X004222Y009303D02*
X004156Y009236D01*
X004156Y009102D01*
X004222Y009036D01*
X004489Y009036D01*
X004556Y009102D01*
X004156Y009450D02*
X004156Y009717D01*
X004156Y009864D02*
X004156Y010065D01*
X004222Y010131D01*
X004356Y010131D01*
X004422Y010065D01*
X004422Y009864D01*
X004422Y009998D02*
X004556Y010131D01*
X004556Y010279D02*
X004156Y010279D01*
X004556Y010279D02*
X004556Y010546D01*
X004356Y010693D02*
X004356Y010960D01*
X004556Y010893D02*
X004156Y010893D01*
X004356Y010693D01*
X005022Y010439D02*
X005022Y011002D01*
X011400Y011002D01*
X011400Y010439D01*
X012136Y009854D02*
X012536Y009854D01*
X004556Y009864D02*
X004156Y009864D01*
X004156Y009583D02*
X004556Y009583D01*
D12*
X008161Y007989D02*
X008311Y007989D01*
X008361Y007939D01*
X010261Y007939D01*
X010311Y007989D01*
X010461Y007989D01*
X010478Y007987D01*
X010495Y007983D01*
X010511Y007976D01*
X010525Y007966D01*
X010538Y007953D01*
X010548Y007939D01*
X010555Y007923D01*
X010559Y007906D01*
X010561Y007889D01*
X010561Y007189D01*
X010559Y007172D01*
X010555Y007155D01*
X010548Y007139D01*
X010538Y007125D01*
X010525Y007112D01*
X010511Y007102D01*
X010495Y007095D01*
X010478Y007091D01*
X010461Y007089D01*
X010311Y007089D01*
X010261Y007139D01*
X008361Y007139D01*
X008311Y007089D01*
X008161Y007089D01*
X008144Y007091D01*
X008127Y007095D01*
X008111Y007102D01*
X008097Y007112D01*
X008084Y007125D01*
X008074Y007139D01*
X008067Y007155D01*
X008063Y007172D01*
X008061Y007189D01*
X008061Y007889D01*
X008063Y007906D01*
X008067Y007923D01*
X008074Y007939D01*
X008084Y007953D01*
X008097Y007966D01*
X008111Y007976D01*
X008127Y007983D01*
X008144Y007987D01*
X008161Y007989D01*
X012511Y006739D02*
X012511Y005139D01*
X013511Y005139D01*
X013511Y006739D01*
X012511Y006739D01*
X013011Y006539D02*
X013011Y005939D01*
X012761Y005939D01*
X012761Y006039D01*
X013011Y005939D02*
X013261Y005939D01*
X013011Y005939D02*
X012761Y006339D01*
X013261Y006339D01*
X013011Y005939D01*
X013011Y005689D01*
X014511Y005139D02*
X015511Y005139D01*
X015511Y006739D01*
X014511Y006739D01*
X014511Y005139D01*
X015011Y005689D02*
X015011Y005939D01*
X014761Y005939D01*
X014761Y006039D01*
X015011Y005939D02*
X015261Y005939D01*
X015011Y005939D02*
X014761Y006339D01*
X015261Y006339D01*
X015011Y005939D01*
X015011Y006539D01*
X016161Y006189D02*
X016161Y007039D01*
X030761Y007039D01*
X030761Y004839D01*
X016161Y004839D01*
X016161Y005689D01*
X016191Y005691D01*
X016221Y005696D01*
X016250Y005705D01*
X016277Y005718D01*
X016303Y005733D01*
X016327Y005752D01*
X016348Y005773D01*
X016367Y005797D01*
X016382Y005823D01*
X016395Y005850D01*
X016404Y005879D01*
X016409Y005909D01*
X016411Y005939D01*
X016409Y005969D01*
X016404Y005999D01*
X016395Y006028D01*
X016382Y006055D01*
X016367Y006081D01*
X016348Y006105D01*
X016327Y006126D01*
X016303Y006145D01*
X016277Y006160D01*
X016250Y006173D01*
X016221Y006182D01*
X016191Y006187D01*
X016161Y006189D01*
X017474Y006085D02*
X017640Y006251D01*
X017807Y006085D01*
X017807Y005751D01*
X017474Y005751D02*
X017474Y006085D01*
X017474Y006001D02*
X017807Y006001D01*
X018156Y005751D02*
X018156Y006251D01*
X017989Y006251D02*
X018323Y006251D01*
X018505Y006251D02*
X018672Y006085D01*
X018838Y006251D01*
X018838Y005751D01*
X019020Y005751D02*
X019354Y005751D01*
X019536Y005834D02*
X019619Y005751D01*
X019786Y005751D01*
X019870Y005834D01*
X019870Y006001D01*
X019703Y006001D01*
X019536Y006168D02*
X019536Y005834D01*
X019187Y006001D02*
X019020Y006001D01*
X019020Y006251D02*
X019020Y005751D01*
X018505Y005751D02*
X018505Y006251D01*
X019020Y006251D02*
X019354Y006251D01*
X019536Y006168D02*
X019619Y006251D01*
X019786Y006251D01*
X019870Y006168D01*
X020052Y006085D02*
X020219Y006251D01*
X020385Y006085D01*
X020385Y005751D01*
X020567Y005834D02*
X020651Y005751D01*
X020818Y005751D01*
X020901Y005834D01*
X020901Y005918D01*
X020818Y006001D01*
X020651Y006001D01*
X020567Y006085D01*
X020567Y006168D01*
X020651Y006251D01*
X020818Y006251D01*
X020901Y006168D01*
X020901Y006085D01*
X020818Y006001D01*
X020651Y006001D02*
X020567Y005918D01*
X020567Y005834D01*
X020385Y006001D02*
X020052Y006001D01*
X020052Y006085D02*
X020052Y005751D01*
X021083Y005751D02*
X021417Y006251D01*
X021599Y006168D02*
X021599Y006085D01*
X021682Y006001D01*
X021849Y006001D01*
X021932Y005918D01*
X021932Y005834D01*
X021849Y005751D01*
X021682Y005751D01*
X021599Y005834D01*
X021599Y005918D01*
X021682Y006001D01*
X021849Y006001D02*
X021932Y006085D01*
X021932Y006168D01*
X021849Y006251D01*
X021682Y006251D01*
X021599Y006168D01*
X022114Y006168D02*
X022114Y006085D01*
X022198Y006001D01*
X022364Y006001D01*
X022448Y005918D01*
X022448Y005834D01*
X022364Y005751D01*
X022198Y005751D01*
X022114Y005834D01*
X022114Y005918D01*
X022198Y006001D01*
X022364Y006001D02*
X022448Y006085D01*
X022448Y006168D01*
X022364Y006251D01*
X022198Y006251D01*
X022114Y006168D01*
X022630Y005751D02*
X022964Y006251D01*
X023146Y006085D02*
X023312Y006251D01*
X023312Y005751D01*
X023146Y005751D02*
X023479Y005751D01*
X023661Y005834D02*
X023745Y005751D01*
X023911Y005751D01*
X023995Y005834D01*
X023995Y005918D01*
X023911Y006001D01*
X023661Y006001D01*
X023661Y005834D01*
X023661Y006001D02*
X023828Y006168D01*
X023995Y006251D01*
X024177Y006168D02*
X024177Y006085D01*
X024260Y006001D01*
X024427Y006001D01*
X024510Y005918D01*
X024510Y005834D01*
X024427Y005751D01*
X024260Y005751D01*
X024177Y005834D01*
X024177Y005918D01*
X024260Y006001D01*
X024427Y006001D02*
X024510Y006085D01*
X024510Y006168D01*
X024427Y006251D01*
X024260Y006251D01*
X024177Y006168D01*
X024692Y005751D02*
X025026Y006251D01*
X025208Y006168D02*
X025292Y006251D01*
X025458Y006251D01*
X025542Y006168D01*
X025542Y006085D01*
X025458Y006001D01*
X025542Y005918D01*
X025542Y005834D01*
X025458Y005751D01*
X025292Y005751D01*
X025208Y005834D01*
X025375Y006001D02*
X025458Y006001D01*
X025724Y005751D02*
X026057Y006085D01*
X026057Y006168D01*
X025974Y006251D01*
X025807Y006251D01*
X025724Y006168D01*
X026239Y006168D02*
X026239Y006085D01*
X026323Y006001D01*
X026490Y006001D01*
X026573Y005918D01*
X026573Y005834D01*
X026490Y005751D01*
X026323Y005751D01*
X026239Y005834D01*
X026239Y005918D01*
X026323Y006001D01*
X026490Y006001D02*
X026573Y006085D01*
X026573Y006168D01*
X026490Y006251D01*
X026323Y006251D01*
X026239Y006168D01*
X026057Y005751D02*
X025724Y005751D01*
X031961Y005189D02*
X031961Y006689D01*
X032211Y006939D01*
X032711Y006939D01*
X032961Y006689D01*
X032961Y005189D01*
X032711Y004939D01*
X032211Y004939D01*
X031961Y005189D01*
X032961Y005189D02*
X033211Y004939D01*
X033711Y004939D01*
X033961Y005189D01*
X033961Y006689D01*
X033711Y006939D01*
X033211Y006939D01*
X032961Y006689D01*
X033961Y006689D02*
X034211Y006939D01*
X034711Y006939D01*
X034961Y006689D01*
X034961Y005189D01*
X034711Y004939D01*
X034211Y004939D01*
X033961Y005189D01*
X027056Y002667D02*
X026256Y002667D01*
X026239Y002665D01*
X026222Y002661D01*
X026206Y002654D01*
X026192Y002644D01*
X026179Y002631D01*
X026169Y002617D01*
X026162Y002601D01*
X026158Y002584D01*
X026156Y002567D01*
X026156Y000867D01*
X026158Y000850D01*
X026162Y000833D01*
X026169Y000817D01*
X026179Y000803D01*
X026192Y000790D01*
X026206Y000780D01*
X026222Y000773D01*
X026239Y000769D01*
X026256Y000767D01*
X027056Y000767D01*
X027073Y000769D01*
X027090Y000773D01*
X027106Y000780D01*
X027120Y000790D01*
X027133Y000803D01*
X027143Y000817D01*
X027150Y000833D01*
X027154Y000850D01*
X027156Y000867D01*
X027156Y002567D01*
X027154Y002584D01*
X027150Y002601D01*
X027143Y002617D01*
X027133Y002631D01*
X027120Y002644D01*
X027106Y002654D01*
X027090Y002661D01*
X027073Y002665D01*
X027056Y002667D01*
X024777Y002331D02*
X022377Y002331D01*
X023327Y001981D02*
X023327Y001681D01*
X023077Y001681D01*
X023327Y001681D02*
X023327Y001381D01*
X023477Y001381D02*
X023477Y001981D01*
X023677Y001981D01*
X023677Y001381D01*
X023477Y001381D01*
X023827Y001381D02*
X023827Y001681D01*
X024077Y001681D01*
X023827Y001681D02*
X023827Y001981D01*
X024777Y002331D02*
X024827Y002329D01*
X024876Y002323D01*
X024925Y002314D01*
X024973Y002301D01*
X025020Y002284D01*
X025065Y002264D01*
X025109Y002240D01*
X025151Y002213D01*
X025191Y002182D01*
X025228Y002149D01*
X025262Y002113D01*
X025294Y002075D01*
X025323Y002034D01*
X025348Y001992D01*
X025370Y001947D01*
X025389Y001901D01*
X025404Y001853D01*
X025415Y001805D01*
X025423Y001756D01*
X025427Y001706D01*
X025427Y001656D01*
X025423Y001606D01*
X025415Y001557D01*
X025404Y001509D01*
X025389Y001461D01*
X025370Y001415D01*
X025348Y001370D01*
X025323Y001328D01*
X025294Y001287D01*
X025262Y001249D01*
X025228Y001213D01*
X025191Y001180D01*
X025151Y001149D01*
X025109Y001122D01*
X025065Y001098D01*
X025020Y001078D01*
X024973Y001061D01*
X024925Y001048D01*
X024876Y001039D01*
X024827Y001033D01*
X024777Y001031D01*
X022377Y001031D01*
X021061Y000839D02*
X021061Y002539D01*
X021059Y002556D01*
X021055Y002573D01*
X021048Y002589D01*
X021038Y002603D01*
X021025Y002616D01*
X021011Y002626D01*
X020995Y002633D01*
X020978Y002637D01*
X020961Y002639D01*
X020161Y002639D01*
X020144Y002637D01*
X020127Y002633D01*
X020111Y002626D01*
X020097Y002616D01*
X020084Y002603D01*
X020074Y002589D01*
X020067Y002573D01*
X020063Y002556D01*
X020061Y002539D01*
X020061Y000839D01*
X020063Y000822D01*
X020067Y000805D01*
X020074Y000789D01*
X020084Y000775D01*
X020097Y000762D01*
X020111Y000752D01*
X020127Y000745D01*
X020144Y000741D01*
X020161Y000739D01*
X020961Y000739D01*
X020978Y000741D01*
X020995Y000745D01*
X021011Y000752D01*
X021025Y000762D01*
X021038Y000775D01*
X021048Y000789D01*
X021055Y000805D01*
X021059Y000822D01*
X021061Y000839D01*
X019061Y000839D02*
X019061Y002539D01*
X019059Y002556D01*
X019055Y002573D01*
X019048Y002589D01*
X019038Y002603D01*
X019025Y002616D01*
X019011Y002626D01*
X018995Y002633D01*
X018978Y002637D01*
X018961Y002639D01*
X018161Y002639D01*
X018144Y002637D01*
X018127Y002633D01*
X018111Y002626D01*
X018097Y002616D01*
X018084Y002603D01*
X018074Y002589D01*
X018067Y002573D01*
X018063Y002556D01*
X018061Y002539D01*
X018061Y000839D01*
X018063Y000822D01*
X018067Y000805D01*
X018074Y000789D01*
X018084Y000775D01*
X018097Y000762D01*
X018111Y000752D01*
X018127Y000745D01*
X018144Y000741D01*
X018161Y000739D01*
X018961Y000739D01*
X018978Y000741D01*
X018995Y000745D01*
X019011Y000752D01*
X019025Y000762D01*
X019038Y000775D01*
X019048Y000789D01*
X019055Y000805D01*
X019059Y000822D01*
X019061Y000839D01*
X017211Y001239D02*
X016961Y000989D01*
X016461Y000989D01*
X016211Y001239D01*
X015961Y000989D01*
X015461Y000989D01*
X015211Y001239D01*
X014961Y000989D01*
X014461Y000989D01*
X014211Y001239D01*
X013961Y000989D01*
X013461Y000989D01*
X013211Y001239D01*
X012961Y000989D01*
X012461Y000989D01*
X012211Y001239D01*
X011961Y000989D01*
X011461Y000989D01*
X011211Y001239D01*
X010961Y000989D01*
X010461Y000989D01*
X010211Y001239D01*
X009961Y000989D01*
X009461Y000989D01*
X009211Y001239D01*
X008961Y000989D01*
X008461Y000989D01*
X008211Y001239D01*
X008211Y001739D01*
X008461Y001989D01*
X008961Y001989D01*
X009211Y001739D01*
X009461Y001989D01*
X009961Y001989D01*
X010211Y001739D01*
X010211Y001239D01*
X009211Y001239D02*
X009211Y001739D01*
X010211Y001739D02*
X010461Y001989D01*
X010961Y001989D01*
X011211Y001739D01*
X011461Y001989D01*
X011961Y001989D01*
X012211Y001739D01*
X012461Y001989D01*
X012961Y001989D01*
X013211Y001739D01*
X013211Y001239D01*
X012211Y001239D02*
X012211Y001739D01*
X011211Y001739D02*
X011211Y001239D01*
X013211Y001739D02*
X013461Y001989D01*
X013961Y001989D01*
X014211Y001739D01*
X014461Y001989D01*
X014961Y001989D01*
X015211Y001739D01*
X015461Y001989D01*
X015961Y001989D01*
X016211Y001739D01*
X016461Y001989D01*
X016961Y001989D01*
X017211Y001739D01*
X017211Y001239D01*
X016211Y001239D02*
X016211Y001739D01*
X015211Y001739D02*
X015211Y001239D01*
X014211Y001239D02*
X014211Y001739D01*
X011968Y002474D02*
X011968Y002974D01*
X012218Y002974D01*
X012301Y002891D01*
X012301Y002724D01*
X012218Y002641D01*
X011968Y002641D01*
X011791Y002641D02*
X011707Y002724D01*
X011707Y003058D01*
X011624Y002974D02*
X011791Y002974D01*
X011447Y002974D02*
X011280Y002974D01*
X011364Y003058D02*
X011364Y002724D01*
X011447Y002641D01*
X011098Y002641D02*
X011098Y002891D01*
X011015Y002974D01*
X010848Y002974D01*
X010764Y002891D01*
X010764Y003141D02*
X010764Y002641D01*
X012483Y002641D02*
X012483Y002724D01*
X012567Y002724D01*
X012567Y002641D01*
X012483Y002641D01*
X012741Y002641D02*
X013075Y003141D01*
X013590Y003141D02*
X013257Y002641D01*
X013772Y002641D02*
X014023Y002641D01*
X014106Y002724D01*
X014106Y002891D01*
X014023Y002974D01*
X013772Y002974D01*
X013772Y003141D02*
X013772Y002641D01*
X014288Y002641D02*
X014455Y002641D01*
X014371Y002641D02*
X014371Y002974D01*
X014288Y002974D01*
X014632Y002974D02*
X014799Y002974D01*
X014715Y003058D02*
X014715Y002724D01*
X014799Y002641D01*
X014976Y002641D02*
X014976Y003141D01*
X015489Y003141D02*
X015489Y003224D01*
X015832Y003058D02*
X015832Y002724D01*
X015916Y002641D01*
X016093Y002641D02*
X016176Y002641D01*
X016176Y002724D01*
X016093Y002724D01*
X016093Y002641D01*
X016351Y002641D02*
X016517Y002641D01*
X016434Y002641D02*
X016434Y002974D01*
X016351Y002974D01*
X016694Y002891D02*
X016694Y002724D01*
X016778Y002641D01*
X016945Y002641D01*
X017028Y002724D01*
X017028Y002891D01*
X016945Y002974D01*
X016778Y002974D01*
X016694Y002891D01*
X016434Y003141D02*
X016434Y003224D01*
X015916Y002974D02*
X015749Y002974D01*
X015489Y002974D02*
X015489Y002641D01*
X015572Y002641D02*
X015405Y002641D01*
X015226Y002641D02*
X014976Y002807D01*
X015226Y002974D01*
X015405Y002974D02*
X015489Y002974D01*
X014371Y003141D02*
X014371Y003224D01*
X012567Y002974D02*
X012567Y002891D01*
X012483Y002891D01*
X012483Y002974D01*
X012567Y002974D01*
X010461Y003889D02*
X010311Y003889D01*
X010261Y003939D01*
X008361Y003939D01*
X008311Y003889D01*
X008161Y003889D01*
X008144Y003891D01*
X008127Y003895D01*
X008111Y003902D01*
X008097Y003912D01*
X008084Y003925D01*
X008074Y003939D01*
X008067Y003955D01*
X008063Y003972D01*
X008061Y003989D01*
X008061Y004689D01*
X008063Y004706D01*
X008067Y004723D01*
X008074Y004739D01*
X008084Y004753D01*
X008097Y004766D01*
X008111Y004776D01*
X008127Y004783D01*
X008144Y004787D01*
X008161Y004789D01*
X008311Y004789D01*
X008361Y004739D01*
X010261Y004739D01*
X010311Y004789D01*
X010461Y004789D01*
X010478Y004787D01*
X010495Y004783D01*
X010511Y004776D01*
X010525Y004766D01*
X010538Y004753D01*
X010548Y004739D01*
X010555Y004723D01*
X010559Y004706D01*
X010561Y004689D01*
X010561Y003989D01*
X010559Y003972D01*
X010555Y003955D01*
X010548Y003939D01*
X010538Y003925D01*
X010525Y003912D01*
X010511Y003902D01*
X010495Y003895D01*
X010478Y003891D01*
X010461Y003889D01*
X010461Y005489D02*
X010311Y005489D01*
X010261Y005539D01*
X008361Y005539D01*
X008311Y005489D01*
X008161Y005489D01*
X008144Y005491D01*
X008127Y005495D01*
X008111Y005502D01*
X008097Y005512D01*
X008084Y005525D01*
X008074Y005539D01*
X008067Y005555D01*
X008063Y005572D01*
X008061Y005589D01*
X008061Y006289D01*
X008063Y006306D01*
X008067Y006323D01*
X008074Y006339D01*
X008084Y006353D01*
X008097Y006366D01*
X008111Y006376D01*
X008127Y006383D01*
X008144Y006387D01*
X008161Y006389D01*
X008311Y006389D01*
X008361Y006339D01*
X010261Y006339D01*
X010311Y006389D01*
X010461Y006389D01*
X010478Y006387D01*
X010495Y006383D01*
X010511Y006376D01*
X010525Y006366D01*
X010538Y006353D01*
X010548Y006339D01*
X010555Y006323D01*
X010559Y006306D01*
X010561Y006289D01*
X010561Y005589D01*
X010559Y005572D01*
X010555Y005555D01*
X010548Y005539D01*
X010538Y005525D01*
X010525Y005512D01*
X010511Y005502D01*
X010495Y005495D01*
X010478Y005491D01*
X010461Y005489D01*
X018561Y001839D02*
X018561Y001789D01*
X018561Y001589D02*
X018561Y001539D01*
X020561Y001539D02*
X020561Y001589D01*
X020561Y001789D02*
X020561Y001839D01*
X022377Y002331D02*
X022327Y002329D01*
X022278Y002323D01*
X022229Y002314D01*
X022181Y002301D01*
X022134Y002284D01*
X022089Y002264D01*
X022045Y002240D01*
X022003Y002213D01*
X021963Y002182D01*
X021926Y002149D01*
X021892Y002113D01*
X021860Y002075D01*
X021831Y002034D01*
X021806Y001992D01*
X021784Y001947D01*
X021765Y001901D01*
X021750Y001853D01*
X021739Y001805D01*
X021731Y001756D01*
X021727Y001706D01*
X021727Y001656D01*
X021731Y001606D01*
X021739Y001557D01*
X021750Y001509D01*
X021765Y001461D01*
X021784Y001415D01*
X021806Y001370D01*
X021831Y001328D01*
X021860Y001287D01*
X021892Y001249D01*
X021926Y001213D01*
X021963Y001180D01*
X022003Y001149D01*
X022045Y001122D01*
X022089Y001098D01*
X022134Y001078D01*
X022181Y001061D01*
X022229Y001048D01*
X022278Y001039D01*
X022327Y001033D01*
X022377Y001031D01*
X026656Y001567D02*
X026656Y001617D01*
X026656Y001817D02*
X026656Y001867D01*
X028199Y001709D02*
X028201Y001772D01*
X028207Y001834D01*
X028217Y001896D01*
X028230Y001958D01*
X028248Y002018D01*
X028269Y002077D01*
X028294Y002135D01*
X028323Y002191D01*
X028355Y002245D01*
X028390Y002297D01*
X028428Y002346D01*
X028470Y002394D01*
X028514Y002438D01*
X028562Y002480D01*
X028611Y002518D01*
X028663Y002553D01*
X028717Y002585D01*
X028773Y002614D01*
X028831Y002639D01*
X028890Y002660D01*
X028950Y002678D01*
X029012Y002691D01*
X029074Y002701D01*
X029136Y002707D01*
X029199Y002709D01*
X029262Y002707D01*
X029324Y002701D01*
X029386Y002691D01*
X029448Y002678D01*
X029508Y002660D01*
X029567Y002639D01*
X029625Y002614D01*
X029681Y002585D01*
X029735Y002553D01*
X029787Y002518D01*
X029836Y002480D01*
X029884Y002438D01*
X029928Y002394D01*
X029970Y002346D01*
X030008Y002297D01*
X030043Y002245D01*
X030075Y002191D01*
X030104Y002135D01*
X030129Y002077D01*
X030150Y002018D01*
X030168Y001958D01*
X030181Y001896D01*
X030191Y001834D01*
X030197Y001772D01*
X030199Y001709D01*
X030197Y001646D01*
X030191Y001584D01*
X030181Y001522D01*
X030168Y001460D01*
X030150Y001400D01*
X030129Y001341D01*
X030104Y001283D01*
X030075Y001227D01*
X030043Y001173D01*
X030008Y001121D01*
X029970Y001072D01*
X029928Y001024D01*
X029884Y000980D01*
X029836Y000938D01*
X029787Y000900D01*
X029735Y000865D01*
X029681Y000833D01*
X029625Y000804D01*
X029567Y000779D01*
X029508Y000758D01*
X029448Y000740D01*
X029386Y000727D01*
X029324Y000717D01*
X029262Y000711D01*
X029199Y000709D01*
X029136Y000711D01*
X029074Y000717D01*
X029012Y000727D01*
X028950Y000740D01*
X028890Y000758D01*
X028831Y000779D01*
X028773Y000804D01*
X028717Y000833D01*
X028663Y000865D01*
X028611Y000900D01*
X028562Y000938D01*
X028514Y000980D01*
X028470Y001024D01*
X028428Y001072D01*
X028390Y001121D01*
X028355Y001173D01*
X028323Y001227D01*
X028294Y001283D01*
X028269Y001341D01*
X028248Y001400D01*
X028230Y001460D01*
X028217Y001522D01*
X028207Y001584D01*
X028201Y001646D01*
X028199Y001709D01*
X029699Y002159D02*
X029699Y002259D01*
X029799Y002259D01*
X029699Y002259D02*
X029599Y002259D01*
X029699Y002259D02*
X029699Y002359D01*
D13*
X024777Y002531D02*
X022377Y002531D01*
X022320Y002529D01*
X022264Y002523D01*
X022208Y002514D01*
X022152Y002501D01*
X022098Y002484D01*
X022045Y002464D01*
X021994Y002440D01*
X021944Y002412D01*
X021896Y002382D01*
X021850Y002348D01*
X021807Y002311D01*
X021766Y002272D01*
X021728Y002230D01*
X021693Y002185D01*
X021661Y002138D01*
X021632Y002089D01*
X021606Y002039D01*
X021584Y001986D01*
X021565Y001933D01*
X021550Y001878D01*
X021539Y001822D01*
X021531Y001766D01*
X021527Y001709D01*
X021527Y001653D01*
X021531Y001596D01*
X021539Y001540D01*
X021550Y001484D01*
X021565Y001429D01*
X021584Y001376D01*
X021606Y001323D01*
X021632Y001273D01*
X021661Y001224D01*
X021693Y001177D01*
X021728Y001132D01*
X021766Y001090D01*
X021807Y001051D01*
X021850Y001014D01*
X021896Y000980D01*
X021944Y000950D01*
X021994Y000922D01*
X022045Y000898D01*
X022098Y000878D01*
X022152Y000861D01*
X022208Y000848D01*
X022264Y000839D01*
X022320Y000833D01*
X022377Y000831D01*
X024777Y000831D01*
X024834Y000833D01*
X024890Y000839D01*
X024946Y000848D01*
X025002Y000861D01*
X025056Y000878D01*
X025109Y000898D01*
X025160Y000922D01*
X025210Y000950D01*
X025258Y000980D01*
X025304Y001014D01*
X025347Y001051D01*
X025388Y001090D01*
X025426Y001132D01*
X025461Y001177D01*
X025493Y001224D01*
X025522Y001273D01*
X025548Y001323D01*
X025570Y001376D01*
X025589Y001429D01*
X025604Y001484D01*
X025615Y001540D01*
X025623Y001596D01*
X025627Y001653D01*
X025627Y001709D01*
X025623Y001766D01*
X025615Y001822D01*
X025604Y001878D01*
X025589Y001933D01*
X025570Y001986D01*
X025548Y002039D01*
X025522Y002089D01*
X025493Y002138D01*
X025461Y002185D01*
X025426Y002230D01*
X025388Y002272D01*
X025347Y002311D01*
X025304Y002348D01*
X025258Y002382D01*
X025210Y002412D01*
X025160Y002440D01*
X025109Y002464D01*
X025056Y002484D01*
X025002Y002501D01*
X024946Y002514D01*
X024890Y002523D01*
X024834Y002529D01*
X024777Y002531D01*
D14*
X026356Y001817D02*
X026656Y001817D01*
X026956Y001817D01*
X026956Y001617D02*
X026656Y001617D01*
X026356Y001617D01*
X020861Y001589D02*
X020561Y001589D01*
X020261Y001589D01*
X020261Y001789D02*
X020561Y001789D01*
X020861Y001789D01*
X018861Y001789D02*
X018561Y001789D01*
X018261Y001789D01*
X018261Y001589D02*
X018561Y001589D01*
X018861Y001589D01*
D15*
X010731Y004339D03*
X007891Y004339D03*
X007891Y005939D03*
X010731Y005939D03*
X010731Y007539D03*
X007891Y007539D03*
D16*
X013011Y005389D03*
X015011Y005389D03*
D17*
X015011Y004764D03*
X013011Y004764D03*
X013011Y007114D03*
X015011Y007114D03*
D18*
X006360Y008302D02*
X004825Y008302D01*
X006360Y008302D02*
X006360Y003577D01*
X004825Y003577D01*
X003171Y003577D02*
X001675Y003577D01*
X001675Y008302D02*
X003171Y008302D01*
X032661Y003329D02*
X032661Y000749D01*
X034061Y000749D01*
X034061Y003329D01*
X032661Y003329D01*
M02*
