G75*
%MOIN*%
%OFA0B0*%
%FSLAX24Y24*%
%IPPOS*%
%LPD*%
%AMOC8*
5,1,8,0,0,1.08239X$1,22.5*
%
%ADD10C,0.1340*%
%ADD11C,0.0070*%
%ADD12C,0.0700*%
%ADD13C,0.0700*%
%ADD14OC8,0.0700*%
%ADD15C,0.0820*%
%ADD16C,0.0740*%
%ADD17C,0.1380*%
%ADD18OC8,0.0710*%
%ADD19C,0.0710*%
%ADD20OC8,0.0780*%
%ADD21C,0.0780*%
%ADD22R,0.0695X0.0695*%
%ADD23C,0.0695*%
D10*
X002961Y001489D03*
X002900Y010089D03*
X036761Y010089D03*
X036811Y001489D03*
D11*
X036811Y003016D02*
X036883Y003088D01*
X036883Y003231D01*
X036811Y003303D01*
X036596Y003303D01*
X036811Y003303D01*
X036883Y003231D01*
X036883Y003088D01*
X036811Y003016D01*
X036811Y003056D02*
X036883Y003127D01*
X036883Y003271D01*
X036811Y003342D01*
X036596Y003342D01*
X036636Y003342D02*
X036851Y003342D01*
X036923Y003271D01*
X036923Y003127D01*
X036851Y003056D01*
X036851Y003036D02*
X036923Y003108D01*
X036923Y003251D01*
X036851Y003323D01*
X036636Y003323D01*
X036636Y003303D02*
X036851Y003303D01*
X036923Y003231D01*
X036923Y003088D01*
X036851Y003016D01*
X036923Y003088D01*
X036923Y003231D01*
X036851Y003303D01*
X036636Y003303D01*
X036851Y003303D01*
X036923Y003231D01*
X036923Y003088D01*
X036851Y003016D01*
X037027Y003016D02*
X036596Y003016D01*
X037027Y003016D01*
X037066Y003016D02*
X036636Y003016D01*
X037066Y003016D01*
X036636Y003016D01*
X036636Y003036D02*
X037066Y003036D01*
X037066Y003056D02*
X036636Y003056D01*
X036596Y003056D02*
X037027Y003056D01*
X036923Y003477D02*
X036923Y003620D01*
X036923Y003477D01*
X036923Y003620D01*
X036923Y003640D02*
X036923Y003496D01*
X036923Y003516D02*
X036923Y003659D01*
X036883Y003659D02*
X036883Y003516D01*
X036883Y003477D02*
X036883Y003620D01*
X036883Y003477D01*
X036955Y003548D02*
X036668Y003548D01*
X036596Y003620D01*
X036668Y003548D01*
X036955Y003548D01*
X036994Y003548D02*
X036707Y003548D01*
X036636Y003620D01*
X036707Y003548D01*
X036994Y003548D01*
X036707Y003548D01*
X036636Y003620D01*
X036636Y003640D02*
X036707Y003568D01*
X036994Y003568D01*
X036994Y003588D02*
X036707Y003588D01*
X036636Y003659D01*
X036596Y003659D02*
X036668Y003588D01*
X036955Y003588D01*
X036923Y003784D02*
X036923Y003927D01*
X036923Y003784D01*
X036923Y003927D01*
X036923Y003947D02*
X036923Y003803D01*
X036923Y003823D02*
X036923Y003966D01*
X036883Y003966D02*
X036883Y003823D01*
X036883Y003784D02*
X036883Y003927D01*
X036883Y003784D01*
X036955Y003855D02*
X036668Y003855D01*
X036596Y003927D01*
X036668Y003855D01*
X036955Y003855D01*
X036994Y003855D02*
X036707Y003855D01*
X036636Y003927D01*
X036707Y003855D01*
X036994Y003855D01*
X036707Y003855D01*
X036636Y003927D01*
X036636Y003947D02*
X036707Y003875D01*
X036994Y003875D01*
X036994Y003895D02*
X036707Y003895D01*
X036636Y003966D01*
X036596Y003966D02*
X036668Y003895D01*
X036955Y003895D01*
X036923Y004090D02*
X036492Y004090D01*
X036923Y004090D01*
X036923Y004306D01*
X036851Y004377D01*
X036707Y004377D01*
X036636Y004306D01*
X036636Y004090D01*
X036636Y004306D01*
X036707Y004377D01*
X036851Y004377D01*
X036923Y004306D01*
X036923Y004090D01*
X036923Y004306D01*
X036851Y004377D01*
X036707Y004377D01*
X036636Y004306D01*
X036636Y004090D01*
X036636Y004110D02*
X036636Y004325D01*
X036707Y004397D01*
X036851Y004397D01*
X036923Y004325D01*
X036923Y004110D01*
X036492Y004110D01*
X036492Y004090D02*
X036923Y004090D01*
X036923Y004130D02*
X036923Y004345D01*
X036851Y004417D01*
X036707Y004417D01*
X036636Y004345D01*
X036636Y004130D01*
X036596Y004130D02*
X036596Y004345D01*
X036668Y004417D01*
X036811Y004417D01*
X036883Y004345D01*
X036883Y004130D01*
X036453Y004130D01*
X036492Y004130D02*
X036923Y004130D01*
X036883Y004090D02*
X036883Y004306D01*
X036811Y004377D01*
X036668Y004377D01*
X036596Y004306D01*
X036596Y004090D01*
X036596Y004306D01*
X036668Y004377D01*
X036811Y004377D01*
X036883Y004306D01*
X036883Y004090D01*
X036453Y004090D01*
X036883Y004090D01*
X036883Y004551D02*
X036811Y004551D01*
X036811Y004623D01*
X036883Y004623D01*
X036883Y004551D01*
X036811Y004551D01*
X036811Y004623D01*
X036883Y004623D01*
X036883Y004551D01*
X036851Y004551D02*
X036923Y004551D01*
X036923Y004623D01*
X036851Y004623D01*
X036851Y004551D01*
X036923Y004551D01*
X036923Y004623D01*
X036851Y004623D01*
X036851Y004551D01*
X036923Y004551D01*
X036923Y004623D01*
X036851Y004623D01*
X036851Y004551D01*
X036851Y004571D02*
X036923Y004571D01*
X036923Y004642D01*
X036851Y004642D01*
X036851Y004571D01*
X036851Y004590D02*
X036923Y004590D01*
X036923Y004662D01*
X036851Y004662D01*
X036851Y004590D01*
X036883Y004590D02*
X036811Y004590D01*
X036811Y004662D01*
X036883Y004662D01*
X036883Y004590D01*
X036707Y004590D02*
X036707Y004662D01*
X036636Y004662D01*
X036636Y004590D01*
X036707Y004590D01*
X036707Y004571D02*
X036636Y004571D01*
X036636Y004642D01*
X036707Y004642D01*
X036707Y004571D01*
X036707Y004551D02*
X036636Y004551D01*
X036636Y004623D01*
X036707Y004623D01*
X036707Y004551D01*
X036636Y004551D01*
X036636Y004623D01*
X036707Y004623D01*
X036707Y004551D01*
X036636Y004551D01*
X036636Y004623D01*
X036707Y004623D01*
X036707Y004551D01*
X036668Y004551D02*
X036596Y004551D01*
X036596Y004623D01*
X036668Y004623D01*
X036668Y004551D01*
X036596Y004551D01*
X036596Y004623D01*
X036668Y004623D01*
X036668Y004551D01*
X036668Y004590D02*
X036596Y004590D01*
X036596Y004662D01*
X036668Y004662D01*
X036668Y004590D01*
X036636Y004781D02*
X037066Y005068D01*
X036636Y004781D01*
X037066Y005068D01*
X037066Y005088D02*
X036636Y004801D01*
X036636Y004820D02*
X037066Y005107D01*
X037027Y005107D02*
X036596Y004820D01*
X036596Y004781D02*
X037027Y005068D01*
X036596Y004781D01*
X036596Y005241D02*
X037027Y005528D01*
X036596Y005241D01*
X036636Y005241D02*
X037066Y005528D01*
X036636Y005241D01*
X037066Y005528D01*
X037066Y005548D02*
X036636Y005261D01*
X036636Y005281D02*
X037066Y005568D01*
X037027Y005568D02*
X036596Y005281D01*
X036596Y005702D02*
X036596Y005917D01*
X036668Y005989D01*
X036811Y005989D01*
X036668Y005989D01*
X036596Y005917D01*
X036596Y005702D01*
X037027Y005702D01*
X036596Y005702D01*
X036596Y005741D02*
X036596Y005956D01*
X036668Y006028D01*
X036811Y006028D01*
X036883Y005956D01*
X036883Y005741D01*
X036883Y005702D02*
X036883Y005917D01*
X036811Y005989D01*
X036883Y005917D01*
X036883Y005702D01*
X036923Y005702D02*
X036923Y005917D01*
X036851Y005989D01*
X036707Y005989D01*
X036636Y005917D01*
X036636Y005702D01*
X037066Y005702D01*
X036636Y005702D01*
X036636Y005917D01*
X036707Y005989D01*
X036851Y005989D01*
X036923Y005917D01*
X036923Y005702D01*
X036923Y005917D01*
X036851Y005989D01*
X036707Y005989D01*
X036636Y005917D01*
X036636Y005702D01*
X037066Y005702D01*
X037066Y005722D02*
X036636Y005722D01*
X036636Y005937D01*
X036707Y006008D01*
X036851Y006008D01*
X036923Y005937D01*
X036923Y005722D01*
X036923Y005741D02*
X036923Y005956D01*
X036851Y006028D01*
X036707Y006028D01*
X036636Y005956D01*
X036636Y005741D01*
X037066Y005741D01*
X037027Y005741D02*
X036596Y005741D01*
X036596Y006162D02*
X036596Y006306D01*
X036596Y006162D01*
X036596Y006202D02*
X036596Y006345D01*
X036636Y006345D02*
X036636Y006202D01*
X036636Y006182D02*
X036636Y006325D01*
X036636Y006306D02*
X036636Y006162D01*
X036636Y006306D01*
X036636Y006162D01*
X036636Y006234D02*
X036923Y006234D01*
X036923Y006162D01*
X036923Y006234D01*
X036636Y006234D01*
X036923Y006234D01*
X036923Y006162D01*
X036923Y006182D02*
X036923Y006254D01*
X036636Y006254D01*
X036636Y006273D02*
X036923Y006273D01*
X036923Y006202D01*
X036883Y006202D02*
X036883Y006273D01*
X036596Y006273D01*
X036596Y006234D02*
X036883Y006234D01*
X036883Y006162D01*
X036883Y006234D01*
X036596Y006234D01*
X037027Y006234D02*
X037098Y006234D01*
X037027Y006234D01*
X037066Y006234D02*
X037138Y006234D01*
X037066Y006234D01*
X037138Y006234D01*
X037138Y006254D02*
X037066Y006254D01*
X037066Y006273D02*
X037138Y006273D01*
X037098Y006273D02*
X037027Y006273D01*
X036923Y006469D02*
X036923Y006613D01*
X036923Y006469D01*
X036923Y006613D01*
X036923Y006632D02*
X036923Y006489D01*
X036923Y006509D02*
X036923Y006652D01*
X036883Y006652D02*
X036883Y006509D01*
X036883Y006469D02*
X036883Y006613D01*
X036883Y006469D01*
X036955Y006541D02*
X036668Y006541D01*
X036596Y006613D01*
X036668Y006541D01*
X036955Y006541D01*
X036955Y006580D02*
X036668Y006580D01*
X036596Y006652D01*
X036636Y006652D02*
X036707Y006580D01*
X036994Y006580D01*
X036994Y006561D02*
X036707Y006561D01*
X036636Y006632D01*
X036636Y006613D02*
X036707Y006541D01*
X036994Y006541D01*
X036707Y006541D01*
X036636Y006613D01*
X036707Y006541D01*
X036994Y006541D01*
X037027Y006776D02*
X036596Y006776D01*
X037027Y006776D01*
X037066Y006776D02*
X036636Y006776D01*
X037066Y006776D01*
X036636Y006776D01*
X036636Y006796D02*
X037066Y006796D01*
X037066Y006815D02*
X036636Y006815D01*
X036596Y006815D02*
X037027Y006815D01*
X036923Y006991D02*
X036779Y006776D01*
X036636Y006991D01*
X036779Y006776D01*
X036923Y006991D01*
X036779Y006776D01*
X036636Y006991D01*
X036636Y007011D02*
X036779Y006796D01*
X036923Y007011D01*
X036923Y007031D02*
X036779Y006815D01*
X036636Y007031D01*
X036596Y007031D02*
X036740Y006815D01*
X036883Y007031D01*
X036883Y006991D02*
X036740Y006776D01*
X036596Y006991D01*
X036740Y006776D01*
X036883Y006991D01*
X036883Y007160D02*
X036883Y007231D01*
X036596Y007231D01*
X036883Y007231D01*
X036883Y007160D01*
X036883Y007199D02*
X036883Y007271D01*
X036596Y007271D01*
X036596Y007303D02*
X036596Y007160D01*
X036596Y007303D01*
X036596Y007343D02*
X036596Y007199D01*
X036636Y007199D02*
X036636Y007343D01*
X036636Y007323D02*
X036636Y007179D01*
X036636Y007160D02*
X036636Y007303D01*
X036636Y007160D01*
X036636Y007303D01*
X036636Y007271D02*
X036923Y007271D01*
X036923Y007199D01*
X036923Y007179D02*
X036923Y007251D01*
X036636Y007251D01*
X036636Y007231D02*
X036923Y007231D01*
X036923Y007160D01*
X036923Y007231D01*
X036636Y007231D01*
X036923Y007231D01*
X036923Y007160D01*
X037027Y007231D02*
X037098Y007231D01*
X037027Y007231D01*
X037066Y007231D02*
X037138Y007231D01*
X037066Y007231D01*
X037138Y007231D01*
X037138Y007251D02*
X037066Y007251D01*
X037066Y007271D02*
X037138Y007271D01*
X037098Y007271D02*
X037027Y007271D01*
X036923Y007467D02*
X036923Y007610D01*
X036923Y007467D01*
X036923Y007610D01*
X036923Y007630D02*
X036923Y007486D01*
X036923Y007506D02*
X036923Y007649D01*
X036883Y007649D02*
X036883Y007506D01*
X036883Y007467D02*
X036883Y007610D01*
X036883Y007467D01*
X036955Y007538D02*
X036668Y007538D01*
X036596Y007610D01*
X036668Y007538D01*
X036955Y007538D01*
X036994Y007538D02*
X036707Y007538D01*
X036636Y007610D01*
X036707Y007538D01*
X036994Y007538D01*
X036707Y007538D01*
X036636Y007610D01*
X036636Y007630D02*
X036707Y007558D01*
X036994Y007558D01*
X036994Y007578D02*
X036707Y007578D01*
X036636Y007649D01*
X036596Y007649D02*
X036668Y007578D01*
X036955Y007578D01*
X036707Y007774D02*
X036707Y007845D01*
X036636Y007845D01*
X036636Y007774D01*
X036707Y007774D01*
X036707Y007845D01*
X036636Y007845D01*
X036636Y007774D01*
X036707Y007774D01*
X036707Y007845D01*
X036636Y007845D01*
X036636Y007774D01*
X036707Y007774D01*
X036707Y007793D02*
X036707Y007865D01*
X036636Y007865D01*
X036636Y007793D01*
X036707Y007793D01*
X036707Y007813D02*
X036707Y007885D01*
X036636Y007885D01*
X036636Y007813D01*
X036707Y007813D01*
X036668Y007813D02*
X036668Y007885D01*
X036596Y007885D01*
X036596Y007813D01*
X036668Y007813D01*
X036668Y007845D02*
X036596Y007845D01*
X036596Y007774D01*
X036668Y007774D01*
X036668Y007845D01*
X036596Y007845D01*
X036596Y007774D01*
X036668Y007774D01*
X036668Y007845D01*
X036636Y008004D02*
X036636Y008147D01*
X036636Y008004D01*
X036636Y008147D01*
X036636Y008167D02*
X036636Y008023D01*
X036636Y008043D02*
X036636Y008187D01*
X036596Y008187D02*
X036596Y008043D01*
X036596Y008076D02*
X036883Y008076D01*
X036883Y008004D01*
X036883Y008076D01*
X036596Y008076D01*
X036596Y008115D02*
X036883Y008115D01*
X036883Y008043D01*
X036923Y008043D02*
X036923Y008115D01*
X036636Y008115D01*
X036636Y008095D02*
X036923Y008095D01*
X036923Y008023D01*
X036923Y008004D02*
X036923Y008076D01*
X036636Y008076D01*
X036923Y008076D01*
X036923Y008004D01*
X036923Y008076D01*
X036636Y008076D01*
X036596Y008147D02*
X036596Y008004D01*
X036596Y008147D01*
X036668Y008311D02*
X036596Y008382D01*
X036596Y008526D01*
X036668Y008598D01*
X036811Y008598D01*
X036668Y008598D01*
X036596Y008526D01*
X036596Y008382D01*
X036668Y008311D01*
X036811Y008311D01*
X036668Y008311D01*
X036668Y008350D02*
X036596Y008422D01*
X036596Y008565D01*
X036668Y008637D01*
X036811Y008637D01*
X036883Y008565D01*
X036883Y008422D01*
X036811Y008350D01*
X036668Y008350D01*
X036707Y008350D02*
X036636Y008422D01*
X036636Y008565D01*
X036707Y008637D01*
X036851Y008637D01*
X036923Y008565D01*
X036923Y008422D01*
X036851Y008350D01*
X036707Y008350D01*
X036707Y008330D02*
X036636Y008402D01*
X036636Y008546D01*
X036707Y008617D01*
X036851Y008617D01*
X036923Y008546D01*
X036923Y008402D01*
X036851Y008330D01*
X036707Y008330D01*
X036707Y008311D02*
X036636Y008382D01*
X036636Y008526D01*
X036707Y008598D01*
X036851Y008598D01*
X036923Y008526D01*
X036923Y008382D01*
X036851Y008311D01*
X036707Y008311D01*
X036636Y008382D01*
X036636Y008526D01*
X036707Y008598D01*
X036851Y008598D01*
X036923Y008526D01*
X036923Y008382D01*
X036851Y008311D01*
X036707Y008311D01*
X036636Y008382D01*
X036636Y008526D01*
X036707Y008598D01*
X036851Y008598D01*
X036923Y008526D01*
X036923Y008382D01*
X036851Y008311D01*
X036707Y008311D01*
X036811Y008311D02*
X036883Y008382D01*
X036883Y008526D01*
X036811Y008598D01*
X036883Y008526D01*
X036883Y008382D01*
X036811Y008311D01*
X037027Y008115D02*
X037098Y008115D01*
X037066Y008115D02*
X037138Y008115D01*
X037138Y008095D02*
X037066Y008095D01*
X037066Y008076D02*
X037138Y008076D01*
X037066Y008076D01*
X037138Y008076D01*
X037098Y008076D02*
X037027Y008076D01*
X037098Y008076D01*
D12*
X029961Y007749D02*
X029961Y007129D01*
X028961Y007129D02*
X028961Y007749D01*
X027961Y007749D02*
X027961Y007129D01*
X026961Y007129D02*
X026961Y007749D01*
X025961Y007749D02*
X025961Y007129D01*
X024961Y007129D02*
X024961Y007749D01*
X023961Y007749D02*
X023961Y007129D01*
X022961Y007129D02*
X022961Y007749D01*
X021961Y007749D02*
X021961Y007129D01*
X020961Y007129D02*
X020961Y007749D01*
X019961Y007749D02*
X019961Y007129D01*
X018961Y007129D02*
X018961Y007749D01*
X017961Y007749D02*
X017961Y007129D01*
X016961Y007129D02*
X016961Y007749D01*
X016961Y004749D02*
X016961Y004129D01*
X017961Y004129D02*
X017961Y004749D01*
X018961Y004749D02*
X018961Y004129D01*
X019961Y004129D02*
X019961Y004749D01*
X020961Y004749D02*
X020961Y004129D01*
X021961Y004129D02*
X021961Y004749D01*
X022961Y004749D02*
X022961Y004129D01*
X023961Y004129D02*
X023961Y004749D01*
X024961Y004749D02*
X024961Y004129D01*
X025961Y004129D02*
X025961Y004749D01*
X026961Y004749D02*
X026961Y004129D01*
X027961Y004129D02*
X027961Y004749D01*
X028961Y004749D02*
X028961Y004129D01*
X029961Y004129D02*
X029961Y004749D01*
D13*
X024527Y001681D03*
X022627Y001681D03*
D14*
X020561Y001189D03*
X018561Y001189D03*
X018561Y002189D03*
X020561Y002189D03*
X026656Y002217D03*
X026656Y001217D03*
X011311Y004339D03*
X007311Y004339D03*
X007311Y005939D03*
X011311Y005939D03*
X011311Y007539D03*
X007311Y007539D03*
D15*
X013011Y007939D03*
X015011Y007939D03*
X015011Y003939D03*
X013011Y003939D03*
D16*
X005841Y005447D03*
X005061Y005447D03*
X005061Y006431D03*
X005841Y006431D03*
D17*
X003991Y008309D03*
X003991Y003569D03*
D18*
X029199Y001209D03*
D19*
X029199Y002209D03*
D20*
X032461Y005439D03*
X033461Y005439D03*
X034461Y005439D03*
X034461Y006439D03*
X033461Y006439D03*
X032461Y006439D03*
D21*
X016711Y001839D02*
X016711Y001139D01*
X015711Y001139D02*
X015711Y001839D01*
X014711Y001839D02*
X014711Y001139D01*
X013711Y001139D02*
X013711Y001839D01*
X012711Y001839D02*
X012711Y001139D01*
X011711Y001139D02*
X011711Y001839D01*
X010711Y001839D02*
X010711Y001139D01*
X009711Y001139D02*
X009711Y001839D01*
X008711Y001839D02*
X008711Y001139D01*
D22*
X005711Y009939D03*
X013661Y009939D03*
X021661Y009939D03*
X029561Y009939D03*
D23*
X030561Y009939D03*
X031561Y009939D03*
X032561Y009939D03*
X033561Y009939D03*
X034561Y009939D03*
X026661Y009939D03*
X025661Y009939D03*
X024661Y009939D03*
X023661Y009939D03*
X022661Y009939D03*
X018661Y009939D03*
X017661Y009939D03*
X016661Y009939D03*
X015661Y009939D03*
X014661Y009939D03*
X010711Y009939D03*
X009711Y009939D03*
X008711Y009939D03*
X007711Y009939D03*
X006711Y009939D03*
M02*
