%
M48
M72
T01C0.0157
T02C0.0315
T03C0.0320
T04C0.0360
T05C0.0400
T06C0.0440
T07C0.0900
T08C0.1260
%
T01
X13766Y3339
X18061Y3289
X15798Y5556
X17153Y6017
X9361Y5029
X19081Y9520
X24160Y9520
X33382Y1129
T02
X33561Y9939
X32561Y9939
X31561Y9939
X30561Y9939
X29561Y9939
X26661Y9939
X25661Y9939
X24661Y9939
X23661Y9939
X22661Y9939
X21661Y9939
X18661Y9939
X17661Y9939
X16661Y9939
X15661Y9939
X14661Y9939
X13661Y9939
X10711Y9939
X9711Y9939
X8711Y9939
X7711Y9939
X6711Y9939
X5711Y9939
X34561Y9939
T03
X29961Y7439
X28961Y7439
X27961Y7439
X26961Y7439
X25961Y7439
X24961Y7439
X23961Y7439
X22961Y7439
X21961Y7439
X20961Y7439
X19961Y7439
X18961Y7439
X17961Y7439
X16961Y7439
X11311Y7539
X7311Y7539
X7311Y5939
X11311Y5939
X11311Y4339
X7311Y4339
X16961Y4439
X17961Y4439
X18961Y4439
X19961Y4439
X20961Y4439
X21961Y4439
X22961Y4439
X23961Y4439
X24961Y4439
X25961Y4439
X26961Y4439
X27961Y4439
X28961Y4439
X29961Y4439
X29199Y2209
X26656Y2217
X24527Y1681
X22627Y1681
X20561Y1189
X18561Y1189
X18561Y2189
X20561Y2189
X26656Y1217
X29199Y1209
T04
X5841Y5447
X5061Y5447
X5061Y6431
X5841Y6431
T05
X8711Y1489
X9711Y1489
X10711Y1489
X11711Y1489
X12711Y1489
X13711Y1489
X14711Y1489
X15711Y1489
X16711Y1489
X32461Y5439
X33461Y5439
X34461Y5439
X34461Y6439
X33461Y6439
X32461Y6439
T06
X15011Y7939
X13011Y7939
X13011Y3939
X15011Y3939
T07
X3991Y3569
X3991Y8309
T08
X2961Y1489
X2900Y10089
X36761Y10089
X36811Y1489
M30
