G75*
%MOIN*%
%OFA0B0*%
%FSLAX24Y24*%
%IPPOS*%
%LPD*%
%AMOC8*
5,1,8,0,0,1.08239X$1,22.5*
%
%ADD10C,0.0620*%
%ADD11C,0.0620*%
%ADD12OC8,0.0620*%
%ADD13C,0.0740*%
%ADD14C,0.0660*%
%ADD15C,0.1300*%
%ADD16R,0.0880X0.0480*%
%ADD17R,0.0866X0.1417*%
%ADD18OC8,0.0630*%
%ADD19C,0.0630*%
%ADD20OC8,0.0700*%
%ADD21C,0.0700*%
%ADD22R,0.0615X0.0615*%
%ADD23C,0.0615*%
%ADD24C,0.0100*%
%ADD25C,0.0317*%
D10*
X016961Y004129D02*
X016961Y004749D01*
X017961Y004749D02*
X017961Y004129D01*
X018961Y004129D02*
X018961Y004749D01*
X019961Y004749D02*
X019961Y004129D01*
X020961Y004129D02*
X020961Y004749D01*
X021961Y004749D02*
X021961Y004129D01*
X022961Y004129D02*
X022961Y004749D01*
X023961Y004749D02*
X023961Y004129D01*
X024961Y004129D02*
X024961Y004749D01*
X025961Y004749D02*
X025961Y004129D01*
X026961Y004129D02*
X026961Y004749D01*
X027961Y004749D02*
X027961Y004129D01*
X028961Y004129D02*
X028961Y004749D01*
X029961Y004749D02*
X029961Y004129D01*
X029961Y007129D02*
X029961Y007749D01*
X028961Y007749D02*
X028961Y007129D01*
X027961Y007129D02*
X027961Y007749D01*
X026961Y007749D02*
X026961Y007129D01*
X025961Y007129D02*
X025961Y007749D01*
X024961Y007749D02*
X024961Y007129D01*
X023961Y007129D02*
X023961Y007749D01*
X022961Y007749D02*
X022961Y007129D01*
X021961Y007129D02*
X021961Y007749D01*
X020961Y007749D02*
X020961Y007129D01*
X019961Y007129D02*
X019961Y007749D01*
X018961Y007749D02*
X018961Y007129D01*
X017961Y007129D02*
X017961Y007749D01*
X016961Y007749D02*
X016961Y007129D01*
D11*
X022627Y001681D03*
X024527Y001681D03*
D12*
X026656Y001217D03*
X026656Y002217D03*
X020561Y002189D03*
X018561Y002189D03*
X018561Y001189D03*
X020561Y001189D03*
X011311Y004339D03*
X007311Y004339D03*
X007311Y005939D03*
X011311Y005939D03*
X011311Y007539D03*
X007311Y007539D03*
D13*
X013011Y007939D03*
X015011Y007939D03*
X015011Y003939D03*
X013011Y003939D03*
D14*
X005841Y005447D03*
X005061Y005447D03*
X005061Y006431D03*
X005841Y006431D03*
D15*
X003991Y008309D03*
X003991Y003569D03*
D16*
X032141Y002949D03*
X032141Y002039D03*
X032141Y001129D03*
D17*
X034581Y002039D03*
D18*
X029199Y001209D03*
D19*
X029199Y002209D03*
D20*
X032461Y005439D03*
X033461Y005439D03*
X034461Y005439D03*
X034461Y006439D03*
X033461Y006439D03*
X032461Y006439D03*
D21*
X016711Y001839D02*
X016711Y001139D01*
X015711Y001139D02*
X015711Y001839D01*
X014711Y001839D02*
X014711Y001139D01*
X013711Y001139D02*
X013711Y001839D01*
X012711Y001839D02*
X012711Y001139D01*
X011711Y001139D02*
X011711Y001839D01*
X010711Y001839D02*
X010711Y001139D01*
X009711Y001139D02*
X009711Y001839D01*
X008711Y001839D02*
X008711Y001139D01*
D22*
X005711Y009939D03*
X013661Y009939D03*
X021661Y009939D03*
X029561Y009939D03*
D23*
X030561Y009939D03*
X031561Y009939D03*
X032561Y009939D03*
X033561Y009939D03*
X034561Y009939D03*
X026661Y009939D03*
X025661Y009939D03*
X024661Y009939D03*
X023661Y009939D03*
X022661Y009939D03*
X018661Y009939D03*
X017661Y009939D03*
X016661Y009939D03*
X015661Y009939D03*
X014661Y009939D03*
X010711Y009939D03*
X009711Y009939D03*
X008711Y009939D03*
X007711Y009939D03*
X006711Y009939D03*
D24*
X001611Y000150D02*
X001561Y000150D01*
X001561Y000200D01*
X001611Y000150D01*
X001571Y000189D02*
X001561Y000189D01*
X001895Y000440D02*
X001812Y000523D01*
X001767Y000631D01*
X001761Y000689D01*
X001761Y010885D01*
X001767Y010944D01*
X001812Y011052D01*
X001895Y011135D01*
X002003Y011180D01*
X002061Y011185D01*
X037631Y011185D01*
X037690Y011180D01*
X037798Y011135D01*
X037881Y011052D01*
X037926Y010944D01*
X037931Y010885D01*
X037931Y000689D01*
X037926Y000631D01*
X037881Y000523D01*
X037798Y000440D01*
X037690Y000395D01*
X037631Y000389D01*
X002061Y000389D01*
X002003Y000395D01*
X001895Y000440D01*
X001850Y000485D02*
X008062Y000485D01*
X008033Y000497D02*
X008244Y000409D01*
X014382Y000409D01*
X014593Y000497D01*
X014754Y000658D01*
X014754Y000659D01*
X014807Y000659D01*
X014983Y000732D01*
X015118Y000867D01*
X015191Y001044D01*
X015191Y001935D01*
X015118Y002111D01*
X014983Y002246D01*
X014807Y002319D01*
X014616Y002319D01*
X014439Y002246D01*
X014304Y002111D01*
X014231Y001935D01*
X014231Y001044D01*
X014304Y000867D01*
X014372Y000800D01*
X014309Y000773D01*
X014268Y000769D01*
X014020Y000769D01*
X014118Y000867D01*
X014191Y001044D01*
X014191Y001935D01*
X014118Y002111D01*
X013983Y002246D01*
X013943Y002263D01*
X013945Y003110D01*
X014011Y003175D01*
X014055Y003282D01*
X014055Y003396D01*
X014011Y003503D01*
X013930Y003584D01*
X013823Y003628D01*
X013709Y003628D01*
X013602Y003584D01*
X013521Y003503D01*
X013477Y003396D01*
X013477Y003282D01*
X013521Y003175D01*
X013585Y003111D01*
X013583Y002306D01*
X013439Y002246D01*
X013304Y002111D01*
X013231Y001935D01*
X013231Y001044D01*
X013304Y000867D01*
X013402Y000769D01*
X013020Y000769D01*
X013118Y000867D01*
X013191Y001044D01*
X013191Y001935D01*
X013118Y002111D01*
X012983Y002246D01*
X012807Y002319D01*
X012616Y002319D01*
X012439Y002246D01*
X012304Y002111D01*
X012231Y001935D01*
X012231Y001044D01*
X012304Y000867D01*
X012402Y000769D01*
X012020Y000769D01*
X012118Y000867D01*
X012191Y001044D01*
X012191Y001935D01*
X012118Y002111D01*
X011983Y002246D01*
X011807Y002319D01*
X011616Y002319D01*
X011439Y002246D01*
X011304Y002111D01*
X011231Y001935D01*
X011231Y001044D01*
X011304Y000867D01*
X011402Y000769D01*
X011020Y000769D01*
X011118Y000867D01*
X011191Y001044D01*
X011191Y001935D01*
X011118Y002111D01*
X010983Y002246D01*
X010807Y002319D01*
X010616Y002319D01*
X010439Y002246D01*
X010304Y002111D01*
X010231Y001935D01*
X010231Y001044D01*
X010304Y000867D01*
X010402Y000769D01*
X010020Y000769D01*
X010118Y000867D01*
X010191Y001044D01*
X010191Y001935D01*
X010118Y002111D01*
X009983Y002246D01*
X009841Y002305D01*
X009841Y002863D01*
X009726Y003063D01*
X009526Y003178D01*
X008699Y003178D01*
X008681Y003180D01*
X008650Y003199D01*
X008632Y003230D01*
X008629Y003248D01*
X008629Y008530D01*
X011226Y008530D01*
X011426Y008645D01*
X011426Y008645D01*
X011541Y008845D01*
X011541Y010239D01*
X011544Y010257D01*
X011562Y010289D01*
X011593Y010307D01*
X011611Y010309D01*
X013217Y010309D01*
X013214Y010305D01*
X013204Y010267D01*
X013204Y009968D01*
X013633Y009968D01*
X013633Y009911D01*
X013690Y009911D01*
X013690Y009968D01*
X014119Y009968D01*
X014119Y010267D01*
X014109Y010305D01*
X014106Y010309D01*
X014413Y010309D01*
X014290Y010187D01*
X014224Y010026D01*
X014224Y009852D01*
X014290Y009692D01*
X014413Y009568D01*
X014481Y009540D01*
X014481Y008743D01*
X014596Y008543D01*
X014596Y008543D01*
X014596Y008543D01*
X014796Y008428D01*
X014833Y008428D01*
X014812Y008421D01*
X014739Y008384D01*
X014673Y008336D01*
X014615Y008278D01*
X014567Y008212D01*
X014529Y008139D01*
X014504Y008061D01*
X014493Y007989D01*
X014961Y007989D01*
X014961Y007889D01*
X015061Y007889D01*
X015061Y007421D01*
X015133Y007432D01*
X015211Y007457D01*
X015284Y007495D01*
X015350Y007543D01*
X015408Y007601D01*
X015456Y007667D01*
X015493Y007740D01*
X015518Y007818D01*
X015530Y007889D01*
X015061Y007889D01*
X015061Y007989D01*
X015530Y007989D01*
X015518Y008061D01*
X015493Y008139D01*
X015456Y008212D01*
X015408Y008278D01*
X015350Y008336D01*
X015284Y008384D01*
X015211Y008421D01*
X015189Y008428D01*
X016775Y008428D01*
X016775Y008148D01*
X016712Y008122D01*
X016588Y007999D01*
X016521Y007837D01*
X016521Y007042D01*
X016588Y006880D01*
X016712Y006756D01*
X016874Y006689D01*
X017049Y006689D01*
X017210Y006756D01*
X017334Y006880D01*
X017401Y007042D01*
X017401Y007837D01*
X017334Y007999D01*
X017210Y008122D01*
X017135Y008154D01*
X017135Y008565D01*
X017053Y008707D01*
X016982Y008748D01*
X017781Y008748D01*
X017781Y008151D01*
X017712Y008122D01*
X017588Y007999D01*
X017521Y007837D01*
X017521Y007042D01*
X017588Y006880D01*
X017712Y006756D01*
X017874Y006689D01*
X018049Y006689D01*
X018210Y006756D01*
X018281Y006827D01*
X018281Y006197D01*
X017381Y006197D01*
X017316Y006262D01*
X017210Y006306D01*
X017095Y006306D01*
X016989Y006262D01*
X016908Y006180D01*
X016864Y006074D01*
X016864Y005959D01*
X016908Y005853D01*
X016989Y005772D01*
X017076Y005736D01*
X016027Y005736D01*
X015962Y005801D01*
X015856Y005845D01*
X015741Y005845D01*
X015635Y005801D01*
X015553Y005720D01*
X015510Y005614D01*
X015510Y005499D01*
X015531Y005448D01*
X012172Y005448D01*
X012172Y007355D01*
X012057Y007554D01*
X012057Y007554D01*
X012057Y007554D01*
X011857Y007669D01*
X011751Y007669D01*
X011751Y007722D01*
X011494Y007979D01*
X011129Y007979D01*
X010871Y007722D01*
X010871Y007357D01*
X011129Y007099D01*
X011494Y007099D01*
X011704Y007309D01*
X011742Y007309D01*
X011760Y007307D01*
X011791Y007289D01*
X011810Y007257D01*
X011812Y007239D01*
X011812Y005311D01*
X009433Y005311D01*
X009419Y005317D02*
X009304Y005317D01*
X009198Y005274D01*
X009116Y005192D01*
X009073Y005086D01*
X009073Y004971D01*
X009116Y004865D01*
X009198Y004784D01*
X009304Y004740D01*
X009419Y004740D01*
X009525Y004784D01*
X009590Y004849D01*
X011279Y004849D01*
X011246Y004830D01*
X011217Y004779D01*
X011129Y004779D01*
X010871Y004522D01*
X010871Y004157D01*
X011129Y003899D01*
X011494Y003899D01*
X011751Y004157D01*
X011751Y004522D01*
X011688Y004585D01*
X014178Y004585D01*
X014178Y003424D01*
X014293Y003225D01*
X014293Y003225D01*
X014293Y003225D01*
X014493Y003109D01*
X017833Y003109D01*
X017898Y003045D01*
X018004Y003001D01*
X018119Y003001D01*
X018225Y003045D01*
X018306Y003126D01*
X018350Y003232D01*
X018350Y003347D01*
X018306Y003453D01*
X018250Y003509D01*
X023418Y003509D01*
X023418Y003509D01*
X023560Y003591D01*
X023641Y003733D01*
X023641Y003799D01*
X023662Y003779D01*
X023720Y003736D01*
X023785Y003703D01*
X023854Y003681D01*
X023925Y003669D01*
X023931Y003669D01*
X023931Y004409D01*
X023991Y004409D01*
X023991Y003669D01*
X023997Y003669D01*
X024069Y003681D01*
X024138Y003703D01*
X024202Y003736D01*
X024261Y003779D01*
X024281Y003799D01*
X024281Y003096D01*
X024277Y003054D01*
X024245Y002977D01*
X024186Y002918D01*
X024109Y002886D01*
X024068Y002882D01*
X016889Y002882D01*
X016689Y002766D01*
X016689Y002766D01*
X016689Y002766D01*
X016574Y002565D01*
X016575Y002524D01*
X016575Y002524D01*
X016575Y002461D01*
X016575Y002449D01*
X016576Y002375D01*
X016576Y002303D01*
X016439Y002246D01*
X016304Y002111D01*
X016231Y001935D01*
X016231Y001044D01*
X016304Y000867D01*
X016439Y000732D01*
X016616Y000659D01*
X016807Y000659D01*
X016983Y000732D01*
X017118Y000867D01*
X017191Y001044D01*
X017191Y001935D01*
X017118Y002111D01*
X016983Y002246D01*
X016936Y002266D01*
X016935Y002439D01*
X016935Y002452D01*
X016937Y002470D01*
X016955Y002501D01*
X016987Y002520D01*
X017005Y002522D01*
X018243Y002522D01*
X018101Y002380D01*
X018101Y002219D01*
X018531Y002219D01*
X018531Y002159D01*
X018591Y002159D01*
X018591Y001729D01*
X018752Y001729D01*
X019021Y001999D01*
X019021Y002159D01*
X018591Y002159D01*
X018591Y002219D01*
X019021Y002219D01*
X019021Y002380D01*
X018879Y002522D01*
X020243Y002522D01*
X020101Y002380D01*
X020101Y002219D01*
X020531Y002219D01*
X020531Y002159D01*
X020591Y002159D01*
X020591Y001729D01*
X020752Y001729D01*
X021021Y001999D01*
X021021Y002159D01*
X020591Y002159D01*
X020591Y002219D01*
X021021Y002219D01*
X021021Y002380D01*
X020879Y002522D01*
X024182Y002522D01*
X024393Y002609D01*
X024554Y002771D01*
X024641Y002982D01*
X024641Y003827D01*
X024712Y003756D01*
X024874Y003689D01*
X025049Y003689D01*
X025210Y003756D01*
X025334Y003880D01*
X025401Y004042D01*
X025401Y004837D01*
X025334Y004999D01*
X025245Y005088D01*
X025678Y005088D01*
X025588Y004999D01*
X025521Y004837D01*
X025521Y004042D01*
X025588Y003880D01*
X025712Y003756D01*
X025874Y003689D01*
X026049Y003689D01*
X026210Y003756D01*
X026334Y003880D01*
X026401Y004042D01*
X026401Y004837D01*
X026334Y004999D01*
X026245Y005088D01*
X026678Y005088D01*
X026588Y004999D01*
X026521Y004837D01*
X026521Y004042D01*
X026588Y003880D01*
X026712Y003756D01*
X026874Y003689D01*
X027049Y003689D01*
X027210Y003756D01*
X027334Y003880D01*
X027401Y004042D01*
X027401Y004837D01*
X027334Y004999D01*
X027245Y005088D01*
X027678Y005088D01*
X027588Y004999D01*
X027521Y004837D01*
X027521Y004042D01*
X027588Y003880D01*
X027712Y003756D01*
X027874Y003689D01*
X028049Y003689D01*
X028210Y003756D01*
X028334Y003880D01*
X028401Y004042D01*
X028401Y004837D01*
X028334Y004999D01*
X028245Y005088D01*
X028678Y005088D01*
X028588Y004999D01*
X028521Y004837D01*
X028521Y004042D01*
X028588Y003880D01*
X028712Y003756D01*
X028874Y003689D01*
X029049Y003689D01*
X029210Y003756D01*
X029334Y003880D01*
X029401Y004042D01*
X029401Y004837D01*
X029334Y004999D01*
X029245Y005088D01*
X029678Y005088D01*
X029588Y004999D01*
X029521Y004837D01*
X029521Y004042D01*
X029588Y003880D01*
X029712Y003756D01*
X029874Y003689D01*
X030049Y003689D01*
X030210Y003756D01*
X030334Y003880D01*
X030401Y004042D01*
X030401Y004837D01*
X030334Y004999D01*
X030245Y005088D01*
X031708Y005088D01*
X031908Y005203D01*
X031908Y005203D01*
X031908Y005203D01*
X031961Y005296D01*
X031961Y005232D01*
X032254Y004939D01*
X032411Y004939D01*
X032411Y005389D01*
X032511Y005389D01*
X032511Y004939D01*
X032668Y004939D01*
X032961Y005232D01*
X032961Y005389D01*
X032511Y005389D01*
X032511Y005489D01*
X032961Y005489D01*
X032961Y005646D01*
X032859Y005749D01*
X033092Y005749D01*
X032981Y005638D01*
X032981Y005241D01*
X033262Y004959D01*
X033660Y004959D01*
X033941Y005241D01*
X033941Y005638D01*
X033660Y005919D01*
X033558Y005919D01*
X033581Y005959D01*
X033660Y005959D01*
X033941Y006241D01*
X033941Y006638D01*
X033660Y006919D01*
X033262Y006919D01*
X032981Y006638D01*
X032981Y006241D01*
X033113Y006109D01*
X032809Y006109D01*
X032941Y006241D01*
X032941Y006638D01*
X032660Y006919D01*
X032262Y006919D01*
X031981Y006638D01*
X031981Y006569D01*
X023505Y006569D01*
X023363Y006488D01*
X023363Y006488D01*
X023363Y006488D01*
X023281Y006346D01*
X023281Y005052D01*
X023210Y005122D01*
X023049Y005189D01*
X022874Y005189D01*
X022712Y005122D01*
X022588Y004999D01*
X022521Y004837D01*
X022521Y004042D01*
X022588Y003880D01*
X022599Y003869D01*
X022324Y003869D01*
X022334Y003880D01*
X022401Y004042D01*
X022401Y004837D01*
X022334Y004999D01*
X022210Y005122D01*
X022049Y005189D01*
X021874Y005189D01*
X021712Y005122D01*
X021588Y004999D01*
X021521Y004837D01*
X021521Y004042D01*
X021588Y003880D01*
X021599Y003869D01*
X021324Y003869D01*
X021334Y003880D01*
X021401Y004042D01*
X021401Y004837D01*
X021334Y004999D01*
X021210Y005122D01*
X021049Y005189D01*
X020874Y005189D01*
X020712Y005122D01*
X020588Y004999D01*
X020521Y004837D01*
X020521Y004042D01*
X020588Y003880D01*
X020599Y003869D01*
X020324Y003869D01*
X020334Y003880D01*
X020401Y004042D01*
X020401Y004837D01*
X020334Y004999D01*
X020210Y005122D01*
X020049Y005189D01*
X019874Y005189D01*
X019712Y005122D01*
X019588Y004999D01*
X019521Y004837D01*
X019521Y004042D01*
X019588Y003880D01*
X019599Y003869D01*
X019324Y003869D01*
X019334Y003880D01*
X019401Y004042D01*
X019401Y004837D01*
X019334Y004999D01*
X019210Y005122D01*
X019141Y005151D01*
X019141Y005225D01*
X019060Y005366D01*
X019042Y005376D01*
X021918Y005376D01*
X022060Y005458D01*
X022141Y005600D01*
X022141Y006728D01*
X022210Y006756D01*
X022334Y006880D01*
X022401Y007042D01*
X022401Y007837D01*
X022334Y007999D01*
X022210Y008122D01*
X022049Y008189D01*
X021874Y008189D01*
X021712Y008122D01*
X021641Y008052D01*
X021641Y008748D01*
X022118Y008748D01*
X022260Y008830D01*
X022341Y008971D01*
X022341Y009641D01*
X022413Y009568D01*
X022574Y009502D01*
X022748Y009502D01*
X022909Y009568D01*
X023032Y009692D01*
X023099Y009852D01*
X023099Y010026D01*
X023032Y010187D01*
X023010Y010209D01*
X023313Y010209D01*
X023290Y010187D01*
X023224Y010026D01*
X023224Y009852D01*
X023290Y009692D01*
X023413Y009568D01*
X023574Y009502D01*
X023748Y009502D01*
X023909Y009568D01*
X024032Y009692D01*
X024099Y009852D01*
X024099Y010026D01*
X024032Y010187D01*
X024010Y010209D01*
X024313Y010209D01*
X024290Y010187D01*
X024224Y010026D01*
X024224Y009852D01*
X024290Y009692D01*
X024413Y009568D01*
X024574Y009502D01*
X024748Y009502D01*
X024909Y009568D01*
X025032Y009692D01*
X025099Y009852D01*
X025099Y010026D01*
X025032Y010187D01*
X025010Y010209D01*
X025313Y010209D01*
X025290Y010187D01*
X025224Y010026D01*
X025224Y009852D01*
X025290Y009692D01*
X025413Y009568D01*
X025481Y009540D01*
X025481Y009108D01*
X025005Y009108D01*
X024863Y009026D01*
X024781Y008885D01*
X024781Y008151D01*
X024712Y008122D01*
X024588Y007999D01*
X024521Y007837D01*
X024521Y007042D01*
X024588Y006880D01*
X024712Y006756D01*
X024874Y006689D01*
X025049Y006689D01*
X025210Y006756D01*
X025334Y006880D01*
X025401Y007042D01*
X025401Y007837D01*
X025334Y007999D01*
X025210Y008122D01*
X025141Y008151D01*
X025141Y008748D01*
X025618Y008748D01*
X025760Y008830D01*
X025841Y008971D01*
X025841Y009540D01*
X025909Y009568D01*
X025981Y009641D01*
X025981Y009512D01*
X026096Y009313D01*
X026096Y009313D01*
X026096Y009313D01*
X026296Y009198D01*
X032426Y009198D01*
X032626Y009313D01*
X032741Y009512D01*
X032741Y009540D01*
X032809Y009568D01*
X032932Y009692D01*
X032999Y009852D01*
X032999Y010026D01*
X032932Y010187D01*
X032809Y010310D01*
X032648Y010377D01*
X032474Y010377D01*
X032313Y010310D01*
X032190Y010187D01*
X032124Y010026D01*
X032124Y009852D01*
X032190Y009692D01*
X032313Y009568D01*
X032331Y009561D01*
X032329Y009560D01*
X032311Y009558D01*
X031783Y009558D01*
X031809Y009568D01*
X031932Y009692D01*
X031999Y009852D01*
X031999Y010026D01*
X031932Y010187D01*
X031809Y010310D01*
X031648Y010377D01*
X031474Y010377D01*
X031313Y010310D01*
X031190Y010187D01*
X031124Y010026D01*
X031124Y009852D01*
X031190Y009692D01*
X031313Y009568D01*
X031340Y009558D01*
X030783Y009558D01*
X030809Y009568D01*
X030932Y009692D01*
X030999Y009852D01*
X030999Y010026D01*
X030932Y010187D01*
X030809Y010310D01*
X030648Y010377D01*
X030474Y010377D01*
X030313Y010310D01*
X030190Y010187D01*
X030124Y010026D01*
X030124Y009852D01*
X030190Y009692D01*
X030313Y009568D01*
X030340Y009558D01*
X029999Y009558D01*
X030009Y009574D01*
X030019Y009612D01*
X030019Y009911D01*
X029590Y009911D01*
X029590Y009968D01*
X030019Y009968D01*
X030019Y010267D01*
X030009Y010305D01*
X029989Y010339D01*
X029961Y010367D01*
X029927Y010387D01*
X029888Y010397D01*
X029590Y010397D01*
X029590Y009968D01*
X029533Y009968D01*
X029533Y010397D01*
X029234Y010397D01*
X029196Y010387D01*
X029162Y010367D01*
X029134Y010339D01*
X029114Y010305D01*
X029104Y010267D01*
X029104Y009968D01*
X029533Y009968D01*
X029533Y009911D01*
X029104Y009911D01*
X029104Y009612D01*
X029114Y009574D01*
X029123Y009558D01*
X026883Y009558D01*
X026909Y009568D01*
X027032Y009692D01*
X027099Y009852D01*
X027099Y010026D01*
X027032Y010187D01*
X026909Y010310D01*
X026841Y010338D01*
X026841Y010600D01*
X034573Y010600D01*
X034615Y010596D01*
X034692Y010564D01*
X034751Y010505D01*
X034783Y010428D01*
X034787Y010386D01*
X034787Y010319D01*
X034648Y010377D01*
X034474Y010377D01*
X034313Y010310D01*
X034190Y010187D01*
X034124Y010026D01*
X034124Y009852D01*
X034190Y009692D01*
X034313Y009568D01*
X034474Y009502D01*
X034648Y009502D01*
X034787Y009559D01*
X034787Y006793D01*
X034660Y006919D01*
X034418Y006919D01*
X034418Y008648D01*
X034331Y008859D01*
X034331Y008859D01*
X034170Y009021D01*
X034170Y009021D01*
X033959Y009108D01*
X027096Y009108D01*
X026896Y008993D01*
X026781Y008793D01*
X026781Y008151D01*
X026712Y008122D01*
X026588Y007999D01*
X026521Y007837D01*
X026521Y007042D01*
X026588Y006880D01*
X026712Y006756D01*
X026874Y006689D01*
X027049Y006689D01*
X027210Y006756D01*
X027334Y006880D01*
X027401Y007042D01*
X027401Y007837D01*
X027334Y007999D01*
X027210Y008122D01*
X027141Y008151D01*
X027141Y008678D01*
X027144Y008696D01*
X027162Y008727D01*
X027193Y008746D01*
X027211Y008748D01*
X033845Y008748D01*
X033886Y008744D01*
X033963Y008712D01*
X034022Y008653D01*
X034054Y008576D01*
X034058Y008534D01*
X034058Y006715D01*
X033981Y006638D01*
X033981Y006241D01*
X034262Y005959D01*
X034660Y005959D01*
X034787Y006086D01*
X034787Y005793D01*
X034660Y005919D01*
X034262Y005919D01*
X033981Y005638D01*
X033981Y005241D01*
X034262Y004959D01*
X034660Y004959D01*
X034787Y005086D01*
X034787Y002878D01*
X034094Y002878D01*
X034018Y002802D01*
X034018Y002269D01*
X032711Y002269D01*
X032711Y002333D01*
X032635Y002409D01*
X031647Y002409D01*
X031571Y002333D01*
X031571Y002219D01*
X029644Y002219D01*
X029644Y002298D01*
X029576Y002461D01*
X029451Y002586D01*
X029288Y002654D01*
X029111Y002654D01*
X028947Y002586D01*
X028822Y002461D01*
X028754Y002298D01*
X028754Y002121D01*
X028822Y001957D01*
X028947Y001832D01*
X029111Y001764D01*
X029288Y001764D01*
X029451Y001832D01*
X029479Y001859D01*
X031571Y001859D01*
X031571Y001746D01*
X031647Y001669D01*
X032635Y001669D01*
X032711Y001746D01*
X032711Y001859D01*
X034018Y001859D01*
X034018Y001277D01*
X034094Y001201D01*
X035068Y001201D01*
X035144Y001277D01*
X035144Y002312D01*
X035146Y002313D01*
X035146Y002314D01*
X035147Y002315D01*
X035147Y002389D01*
X035147Y002462D01*
X035147Y002463D01*
X035147Y010500D01*
X035059Y010711D01*
X035059Y010711D01*
X034898Y010873D01*
X034687Y010960D01*
X010991Y010960D01*
X010780Y010873D01*
X010619Y010711D01*
X010531Y010500D01*
X010531Y010338D01*
X010463Y010310D01*
X010340Y010187D01*
X010274Y010026D01*
X010274Y009852D01*
X010340Y009692D01*
X010463Y009568D01*
X010624Y009502D01*
X010798Y009502D01*
X010959Y009568D01*
X011082Y009692D01*
X011149Y009852D01*
X011149Y010026D01*
X011082Y010187D01*
X010959Y010310D01*
X010891Y010338D01*
X010891Y010386D01*
X010895Y010428D01*
X010895Y010428D01*
X010927Y010505D01*
X010986Y010564D01*
X011063Y010596D01*
X011105Y010600D01*
X011376Y010600D01*
X011296Y010554D01*
X011181Y010355D01*
X011181Y008960D01*
X011179Y008942D01*
X011161Y008910D01*
X011129Y008892D01*
X011111Y008890D01*
X007961Y008890D01*
X007943Y008892D01*
X007912Y008910D01*
X007894Y008942D01*
X007891Y008960D01*
X007891Y009540D01*
X007959Y009568D01*
X008082Y009692D01*
X008149Y009852D01*
X008149Y010026D01*
X008082Y010187D01*
X007960Y010309D01*
X008462Y010309D01*
X008462Y010309D01*
X008340Y010187D01*
X008274Y010026D01*
X008274Y009852D01*
X008340Y009692D01*
X008463Y009568D01*
X008624Y009502D01*
X008798Y009502D01*
X008959Y009568D01*
X009082Y009692D01*
X009149Y009852D01*
X009149Y010026D01*
X009082Y010187D01*
X008959Y010310D01*
X008892Y010338D01*
X008892Y010354D01*
X008892Y010354D01*
X008777Y010554D01*
X008577Y010669D01*
X007357Y010669D01*
X007157Y010554D01*
X007042Y010355D01*
X007042Y010227D01*
X006959Y010310D01*
X006798Y010377D01*
X006624Y010377D01*
X006463Y010310D01*
X006340Y010187D01*
X006274Y010026D01*
X006274Y009852D01*
X006340Y009692D01*
X006463Y009568D01*
X006624Y009502D01*
X006798Y009502D01*
X006959Y009568D01*
X007042Y009651D01*
X007042Y008277D01*
X007157Y008077D01*
X007327Y007979D01*
X007129Y007979D01*
X006871Y007722D01*
X006871Y007709D01*
X005996Y007709D01*
X005996Y007709D01*
X005796Y007594D01*
X005681Y007394D01*
X005681Y006863D01*
X005581Y006821D01*
X005451Y006692D01*
X005322Y006821D01*
X005153Y006891D01*
X004970Y006891D01*
X004801Y006821D01*
X004671Y006692D01*
X004638Y006611D01*
X004407Y006611D01*
X004207Y006496D01*
X004092Y006297D01*
X004092Y004878D01*
X004179Y004668D01*
X004179Y004668D01*
X004341Y004506D01*
X004551Y004419D01*
X006871Y004419D01*
X006871Y004157D01*
X007129Y003899D01*
X007494Y003899D01*
X007751Y004157D01*
X007751Y004522D01*
X007494Y004779D01*
X007316Y004779D01*
X007300Y004790D01*
X007247Y004779D01*
X007129Y004779D01*
X007128Y004779D01*
X004666Y004779D01*
X004624Y004783D01*
X004547Y004815D01*
X004488Y004874D01*
X004456Y004951D01*
X004452Y004993D01*
X004452Y006181D01*
X004454Y006200D01*
X004472Y006231D01*
X004504Y006249D01*
X004522Y006251D01*
X004638Y006251D01*
X004671Y006171D01*
X004801Y006042D01*
X004970Y005971D01*
X005153Y005971D01*
X005322Y006042D01*
X005451Y006171D01*
X005451Y006171D01*
X005451Y006171D01*
X005581Y006042D01*
X005750Y005971D01*
X005933Y005971D01*
X006102Y006042D01*
X006231Y006171D01*
X006301Y006340D01*
X006301Y006523D01*
X006231Y006692D01*
X006102Y006821D01*
X006041Y006847D01*
X006041Y007279D01*
X006044Y007297D01*
X006062Y007328D01*
X006093Y007346D01*
X006111Y007349D01*
X006880Y007349D01*
X007129Y007099D01*
X007494Y007099D01*
X007751Y007357D01*
X007751Y007722D01*
X007511Y007962D01*
X007714Y007962D01*
X007733Y007960D01*
X007764Y007942D01*
X007782Y007910D01*
X007784Y007892D01*
X007784Y000869D01*
X007872Y000658D01*
X008033Y000497D01*
X008033Y000497D01*
X008033Y000497D01*
X007946Y000583D02*
X001787Y000583D01*
X001762Y000682D02*
X002742Y000682D01*
X002796Y000659D02*
X003126Y000659D01*
X003431Y000786D01*
X003665Y001019D01*
X003791Y001324D01*
X003791Y001654D01*
X003665Y001959D01*
X003431Y002193D01*
X003126Y002319D01*
X002796Y002319D01*
X002491Y002193D01*
X002258Y001959D01*
X002131Y001654D01*
X002131Y001324D01*
X002258Y001019D01*
X002491Y000786D01*
X002796Y000659D01*
X002504Y000780D02*
X001761Y000780D01*
X001761Y000879D02*
X002398Y000879D01*
X002300Y000977D02*
X001761Y000977D01*
X001761Y001076D02*
X002234Y001076D01*
X002193Y001174D02*
X001761Y001174D01*
X001761Y001273D02*
X002153Y001273D01*
X002131Y001371D02*
X001761Y001371D01*
X001761Y001470D02*
X002131Y001470D01*
X002131Y001568D02*
X001761Y001568D01*
X001761Y001667D02*
X002136Y001667D01*
X002177Y001765D02*
X001761Y001765D01*
X001761Y001864D02*
X002218Y001864D01*
X002261Y001962D02*
X001761Y001962D01*
X001761Y002061D02*
X002359Y002061D01*
X002458Y002159D02*
X001761Y002159D01*
X001761Y002258D02*
X002648Y002258D01*
X003275Y002258D02*
X007784Y002258D01*
X007784Y002356D02*
X001761Y002356D01*
X001761Y002455D02*
X007784Y002455D01*
X007784Y002553D02*
X001761Y002553D01*
X001761Y002652D02*
X007784Y002652D01*
X007784Y002750D02*
X001761Y002750D01*
X001761Y002849D02*
X003692Y002849D01*
X003549Y002908D02*
X003836Y002789D01*
X004146Y002789D01*
X004433Y002908D01*
X004653Y003128D01*
X004771Y003414D01*
X004771Y003725D01*
X004653Y004011D01*
X004433Y004231D01*
X004146Y004349D01*
X003836Y004349D01*
X003549Y004231D01*
X003330Y004011D01*
X003211Y003725D01*
X003211Y003414D01*
X003330Y003128D01*
X003549Y002908D01*
X003510Y002947D02*
X001761Y002947D01*
X001761Y003046D02*
X003412Y003046D01*
X003323Y003144D02*
X001761Y003144D01*
X001761Y003243D02*
X003282Y003243D01*
X003241Y003341D02*
X001761Y003341D01*
X001761Y003440D02*
X003211Y003440D01*
X003211Y003538D02*
X001761Y003538D01*
X001761Y003637D02*
X003211Y003637D01*
X003216Y003735D02*
X001761Y003735D01*
X001761Y003834D02*
X003257Y003834D01*
X003297Y003932D02*
X001761Y003932D01*
X001761Y004031D02*
X003350Y004031D01*
X003448Y004129D02*
X001761Y004129D01*
X001761Y004228D02*
X003547Y004228D01*
X003781Y004326D02*
X001761Y004326D01*
X001761Y004425D02*
X004537Y004425D01*
X004341Y004506D02*
X004341Y004506D01*
X004323Y004523D02*
X001761Y004523D01*
X001761Y004622D02*
X004225Y004622D01*
X004157Y004720D02*
X001761Y004720D01*
X001761Y004819D02*
X004117Y004819D01*
X004092Y004917D02*
X001761Y004917D01*
X001761Y005016D02*
X004092Y005016D01*
X004092Y005114D02*
X001761Y005114D01*
X001761Y005213D02*
X004092Y005213D01*
X004092Y005311D02*
X001761Y005311D01*
X001761Y005410D02*
X004092Y005410D01*
X004092Y005508D02*
X001761Y005508D01*
X001761Y005607D02*
X004092Y005607D01*
X004092Y005705D02*
X001761Y005705D01*
X001761Y005804D02*
X004092Y005804D01*
X004092Y005902D02*
X001761Y005902D01*
X001761Y006001D02*
X004092Y006001D01*
X004092Y006099D02*
X001761Y006099D01*
X001761Y006198D02*
X004092Y006198D01*
X004092Y006296D02*
X001761Y006296D01*
X001761Y006395D02*
X004149Y006395D01*
X004205Y006493D02*
X001761Y006493D01*
X001761Y006592D02*
X004373Y006592D01*
X004207Y006496D02*
X004207Y006496D01*
X004207Y006496D01*
X004522Y006431D02*
X005061Y006431D01*
X004660Y006198D02*
X004454Y006198D01*
X004272Y006181D02*
X004274Y006211D01*
X004279Y006241D01*
X004288Y006270D01*
X004301Y006297D01*
X004316Y006323D01*
X004335Y006347D01*
X004356Y006368D01*
X004380Y006387D01*
X004406Y006402D01*
X004433Y006415D01*
X004462Y006424D01*
X004492Y006429D01*
X004522Y006431D01*
X004671Y006690D02*
X001761Y006690D01*
X001761Y006789D02*
X004768Y006789D01*
X004960Y006887D02*
X001761Y006887D01*
X001761Y006986D02*
X005681Y006986D01*
X005681Y007084D02*
X001761Y007084D01*
X001761Y007183D02*
X005681Y007183D01*
X005681Y007281D02*
X001761Y007281D01*
X001761Y007380D02*
X005681Y007380D01*
X005730Y007478D02*
X001761Y007478D01*
X001761Y007577D02*
X003721Y007577D01*
X003836Y007529D02*
X003549Y007648D01*
X003330Y007868D01*
X003211Y008154D01*
X003211Y008465D01*
X003330Y008751D01*
X003549Y008971D01*
X003836Y009089D01*
X004146Y009089D01*
X004433Y008971D01*
X004653Y008751D01*
X004771Y008465D01*
X004771Y008154D01*
X004653Y007868D01*
X004433Y007648D01*
X004146Y007529D01*
X003836Y007529D01*
X003522Y007675D02*
X001761Y007675D01*
X001761Y007774D02*
X003424Y007774D01*
X003328Y007872D02*
X001761Y007872D01*
X001761Y007971D02*
X003287Y007971D01*
X003246Y008069D02*
X001761Y008069D01*
X001761Y008168D02*
X003211Y008168D01*
X003211Y008266D02*
X001761Y008266D01*
X001761Y008365D02*
X003211Y008365D01*
X003211Y008463D02*
X001761Y008463D01*
X001761Y008562D02*
X003252Y008562D01*
X003292Y008660D02*
X001761Y008660D01*
X001761Y008759D02*
X003338Y008759D01*
X003436Y008857D02*
X001761Y008857D01*
X001761Y008956D02*
X003535Y008956D01*
X003752Y009054D02*
X001761Y009054D01*
X001761Y009153D02*
X007042Y009153D01*
X007042Y009251D02*
X001761Y009251D01*
X001761Y009350D02*
X002516Y009350D01*
X002430Y009386D02*
X002735Y009259D01*
X003065Y009259D01*
X003370Y009386D01*
X003603Y009619D01*
X003730Y009924D01*
X003730Y010254D01*
X003603Y010559D01*
X003370Y010793D01*
X003065Y010919D01*
X002735Y010919D01*
X002430Y010793D01*
X002196Y010559D01*
X002070Y010254D01*
X002070Y009924D01*
X002196Y009619D01*
X002430Y009386D01*
X002367Y009448D02*
X001761Y009448D01*
X001761Y009547D02*
X002269Y009547D01*
X002185Y009645D02*
X001761Y009645D01*
X001761Y009744D02*
X002145Y009744D01*
X002104Y009842D02*
X001761Y009842D01*
X001761Y009941D02*
X002070Y009941D01*
X002070Y010039D02*
X001761Y010039D01*
X001761Y010138D02*
X002070Y010138D01*
X002070Y010236D02*
X001761Y010236D01*
X001761Y010335D02*
X002103Y010335D01*
X002144Y010433D02*
X001761Y010433D01*
X001761Y010532D02*
X002185Y010532D01*
X002267Y010630D02*
X001761Y010630D01*
X001761Y010729D02*
X002366Y010729D01*
X002513Y010827D02*
X001761Y010827D01*
X001765Y010926D02*
X010909Y010926D01*
X010780Y010873D02*
X010780Y010873D01*
X010735Y010827D02*
X003287Y010827D01*
X003434Y010729D02*
X010636Y010729D01*
X010619Y010711D02*
X010619Y010711D01*
X010585Y010630D02*
X008645Y010630D01*
X008777Y010554D02*
X008777Y010554D01*
X008790Y010532D02*
X010544Y010532D01*
X010531Y010433D02*
X008846Y010433D01*
X008900Y010335D02*
X009523Y010335D01*
X009463Y010310D02*
X009340Y010187D01*
X009274Y010026D01*
X009274Y009852D01*
X009340Y009692D01*
X009463Y009568D01*
X009624Y009502D01*
X009798Y009502D01*
X009959Y009568D01*
X010082Y009692D01*
X010149Y009852D01*
X010149Y010026D01*
X010082Y010187D01*
X009959Y010310D01*
X009798Y010377D01*
X009624Y010377D01*
X009463Y010310D01*
X009390Y010236D02*
X009033Y010236D01*
X009103Y010138D02*
X009320Y010138D01*
X009279Y010039D02*
X009143Y010039D01*
X009149Y009941D02*
X009274Y009941D01*
X009278Y009842D02*
X009145Y009842D01*
X009104Y009744D02*
X009319Y009744D01*
X009387Y009645D02*
X009036Y009645D01*
X008907Y009547D02*
X009516Y009547D01*
X009907Y009547D02*
X010516Y009547D01*
X010387Y009645D02*
X010036Y009645D01*
X010104Y009744D02*
X010319Y009744D01*
X010278Y009842D02*
X010145Y009842D01*
X010149Y009941D02*
X010274Y009941D01*
X010279Y010039D02*
X010143Y010039D01*
X010103Y010138D02*
X010320Y010138D01*
X010390Y010236D02*
X010033Y010236D01*
X009900Y010335D02*
X010523Y010335D01*
X010711Y010386D02*
X010711Y009939D01*
X011104Y009744D02*
X011181Y009744D01*
X011181Y009842D02*
X011145Y009842D01*
X011149Y009941D02*
X011181Y009941D01*
X011181Y010039D02*
X011143Y010039D01*
X011103Y010138D02*
X011181Y010138D01*
X011181Y010236D02*
X011033Y010236D01*
X010900Y010335D02*
X011181Y010335D01*
X011105Y010780D02*
X011066Y010778D01*
X011028Y010772D01*
X010991Y010763D01*
X010954Y010750D01*
X010919Y010733D01*
X010886Y010714D01*
X010855Y010691D01*
X010826Y010665D01*
X010800Y010636D01*
X010777Y010605D01*
X010758Y010572D01*
X010741Y010537D01*
X010728Y010500D01*
X010719Y010463D01*
X010713Y010425D01*
X010711Y010386D01*
X010898Y010433D02*
X011227Y010433D01*
X011284Y010532D02*
X010954Y010532D01*
X011296Y010554D02*
X011296Y010554D01*
X011296Y010554D01*
X011611Y010489D02*
X015411Y010489D01*
X015411Y010309D02*
X015412Y010309D01*
X015290Y010187D01*
X015224Y010026D01*
X015224Y009852D01*
X015290Y009692D01*
X015413Y009568D01*
X015481Y009540D01*
X015481Y008971D01*
X015563Y008830D01*
X015563Y008830D01*
X015635Y008788D01*
X014911Y008788D01*
X014893Y008791D01*
X014862Y008809D01*
X014844Y008840D01*
X014841Y008858D01*
X014841Y009540D01*
X014909Y009568D01*
X015032Y009692D01*
X015099Y009852D01*
X015099Y010026D01*
X015032Y010187D01*
X014910Y010309D01*
X015411Y010309D01*
X015411Y010489D02*
X015441Y010487D01*
X015471Y010482D01*
X015500Y010473D01*
X015527Y010460D01*
X015553Y010445D01*
X015577Y010426D01*
X015598Y010405D01*
X015617Y010381D01*
X015632Y010355D01*
X015645Y010328D01*
X015654Y010299D01*
X015659Y010269D01*
X015661Y010239D01*
X015661Y009939D01*
X015661Y009053D01*
X015663Y009033D01*
X015667Y009014D01*
X015675Y008996D01*
X015685Y008980D01*
X015698Y008965D01*
X015713Y008952D01*
X015729Y008942D01*
X015747Y008934D01*
X015766Y008930D01*
X015786Y008928D01*
X017836Y008928D01*
X017856Y008926D01*
X017875Y008922D01*
X017893Y008914D01*
X017909Y008904D01*
X017924Y008891D01*
X017937Y008876D01*
X017947Y008860D01*
X017955Y008842D01*
X017959Y008823D01*
X017961Y008803D01*
X017961Y007439D01*
X017521Y007478D02*
X017401Y007478D01*
X017401Y007380D02*
X017521Y007380D01*
X017521Y007281D02*
X017401Y007281D01*
X017401Y007183D02*
X017521Y007183D01*
X017521Y007084D02*
X017401Y007084D01*
X017378Y006986D02*
X017544Y006986D01*
X017585Y006887D02*
X017337Y006887D01*
X017243Y006789D02*
X017679Y006789D01*
X017871Y006690D02*
X017051Y006690D01*
X016871Y006690D02*
X012172Y006690D01*
X012172Y006592D02*
X018281Y006592D01*
X018281Y006690D02*
X018051Y006690D01*
X018243Y006789D02*
X018281Y006789D01*
X018641Y006789D02*
X018679Y006789D01*
X018712Y006756D02*
X018781Y006728D01*
X018781Y006060D01*
X018863Y005919D01*
X018863Y005919D01*
X019005Y005837D01*
X021418Y005837D01*
X021560Y005919D01*
X021641Y006060D01*
X021641Y006827D01*
X021712Y006756D01*
X021781Y006728D01*
X021781Y005736D01*
X021762Y005736D01*
X017230Y005736D01*
X017316Y005772D01*
X017381Y005837D01*
X018418Y005837D01*
X018560Y005919D01*
X018641Y006060D01*
X018641Y006827D01*
X018712Y006756D01*
X018781Y006690D02*
X018641Y006690D01*
X018641Y006592D02*
X018781Y006592D01*
X018781Y006493D02*
X018641Y006493D01*
X018641Y006395D02*
X018781Y006395D01*
X018781Y006296D02*
X018641Y006296D01*
X018641Y006198D02*
X018781Y006198D01*
X018781Y006099D02*
X018641Y006099D01*
X018607Y006001D02*
X018816Y006001D01*
X018863Y005919D02*
X018863Y005919D01*
X018891Y005902D02*
X018531Y005902D01*
X018560Y005919D02*
X018560Y005919D01*
X018560Y005919D01*
X018336Y006017D02*
X017153Y006017D01*
X016888Y005902D02*
X012172Y005902D01*
X012172Y005804D02*
X015641Y005804D01*
X015547Y005705D02*
X012172Y005705D01*
X012172Y005607D02*
X015510Y005607D01*
X015510Y005508D02*
X012172Y005508D01*
X011992Y005393D02*
X011994Y005373D01*
X011998Y005354D01*
X012006Y005336D01*
X012016Y005320D01*
X012029Y005305D01*
X012044Y005292D01*
X012060Y005282D01*
X012078Y005274D01*
X012097Y005270D01*
X012117Y005268D01*
X017961Y005268D01*
X017961Y004439D01*
X017521Y004425D02*
X017401Y004425D01*
X017401Y004523D02*
X017521Y004523D01*
X017521Y004622D02*
X017401Y004622D01*
X017401Y004720D02*
X017521Y004720D01*
X017521Y004819D02*
X017401Y004819D01*
X017401Y004837D02*
X017334Y004999D01*
X017245Y005088D01*
X017678Y005088D01*
X017588Y004999D01*
X017521Y004837D01*
X017521Y004042D01*
X017588Y003880D01*
X017599Y003869D01*
X017324Y003869D01*
X017334Y003880D01*
X017401Y004042D01*
X017401Y004837D01*
X017368Y004917D02*
X017555Y004917D01*
X017606Y005016D02*
X017317Y005016D01*
X016678Y005088D02*
X016588Y004999D01*
X016521Y004837D01*
X016521Y004042D01*
X016588Y003880D01*
X016712Y003756D01*
X016785Y003726D01*
X016863Y003591D01*
X017005Y003509D01*
X017873Y003509D01*
X017833Y003469D01*
X015183Y003469D01*
X015294Y003515D01*
X015435Y003656D01*
X015511Y003840D01*
X015511Y004039D01*
X015435Y004223D01*
X015294Y004363D01*
X015191Y004406D01*
X015191Y004985D01*
X015132Y005088D01*
X016678Y005088D01*
X016606Y005016D02*
X015174Y005016D01*
X015191Y004917D02*
X016555Y004917D01*
X016521Y004819D02*
X015191Y004819D01*
X015191Y004720D02*
X016521Y004720D01*
X016521Y004622D02*
X015191Y004622D01*
X015191Y004523D02*
X016521Y004523D01*
X016521Y004425D02*
X015191Y004425D01*
X015331Y004326D02*
X016521Y004326D01*
X016521Y004228D02*
X015430Y004228D01*
X015474Y004129D02*
X016521Y004129D01*
X016526Y004031D02*
X015511Y004031D01*
X015511Y003932D02*
X016567Y003932D01*
X016634Y003834D02*
X015509Y003834D01*
X015468Y003735D02*
X016763Y003735D01*
X016837Y003637D02*
X015416Y003637D01*
X015317Y003538D02*
X016954Y003538D01*
X016863Y003591D02*
X016863Y003591D01*
X016863Y003591D01*
X017086Y003689D02*
X023336Y003689D01*
X023356Y003691D01*
X023375Y003695D01*
X023393Y003703D01*
X023409Y003713D01*
X023424Y003726D01*
X023437Y003741D01*
X023447Y003757D01*
X023455Y003775D01*
X023459Y003794D01*
X023461Y003814D01*
X023461Y006264D01*
X023463Y006284D01*
X023467Y006303D01*
X023475Y006321D01*
X023485Y006337D01*
X023498Y006352D01*
X023513Y006365D01*
X023529Y006375D01*
X023547Y006383D01*
X023566Y006387D01*
X023586Y006389D01*
X032461Y006389D01*
X032461Y006439D01*
X032941Y006395D02*
X032981Y006395D01*
X032981Y006493D02*
X032941Y006493D01*
X032941Y006592D02*
X032981Y006592D01*
X033033Y006690D02*
X032889Y006690D01*
X032791Y006789D02*
X033132Y006789D01*
X033230Y006887D02*
X032692Y006887D01*
X032230Y006887D02*
X030337Y006887D01*
X030334Y006880D02*
X030401Y007042D01*
X030401Y007837D01*
X030334Y007999D01*
X030210Y008122D01*
X030049Y008189D01*
X029874Y008189D01*
X029712Y008122D01*
X029588Y007999D01*
X029521Y007837D01*
X029521Y007042D01*
X029588Y006880D01*
X029712Y006756D01*
X029874Y006689D01*
X030049Y006689D01*
X030210Y006756D01*
X030334Y006880D01*
X030378Y006986D02*
X034058Y006986D01*
X034058Y007084D02*
X030401Y007084D01*
X030401Y007183D02*
X034058Y007183D01*
X034058Y007281D02*
X030401Y007281D01*
X030401Y007380D02*
X034058Y007380D01*
X034058Y007478D02*
X030401Y007478D01*
X030401Y007577D02*
X034058Y007577D01*
X034058Y007675D02*
X030401Y007675D01*
X030401Y007774D02*
X034058Y007774D01*
X034058Y007872D02*
X030387Y007872D01*
X030346Y007971D02*
X034058Y007971D01*
X034058Y008069D02*
X030263Y008069D01*
X030101Y008168D02*
X034058Y008168D01*
X034058Y008266D02*
X027141Y008266D01*
X027141Y008168D02*
X027822Y008168D01*
X027874Y008189D02*
X027712Y008122D01*
X027588Y007999D01*
X027521Y007837D01*
X027521Y007042D01*
X027588Y006880D01*
X027712Y006756D01*
X027874Y006689D01*
X028049Y006689D01*
X028210Y006756D01*
X028334Y006880D01*
X028401Y007042D01*
X028401Y007837D01*
X028334Y007999D01*
X028210Y008122D01*
X028049Y008189D01*
X027874Y008189D01*
X028101Y008168D02*
X028822Y008168D01*
X028874Y008189D02*
X028712Y008122D01*
X028588Y007999D01*
X028521Y007837D01*
X028521Y007042D01*
X028588Y006880D01*
X028712Y006756D01*
X028874Y006689D01*
X029049Y006689D01*
X029210Y006756D01*
X029334Y006880D01*
X029401Y007042D01*
X029401Y007837D01*
X029334Y007999D01*
X029210Y008122D01*
X029049Y008189D01*
X028874Y008189D01*
X029101Y008168D02*
X029822Y008168D01*
X029659Y008069D02*
X029263Y008069D01*
X029346Y007971D02*
X029577Y007971D01*
X029536Y007872D02*
X029387Y007872D01*
X029401Y007774D02*
X029521Y007774D01*
X029521Y007675D02*
X029401Y007675D01*
X029401Y007577D02*
X029521Y007577D01*
X029521Y007478D02*
X029401Y007478D01*
X029401Y007380D02*
X029521Y007380D01*
X029521Y007281D02*
X029401Y007281D01*
X029401Y007183D02*
X029521Y007183D01*
X029521Y007084D02*
X029401Y007084D01*
X029378Y006986D02*
X029544Y006986D01*
X029585Y006887D02*
X029337Y006887D01*
X029243Y006789D02*
X029679Y006789D01*
X029871Y006690D02*
X029051Y006690D01*
X028871Y006690D02*
X028051Y006690D01*
X027871Y006690D02*
X027051Y006690D01*
X026871Y006690D02*
X026051Y006690D01*
X026049Y006689D02*
X026210Y006756D01*
X026334Y006880D01*
X026401Y007042D01*
X026401Y007837D01*
X026334Y007999D01*
X026210Y008122D01*
X026049Y008189D01*
X025874Y008189D01*
X025712Y008122D01*
X025588Y007999D01*
X025521Y007837D01*
X025521Y007042D01*
X025588Y006880D01*
X025712Y006756D01*
X025874Y006689D01*
X026049Y006689D01*
X025871Y006690D02*
X025051Y006690D01*
X024871Y006690D02*
X024051Y006690D01*
X024049Y006689D02*
X024210Y006756D01*
X024334Y006880D01*
X024401Y007042D01*
X024401Y007837D01*
X024334Y007999D01*
X024210Y008122D01*
X024049Y008189D01*
X023874Y008189D01*
X023712Y008122D01*
X023588Y007999D01*
X023521Y007837D01*
X023521Y007042D01*
X023588Y006880D01*
X023712Y006756D01*
X023874Y006689D01*
X024049Y006689D01*
X023871Y006690D02*
X023099Y006690D01*
X023069Y006681D02*
X023138Y006703D01*
X023202Y006736D01*
X023261Y006779D01*
X023312Y006830D01*
X023355Y006888D01*
X023388Y006953D01*
X023410Y007022D01*
X023421Y007093D01*
X023421Y007409D01*
X022991Y007409D01*
X022991Y006669D01*
X022997Y006669D01*
X023069Y006681D01*
X022991Y006690D02*
X022931Y006690D01*
X022931Y006669D02*
X022931Y007409D01*
X022991Y007409D01*
X022991Y007469D01*
X023421Y007469D01*
X023421Y007786D01*
X023410Y007857D01*
X023388Y007926D01*
X023355Y007990D01*
X023312Y008049D01*
X023261Y008100D01*
X023202Y008143D01*
X023138Y008176D01*
X023069Y008198D01*
X022997Y008209D01*
X022991Y008209D01*
X022991Y007469D01*
X022931Y007469D01*
X022931Y007409D01*
X022501Y007409D01*
X022501Y007093D01*
X022513Y007022D01*
X022535Y006953D01*
X022568Y006888D01*
X022610Y006830D01*
X022662Y006779D01*
X022720Y006736D01*
X022785Y006703D01*
X022854Y006681D01*
X022925Y006669D01*
X022931Y006669D01*
X022824Y006690D02*
X022141Y006690D01*
X022141Y006592D02*
X031981Y006592D01*
X032033Y006690D02*
X030051Y006690D01*
X030243Y006789D02*
X032132Y006789D01*
X032941Y006296D02*
X032981Y006296D01*
X033024Y006198D02*
X032899Y006198D01*
X033211Y005929D02*
X033241Y005931D01*
X033271Y005936D01*
X033300Y005945D01*
X033327Y005958D01*
X033353Y005973D01*
X033377Y005992D01*
X033398Y006013D01*
X033417Y006037D01*
X033432Y006063D01*
X033445Y006090D01*
X033454Y006119D01*
X033459Y006149D01*
X033461Y006179D01*
X033461Y006439D01*
X033941Y006395D02*
X033981Y006395D01*
X033981Y006493D02*
X033941Y006493D01*
X033941Y006592D02*
X033981Y006592D01*
X034033Y006690D02*
X033889Y006690D01*
X033791Y006789D02*
X034058Y006789D01*
X034058Y006887D02*
X033692Y006887D01*
X034418Y006986D02*
X034787Y006986D01*
X034787Y007084D02*
X034418Y007084D01*
X034418Y007183D02*
X034787Y007183D01*
X034787Y007281D02*
X034418Y007281D01*
X034418Y007380D02*
X034787Y007380D01*
X034787Y007478D02*
X034418Y007478D01*
X034418Y007577D02*
X034787Y007577D01*
X034787Y007675D02*
X034418Y007675D01*
X034418Y007774D02*
X034787Y007774D01*
X034787Y007872D02*
X034418Y007872D01*
X034418Y007971D02*
X034787Y007971D01*
X034787Y008069D02*
X034418Y008069D01*
X034418Y008168D02*
X034787Y008168D01*
X034787Y008266D02*
X034418Y008266D01*
X034418Y008365D02*
X034787Y008365D01*
X034787Y008463D02*
X034418Y008463D01*
X034418Y008562D02*
X034787Y008562D01*
X034787Y008660D02*
X034413Y008660D01*
X034373Y008759D02*
X034787Y008759D01*
X034787Y008857D02*
X034332Y008857D01*
X034234Y008956D02*
X034787Y008956D01*
X034787Y009054D02*
X034088Y009054D01*
X033845Y008928D02*
X027211Y008928D01*
X027003Y009054D02*
X025841Y009054D01*
X025832Y008956D02*
X026875Y008956D01*
X026896Y008993D02*
X026896Y008993D01*
X026896Y008993D01*
X026818Y008857D02*
X025776Y008857D01*
X025760Y008830D02*
X025760Y008830D01*
X025760Y008830D01*
X025637Y008759D02*
X026781Y008759D01*
X026781Y008660D02*
X025141Y008660D01*
X025141Y008562D02*
X026781Y008562D01*
X026781Y008463D02*
X025141Y008463D01*
X025141Y008365D02*
X026781Y008365D01*
X026781Y008266D02*
X025141Y008266D01*
X025141Y008168D02*
X025822Y008168D01*
X025659Y008069D02*
X025263Y008069D01*
X025346Y007971D02*
X025577Y007971D01*
X025536Y007872D02*
X025387Y007872D01*
X025401Y007774D02*
X025521Y007774D01*
X025521Y007675D02*
X025401Y007675D01*
X025401Y007577D02*
X025521Y007577D01*
X025521Y007478D02*
X025401Y007478D01*
X025401Y007380D02*
X025521Y007380D01*
X025521Y007281D02*
X025401Y007281D01*
X025401Y007183D02*
X025521Y007183D01*
X025521Y007084D02*
X025401Y007084D01*
X025378Y006986D02*
X025544Y006986D01*
X025585Y006887D02*
X025337Y006887D01*
X025243Y006789D02*
X025679Y006789D01*
X026243Y006789D02*
X026679Y006789D01*
X026585Y006887D02*
X026337Y006887D01*
X026378Y006986D02*
X026544Y006986D01*
X026521Y007084D02*
X026401Y007084D01*
X026401Y007183D02*
X026521Y007183D01*
X026521Y007281D02*
X026401Y007281D01*
X026401Y007380D02*
X026521Y007380D01*
X026521Y007478D02*
X026401Y007478D01*
X026401Y007577D02*
X026521Y007577D01*
X026521Y007675D02*
X026401Y007675D01*
X026401Y007774D02*
X026521Y007774D01*
X026536Y007872D02*
X026387Y007872D01*
X026346Y007971D02*
X026577Y007971D01*
X026659Y008069D02*
X026263Y008069D01*
X026101Y008168D02*
X026781Y008168D01*
X027141Y008365D02*
X034058Y008365D01*
X034058Y008463D02*
X027141Y008463D01*
X027141Y008562D02*
X034056Y008562D01*
X034015Y008660D02*
X027141Y008660D01*
X026961Y008678D02*
X026963Y008708D01*
X026968Y008738D01*
X026977Y008767D01*
X026990Y008794D01*
X027005Y008820D01*
X027024Y008844D01*
X027045Y008865D01*
X027069Y008884D01*
X027095Y008899D01*
X027122Y008912D01*
X027151Y008921D01*
X027181Y008926D01*
X027211Y008928D01*
X026961Y008678D02*
X026961Y007439D01*
X027401Y007478D02*
X027521Y007478D01*
X027521Y007380D02*
X027401Y007380D01*
X027401Y007281D02*
X027521Y007281D01*
X027521Y007183D02*
X027401Y007183D01*
X027401Y007084D02*
X027521Y007084D01*
X027544Y006986D02*
X027378Y006986D01*
X027337Y006887D02*
X027585Y006887D01*
X027679Y006789D02*
X027243Y006789D01*
X028243Y006789D02*
X028679Y006789D01*
X028585Y006887D02*
X028337Y006887D01*
X028378Y006986D02*
X028544Y006986D01*
X028521Y007084D02*
X028401Y007084D01*
X028401Y007183D02*
X028521Y007183D01*
X028521Y007281D02*
X028401Y007281D01*
X028401Y007380D02*
X028521Y007380D01*
X028521Y007478D02*
X028401Y007478D01*
X028401Y007577D02*
X028521Y007577D01*
X028521Y007675D02*
X028401Y007675D01*
X028401Y007774D02*
X028521Y007774D01*
X028536Y007872D02*
X028387Y007872D01*
X028346Y007971D02*
X028577Y007971D01*
X028659Y008069D02*
X028263Y008069D01*
X027659Y008069D02*
X027263Y008069D01*
X027346Y007971D02*
X027577Y007971D01*
X027536Y007872D02*
X027387Y007872D01*
X027401Y007774D02*
X027521Y007774D01*
X027521Y007675D02*
X027401Y007675D01*
X027401Y007577D02*
X027521Y007577D01*
X024961Y007439D02*
X024961Y008803D01*
X024963Y008823D01*
X024967Y008842D01*
X024975Y008860D01*
X024985Y008876D01*
X024998Y008891D01*
X025013Y008904D01*
X025029Y008914D01*
X025047Y008922D01*
X025066Y008926D01*
X025086Y008928D01*
X025536Y008928D01*
X025556Y008930D01*
X025575Y008934D01*
X025593Y008942D01*
X025609Y008952D01*
X025624Y008965D01*
X025637Y008980D01*
X025647Y008996D01*
X025655Y009014D01*
X025659Y009033D01*
X025661Y009053D01*
X025661Y009939D01*
X025224Y009941D02*
X025099Y009941D01*
X025093Y010039D02*
X025229Y010039D01*
X025270Y010138D02*
X025053Y010138D01*
X025095Y009842D02*
X025228Y009842D01*
X025269Y009744D02*
X025054Y009744D01*
X024986Y009645D02*
X025337Y009645D01*
X025466Y009547D02*
X024857Y009547D01*
X024466Y009547D02*
X023857Y009547D01*
X023986Y009645D02*
X024337Y009645D01*
X024269Y009744D02*
X024054Y009744D01*
X024095Y009842D02*
X024228Y009842D01*
X024224Y009941D02*
X024099Y009941D01*
X024093Y010039D02*
X024229Y010039D01*
X024270Y010138D02*
X024053Y010138D01*
X023270Y010138D02*
X023053Y010138D01*
X023093Y010039D02*
X023229Y010039D01*
X023224Y009941D02*
X023099Y009941D01*
X023095Y009842D02*
X023228Y009842D01*
X023269Y009744D02*
X023054Y009744D01*
X022986Y009645D02*
X023337Y009645D01*
X023466Y009547D02*
X022857Y009547D01*
X022466Y009547D02*
X022341Y009547D01*
X022341Y009448D02*
X025481Y009448D01*
X025481Y009350D02*
X022341Y009350D01*
X022341Y009251D02*
X025481Y009251D01*
X025481Y009153D02*
X022341Y009153D01*
X022341Y009054D02*
X024912Y009054D01*
X024863Y009026D02*
X024863Y009026D01*
X024863Y009026D01*
X024822Y008956D02*
X022332Y008956D01*
X022276Y008857D02*
X024781Y008857D01*
X024781Y008759D02*
X022137Y008759D01*
X022260Y008830D02*
X022260Y008830D01*
X022260Y008830D01*
X022036Y008928D02*
X021586Y008928D01*
X021566Y008926D01*
X021547Y008922D01*
X021529Y008914D01*
X021513Y008904D01*
X021498Y008891D01*
X021485Y008876D01*
X021475Y008860D01*
X021467Y008842D01*
X021463Y008823D01*
X021461Y008803D01*
X021461Y006142D01*
X021459Y006122D01*
X021455Y006103D01*
X021447Y006085D01*
X021437Y006069D01*
X021424Y006054D01*
X021409Y006041D01*
X021393Y006031D01*
X021375Y006023D01*
X021356Y006019D01*
X021336Y006017D01*
X019086Y006017D01*
X019066Y006019D01*
X019047Y006023D01*
X019029Y006031D01*
X019013Y006041D01*
X018998Y006054D01*
X018985Y006069D01*
X018975Y006085D01*
X018967Y006103D01*
X018963Y006122D01*
X018961Y006142D01*
X018961Y007439D01*
X019401Y007478D02*
X019521Y007478D01*
X019521Y007380D02*
X019401Y007380D01*
X019401Y007281D02*
X019521Y007281D01*
X019521Y007183D02*
X019401Y007183D01*
X019401Y007084D02*
X019521Y007084D01*
X019521Y007042D02*
X019588Y006880D01*
X019712Y006756D01*
X019874Y006689D01*
X020049Y006689D01*
X020210Y006756D01*
X020334Y006880D01*
X020401Y007042D01*
X020401Y007837D01*
X020334Y007999D01*
X020210Y008122D01*
X020141Y008151D01*
X020141Y008565D01*
X020060Y008707D01*
X020060Y008707D01*
X020060Y008707D01*
X019988Y008748D01*
X020781Y008748D01*
X020781Y008151D01*
X020712Y008122D01*
X020588Y007999D01*
X020521Y007837D01*
X020521Y007042D01*
X020588Y006880D01*
X020712Y006756D01*
X020874Y006689D01*
X021049Y006689D01*
X021210Y006756D01*
X021281Y006827D01*
X021281Y006197D01*
X019141Y006197D01*
X019141Y006728D01*
X019210Y006756D01*
X019334Y006880D01*
X019401Y007042D01*
X019401Y007837D01*
X019334Y007999D01*
X019210Y008122D01*
X019049Y008189D01*
X018874Y008189D01*
X018712Y008122D01*
X018641Y008052D01*
X018641Y008428D01*
X019781Y008428D01*
X019781Y008151D01*
X019712Y008122D01*
X019588Y007999D01*
X019521Y007837D01*
X019521Y007042D01*
X019544Y006986D02*
X019378Y006986D01*
X019337Y006887D02*
X019585Y006887D01*
X019679Y006789D02*
X019243Y006789D01*
X019141Y006690D02*
X019871Y006690D01*
X020051Y006690D02*
X020871Y006690D01*
X021051Y006690D02*
X021281Y006690D01*
X021281Y006592D02*
X019141Y006592D01*
X019141Y006493D02*
X021281Y006493D01*
X021281Y006395D02*
X019141Y006395D01*
X019141Y006296D02*
X021281Y006296D01*
X021281Y006198D02*
X019141Y006198D01*
X018461Y006142D02*
X018461Y008483D01*
X018463Y008503D01*
X018467Y008522D01*
X018475Y008540D01*
X018485Y008556D01*
X018498Y008571D01*
X018513Y008584D01*
X018529Y008594D01*
X018547Y008602D01*
X018566Y008606D01*
X018586Y008608D01*
X019836Y008608D01*
X019856Y008606D01*
X019875Y008602D01*
X019893Y008594D01*
X019909Y008584D01*
X019924Y008571D01*
X019937Y008556D01*
X019947Y008540D01*
X019955Y008522D01*
X019959Y008503D01*
X019961Y008483D01*
X019961Y007439D01*
X020401Y007478D02*
X020521Y007478D01*
X020521Y007380D02*
X020401Y007380D01*
X020401Y007281D02*
X020521Y007281D01*
X020521Y007183D02*
X020401Y007183D01*
X020401Y007084D02*
X020521Y007084D01*
X020544Y006986D02*
X020378Y006986D01*
X020337Y006887D02*
X020585Y006887D01*
X020679Y006789D02*
X020243Y006789D01*
X021243Y006789D02*
X021281Y006789D01*
X021641Y006789D02*
X021679Y006789D01*
X021641Y006690D02*
X021781Y006690D01*
X021781Y006592D02*
X021641Y006592D01*
X021641Y006493D02*
X021781Y006493D01*
X021781Y006395D02*
X021641Y006395D01*
X021641Y006296D02*
X021781Y006296D01*
X021781Y006198D02*
X021641Y006198D01*
X021641Y006099D02*
X021781Y006099D01*
X021781Y006001D02*
X021607Y006001D01*
X021560Y005919D02*
X021560Y005919D01*
X021560Y005919D01*
X021531Y005902D02*
X021781Y005902D01*
X021781Y005804D02*
X017348Y005804D01*
X016957Y005804D02*
X015955Y005804D01*
X015798Y005556D02*
X021836Y005556D01*
X021856Y005558D01*
X021875Y005562D01*
X021893Y005570D01*
X021909Y005580D01*
X021924Y005593D01*
X021937Y005608D01*
X021947Y005624D01*
X021955Y005642D01*
X021959Y005661D01*
X021961Y005681D01*
X021961Y007439D01*
X022401Y007478D02*
X022501Y007478D01*
X022501Y007469D02*
X022931Y007469D01*
X022931Y008209D01*
X022925Y008209D01*
X022854Y008198D01*
X022785Y008176D01*
X022720Y008143D01*
X022662Y008100D01*
X022610Y008049D01*
X022568Y007990D01*
X022535Y007926D01*
X022513Y007857D01*
X022501Y007786D01*
X022501Y007469D01*
X022501Y007380D02*
X022401Y007380D01*
X022401Y007281D02*
X022501Y007281D01*
X022501Y007183D02*
X022401Y007183D01*
X022401Y007084D02*
X022503Y007084D01*
X022524Y006986D02*
X022378Y006986D01*
X022337Y006887D02*
X022568Y006887D01*
X022651Y006789D02*
X022243Y006789D01*
X022931Y006789D02*
X022991Y006789D01*
X022991Y006887D02*
X022931Y006887D01*
X022931Y006986D02*
X022991Y006986D01*
X022991Y007084D02*
X022931Y007084D01*
X022931Y007183D02*
X022991Y007183D01*
X022991Y007281D02*
X022931Y007281D01*
X022931Y007380D02*
X022991Y007380D01*
X022991Y007478D02*
X022931Y007478D01*
X022931Y007577D02*
X022991Y007577D01*
X022991Y007675D02*
X022931Y007675D01*
X022931Y007774D02*
X022991Y007774D01*
X022991Y007872D02*
X022931Y007872D01*
X022931Y007971D02*
X022991Y007971D01*
X022991Y008069D02*
X022931Y008069D01*
X022931Y008168D02*
X022991Y008168D01*
X023153Y008168D02*
X023822Y008168D01*
X023659Y008069D02*
X023292Y008069D01*
X023365Y007971D02*
X023577Y007971D01*
X023536Y007872D02*
X023405Y007872D01*
X023421Y007774D02*
X023521Y007774D01*
X023521Y007675D02*
X023421Y007675D01*
X023421Y007577D02*
X023521Y007577D01*
X023521Y007478D02*
X023421Y007478D01*
X023421Y007380D02*
X023521Y007380D01*
X023521Y007281D02*
X023421Y007281D01*
X023421Y007183D02*
X023521Y007183D01*
X023521Y007084D02*
X023420Y007084D01*
X023398Y006986D02*
X023544Y006986D01*
X023585Y006887D02*
X023354Y006887D01*
X023271Y006789D02*
X023679Y006789D01*
X023373Y006493D02*
X022141Y006493D01*
X022141Y006395D02*
X023309Y006395D01*
X023281Y006296D02*
X022141Y006296D01*
X022141Y006198D02*
X023281Y006198D01*
X023281Y006099D02*
X022141Y006099D01*
X022141Y006001D02*
X023281Y006001D01*
X023281Y005902D02*
X022141Y005902D01*
X022141Y005804D02*
X023281Y005804D01*
X023281Y005705D02*
X022141Y005705D01*
X022141Y005607D02*
X023281Y005607D01*
X023281Y005508D02*
X022089Y005508D01*
X022060Y005458D02*
X022060Y005458D01*
X022060Y005458D01*
X021976Y005410D02*
X023281Y005410D01*
X023281Y005311D02*
X019091Y005311D01*
X019060Y005366D02*
X019060Y005366D01*
X019141Y005213D02*
X023281Y005213D01*
X023281Y005114D02*
X023219Y005114D01*
X023641Y005114D02*
X023681Y005114D01*
X023662Y005100D02*
X023641Y005080D01*
X023641Y006209D01*
X032012Y006209D01*
X032113Y006109D01*
X031978Y006109D01*
X031778Y005994D01*
X031778Y005994D01*
X031778Y005994D01*
X031663Y005794D01*
X031663Y005518D01*
X031661Y005500D01*
X031643Y005469D01*
X031611Y005450D01*
X031593Y005448D01*
X024596Y005448D01*
X024396Y005333D01*
X024396Y005333D01*
X024281Y005133D01*
X024281Y005080D01*
X024261Y005100D01*
X024202Y005143D01*
X024138Y005176D01*
X024069Y005198D01*
X023997Y005209D01*
X023991Y005209D01*
X023991Y004469D01*
X023931Y004469D01*
X023931Y005209D01*
X023925Y005209D01*
X023854Y005198D01*
X023785Y005176D01*
X023720Y005143D01*
X023662Y005100D01*
X023641Y005213D02*
X024327Y005213D01*
X024281Y005133D02*
X024281Y005133D01*
X024281Y005114D02*
X024241Y005114D01*
X024461Y005018D02*
X024461Y003096D01*
X024281Y003144D02*
X018314Y003144D01*
X018350Y003243D02*
X024281Y003243D01*
X024281Y003341D02*
X018350Y003341D01*
X018311Y003440D02*
X024281Y003440D01*
X024281Y003538D02*
X023468Y003538D01*
X023560Y003591D02*
X023560Y003591D01*
X023586Y003637D02*
X024281Y003637D01*
X024281Y003735D02*
X024201Y003735D01*
X023991Y003735D02*
X023931Y003735D01*
X023931Y003834D02*
X023991Y003834D01*
X023991Y003932D02*
X023931Y003932D01*
X023931Y004031D02*
X023991Y004031D01*
X023991Y004129D02*
X023931Y004129D01*
X023931Y004228D02*
X023991Y004228D01*
X023991Y004326D02*
X023931Y004326D01*
X023931Y004523D02*
X023991Y004523D01*
X023991Y004622D02*
X023931Y004622D01*
X023931Y004720D02*
X023991Y004720D01*
X023991Y004819D02*
X023931Y004819D01*
X023931Y004917D02*
X023991Y004917D01*
X023991Y005016D02*
X023931Y005016D01*
X023931Y005114D02*
X023991Y005114D01*
X023641Y005311D02*
X024384Y005311D01*
X024530Y005410D02*
X023641Y005410D01*
X023641Y005508D02*
X031662Y005508D01*
X031843Y005518D02*
X031841Y005488D01*
X031836Y005458D01*
X031827Y005429D01*
X031814Y005402D01*
X031799Y005376D01*
X031780Y005352D01*
X031759Y005331D01*
X031735Y005312D01*
X031709Y005297D01*
X031682Y005284D01*
X031653Y005275D01*
X031623Y005270D01*
X031593Y005268D01*
X024711Y005268D01*
X024681Y005266D01*
X024651Y005261D01*
X024622Y005252D01*
X024595Y005239D01*
X024569Y005224D01*
X024545Y005205D01*
X024524Y005184D01*
X024505Y005160D01*
X024490Y005134D01*
X024477Y005107D01*
X024468Y005078D01*
X024463Y005048D01*
X024461Y005018D01*
X025317Y005016D02*
X025606Y005016D01*
X025555Y004917D02*
X025368Y004917D01*
X025401Y004819D02*
X025521Y004819D01*
X025521Y004720D02*
X025401Y004720D01*
X025401Y004622D02*
X025521Y004622D01*
X025521Y004523D02*
X025401Y004523D01*
X025401Y004425D02*
X025521Y004425D01*
X025521Y004326D02*
X025401Y004326D01*
X025401Y004228D02*
X025521Y004228D01*
X025521Y004129D02*
X025401Y004129D01*
X025397Y004031D02*
X025526Y004031D01*
X025567Y003932D02*
X025356Y003932D01*
X025288Y003834D02*
X025634Y003834D01*
X025763Y003735D02*
X025160Y003735D01*
X024763Y003735D02*
X024641Y003735D01*
X024641Y003637D02*
X034787Y003637D01*
X034787Y003735D02*
X030160Y003735D01*
X030288Y003834D02*
X034787Y003834D01*
X034787Y003932D02*
X030356Y003932D01*
X030397Y004031D02*
X034787Y004031D01*
X034787Y004129D02*
X030401Y004129D01*
X030401Y004228D02*
X034787Y004228D01*
X034787Y004326D02*
X030401Y004326D01*
X030401Y004425D02*
X034787Y004425D01*
X034787Y004523D02*
X030401Y004523D01*
X030401Y004622D02*
X034787Y004622D01*
X034787Y004720D02*
X030401Y004720D01*
X030401Y004819D02*
X034787Y004819D01*
X034787Y004917D02*
X030368Y004917D01*
X030317Y005016D02*
X032178Y005016D01*
X032079Y005114D02*
X031754Y005114D01*
X031913Y005213D02*
X031981Y005213D01*
X032411Y005213D02*
X032511Y005213D01*
X032511Y005311D02*
X032411Y005311D01*
X032511Y005410D02*
X032981Y005410D01*
X032981Y005508D02*
X032961Y005508D01*
X032961Y005607D02*
X032981Y005607D01*
X033048Y005705D02*
X032902Y005705D01*
X033211Y005929D02*
X032093Y005929D01*
X031962Y006099D02*
X023641Y006099D01*
X023641Y006001D02*
X031791Y006001D01*
X031726Y005902D02*
X023641Y005902D01*
X023641Y005804D02*
X031669Y005804D01*
X031663Y005705D02*
X023641Y005705D01*
X023641Y005607D02*
X031663Y005607D01*
X031843Y005679D02*
X031843Y005518D01*
X031843Y005679D02*
X031845Y005709D01*
X031850Y005739D01*
X031859Y005768D01*
X031872Y005795D01*
X031887Y005821D01*
X031906Y005845D01*
X031927Y005866D01*
X031951Y005885D01*
X031977Y005900D01*
X032004Y005913D01*
X032033Y005922D01*
X032063Y005927D01*
X032093Y005929D01*
X032024Y006198D02*
X023641Y006198D01*
X024243Y006789D02*
X024679Y006789D01*
X024585Y006887D02*
X024337Y006887D01*
X024378Y006986D02*
X024544Y006986D01*
X024521Y007084D02*
X024401Y007084D01*
X024401Y007183D02*
X024521Y007183D01*
X024521Y007281D02*
X024401Y007281D01*
X024401Y007380D02*
X024521Y007380D01*
X024521Y007478D02*
X024401Y007478D01*
X024401Y007577D02*
X024521Y007577D01*
X024521Y007675D02*
X024401Y007675D01*
X024401Y007774D02*
X024521Y007774D01*
X024536Y007872D02*
X024387Y007872D01*
X024346Y007971D02*
X024577Y007971D01*
X024659Y008069D02*
X024263Y008069D01*
X024101Y008168D02*
X024781Y008168D01*
X024781Y008266D02*
X021641Y008266D01*
X021641Y008168D02*
X021822Y008168D01*
X021659Y008069D02*
X021641Y008069D01*
X021281Y008069D02*
X021263Y008069D01*
X021281Y008052D02*
X021210Y008122D01*
X021141Y008151D01*
X021141Y008885D01*
X021060Y009026D01*
X021060Y009026D01*
X021060Y009026D01*
X020918Y009108D01*
X020762Y009108D01*
X018661Y009108D01*
X018641Y009108D01*
X018641Y009334D01*
X018560Y009476D01*
X018560Y009476D01*
X018560Y009476D01*
X018418Y009558D01*
X017883Y009558D01*
X017909Y009568D01*
X018032Y009692D01*
X018099Y009852D01*
X018099Y010026D01*
X018032Y010187D01*
X017909Y010310D01*
X017748Y010377D01*
X017574Y010377D01*
X017413Y010310D01*
X017290Y010187D01*
X017224Y010026D01*
X017224Y009852D01*
X017290Y009692D01*
X017413Y009568D01*
X017440Y009558D01*
X016883Y009558D01*
X016909Y009568D01*
X017032Y009692D01*
X017099Y009852D01*
X017099Y010026D01*
X017032Y010187D01*
X016909Y010310D01*
X016748Y010377D01*
X016574Y010377D01*
X016413Y010310D01*
X016290Y010187D01*
X016224Y010026D01*
X016224Y009852D01*
X016290Y009692D01*
X016413Y009568D01*
X016481Y009540D01*
X016481Y009421D01*
X016563Y009279D01*
X016705Y009198D01*
X018281Y009198D01*
X018281Y008971D01*
X018363Y008830D01*
X018363Y008830D01*
X018470Y008768D01*
X018363Y008707D01*
X018363Y008707D01*
X018363Y008707D01*
X018281Y008565D01*
X018281Y008052D01*
X018210Y008122D01*
X018141Y008151D01*
X018141Y008885D01*
X018060Y009026D01*
X017918Y009108D01*
X015841Y009108D01*
X015841Y009540D01*
X015909Y009568D01*
X016032Y009692D01*
X016099Y009852D01*
X016099Y010026D01*
X016032Y010187D01*
X015909Y010310D01*
X015841Y010338D01*
X015841Y010355D01*
X015726Y010554D01*
X015726Y010554D01*
X015647Y010600D01*
X018481Y010600D01*
X018481Y010338D01*
X018413Y010310D01*
X018290Y010187D01*
X018224Y010026D01*
X018224Y009852D01*
X018290Y009692D01*
X018413Y009568D01*
X018574Y009502D01*
X018748Y009502D01*
X018909Y009568D01*
X019032Y009692D01*
X019099Y009852D01*
X019099Y010026D01*
X019032Y010187D01*
X018909Y010310D01*
X018841Y010338D01*
X018841Y010600D01*
X026481Y010600D01*
X026481Y010338D01*
X026413Y010310D01*
X026341Y010238D01*
X026341Y010255D01*
X026226Y010454D01*
X026226Y010454D01*
X026026Y010569D01*
X022296Y010569D01*
X022096Y010454D01*
X022050Y010373D01*
X022027Y010387D01*
X021988Y010397D01*
X021690Y010397D01*
X021690Y009968D01*
X021633Y009968D01*
X021633Y010397D01*
X021334Y010397D01*
X021296Y010387D01*
X021262Y010367D01*
X021234Y010339D01*
X021214Y010305D01*
X021204Y010267D01*
X021204Y009968D01*
X021633Y009968D01*
X021633Y009911D01*
X021690Y009911D01*
X021690Y009482D01*
X021981Y009482D01*
X021981Y009108D01*
X021505Y009108D01*
X021363Y009026D01*
X021281Y008885D01*
X021281Y008052D01*
X021281Y008168D02*
X021141Y008168D01*
X021141Y008266D02*
X021281Y008266D01*
X021281Y008365D02*
X021141Y008365D01*
X021141Y008463D02*
X021281Y008463D01*
X021281Y008562D02*
X021141Y008562D01*
X021141Y008660D02*
X021281Y008660D01*
X021281Y008759D02*
X021141Y008759D01*
X021141Y008857D02*
X021281Y008857D01*
X021322Y008956D02*
X021100Y008956D01*
X021011Y009054D02*
X021412Y009054D01*
X021363Y009026D02*
X021363Y009026D01*
X021363Y009026D01*
X020836Y008928D02*
X018586Y008928D01*
X018566Y008930D01*
X018547Y008934D01*
X018529Y008942D01*
X018513Y008952D01*
X018498Y008965D01*
X018485Y008980D01*
X018475Y008996D01*
X018467Y009014D01*
X018463Y009033D01*
X018461Y009053D01*
X018461Y009253D01*
X018459Y009273D01*
X018455Y009292D01*
X018447Y009310D01*
X018437Y009326D01*
X018424Y009341D01*
X018409Y009354D01*
X018393Y009364D01*
X018375Y009372D01*
X018356Y009376D01*
X018336Y009378D01*
X016786Y009378D01*
X016766Y009380D01*
X016747Y009384D01*
X016729Y009392D01*
X016713Y009402D01*
X016698Y009415D01*
X016685Y009430D01*
X016675Y009446D01*
X016667Y009464D01*
X016663Y009483D01*
X016661Y009503D01*
X016661Y009939D01*
X016224Y009941D02*
X016099Y009941D01*
X016093Y010039D02*
X016229Y010039D01*
X016270Y010138D02*
X016053Y010138D01*
X015983Y010236D02*
X016340Y010236D01*
X016473Y010335D02*
X015850Y010335D01*
X015796Y010433D02*
X018481Y010433D01*
X018473Y010335D02*
X017850Y010335D01*
X017983Y010236D02*
X018340Y010236D01*
X018270Y010138D02*
X018053Y010138D01*
X018093Y010039D02*
X018229Y010039D01*
X018224Y009941D02*
X018099Y009941D01*
X018095Y009842D02*
X018228Y009842D01*
X018269Y009744D02*
X018054Y009744D01*
X017986Y009645D02*
X018337Y009645D01*
X018436Y009547D02*
X018466Y009547D01*
X018575Y009448D02*
X021981Y009448D01*
X021981Y009350D02*
X018632Y009350D01*
X018641Y009251D02*
X021981Y009251D01*
X021981Y009153D02*
X018641Y009153D01*
X018281Y009153D02*
X015841Y009153D01*
X015841Y009251D02*
X016611Y009251D01*
X016563Y009279D02*
X016563Y009279D01*
X016563Y009279D01*
X016522Y009350D02*
X015841Y009350D01*
X015841Y009448D02*
X016481Y009448D01*
X016466Y009547D02*
X015857Y009547D01*
X015986Y009645D02*
X016337Y009645D01*
X016269Y009744D02*
X016054Y009744D01*
X016095Y009842D02*
X016228Y009842D01*
X016986Y009645D02*
X017337Y009645D01*
X017269Y009744D02*
X017054Y009744D01*
X017095Y009842D02*
X017228Y009842D01*
X017224Y009941D02*
X017099Y009941D01*
X017093Y010039D02*
X017229Y010039D01*
X017270Y010138D02*
X017053Y010138D01*
X016983Y010236D02*
X017340Y010236D01*
X017473Y010335D02*
X016850Y010335D01*
X015739Y010532D02*
X018481Y010532D01*
X018841Y010532D02*
X022231Y010532D01*
X022096Y010454D02*
X022096Y010454D01*
X022096Y010454D01*
X022084Y010433D02*
X018841Y010433D01*
X018850Y010335D02*
X021231Y010335D01*
X021204Y010236D02*
X018983Y010236D01*
X019053Y010138D02*
X021204Y010138D01*
X021204Y010039D02*
X019093Y010039D01*
X019099Y009941D02*
X021633Y009941D01*
X021633Y009911D02*
X021204Y009911D01*
X021204Y009612D01*
X021214Y009574D01*
X021234Y009540D01*
X021262Y009512D01*
X021296Y009492D01*
X021334Y009482D01*
X021633Y009482D01*
X021633Y009911D01*
X021633Y009842D02*
X021690Y009842D01*
X021690Y009744D02*
X021633Y009744D01*
X021633Y009645D02*
X021690Y009645D01*
X021690Y009547D02*
X021633Y009547D01*
X021230Y009547D02*
X018857Y009547D01*
X018986Y009645D02*
X021204Y009645D01*
X021204Y009744D02*
X019054Y009744D01*
X019095Y009842D02*
X021204Y009842D01*
X021633Y010039D02*
X021690Y010039D01*
X021690Y010138D02*
X021633Y010138D01*
X021633Y010236D02*
X021690Y010236D01*
X021690Y010335D02*
X021633Y010335D01*
X022161Y010139D02*
X022161Y009053D01*
X022159Y009033D01*
X022155Y009014D01*
X022147Y008996D01*
X022137Y008980D01*
X022124Y008965D01*
X022109Y008952D01*
X022093Y008942D01*
X022075Y008934D01*
X022056Y008930D01*
X022036Y008928D01*
X021641Y008660D02*
X024781Y008660D01*
X024781Y008562D02*
X021641Y008562D01*
X021641Y008463D02*
X024781Y008463D01*
X024781Y008365D02*
X021641Y008365D01*
X022101Y008168D02*
X022769Y008168D01*
X022631Y008069D02*
X022263Y008069D01*
X022346Y007971D02*
X022558Y007971D01*
X022518Y007872D02*
X022387Y007872D01*
X022401Y007774D02*
X022501Y007774D01*
X022501Y007675D02*
X022401Y007675D01*
X022401Y007577D02*
X022501Y007577D01*
X020961Y007439D02*
X020961Y008803D01*
X020959Y008823D01*
X020955Y008842D01*
X020947Y008860D01*
X020937Y008876D01*
X020924Y008891D01*
X020909Y008904D01*
X020893Y008914D01*
X020875Y008922D01*
X020856Y008926D01*
X020836Y008928D01*
X020781Y008660D02*
X020086Y008660D01*
X020141Y008562D02*
X020781Y008562D01*
X020781Y008463D02*
X020141Y008463D01*
X020141Y008365D02*
X020781Y008365D01*
X020781Y008266D02*
X020141Y008266D01*
X020141Y008168D02*
X020781Y008168D01*
X020659Y008069D02*
X020263Y008069D01*
X020346Y007971D02*
X020577Y007971D01*
X020536Y007872D02*
X020387Y007872D01*
X020401Y007774D02*
X020521Y007774D01*
X020521Y007675D02*
X020401Y007675D01*
X020401Y007577D02*
X020521Y007577D01*
X019521Y007577D02*
X019401Y007577D01*
X019401Y007675D02*
X019521Y007675D01*
X019521Y007774D02*
X019401Y007774D01*
X019387Y007872D02*
X019536Y007872D01*
X019577Y007971D02*
X019346Y007971D01*
X019263Y008069D02*
X019659Y008069D01*
X019781Y008168D02*
X019101Y008168D01*
X018822Y008168D02*
X018641Y008168D01*
X018641Y008266D02*
X019781Y008266D01*
X019781Y008365D02*
X018641Y008365D01*
X018281Y008365D02*
X018141Y008365D01*
X018141Y008463D02*
X018281Y008463D01*
X018281Y008562D02*
X018141Y008562D01*
X018141Y008660D02*
X018336Y008660D01*
X018454Y008759D02*
X018141Y008759D01*
X018141Y008857D02*
X018347Y008857D01*
X018363Y008830D02*
X018363Y008830D01*
X018290Y008956D02*
X018100Y008956D01*
X018060Y009026D02*
X018060Y009026D01*
X018011Y009054D02*
X018281Y009054D01*
X018141Y008885D02*
X018141Y008885D01*
X017781Y008660D02*
X017080Y008660D01*
X017053Y008707D02*
X017053Y008707D01*
X017053Y008707D01*
X017135Y008562D02*
X017781Y008562D01*
X017781Y008463D02*
X017135Y008463D01*
X017135Y008365D02*
X017781Y008365D01*
X017781Y008266D02*
X017135Y008266D01*
X017135Y008168D02*
X017781Y008168D01*
X017659Y008069D02*
X017263Y008069D01*
X017346Y007971D02*
X017577Y007971D01*
X017536Y007872D02*
X017387Y007872D01*
X017401Y007774D02*
X017521Y007774D01*
X017521Y007675D02*
X017401Y007675D01*
X017401Y007577D02*
X017521Y007577D01*
X016961Y007450D02*
X016961Y007439D01*
X016961Y007450D02*
X016955Y007473D01*
X016955Y008483D01*
X016953Y008503D01*
X016949Y008522D01*
X016941Y008540D01*
X016931Y008556D01*
X016918Y008571D01*
X016903Y008584D01*
X016887Y008594D01*
X016869Y008602D01*
X016850Y008606D01*
X016830Y008608D01*
X014911Y008608D01*
X014735Y008463D02*
X008629Y008463D01*
X008629Y008365D02*
X012712Y008365D01*
X012739Y008384D02*
X012673Y008336D01*
X012615Y008278D01*
X012567Y008212D01*
X012529Y008139D01*
X012504Y008061D01*
X012493Y007989D01*
X012961Y007989D01*
X012961Y007889D01*
X013061Y007889D01*
X013061Y007421D01*
X013133Y007432D01*
X013211Y007457D01*
X013284Y007495D01*
X013350Y007543D01*
X013408Y007601D01*
X013456Y007667D01*
X013493Y007740D01*
X013518Y007818D01*
X013530Y007889D01*
X013061Y007889D01*
X013061Y007989D01*
X013530Y007989D01*
X013518Y008061D01*
X013493Y008139D01*
X013456Y008212D01*
X013408Y008278D01*
X013350Y008336D01*
X013284Y008384D01*
X013211Y008421D01*
X013133Y008447D01*
X013061Y008458D01*
X013061Y007989D01*
X012961Y007989D01*
X012961Y008458D01*
X012889Y008447D01*
X012812Y008421D01*
X012739Y008384D01*
X012606Y008266D02*
X008629Y008266D01*
X008629Y008168D02*
X012544Y008168D01*
X012507Y008069D02*
X008629Y008069D01*
X008629Y007971D02*
X011121Y007971D01*
X011022Y007872D02*
X008629Y007872D01*
X008629Y007774D02*
X010924Y007774D01*
X010871Y007675D02*
X008629Y007675D01*
X008629Y007577D02*
X010871Y007577D01*
X010871Y007478D02*
X008629Y007478D01*
X008629Y007380D02*
X010871Y007380D01*
X010947Y007281D02*
X008629Y007281D01*
X008629Y007183D02*
X011045Y007183D01*
X011361Y007489D02*
X011311Y007539D01*
X011361Y007489D02*
X011742Y007489D01*
X012017Y007577D02*
X012638Y007577D01*
X012615Y007601D02*
X012673Y007543D01*
X012739Y007495D01*
X012812Y007457D01*
X012889Y007432D01*
X012961Y007421D01*
X012961Y007889D01*
X012493Y007889D01*
X012504Y007818D01*
X012529Y007740D01*
X012567Y007667D01*
X012615Y007601D01*
X012562Y007675D02*
X011751Y007675D01*
X011699Y007774D02*
X012518Y007774D01*
X012495Y007872D02*
X011600Y007872D01*
X011502Y007971D02*
X012961Y007971D01*
X012961Y008069D02*
X013061Y008069D01*
X013061Y007971D02*
X014961Y007971D01*
X014961Y007889D02*
X014493Y007889D01*
X014504Y007818D01*
X014529Y007740D01*
X014567Y007667D01*
X014615Y007601D01*
X014673Y007543D01*
X014739Y007495D01*
X014812Y007457D01*
X014889Y007432D01*
X014961Y007421D01*
X014961Y007889D01*
X014961Y007872D02*
X015061Y007872D01*
X015061Y007774D02*
X014961Y007774D01*
X014961Y007675D02*
X015061Y007675D01*
X015061Y007577D02*
X014961Y007577D01*
X014961Y007478D02*
X015061Y007478D01*
X015252Y007478D02*
X016521Y007478D01*
X016521Y007380D02*
X012157Y007380D01*
X012172Y007281D02*
X016521Y007281D01*
X016521Y007183D02*
X012172Y007183D01*
X012172Y007084D02*
X016521Y007084D01*
X016544Y006986D02*
X012172Y006986D01*
X012172Y006887D02*
X016585Y006887D01*
X016679Y006789D02*
X012172Y006789D01*
X011812Y006789D02*
X008629Y006789D01*
X008629Y006887D02*
X011812Y006887D01*
X011812Y006986D02*
X008629Y006986D01*
X008629Y007084D02*
X011812Y007084D01*
X011812Y007183D02*
X011577Y007183D01*
X011676Y007281D02*
X011796Y007281D01*
X011992Y007239D02*
X011990Y007269D01*
X011985Y007299D01*
X011976Y007328D01*
X011963Y007355D01*
X011948Y007381D01*
X011929Y007405D01*
X011908Y007426D01*
X011884Y007445D01*
X011858Y007460D01*
X011831Y007473D01*
X011802Y007482D01*
X011772Y007487D01*
X011742Y007489D01*
X012100Y007478D02*
X012771Y007478D01*
X012961Y007478D02*
X013061Y007478D01*
X013061Y007577D02*
X012961Y007577D01*
X012961Y007675D02*
X013061Y007675D01*
X013061Y007774D02*
X012961Y007774D01*
X012961Y007872D02*
X013061Y007872D01*
X013504Y007774D02*
X014518Y007774D01*
X014495Y007872D02*
X013527Y007872D01*
X013516Y008069D02*
X014507Y008069D01*
X014544Y008168D02*
X013478Y008168D01*
X013416Y008266D02*
X014606Y008266D01*
X014712Y008365D02*
X013310Y008365D01*
X013061Y008365D02*
X012961Y008365D01*
X012961Y008266D02*
X013061Y008266D01*
X013061Y008168D02*
X012961Y008168D01*
X013460Y007675D02*
X014562Y007675D01*
X014638Y007577D02*
X013384Y007577D01*
X013252Y007478D02*
X014771Y007478D01*
X015384Y007577D02*
X016521Y007577D01*
X016521Y007675D02*
X015460Y007675D01*
X015504Y007774D02*
X016521Y007774D01*
X016536Y007872D02*
X015527Y007872D01*
X015516Y008069D02*
X016659Y008069D01*
X016577Y007971D02*
X015061Y007971D01*
X015478Y008168D02*
X016775Y008168D01*
X016775Y008266D02*
X015416Y008266D01*
X015310Y008365D02*
X016775Y008365D01*
X015563Y008830D02*
X015563Y008830D01*
X015547Y008857D02*
X014841Y008857D01*
X014661Y008858D02*
X014663Y008828D01*
X014668Y008798D01*
X014677Y008769D01*
X014690Y008742D01*
X014705Y008716D01*
X014724Y008692D01*
X014745Y008671D01*
X014769Y008652D01*
X014795Y008637D01*
X014822Y008624D01*
X014851Y008615D01*
X014881Y008610D01*
X014911Y008608D01*
X014586Y008562D02*
X011282Y008562D01*
X011435Y008660D02*
X014529Y008660D01*
X014481Y008759D02*
X011492Y008759D01*
X011541Y008857D02*
X014481Y008857D01*
X014481Y008956D02*
X011541Y008956D01*
X011541Y009054D02*
X014481Y009054D01*
X014481Y009153D02*
X011541Y009153D01*
X011541Y009251D02*
X014481Y009251D01*
X014481Y009350D02*
X011541Y009350D01*
X011541Y009448D02*
X014481Y009448D01*
X014466Y009547D02*
X014093Y009547D01*
X014089Y009540D02*
X014109Y009574D01*
X014119Y009612D01*
X014119Y009911D01*
X013690Y009911D01*
X013690Y009482D01*
X013988Y009482D01*
X014027Y009492D01*
X014061Y009512D01*
X014089Y009540D01*
X014119Y009645D02*
X014337Y009645D01*
X014269Y009744D02*
X014119Y009744D01*
X014119Y009842D02*
X014228Y009842D01*
X014224Y009941D02*
X013690Y009941D01*
X013633Y009941D02*
X011541Y009941D01*
X011541Y010039D02*
X013204Y010039D01*
X013204Y010138D02*
X011541Y010138D01*
X011541Y010236D02*
X013204Y010236D01*
X014119Y010236D02*
X014340Y010236D01*
X014270Y010138D02*
X014119Y010138D01*
X014119Y010039D02*
X014229Y010039D01*
X014661Y009939D02*
X014661Y008858D01*
X014841Y008956D02*
X015490Y008956D01*
X015481Y009054D02*
X014841Y009054D01*
X014841Y009153D02*
X015481Y009153D01*
X015481Y009251D02*
X014841Y009251D01*
X014841Y009350D02*
X015481Y009350D01*
X015481Y009448D02*
X014841Y009448D01*
X014857Y009547D02*
X015466Y009547D01*
X015337Y009645D02*
X014986Y009645D01*
X015054Y009744D02*
X015269Y009744D01*
X015228Y009842D02*
X015095Y009842D01*
X015099Y009941D02*
X015224Y009941D01*
X015229Y010039D02*
X015093Y010039D01*
X015053Y010138D02*
X015270Y010138D01*
X015340Y010236D02*
X014983Y010236D01*
X015726Y010554D02*
X015726Y010554D01*
X013690Y009842D02*
X013633Y009842D01*
X013633Y009911D02*
X013633Y009482D01*
X013334Y009482D01*
X013296Y009492D01*
X013262Y009512D01*
X013234Y009540D01*
X013214Y009574D01*
X013204Y009612D01*
X013204Y009911D01*
X013633Y009911D01*
X013633Y009744D02*
X013690Y009744D01*
X013690Y009645D02*
X013633Y009645D01*
X013633Y009547D02*
X013690Y009547D01*
X013230Y009547D02*
X011541Y009547D01*
X011541Y009645D02*
X013204Y009645D01*
X013204Y009744D02*
X011541Y009744D01*
X011541Y009842D02*
X013204Y009842D01*
X011611Y010489D02*
X011581Y010487D01*
X011551Y010482D01*
X011522Y010473D01*
X011495Y010460D01*
X011469Y010445D01*
X011445Y010426D01*
X011424Y010405D01*
X011405Y010381D01*
X011390Y010355D01*
X011377Y010328D01*
X011368Y010299D01*
X011363Y010269D01*
X011361Y010239D01*
X011361Y008960D01*
X011181Y008956D02*
X007892Y008956D01*
X007711Y008960D02*
X007713Y008930D01*
X007718Y008900D01*
X007727Y008871D01*
X007740Y008844D01*
X007755Y008818D01*
X007774Y008794D01*
X007795Y008773D01*
X007819Y008754D01*
X007845Y008739D01*
X007872Y008726D01*
X007901Y008717D01*
X007931Y008712D01*
X007961Y008710D01*
X008449Y008710D01*
X011111Y008710D01*
X011141Y008712D01*
X011171Y008717D01*
X011200Y008726D01*
X011227Y008739D01*
X011253Y008754D01*
X011277Y008773D01*
X011298Y008794D01*
X011317Y008818D01*
X011332Y008844D01*
X011345Y008871D01*
X011354Y008900D01*
X011359Y008930D01*
X011361Y008960D01*
X011181Y009054D02*
X007891Y009054D01*
X007891Y009153D02*
X011181Y009153D01*
X011181Y009251D02*
X007891Y009251D01*
X007891Y009350D02*
X011181Y009350D01*
X011181Y009448D02*
X007891Y009448D01*
X007907Y009547D02*
X008516Y009547D01*
X008387Y009645D02*
X008036Y009645D01*
X008104Y009744D02*
X008319Y009744D01*
X008278Y009842D02*
X008145Y009842D01*
X008149Y009941D02*
X008274Y009941D01*
X008279Y010039D02*
X008143Y010039D01*
X008103Y010138D02*
X008320Y010138D01*
X008390Y010236D02*
X008033Y010236D01*
X007472Y010489D02*
X007442Y010487D01*
X007412Y010482D01*
X007383Y010473D01*
X007356Y010460D01*
X007330Y010445D01*
X007306Y010426D01*
X007285Y010405D01*
X007266Y010381D01*
X007251Y010355D01*
X007238Y010328D01*
X007229Y010299D01*
X007224Y010269D01*
X007222Y010239D01*
X007222Y008392D01*
X007402Y008392D02*
X007402Y009630D01*
X007463Y009568D01*
X007531Y009540D01*
X007531Y008845D01*
X007646Y008645D01*
X007646Y008645D01*
X007646Y008645D01*
X007846Y008530D01*
X008269Y008530D01*
X008269Y003133D01*
X008385Y002933D01*
X008584Y002818D01*
X009411Y002818D01*
X009429Y002816D01*
X009461Y002798D01*
X009479Y002766D01*
X009481Y002748D01*
X009481Y002264D01*
X009439Y002246D01*
X009304Y002111D01*
X009231Y001935D01*
X009231Y001044D01*
X009304Y000867D01*
X009402Y000769D01*
X009020Y000769D01*
X009118Y000867D01*
X009191Y001044D01*
X009191Y001935D01*
X009118Y002111D01*
X008983Y002246D01*
X008807Y002319D01*
X008616Y002319D01*
X008439Y002246D01*
X008304Y002111D01*
X008231Y001935D01*
X008231Y001044D01*
X008304Y000867D01*
X008402Y000769D01*
X008358Y000769D01*
X008316Y000773D01*
X008239Y000805D01*
X008180Y000864D01*
X008149Y000941D01*
X008144Y000983D01*
X008144Y008007D01*
X008029Y008207D01*
X007830Y008322D01*
X007472Y008322D01*
X007454Y008325D01*
X007422Y008343D01*
X007404Y008374D01*
X007402Y008392D01*
X007410Y008365D02*
X008269Y008365D01*
X008269Y008463D02*
X007402Y008463D01*
X007402Y008562D02*
X007791Y008562D01*
X007638Y008660D02*
X007402Y008660D01*
X007402Y008759D02*
X007581Y008759D01*
X007531Y008857D02*
X007402Y008857D01*
X007402Y008956D02*
X007531Y008956D01*
X007531Y009054D02*
X007402Y009054D01*
X007402Y009153D02*
X007531Y009153D01*
X007531Y009251D02*
X007402Y009251D01*
X007402Y009350D02*
X007531Y009350D01*
X007531Y009448D02*
X007402Y009448D01*
X007402Y009547D02*
X007516Y009547D01*
X007042Y009547D02*
X006907Y009547D01*
X007036Y009645D02*
X007042Y009645D01*
X007042Y009448D02*
X003433Y009448D01*
X003531Y009547D02*
X005280Y009547D01*
X005284Y009540D02*
X005312Y009512D01*
X005346Y009492D01*
X005384Y009482D01*
X005683Y009482D01*
X005683Y009911D01*
X005740Y009911D01*
X005740Y009968D01*
X006169Y009968D01*
X006169Y010267D01*
X006159Y010305D01*
X006139Y010339D01*
X006111Y010367D01*
X006077Y010387D01*
X006038Y010397D01*
X005740Y010397D01*
X005740Y009968D01*
X005683Y009968D01*
X005683Y010397D01*
X005384Y010397D01*
X005346Y010387D01*
X005312Y010367D01*
X005284Y010339D01*
X005264Y010305D01*
X005254Y010267D01*
X005254Y009968D01*
X005683Y009968D01*
X005683Y009911D01*
X005254Y009911D01*
X005254Y009612D01*
X005264Y009574D01*
X005284Y009540D01*
X005254Y009645D02*
X003614Y009645D01*
X003655Y009744D02*
X005254Y009744D01*
X005254Y009842D02*
X003696Y009842D01*
X003730Y009941D02*
X005683Y009941D01*
X005740Y009941D02*
X006274Y009941D01*
X006279Y010039D02*
X006169Y010039D01*
X006169Y010138D02*
X006320Y010138D01*
X006390Y010236D02*
X006169Y010236D01*
X006141Y010335D02*
X006523Y010335D01*
X006900Y010335D02*
X007042Y010335D01*
X007033Y010236D02*
X007042Y010236D01*
X007403Y010250D02*
X007461Y010308D01*
X007454Y010307D01*
X007422Y010289D01*
X007404Y010257D01*
X007403Y010250D01*
X007472Y010489D02*
X008462Y010489D01*
X008492Y010487D01*
X008522Y010482D01*
X008551Y010473D01*
X008578Y010460D01*
X008604Y010445D01*
X008628Y010426D01*
X008649Y010405D01*
X008668Y010381D01*
X008683Y010355D01*
X008696Y010327D01*
X008705Y010299D01*
X008710Y010269D01*
X008712Y010239D01*
X008711Y009939D01*
X007711Y009939D02*
X007711Y008960D01*
X007042Y008956D02*
X004448Y008956D01*
X004546Y008857D02*
X007042Y008857D01*
X007042Y008759D02*
X004645Y008759D01*
X004690Y008660D02*
X007042Y008660D01*
X007042Y008562D02*
X004731Y008562D01*
X004771Y008463D02*
X007042Y008463D01*
X007042Y008365D02*
X004771Y008365D01*
X004771Y008266D02*
X007048Y008266D01*
X007105Y008168D02*
X004771Y008168D01*
X004736Y008069D02*
X007171Y008069D01*
X007157Y008077D02*
X007157Y008077D01*
X007157Y008077D01*
X007121Y007971D02*
X004695Y007971D01*
X004655Y007872D02*
X007022Y007872D01*
X006924Y007774D02*
X004559Y007774D01*
X004460Y007675D02*
X005938Y007675D01*
X005796Y007594D02*
X005796Y007594D01*
X005787Y007577D02*
X004261Y007577D01*
X005861Y007279D02*
X005861Y006489D01*
X005841Y006431D01*
X006301Y006395D02*
X007784Y006395D01*
X007784Y006493D02*
X006301Y006493D01*
X006273Y006592D02*
X007784Y006592D01*
X007784Y006690D02*
X006232Y006690D01*
X006134Y006789D02*
X007784Y006789D01*
X007784Y006887D02*
X006041Y006887D01*
X006041Y006986D02*
X007784Y006986D01*
X007784Y007084D02*
X006041Y007084D01*
X006041Y007183D02*
X007045Y007183D01*
X006947Y007281D02*
X006042Y007281D01*
X005861Y007279D02*
X005863Y007309D01*
X005868Y007339D01*
X005877Y007368D01*
X005890Y007395D01*
X005905Y007421D01*
X005924Y007445D01*
X005945Y007466D01*
X005969Y007485D01*
X005995Y007500D01*
X006022Y007513D01*
X006051Y007522D01*
X006081Y007527D01*
X006111Y007529D01*
X007261Y007529D01*
X007311Y007539D01*
X007751Y007577D02*
X007784Y007577D01*
X007784Y007675D02*
X007751Y007675D01*
X007784Y007774D02*
X007699Y007774D01*
X007964Y007892D02*
X007962Y007922D01*
X007957Y007952D01*
X007948Y007981D01*
X007935Y008008D01*
X007920Y008034D01*
X007901Y008058D01*
X007880Y008079D01*
X007856Y008098D01*
X007830Y008113D01*
X007803Y008126D01*
X007774Y008135D01*
X007744Y008140D01*
X007714Y008142D01*
X007472Y008142D01*
X007926Y008266D02*
X008269Y008266D01*
X008269Y008168D02*
X008052Y008168D01*
X008029Y008207D02*
X008029Y008207D01*
X008029Y008207D01*
X008109Y008069D02*
X008269Y008069D01*
X008269Y007971D02*
X008144Y007971D01*
X008144Y007872D02*
X008269Y007872D01*
X008269Y007774D02*
X008144Y007774D01*
X008144Y007675D02*
X008269Y007675D01*
X008269Y007577D02*
X008144Y007577D01*
X008144Y007478D02*
X008269Y007478D01*
X008269Y007380D02*
X008144Y007380D01*
X008144Y007281D02*
X008269Y007281D01*
X008269Y007183D02*
X008144Y007183D01*
X008144Y007084D02*
X008269Y007084D01*
X008269Y006986D02*
X008144Y006986D01*
X008144Y006887D02*
X008269Y006887D01*
X008269Y006789D02*
X008144Y006789D01*
X008144Y006690D02*
X008269Y006690D01*
X008269Y006592D02*
X008144Y006592D01*
X008144Y006493D02*
X008269Y006493D01*
X008269Y006395D02*
X008144Y006395D01*
X008144Y006296D02*
X008269Y006296D01*
X008269Y006198D02*
X008144Y006198D01*
X008144Y006099D02*
X008269Y006099D01*
X008269Y006001D02*
X008144Y006001D01*
X008144Y005902D02*
X008269Y005902D01*
X008269Y005804D02*
X008144Y005804D01*
X008144Y005705D02*
X008269Y005705D01*
X008269Y005607D02*
X008144Y005607D01*
X008144Y005508D02*
X008269Y005508D01*
X008269Y005410D02*
X008144Y005410D01*
X008144Y005311D02*
X008269Y005311D01*
X008269Y005213D02*
X008144Y005213D01*
X008144Y005114D02*
X008269Y005114D01*
X008269Y005016D02*
X008144Y005016D01*
X008144Y004917D02*
X008269Y004917D01*
X008269Y004819D02*
X008144Y004819D01*
X008144Y004720D02*
X008269Y004720D01*
X008269Y004622D02*
X008144Y004622D01*
X008144Y004523D02*
X008269Y004523D01*
X008269Y004425D02*
X008144Y004425D01*
X008144Y004326D02*
X008269Y004326D01*
X008269Y004228D02*
X008144Y004228D01*
X008144Y004129D02*
X008269Y004129D01*
X008269Y004031D02*
X008144Y004031D01*
X008144Y003932D02*
X008269Y003932D01*
X008269Y003834D02*
X008144Y003834D01*
X008144Y003735D02*
X008269Y003735D01*
X008269Y003637D02*
X008144Y003637D01*
X008144Y003538D02*
X008269Y003538D01*
X008269Y003440D02*
X008144Y003440D01*
X008144Y003341D02*
X008269Y003341D01*
X008269Y003243D02*
X008144Y003243D01*
X008144Y003144D02*
X008269Y003144D01*
X008320Y003046D02*
X008144Y003046D01*
X008144Y002947D02*
X008377Y002947D01*
X008385Y002933D02*
X008385Y002933D01*
X008385Y002933D01*
X008531Y002849D02*
X008144Y002849D01*
X008144Y002750D02*
X009481Y002750D01*
X009661Y002748D02*
X009659Y002778D01*
X009654Y002808D01*
X009645Y002837D01*
X009632Y002864D01*
X009617Y002890D01*
X009598Y002914D01*
X009577Y002935D01*
X009553Y002954D01*
X009527Y002969D01*
X009500Y002982D01*
X009471Y002991D01*
X009441Y002996D01*
X009411Y002998D01*
X008699Y002998D01*
X009585Y003144D02*
X013552Y003144D01*
X013585Y003046D02*
X009736Y003046D01*
X009726Y003063D02*
X009726Y003063D01*
X009726Y003063D01*
X009793Y002947D02*
X013585Y002947D01*
X013585Y002849D02*
X009841Y002849D01*
X009841Y002750D02*
X013584Y002750D01*
X013584Y002652D02*
X009841Y002652D01*
X009841Y002553D02*
X013584Y002553D01*
X013584Y002455D02*
X009841Y002455D01*
X009841Y002356D02*
X013583Y002356D01*
X013467Y002258D02*
X012955Y002258D01*
X013070Y002159D02*
X013352Y002159D01*
X013283Y002061D02*
X013139Y002061D01*
X013180Y001962D02*
X013243Y001962D01*
X013231Y001864D02*
X013191Y001864D01*
X013191Y001765D02*
X013231Y001765D01*
X013231Y001667D02*
X013191Y001667D01*
X013191Y001568D02*
X013231Y001568D01*
X013231Y001470D02*
X013191Y001470D01*
X013191Y001371D02*
X013231Y001371D01*
X013231Y001273D02*
X013191Y001273D01*
X013191Y001174D02*
X013231Y001174D01*
X013231Y001076D02*
X013191Y001076D01*
X013164Y000977D02*
X013259Y000977D01*
X013300Y000879D02*
X013123Y000879D01*
X013031Y000780D02*
X013391Y000780D01*
X014031Y000780D02*
X014326Y000780D01*
X014300Y000879D02*
X014123Y000879D01*
X014164Y000977D02*
X014259Y000977D01*
X014268Y000589D02*
X014307Y000591D01*
X014345Y000597D01*
X014382Y000606D01*
X014419Y000619D01*
X014454Y000636D01*
X014487Y000655D01*
X014518Y000678D01*
X014547Y000704D01*
X014573Y000733D01*
X014596Y000764D01*
X014615Y000797D01*
X014632Y000832D01*
X014645Y000869D01*
X014654Y000906D01*
X014660Y000944D01*
X014662Y000983D01*
X014661Y000983D02*
X014661Y001489D01*
X014711Y001489D01*
X014231Y001470D02*
X014191Y001470D01*
X014191Y001568D02*
X014231Y001568D01*
X014231Y001667D02*
X014191Y001667D01*
X014191Y001765D02*
X014231Y001765D01*
X014231Y001864D02*
X014191Y001864D01*
X014180Y001962D02*
X014243Y001962D01*
X014283Y002061D02*
X014139Y002061D01*
X014070Y002159D02*
X014352Y002159D01*
X014467Y002258D02*
X013955Y002258D01*
X013943Y002356D02*
X016576Y002356D01*
X016576Y002375D02*
X016576Y002375D01*
X016575Y002455D02*
X013944Y002455D01*
X013944Y002553D02*
X016574Y002553D01*
X016574Y002565D02*
X016574Y002565D01*
X016624Y002652D02*
X013944Y002652D01*
X013944Y002750D02*
X016680Y002750D01*
X016832Y002849D02*
X013945Y002849D01*
X013945Y002947D02*
X024216Y002947D01*
X024274Y003046D02*
X018226Y003046D01*
X017896Y003046D02*
X013945Y003046D01*
X013980Y003144D02*
X014432Y003144D01*
X014283Y003243D02*
X014039Y003243D01*
X014055Y003341D02*
X014226Y003341D01*
X014178Y003440D02*
X014037Y003440D01*
X013975Y003538D02*
X014178Y003538D01*
X014178Y003637D02*
X013416Y003637D01*
X013435Y003656D02*
X013294Y003515D01*
X013111Y003439D01*
X012912Y003439D01*
X012728Y003515D01*
X012587Y003656D01*
X012511Y003840D01*
X012511Y004039D01*
X012587Y004223D01*
X012728Y004363D01*
X012912Y004439D01*
X013111Y004439D01*
X013294Y004363D01*
X013435Y004223D01*
X013511Y004039D01*
X013511Y003840D01*
X013435Y003656D01*
X013468Y003735D02*
X014178Y003735D01*
X014178Y003834D02*
X013509Y003834D01*
X013511Y003932D02*
X014178Y003932D01*
X014178Y004031D02*
X013511Y004031D01*
X013474Y004129D02*
X014178Y004129D01*
X014178Y004228D02*
X013430Y004228D01*
X013331Y004326D02*
X014178Y004326D01*
X014178Y004425D02*
X013146Y004425D01*
X012877Y004425D02*
X011751Y004425D01*
X011750Y004523D02*
X014178Y004523D01*
X014358Y004640D02*
X014356Y004660D01*
X014352Y004679D01*
X014344Y004697D01*
X014334Y004713D01*
X014321Y004728D01*
X014306Y004741D01*
X014290Y004751D01*
X014272Y004759D01*
X014253Y004763D01*
X014233Y004765D01*
X011561Y004765D01*
X011246Y004830D02*
X011246Y004830D01*
X011246Y004830D01*
X011240Y004819D02*
X009560Y004819D01*
X009163Y004819D02*
X008629Y004819D01*
X008629Y004917D02*
X009095Y004917D01*
X009073Y005016D02*
X008629Y005016D01*
X008629Y005114D02*
X009084Y005114D01*
X009137Y005213D02*
X008629Y005213D01*
X008629Y005311D02*
X009289Y005311D01*
X009419Y005317D02*
X009525Y005274D01*
X009590Y005209D01*
X011871Y005209D01*
X011812Y005311D01*
X011812Y005410D02*
X008629Y005410D01*
X008629Y005508D02*
X011120Y005508D01*
X011129Y005499D02*
X011494Y005499D01*
X011751Y005757D01*
X011751Y006122D01*
X011494Y006379D01*
X011129Y006379D01*
X010871Y006122D01*
X010871Y005757D01*
X011129Y005499D01*
X011021Y005607D02*
X008629Y005607D01*
X008629Y005705D02*
X010923Y005705D01*
X010871Y005804D02*
X008629Y005804D01*
X008629Y005902D02*
X010871Y005902D01*
X010871Y006001D02*
X008629Y006001D01*
X008629Y006099D02*
X010871Y006099D01*
X010948Y006198D02*
X008629Y006198D01*
X008629Y006296D02*
X011046Y006296D01*
X011576Y006296D02*
X011812Y006296D01*
X011812Y006198D02*
X011675Y006198D01*
X011751Y006099D02*
X011812Y006099D01*
X011812Y006001D02*
X011751Y006001D01*
X011751Y005902D02*
X011812Y005902D01*
X011812Y005804D02*
X011751Y005804D01*
X011700Y005705D02*
X011812Y005705D01*
X011812Y005607D02*
X011601Y005607D01*
X011503Y005508D02*
X011812Y005508D01*
X011992Y005393D02*
X011992Y007239D01*
X011812Y006690D02*
X008629Y006690D01*
X008629Y006592D02*
X011812Y006592D01*
X011812Y006493D02*
X008629Y006493D01*
X008629Y006395D02*
X011812Y006395D01*
X012172Y006395D02*
X018281Y006395D01*
X018281Y006493D02*
X012172Y006493D01*
X012172Y006296D02*
X017073Y006296D01*
X017232Y006296D02*
X018281Y006296D01*
X018281Y006198D02*
X017380Y006198D01*
X016925Y006198D02*
X012172Y006198D01*
X012172Y006099D02*
X016874Y006099D01*
X016864Y006001D02*
X012172Y006001D01*
X011869Y005213D02*
X009585Y005213D01*
X009361Y005029D02*
X014886Y005029D01*
X014906Y005027D01*
X014925Y005023D01*
X014943Y005015D01*
X014959Y005005D01*
X014974Y004992D01*
X014987Y004977D01*
X014997Y004961D01*
X015005Y004943D01*
X015009Y004924D01*
X015011Y004904D01*
X015011Y003939D01*
X014555Y003735D02*
X014538Y003735D01*
X014538Y003775D02*
X014538Y003539D01*
X014540Y003521D01*
X014559Y003490D01*
X014590Y003472D01*
X014608Y003469D01*
X014839Y003469D01*
X014728Y003515D01*
X014587Y003656D01*
X014538Y003775D01*
X014538Y003637D02*
X014607Y003637D01*
X014358Y003539D02*
X014360Y003509D01*
X014365Y003479D01*
X014374Y003450D01*
X014387Y003423D01*
X014402Y003397D01*
X014421Y003373D01*
X014442Y003352D01*
X014466Y003333D01*
X014492Y003318D01*
X014519Y003305D01*
X014548Y003296D01*
X014578Y003291D01*
X014608Y003289D01*
X018061Y003289D01*
X017086Y003689D02*
X017066Y003691D01*
X017047Y003695D01*
X017029Y003703D01*
X017013Y003713D01*
X016998Y003726D01*
X016985Y003741D01*
X016975Y003757D01*
X016967Y003775D01*
X016963Y003794D01*
X016961Y003814D01*
X016961Y004439D01*
X017401Y004326D02*
X017521Y004326D01*
X017521Y004228D02*
X017401Y004228D01*
X017401Y004129D02*
X017521Y004129D01*
X017526Y004031D02*
X017397Y004031D01*
X017356Y003932D02*
X017567Y003932D01*
X018324Y003869D02*
X018334Y003880D01*
X018401Y004042D01*
X018401Y004837D01*
X018334Y004999D01*
X018245Y005088D01*
X018678Y005088D01*
X018588Y004999D01*
X018521Y004837D01*
X018521Y004042D01*
X018588Y003880D01*
X018599Y003869D01*
X018324Y003869D01*
X018356Y003932D02*
X018567Y003932D01*
X018526Y004031D02*
X018397Y004031D01*
X018401Y004129D02*
X018521Y004129D01*
X018521Y004228D02*
X018401Y004228D01*
X018401Y004326D02*
X018521Y004326D01*
X018521Y004425D02*
X018401Y004425D01*
X018401Y004523D02*
X018521Y004523D01*
X018521Y004622D02*
X018401Y004622D01*
X018401Y004720D02*
X018521Y004720D01*
X018521Y004819D02*
X018401Y004819D01*
X018368Y004917D02*
X018555Y004917D01*
X018606Y005016D02*
X018317Y005016D01*
X017961Y005268D02*
X018836Y005268D01*
X018856Y005266D01*
X018875Y005262D01*
X018893Y005254D01*
X018909Y005244D01*
X018924Y005231D01*
X018937Y005216D01*
X018947Y005200D01*
X018955Y005182D01*
X018959Y005163D01*
X018961Y005143D01*
X018961Y004439D01*
X019401Y004425D02*
X019521Y004425D01*
X019521Y004523D02*
X019401Y004523D01*
X019401Y004622D02*
X019521Y004622D01*
X019521Y004720D02*
X019401Y004720D01*
X019401Y004819D02*
X019521Y004819D01*
X019555Y004917D02*
X019368Y004917D01*
X019317Y005016D02*
X019606Y005016D01*
X019704Y005114D02*
X019219Y005114D01*
X020219Y005114D02*
X020704Y005114D01*
X020606Y005016D02*
X020317Y005016D01*
X020368Y004917D02*
X020555Y004917D01*
X020521Y004819D02*
X020401Y004819D01*
X020401Y004720D02*
X020521Y004720D01*
X020521Y004622D02*
X020401Y004622D01*
X020401Y004523D02*
X020521Y004523D01*
X020521Y004425D02*
X020401Y004425D01*
X020401Y004326D02*
X020521Y004326D01*
X020521Y004228D02*
X020401Y004228D01*
X020401Y004129D02*
X020521Y004129D01*
X020526Y004031D02*
X020397Y004031D01*
X020356Y003932D02*
X020567Y003932D01*
X021356Y003932D02*
X021567Y003932D01*
X021526Y004031D02*
X021397Y004031D01*
X021401Y004129D02*
X021521Y004129D01*
X021521Y004228D02*
X021401Y004228D01*
X021401Y004326D02*
X021521Y004326D01*
X021521Y004425D02*
X021401Y004425D01*
X021401Y004523D02*
X021521Y004523D01*
X021521Y004622D02*
X021401Y004622D01*
X021401Y004720D02*
X021521Y004720D01*
X021521Y004819D02*
X021401Y004819D01*
X021368Y004917D02*
X021555Y004917D01*
X021606Y005016D02*
X021317Y005016D01*
X021219Y005114D02*
X021704Y005114D01*
X022219Y005114D02*
X022704Y005114D01*
X022606Y005016D02*
X022317Y005016D01*
X022368Y004917D02*
X022555Y004917D01*
X022521Y004819D02*
X022401Y004819D01*
X022401Y004720D02*
X022521Y004720D01*
X022521Y004622D02*
X022401Y004622D01*
X022401Y004523D02*
X022521Y004523D01*
X022521Y004425D02*
X022401Y004425D01*
X022401Y004326D02*
X022521Y004326D01*
X022521Y004228D02*
X022401Y004228D01*
X022401Y004129D02*
X022521Y004129D01*
X022526Y004031D02*
X022397Y004031D01*
X022356Y003932D02*
X022567Y003932D01*
X023641Y003735D02*
X023721Y003735D01*
X024641Y003538D02*
X034787Y003538D01*
X034787Y003440D02*
X024641Y003440D01*
X024641Y003341D02*
X034787Y003341D01*
X034787Y003243D02*
X032722Y003243D01*
X032721Y003247D02*
X032701Y003281D01*
X032673Y003309D01*
X032639Y003329D01*
X032601Y003339D01*
X032191Y003339D01*
X032191Y002999D01*
X032731Y002999D01*
X032731Y003209D01*
X032721Y003247D01*
X032731Y003144D02*
X034787Y003144D01*
X034787Y003046D02*
X032731Y003046D01*
X032731Y002899D02*
X032731Y002690D01*
X032721Y002651D01*
X032701Y002617D01*
X032673Y002589D01*
X032639Y002570D01*
X032601Y002559D01*
X032191Y002559D01*
X032191Y002899D01*
X032091Y002899D01*
X032091Y002559D01*
X031682Y002559D01*
X031643Y002570D01*
X031609Y002589D01*
X031581Y002617D01*
X031561Y002651D01*
X031551Y002690D01*
X031551Y002899D01*
X032091Y002899D01*
X032091Y002999D01*
X031551Y002999D01*
X031551Y003209D01*
X031561Y003247D01*
X031581Y003281D01*
X031609Y003309D01*
X031643Y003329D01*
X031682Y003339D01*
X032091Y003339D01*
X032091Y002999D01*
X032191Y002999D01*
X032191Y002899D01*
X032731Y002899D01*
X032731Y002849D02*
X034065Y002849D01*
X034018Y002750D02*
X032731Y002750D01*
X032721Y002652D02*
X034018Y002652D01*
X034018Y002553D02*
X029484Y002553D01*
X029579Y002455D02*
X034018Y002455D01*
X034018Y002356D02*
X032688Y002356D01*
X032191Y002652D02*
X032091Y002652D01*
X032091Y002750D02*
X032191Y002750D01*
X032191Y002849D02*
X032091Y002849D01*
X032091Y002947D02*
X024627Y002947D01*
X024641Y003046D02*
X031551Y003046D01*
X031551Y003144D02*
X024641Y003144D01*
X024641Y003243D02*
X031560Y003243D01*
X032091Y003243D02*
X032191Y003243D01*
X032191Y003144D02*
X032091Y003144D01*
X032091Y003046D02*
X032191Y003046D01*
X032191Y002947D02*
X034787Y002947D01*
X035147Y002947D02*
X037931Y002947D01*
X037931Y002849D02*
X035147Y002849D01*
X035147Y002750D02*
X037931Y002750D01*
X037931Y002652D02*
X035147Y002652D01*
X035147Y002553D02*
X037931Y002553D01*
X037931Y002455D02*
X035147Y002455D01*
X035147Y002356D02*
X037931Y002356D01*
X037931Y002258D02*
X037125Y002258D01*
X036976Y002319D02*
X036646Y002319D01*
X036341Y002193D01*
X036108Y001959D01*
X035981Y001654D01*
X035981Y001324D01*
X036108Y001019D01*
X036341Y000786D01*
X036646Y000659D01*
X036976Y000659D01*
X037281Y000786D01*
X037515Y001019D01*
X037641Y001324D01*
X037641Y001654D01*
X037515Y001959D01*
X037281Y002193D01*
X036976Y002319D01*
X036498Y002258D02*
X035144Y002258D01*
X035144Y002159D02*
X036308Y002159D01*
X036209Y002061D02*
X035144Y002061D01*
X035144Y001962D02*
X036111Y001962D01*
X036068Y001864D02*
X035144Y001864D01*
X035144Y001765D02*
X036027Y001765D01*
X035986Y001667D02*
X035144Y001667D01*
X035144Y001568D02*
X035981Y001568D01*
X035981Y001470D02*
X035144Y001470D01*
X035144Y001371D02*
X035981Y001371D01*
X036003Y001273D02*
X035140Y001273D01*
X036043Y001174D02*
X033670Y001174D01*
X033670Y001187D02*
X033627Y001293D01*
X033545Y001374D01*
X033439Y001418D01*
X033324Y001418D01*
X033218Y001374D01*
X033153Y001309D01*
X032711Y001309D01*
X032711Y001423D01*
X032635Y001499D01*
X031647Y001499D01*
X031571Y001423D01*
X031571Y000836D01*
X031647Y000759D01*
X032635Y000759D01*
X032711Y000836D01*
X032711Y000949D01*
X033153Y000949D01*
X033218Y000885D01*
X033324Y000841D01*
X033439Y000841D01*
X033545Y000885D01*
X033627Y000966D01*
X033670Y001072D01*
X033670Y001187D01*
X033635Y001273D02*
X034022Y001273D01*
X034018Y001371D02*
X033548Y001371D01*
X033215Y001371D02*
X032711Y001371D01*
X032665Y001470D02*
X034018Y001470D01*
X034018Y001568D02*
X029497Y001568D01*
X029596Y001470D02*
X031618Y001470D01*
X031571Y001371D02*
X029664Y001371D01*
X029664Y001402D02*
X029664Y001239D01*
X029229Y001239D01*
X029169Y001239D01*
X029169Y001179D01*
X028734Y001179D01*
X028734Y001016D01*
X029006Y000744D01*
X029169Y000744D01*
X029169Y001179D01*
X029229Y001179D01*
X029229Y000744D01*
X029392Y000744D01*
X029664Y001016D01*
X029664Y001179D01*
X029229Y001179D01*
X029229Y001239D01*
X029229Y001674D01*
X029392Y001674D01*
X029664Y001402D01*
X029664Y001273D02*
X031571Y001273D01*
X031571Y001174D02*
X029664Y001174D01*
X029664Y001076D02*
X031571Y001076D01*
X031571Y000977D02*
X029625Y000977D01*
X029526Y000879D02*
X031571Y000879D01*
X031626Y000780D02*
X029428Y000780D01*
X029229Y000780D02*
X029169Y000780D01*
X029169Y000879D02*
X029229Y000879D01*
X029229Y000977D02*
X029169Y000977D01*
X029169Y001076D02*
X029229Y001076D01*
X029229Y001174D02*
X029169Y001174D01*
X029169Y001239D02*
X028734Y001239D01*
X028734Y001402D01*
X029006Y001674D01*
X029169Y001674D01*
X029169Y001239D01*
X029169Y001273D02*
X029229Y001273D01*
X029229Y001371D02*
X029169Y001371D01*
X029169Y001470D02*
X029229Y001470D01*
X029229Y001568D02*
X029169Y001568D01*
X029169Y001667D02*
X029229Y001667D01*
X029291Y001765D02*
X031571Y001765D01*
X032141Y002039D02*
X032161Y002089D01*
X034561Y002089D01*
X034581Y002039D01*
X032141Y002039D01*
X029199Y002039D01*
X029199Y002209D01*
X028778Y002356D02*
X027096Y002356D01*
X027096Y002399D02*
X026838Y002657D01*
X026473Y002657D01*
X026216Y002399D01*
X026216Y002035D01*
X026473Y001777D01*
X026838Y001777D01*
X027096Y002035D01*
X027096Y002399D01*
X027040Y002455D02*
X028819Y002455D01*
X028914Y002553D02*
X026942Y002553D01*
X026843Y002652D02*
X029105Y002652D01*
X029293Y002652D02*
X031561Y002652D01*
X031551Y002750D02*
X024534Y002750D01*
X024554Y002771D02*
X024554Y002771D01*
X024586Y002849D02*
X031551Y002849D01*
X031594Y002356D02*
X029620Y002356D01*
X029644Y002258D02*
X031571Y002258D01*
X032711Y001765D02*
X034018Y001765D01*
X034018Y001667D02*
X029399Y001667D01*
X029107Y001765D02*
X024967Y001765D01*
X024967Y001769D02*
X024900Y001931D01*
X024776Y002055D01*
X024615Y002121D01*
X024439Y002121D01*
X024278Y002055D01*
X024154Y001931D01*
X024087Y001769D01*
X024087Y001594D01*
X024154Y001432D01*
X024278Y001308D01*
X024439Y001241D01*
X024615Y001241D01*
X024776Y001308D01*
X024900Y001432D01*
X024967Y001594D01*
X024967Y001769D01*
X024967Y001667D02*
X026455Y001667D01*
X026465Y001677D02*
X026196Y001407D01*
X026196Y001247D01*
X026626Y001247D01*
X026626Y001677D01*
X026465Y001677D01*
X026357Y001568D02*
X024956Y001568D01*
X024916Y001470D02*
X026258Y001470D01*
X026196Y001371D02*
X024839Y001371D01*
X024690Y001273D02*
X026196Y001273D01*
X026196Y001187D02*
X026196Y001026D01*
X026465Y000757D01*
X026626Y000757D01*
X026626Y001187D01*
X026686Y001187D01*
X026686Y001247D01*
X027116Y001247D01*
X027116Y001407D01*
X026846Y001677D01*
X026686Y001677D01*
X026686Y001247D01*
X026626Y001247D01*
X026626Y001187D01*
X026196Y001187D01*
X026196Y001174D02*
X021001Y001174D01*
X021001Y001076D02*
X026196Y001076D01*
X026245Y000977D02*
X020972Y000977D01*
X021001Y001007D02*
X020744Y000749D01*
X020379Y000749D01*
X020121Y001007D01*
X020121Y001372D01*
X020379Y001629D01*
X020744Y001629D01*
X021001Y001372D01*
X021001Y001007D01*
X020873Y000879D02*
X026343Y000879D01*
X026442Y000780D02*
X020775Y000780D01*
X020348Y000780D02*
X018775Y000780D01*
X018744Y000749D02*
X019001Y001007D01*
X019001Y001372D01*
X018744Y001629D01*
X018379Y001629D01*
X018121Y001372D01*
X018121Y001007D01*
X018379Y000749D01*
X018744Y000749D01*
X018873Y000879D02*
X020250Y000879D01*
X020151Y000977D02*
X018972Y000977D01*
X019001Y001076D02*
X020121Y001076D01*
X020121Y001174D02*
X019001Y001174D01*
X019001Y001273D02*
X020121Y001273D01*
X020121Y001371D02*
X019001Y001371D01*
X018903Y001470D02*
X020220Y001470D01*
X020318Y001568D02*
X018805Y001568D01*
X018531Y001729D02*
X018531Y002159D01*
X018101Y002159D01*
X018101Y001999D01*
X018371Y001729D01*
X018531Y001729D01*
X018531Y001765D02*
X018591Y001765D01*
X018591Y001864D02*
X018531Y001864D01*
X018531Y001962D02*
X018591Y001962D01*
X018591Y002061D02*
X018531Y002061D01*
X018531Y002159D02*
X017070Y002159D01*
X017139Y002061D02*
X018101Y002061D01*
X018138Y001962D02*
X017180Y001962D01*
X017191Y001864D02*
X018236Y001864D01*
X018335Y001765D02*
X017191Y001765D01*
X017191Y001667D02*
X022187Y001667D01*
X022187Y001594D02*
X022254Y001432D01*
X022378Y001308D01*
X022539Y001241D01*
X022715Y001241D01*
X022876Y001308D01*
X023000Y001432D01*
X023067Y001594D01*
X023067Y001769D01*
X023000Y001931D01*
X022876Y002055D01*
X022715Y002121D01*
X022539Y002121D01*
X022378Y002055D01*
X022254Y001931D01*
X022187Y001769D01*
X022187Y001594D01*
X022198Y001568D02*
X020805Y001568D01*
X020903Y001470D02*
X022238Y001470D01*
X022315Y001371D02*
X021001Y001371D01*
X021001Y001273D02*
X022464Y001273D01*
X022790Y001273D02*
X024364Y001273D01*
X024215Y001371D02*
X022939Y001371D01*
X023016Y001470D02*
X024138Y001470D01*
X024098Y001568D02*
X023056Y001568D01*
X023067Y001667D02*
X024087Y001667D01*
X024087Y001765D02*
X023067Y001765D01*
X023028Y001864D02*
X024126Y001864D01*
X024186Y001962D02*
X022968Y001962D01*
X022861Y002061D02*
X024293Y002061D01*
X024761Y002061D02*
X026216Y002061D01*
X026216Y002159D02*
X020591Y002159D01*
X020531Y002159D02*
X020531Y001729D01*
X020371Y001729D01*
X020101Y001999D01*
X020101Y002159D01*
X020531Y002159D01*
X018591Y002159D01*
X019021Y002061D02*
X020101Y002061D01*
X020138Y001962D02*
X018985Y001962D01*
X018886Y001864D02*
X020236Y001864D01*
X020335Y001765D02*
X018788Y001765D01*
X018318Y001568D02*
X017191Y001568D01*
X017191Y001470D02*
X018220Y001470D01*
X018121Y001371D02*
X017191Y001371D01*
X017191Y001273D02*
X018121Y001273D01*
X018121Y001174D02*
X017191Y001174D01*
X017191Y001076D02*
X018121Y001076D01*
X018151Y000977D02*
X017164Y000977D01*
X017123Y000879D02*
X018250Y000879D01*
X018348Y000780D02*
X017031Y000780D01*
X016861Y000682D02*
X036592Y000682D01*
X036354Y000780D02*
X032656Y000780D01*
X032711Y000879D02*
X033232Y000879D01*
X033531Y000879D02*
X036248Y000879D01*
X036150Y000977D02*
X033631Y000977D01*
X033670Y001076D02*
X036084Y001076D01*
X037268Y000780D02*
X037931Y000780D01*
X037931Y000682D02*
X037030Y000682D01*
X037374Y000879D02*
X037931Y000879D01*
X037931Y000977D02*
X037473Y000977D01*
X037538Y001076D02*
X037931Y001076D01*
X037931Y001174D02*
X037579Y001174D01*
X037620Y001273D02*
X037931Y001273D01*
X037931Y001371D02*
X037641Y001371D01*
X037641Y001470D02*
X037931Y001470D01*
X037931Y001568D02*
X037641Y001568D01*
X037636Y001667D02*
X037931Y001667D01*
X037931Y001765D02*
X037595Y001765D01*
X037554Y001864D02*
X037931Y001864D01*
X037931Y001962D02*
X037512Y001962D01*
X037413Y002061D02*
X037931Y002061D01*
X037931Y002159D02*
X037315Y002159D01*
X034967Y002389D02*
X034661Y002089D01*
X034581Y002039D01*
X034967Y002389D02*
X034967Y009939D01*
X034561Y009939D01*
X034967Y009939D02*
X034967Y010386D01*
X035147Y010433D02*
X036005Y010433D01*
X035965Y010335D02*
X035147Y010335D01*
X035147Y010236D02*
X035931Y010236D01*
X035931Y010254D02*
X035931Y009924D01*
X036058Y009619D01*
X036291Y009386D01*
X036596Y009259D01*
X036926Y009259D01*
X037231Y009386D01*
X037465Y009619D01*
X037591Y009924D01*
X037591Y010254D01*
X037465Y010559D01*
X037231Y010793D01*
X036926Y010919D01*
X036596Y010919D01*
X036291Y010793D01*
X036058Y010559D01*
X035931Y010254D01*
X035931Y010138D02*
X035147Y010138D01*
X035147Y010039D02*
X035931Y010039D01*
X035931Y009941D02*
X035147Y009941D01*
X035147Y009842D02*
X035965Y009842D01*
X036006Y009744D02*
X035147Y009744D01*
X035147Y009645D02*
X036047Y009645D01*
X036130Y009547D02*
X035147Y009547D01*
X035147Y009448D02*
X036229Y009448D01*
X036378Y009350D02*
X035147Y009350D01*
X035147Y009251D02*
X037931Y009251D01*
X037931Y009153D02*
X035147Y009153D01*
X035147Y009054D02*
X037931Y009054D01*
X037931Y008956D02*
X035147Y008956D01*
X035147Y008857D02*
X037931Y008857D01*
X037931Y008759D02*
X035147Y008759D01*
X035147Y008660D02*
X037931Y008660D01*
X037931Y008562D02*
X035147Y008562D01*
X035147Y008463D02*
X037931Y008463D01*
X037931Y008365D02*
X035147Y008365D01*
X035147Y008266D02*
X037931Y008266D01*
X037931Y008168D02*
X035147Y008168D01*
X035147Y008069D02*
X037931Y008069D01*
X037931Y007971D02*
X035147Y007971D01*
X035147Y007872D02*
X037931Y007872D01*
X037931Y007774D02*
X035147Y007774D01*
X035147Y007675D02*
X037931Y007675D01*
X037931Y007577D02*
X035147Y007577D01*
X035147Y007478D02*
X037931Y007478D01*
X037931Y007380D02*
X035147Y007380D01*
X035147Y007281D02*
X037931Y007281D01*
X037931Y007183D02*
X035147Y007183D01*
X035147Y007084D02*
X037931Y007084D01*
X037931Y006986D02*
X035147Y006986D01*
X035147Y006887D02*
X037931Y006887D01*
X037931Y006789D02*
X035147Y006789D01*
X035147Y006690D02*
X037931Y006690D01*
X037931Y006592D02*
X035147Y006592D01*
X035147Y006493D02*
X037931Y006493D01*
X037931Y006395D02*
X035147Y006395D01*
X035147Y006296D02*
X037931Y006296D01*
X037931Y006198D02*
X035147Y006198D01*
X035147Y006099D02*
X037931Y006099D01*
X037931Y006001D02*
X035147Y006001D01*
X035147Y005902D02*
X037931Y005902D01*
X037931Y005804D02*
X035147Y005804D01*
X035147Y005705D02*
X037931Y005705D01*
X037931Y005607D02*
X035147Y005607D01*
X035147Y005508D02*
X037931Y005508D01*
X037931Y005410D02*
X035147Y005410D01*
X035147Y005311D02*
X037931Y005311D01*
X037931Y005213D02*
X035147Y005213D01*
X035147Y005114D02*
X037931Y005114D01*
X037931Y005016D02*
X035147Y005016D01*
X035147Y004917D02*
X037931Y004917D01*
X037931Y004819D02*
X035147Y004819D01*
X035147Y004720D02*
X037931Y004720D01*
X037931Y004622D02*
X035147Y004622D01*
X035147Y004523D02*
X037931Y004523D01*
X037931Y004425D02*
X035147Y004425D01*
X035147Y004326D02*
X037931Y004326D01*
X037931Y004228D02*
X035147Y004228D01*
X035147Y004129D02*
X037931Y004129D01*
X037931Y004031D02*
X035147Y004031D01*
X035147Y003932D02*
X037931Y003932D01*
X037931Y003834D02*
X035147Y003834D01*
X035147Y003735D02*
X037931Y003735D01*
X037931Y003637D02*
X035147Y003637D01*
X035147Y003538D02*
X037931Y003538D01*
X037931Y003440D02*
X035147Y003440D01*
X035147Y003341D02*
X037931Y003341D01*
X037931Y003243D02*
X035147Y003243D01*
X035147Y003144D02*
X037931Y003144D01*
X037931Y003046D02*
X035147Y003046D01*
X029763Y003735D02*
X029160Y003735D01*
X029288Y003834D02*
X029634Y003834D01*
X029567Y003932D02*
X029356Y003932D01*
X029397Y004031D02*
X029526Y004031D01*
X029521Y004129D02*
X029401Y004129D01*
X029401Y004228D02*
X029521Y004228D01*
X029521Y004326D02*
X029401Y004326D01*
X029401Y004425D02*
X029521Y004425D01*
X029521Y004523D02*
X029401Y004523D01*
X029401Y004622D02*
X029521Y004622D01*
X029521Y004720D02*
X029401Y004720D01*
X029401Y004819D02*
X029521Y004819D01*
X029555Y004917D02*
X029368Y004917D01*
X029317Y005016D02*
X029606Y005016D01*
X028606Y005016D02*
X028317Y005016D01*
X028368Y004917D02*
X028555Y004917D01*
X028521Y004819D02*
X028401Y004819D01*
X028401Y004720D02*
X028521Y004720D01*
X028521Y004622D02*
X028401Y004622D01*
X028401Y004523D02*
X028521Y004523D01*
X028521Y004425D02*
X028401Y004425D01*
X028401Y004326D02*
X028521Y004326D01*
X028521Y004228D02*
X028401Y004228D01*
X028401Y004129D02*
X028521Y004129D01*
X028526Y004031D02*
X028397Y004031D01*
X028356Y003932D02*
X028567Y003932D01*
X028634Y003834D02*
X028288Y003834D01*
X028160Y003735D02*
X028763Y003735D01*
X027763Y003735D02*
X027160Y003735D01*
X027288Y003834D02*
X027634Y003834D01*
X027567Y003932D02*
X027356Y003932D01*
X027397Y004031D02*
X027526Y004031D01*
X027521Y004129D02*
X027401Y004129D01*
X027401Y004228D02*
X027521Y004228D01*
X027521Y004326D02*
X027401Y004326D01*
X027401Y004425D02*
X027521Y004425D01*
X027521Y004523D02*
X027401Y004523D01*
X027401Y004622D02*
X027521Y004622D01*
X027521Y004720D02*
X027401Y004720D01*
X027401Y004819D02*
X027521Y004819D01*
X027555Y004917D02*
X027368Y004917D01*
X027317Y005016D02*
X027606Y005016D01*
X026606Y005016D02*
X026317Y005016D01*
X026368Y004917D02*
X026555Y004917D01*
X026521Y004819D02*
X026401Y004819D01*
X026401Y004720D02*
X026521Y004720D01*
X026521Y004622D02*
X026401Y004622D01*
X026401Y004523D02*
X026521Y004523D01*
X026521Y004425D02*
X026401Y004425D01*
X026401Y004326D02*
X026521Y004326D01*
X026521Y004228D02*
X026401Y004228D01*
X026401Y004129D02*
X026521Y004129D01*
X026526Y004031D02*
X026397Y004031D01*
X026356Y003932D02*
X026567Y003932D01*
X026634Y003834D02*
X026288Y003834D01*
X026160Y003735D02*
X026763Y003735D01*
X024462Y003096D02*
X024460Y003057D01*
X024454Y003019D01*
X024445Y002982D01*
X024432Y002945D01*
X024415Y002910D01*
X024396Y002877D01*
X024373Y002846D01*
X024347Y002817D01*
X024318Y002791D01*
X024287Y002768D01*
X024254Y002749D01*
X024219Y002732D01*
X024182Y002719D01*
X024145Y002710D01*
X024107Y002704D01*
X024068Y002702D01*
X017005Y002702D01*
X016975Y002700D01*
X016945Y002695D01*
X016916Y002686D01*
X016888Y002673D01*
X016862Y002657D01*
X016839Y002639D01*
X016817Y002617D01*
X016799Y002593D01*
X016783Y002567D01*
X016771Y002539D01*
X016762Y002511D01*
X016757Y002481D01*
X016755Y002450D01*
X016761Y001489D01*
X016711Y001489D01*
X016231Y001470D02*
X015761Y001470D01*
X015761Y001439D02*
X015761Y001539D01*
X016211Y001539D01*
X016211Y001879D01*
X016199Y001956D01*
X016175Y002031D01*
X016139Y002101D01*
X016093Y002165D01*
X016037Y002221D01*
X015973Y002267D01*
X015903Y002303D01*
X015828Y002327D01*
X015761Y002338D01*
X015761Y001539D01*
X015661Y001539D01*
X015661Y001439D01*
X015761Y001439D01*
X015761Y000641D01*
X015828Y000652D01*
X015903Y000676D01*
X015973Y000712D01*
X016037Y000758D01*
X016093Y000814D01*
X016139Y000877D01*
X016175Y000947D01*
X016199Y001022D01*
X016211Y001100D01*
X016211Y001439D01*
X015761Y001439D01*
X015761Y001371D02*
X015661Y001371D01*
X015661Y001439D02*
X015661Y000641D01*
X015594Y000652D01*
X015519Y000676D01*
X015449Y000712D01*
X015386Y000758D01*
X015330Y000814D01*
X015284Y000877D01*
X015248Y000947D01*
X015224Y001022D01*
X015211Y001100D01*
X015211Y001439D01*
X015661Y001439D01*
X015661Y001470D02*
X015191Y001470D01*
X015211Y001539D02*
X015661Y001539D01*
X015661Y002338D01*
X015594Y002327D01*
X015519Y002303D01*
X015449Y002267D01*
X015386Y002221D01*
X015330Y002165D01*
X015284Y002101D01*
X015248Y002031D01*
X015224Y001956D01*
X015211Y001879D01*
X015211Y001539D01*
X015211Y001568D02*
X015191Y001568D01*
X015191Y001667D02*
X015211Y001667D01*
X015211Y001765D02*
X015191Y001765D01*
X015191Y001864D02*
X015211Y001864D01*
X015225Y001962D02*
X015180Y001962D01*
X015139Y002061D02*
X015263Y002061D01*
X015326Y002159D02*
X015070Y002159D01*
X014955Y002258D02*
X015437Y002258D01*
X015661Y002258D02*
X015761Y002258D01*
X015761Y002159D02*
X015661Y002159D01*
X015661Y002061D02*
X015761Y002061D01*
X015761Y001962D02*
X015661Y001962D01*
X015661Y001864D02*
X015761Y001864D01*
X015761Y001765D02*
X015661Y001765D01*
X015661Y001667D02*
X015761Y001667D01*
X015761Y001568D02*
X015661Y001568D01*
X015661Y001273D02*
X015761Y001273D01*
X015761Y001174D02*
X015661Y001174D01*
X015661Y001076D02*
X015761Y001076D01*
X015761Y000977D02*
X015661Y000977D01*
X015661Y000879D02*
X015761Y000879D01*
X015761Y000780D02*
X015661Y000780D01*
X015661Y000682D02*
X015761Y000682D01*
X015915Y000682D02*
X016561Y000682D01*
X016391Y000780D02*
X016059Y000780D01*
X016140Y000879D02*
X016300Y000879D01*
X016259Y000977D02*
X016184Y000977D01*
X016207Y001076D02*
X016231Y001076D01*
X016231Y001174D02*
X016211Y001174D01*
X016211Y001273D02*
X016231Y001273D01*
X016231Y001371D02*
X016211Y001371D01*
X016211Y001568D02*
X016231Y001568D01*
X016231Y001667D02*
X016211Y001667D01*
X016211Y001765D02*
X016231Y001765D01*
X016231Y001864D02*
X016211Y001864D01*
X016197Y001962D02*
X016243Y001962D01*
X016283Y002061D02*
X016160Y002061D01*
X016097Y002159D02*
X016352Y002159D01*
X016467Y002258D02*
X015986Y002258D01*
X016936Y002356D02*
X018101Y002356D01*
X018101Y002258D02*
X016955Y002258D01*
X016935Y002455D02*
X018176Y002455D01*
X018946Y002455D02*
X020176Y002455D01*
X020101Y002356D02*
X019021Y002356D01*
X019021Y002258D02*
X020101Y002258D01*
X020531Y002061D02*
X020591Y002061D01*
X020591Y001962D02*
X020531Y001962D01*
X020531Y001864D02*
X020591Y001864D01*
X020591Y001765D02*
X020531Y001765D01*
X020788Y001765D02*
X022187Y001765D01*
X022226Y001864D02*
X020886Y001864D01*
X020985Y001962D02*
X022286Y001962D01*
X022393Y002061D02*
X021021Y002061D01*
X021021Y002258D02*
X026216Y002258D01*
X026216Y002356D02*
X021021Y002356D01*
X020946Y002455D02*
X026271Y002455D01*
X026370Y002553D02*
X024257Y002553D01*
X024393Y002609D02*
X024393Y002609D01*
X024435Y002652D02*
X026468Y002652D01*
X027096Y002258D02*
X028754Y002258D01*
X028754Y002159D02*
X027096Y002159D01*
X027096Y002061D02*
X028779Y002061D01*
X028820Y001962D02*
X027023Y001962D01*
X026925Y001864D02*
X028915Y001864D01*
X028999Y001667D02*
X026856Y001667D01*
X026955Y001568D02*
X028901Y001568D01*
X028802Y001470D02*
X027053Y001470D01*
X027116Y001371D02*
X028734Y001371D01*
X028734Y001273D02*
X027116Y001273D01*
X027116Y001187D02*
X026686Y001187D01*
X026686Y000757D01*
X026846Y000757D01*
X027116Y001026D01*
X027116Y001187D01*
X027116Y001174D02*
X028734Y001174D01*
X028734Y001076D02*
X027116Y001076D01*
X027067Y000977D02*
X028773Y000977D01*
X028872Y000879D02*
X026968Y000879D01*
X026870Y000780D02*
X028970Y000780D01*
X026686Y000780D02*
X026626Y000780D01*
X026626Y000879D02*
X026686Y000879D01*
X026686Y000977D02*
X026626Y000977D01*
X026626Y001076D02*
X026686Y001076D01*
X026686Y001174D02*
X026626Y001174D01*
X026626Y001273D02*
X026686Y001273D01*
X026686Y001371D02*
X026626Y001371D01*
X026626Y001470D02*
X026686Y001470D01*
X026686Y001568D02*
X026626Y001568D01*
X026626Y001667D02*
X026686Y001667D01*
X026387Y001864D02*
X024928Y001864D01*
X024868Y001962D02*
X026288Y001962D01*
X032141Y001129D02*
X033382Y001129D01*
X037843Y000485D02*
X014564Y000485D01*
X014593Y000497D02*
X014593Y000497D01*
X014679Y000583D02*
X037906Y000583D01*
X034787Y005016D02*
X034717Y005016D01*
X034206Y005016D02*
X033717Y005016D01*
X033815Y005114D02*
X034107Y005114D01*
X034009Y005213D02*
X033914Y005213D01*
X033941Y005311D02*
X033981Y005311D01*
X033981Y005410D02*
X033941Y005410D01*
X033941Y005508D02*
X033981Y005508D01*
X033981Y005607D02*
X033941Y005607D01*
X033874Y005705D02*
X034048Y005705D01*
X034147Y005804D02*
X033776Y005804D01*
X033677Y005902D02*
X034245Y005902D01*
X034221Y006001D02*
X033702Y006001D01*
X033800Y006099D02*
X034122Y006099D01*
X034024Y006198D02*
X033899Y006198D01*
X033941Y006296D02*
X033981Y006296D01*
X034238Y006439D02*
X034461Y006439D01*
X034238Y006439D02*
X034238Y008534D01*
X034239Y008534D02*
X034237Y008573D01*
X034231Y008611D01*
X034222Y008648D01*
X034209Y008685D01*
X034192Y008720D01*
X034173Y008753D01*
X034150Y008784D01*
X034124Y008813D01*
X034095Y008839D01*
X034064Y008862D01*
X034031Y008881D01*
X033996Y008898D01*
X033959Y008911D01*
X033922Y008920D01*
X033884Y008926D01*
X033845Y008928D01*
X034787Y009153D02*
X025841Y009153D01*
X025841Y009251D02*
X026203Y009251D01*
X026075Y009350D02*
X025841Y009350D01*
X025841Y009448D02*
X026018Y009448D01*
X025981Y009547D02*
X025857Y009547D01*
X026161Y009628D02*
X026161Y010139D01*
X026159Y010169D01*
X026154Y010199D01*
X026145Y010228D01*
X026132Y010255D01*
X026117Y010281D01*
X026098Y010305D01*
X026077Y010326D01*
X026053Y010345D01*
X026027Y010360D01*
X026000Y010373D01*
X025971Y010382D01*
X025941Y010387D01*
X025911Y010389D01*
X022411Y010389D01*
X022381Y010387D01*
X022351Y010382D01*
X022322Y010373D01*
X022295Y010360D01*
X022269Y010345D01*
X022245Y010326D01*
X022224Y010305D01*
X022205Y010281D01*
X022190Y010255D01*
X022177Y010228D01*
X022168Y010199D01*
X022163Y010169D01*
X022161Y010139D01*
X018661Y009939D02*
X018661Y010780D01*
X026661Y010780D01*
X026661Y009939D01*
X027099Y009941D02*
X029533Y009941D01*
X029590Y009941D02*
X030124Y009941D01*
X030129Y010039D02*
X030019Y010039D01*
X030019Y010138D02*
X030170Y010138D01*
X030240Y010236D02*
X030019Y010236D01*
X029991Y010335D02*
X030373Y010335D01*
X030750Y010335D02*
X031373Y010335D01*
X031240Y010236D02*
X030883Y010236D01*
X030953Y010138D02*
X031170Y010138D01*
X031129Y010039D02*
X030993Y010039D01*
X030999Y009941D02*
X031124Y009941D01*
X031128Y009842D02*
X030995Y009842D01*
X030954Y009744D02*
X031169Y009744D01*
X031237Y009645D02*
X030886Y009645D01*
X030237Y009645D02*
X030019Y009645D01*
X030019Y009744D02*
X030169Y009744D01*
X030128Y009842D02*
X030019Y009842D01*
X029590Y010039D02*
X029533Y010039D01*
X029533Y010138D02*
X029590Y010138D01*
X029590Y010236D02*
X029533Y010236D01*
X029533Y010335D02*
X029590Y010335D01*
X029131Y010335D02*
X026850Y010335D01*
X026841Y010433D02*
X034780Y010433D01*
X034787Y010335D02*
X034750Y010335D01*
X034967Y010386D02*
X034965Y010425D01*
X034959Y010463D01*
X034950Y010500D01*
X034937Y010537D01*
X034920Y010572D01*
X034901Y010605D01*
X034878Y010636D01*
X034852Y010665D01*
X034823Y010691D01*
X034792Y010714D01*
X034759Y010733D01*
X034724Y010750D01*
X034687Y010763D01*
X034650Y010772D01*
X034612Y010778D01*
X034573Y010780D01*
X026661Y010780D01*
X026481Y010532D02*
X026091Y010532D01*
X026226Y010454D02*
X026226Y010454D01*
X026238Y010433D02*
X026481Y010433D01*
X026473Y010335D02*
X026295Y010335D01*
X026841Y010532D02*
X034724Y010532D01*
X035042Y010729D02*
X036227Y010729D01*
X036129Y010630D02*
X035093Y010630D01*
X035134Y010532D02*
X036046Y010532D01*
X036374Y010827D02*
X034943Y010827D01*
X034898Y010873D02*
X034898Y010873D01*
X034769Y010926D02*
X037927Y010926D01*
X037931Y010827D02*
X037148Y010827D01*
X037295Y010729D02*
X037931Y010729D01*
X037931Y010630D02*
X037394Y010630D01*
X037476Y010532D02*
X037931Y010532D01*
X037931Y010433D02*
X037517Y010433D01*
X037558Y010335D02*
X037931Y010335D01*
X037931Y010236D02*
X037591Y010236D01*
X037591Y010138D02*
X037931Y010138D01*
X037931Y010039D02*
X037591Y010039D01*
X037591Y009941D02*
X037931Y009941D01*
X037931Y009842D02*
X037557Y009842D01*
X037516Y009744D02*
X037931Y009744D01*
X037931Y009645D02*
X037476Y009645D01*
X037392Y009547D02*
X037931Y009547D01*
X037931Y009448D02*
X037294Y009448D01*
X037145Y009350D02*
X037931Y009350D01*
X034787Y009350D02*
X032647Y009350D01*
X032626Y009313D02*
X032626Y009313D01*
X032626Y009313D01*
X032520Y009251D02*
X034787Y009251D01*
X034787Y009448D02*
X032704Y009448D01*
X032757Y009547D02*
X033366Y009547D01*
X033313Y009568D02*
X033474Y009502D01*
X033648Y009502D01*
X033809Y009568D01*
X033932Y009692D01*
X033999Y009852D01*
X033999Y010026D01*
X033932Y010187D01*
X033809Y010310D01*
X033648Y010377D01*
X033474Y010377D01*
X033313Y010310D01*
X033190Y010187D01*
X033124Y010026D01*
X033124Y009852D01*
X033190Y009692D01*
X033313Y009568D01*
X033237Y009645D02*
X032886Y009645D01*
X032954Y009744D02*
X033169Y009744D01*
X033128Y009842D02*
X032995Y009842D01*
X032999Y009941D02*
X033124Y009941D01*
X033129Y010039D02*
X032993Y010039D01*
X032953Y010138D02*
X033170Y010138D01*
X033240Y010236D02*
X032883Y010236D01*
X032750Y010335D02*
X033373Y010335D01*
X033750Y010335D02*
X034373Y010335D01*
X034240Y010236D02*
X033883Y010236D01*
X033953Y010138D02*
X034170Y010138D01*
X034129Y010039D02*
X033993Y010039D01*
X033999Y009941D02*
X034124Y009941D01*
X034128Y009842D02*
X033995Y009842D01*
X033954Y009744D02*
X034169Y009744D01*
X034237Y009645D02*
X033886Y009645D01*
X033757Y009547D02*
X034366Y009547D01*
X034757Y009547D02*
X034787Y009547D01*
X032561Y009628D02*
X032561Y009939D01*
X032124Y009941D02*
X031999Y009941D01*
X031993Y010039D02*
X032129Y010039D01*
X032170Y010138D02*
X031953Y010138D01*
X031883Y010236D02*
X032240Y010236D01*
X032373Y010335D02*
X031750Y010335D01*
X031995Y009842D02*
X032128Y009842D01*
X032169Y009744D02*
X031954Y009744D01*
X031886Y009645D02*
X032237Y009645D01*
X032311Y009378D02*
X032341Y009380D01*
X032371Y009385D01*
X032400Y009394D01*
X032427Y009407D01*
X032453Y009422D01*
X032477Y009441D01*
X032498Y009462D01*
X032517Y009486D01*
X032532Y009512D01*
X032545Y009539D01*
X032554Y009568D01*
X032559Y009598D01*
X032561Y009628D01*
X032311Y009378D02*
X026411Y009378D01*
X026411Y009558D02*
X026393Y009560D01*
X026362Y009578D01*
X026344Y009609D01*
X026341Y009628D01*
X026341Y009641D01*
X026413Y009568D01*
X026440Y009558D01*
X026411Y009558D01*
X026411Y009378D02*
X026381Y009380D01*
X026351Y009385D01*
X026322Y009394D01*
X026295Y009407D01*
X026269Y009422D01*
X026245Y009441D01*
X026224Y009462D01*
X026205Y009486D01*
X026190Y009512D01*
X026177Y009539D01*
X026168Y009568D01*
X026163Y009598D01*
X026161Y009628D01*
X026986Y009645D02*
X029104Y009645D01*
X029104Y009744D02*
X027054Y009744D01*
X027095Y009842D02*
X029104Y009842D01*
X029104Y010039D02*
X027093Y010039D01*
X027053Y010138D02*
X029104Y010138D01*
X029104Y010236D02*
X026983Y010236D01*
X018661Y010780D02*
X011105Y010780D01*
X007289Y010630D02*
X003533Y010630D01*
X003615Y010532D02*
X007144Y010532D01*
X007157Y010554D02*
X007157Y010554D01*
X007157Y010554D01*
X007087Y010433D02*
X003656Y010433D01*
X003696Y010335D02*
X005281Y010335D01*
X005254Y010236D02*
X003730Y010236D01*
X003730Y010138D02*
X005254Y010138D01*
X005254Y010039D02*
X003730Y010039D01*
X005683Y010039D02*
X005740Y010039D01*
X005740Y010138D02*
X005683Y010138D01*
X005683Y010236D02*
X005740Y010236D01*
X005740Y010335D02*
X005683Y010335D01*
X005740Y009911D02*
X006169Y009911D01*
X006169Y009612D01*
X006159Y009574D01*
X006139Y009540D01*
X006111Y009512D01*
X006077Y009492D01*
X006038Y009482D01*
X005740Y009482D01*
X005740Y009911D01*
X005740Y009842D02*
X005683Y009842D01*
X005683Y009744D02*
X005740Y009744D01*
X005740Y009645D02*
X005683Y009645D01*
X005683Y009547D02*
X005740Y009547D01*
X006143Y009547D02*
X006516Y009547D01*
X006387Y009645D02*
X006169Y009645D01*
X006169Y009744D02*
X006319Y009744D01*
X006278Y009842D02*
X006169Y009842D01*
X007042Y009350D02*
X003283Y009350D01*
X004231Y009054D02*
X007042Y009054D01*
X008449Y008710D02*
X008449Y003248D01*
X008630Y003243D02*
X013493Y003243D01*
X013477Y003341D02*
X008629Y003341D01*
X008629Y003440D02*
X012911Y003440D01*
X013112Y003440D02*
X013495Y003440D01*
X013557Y003538D02*
X013317Y003538D01*
X012705Y003538D02*
X008629Y003538D01*
X008629Y003637D02*
X012607Y003637D01*
X012555Y003735D02*
X008629Y003735D01*
X008629Y003834D02*
X012514Y003834D01*
X012511Y003932D02*
X011527Y003932D01*
X011625Y004031D02*
X012511Y004031D01*
X012549Y004129D02*
X011724Y004129D01*
X011751Y004228D02*
X012593Y004228D01*
X012691Y004326D02*
X011751Y004326D01*
X011311Y004339D02*
X011311Y004515D01*
X011313Y004545D01*
X011318Y004575D01*
X011327Y004604D01*
X011340Y004631D01*
X011355Y004657D01*
X011374Y004681D01*
X011395Y004702D01*
X011419Y004721D01*
X011445Y004736D01*
X011472Y004749D01*
X011501Y004758D01*
X011531Y004763D01*
X011561Y004765D01*
X011070Y004720D02*
X008629Y004720D01*
X008629Y004622D02*
X010972Y004622D01*
X010873Y004523D02*
X008629Y004523D01*
X008629Y004425D02*
X010871Y004425D01*
X010871Y004326D02*
X008629Y004326D01*
X008629Y004228D02*
X010871Y004228D01*
X010899Y004129D02*
X008629Y004129D01*
X008629Y004031D02*
X010997Y004031D01*
X011096Y003932D02*
X008629Y003932D01*
X007784Y003932D02*
X007527Y003932D01*
X007625Y004031D02*
X007784Y004031D01*
X007784Y004129D02*
X007724Y004129D01*
X007751Y004228D02*
X007784Y004228D01*
X007784Y004326D02*
X007751Y004326D01*
X007751Y004425D02*
X007784Y004425D01*
X007784Y004523D02*
X007750Y004523D01*
X007784Y004622D02*
X007651Y004622D01*
X007553Y004720D02*
X007784Y004720D01*
X007784Y004819D02*
X004543Y004819D01*
X004470Y004917D02*
X007784Y004917D01*
X007784Y005016D02*
X006002Y005016D01*
X005933Y004987D02*
X006102Y005057D01*
X006231Y005187D01*
X006266Y005270D01*
X007126Y005270D01*
X007326Y005385D01*
X007326Y005385D01*
X007326Y005385D01*
X007392Y005499D01*
X007494Y005499D01*
X007751Y005757D01*
X007751Y006122D01*
X007494Y006379D01*
X007129Y006379D01*
X006871Y006122D01*
X006871Y005757D01*
X006998Y005630D01*
X006263Y005630D01*
X006231Y005708D01*
X006102Y005837D01*
X005933Y005907D01*
X005750Y005907D01*
X005581Y005837D01*
X005459Y005716D01*
X005427Y005760D01*
X005374Y005813D01*
X005313Y005858D01*
X005246Y005892D01*
X005174Y005915D01*
X005101Y005927D01*
X005101Y005487D01*
X005021Y005487D01*
X005021Y005407D01*
X004582Y005407D01*
X004593Y005335D01*
X004616Y005263D01*
X004651Y005196D01*
X004695Y005135D01*
X004749Y005081D01*
X004810Y005037D01*
X004877Y005002D01*
X004949Y004979D01*
X005021Y004968D01*
X005021Y005407D01*
X005101Y005407D01*
X005101Y004968D01*
X005174Y004979D01*
X005246Y005002D01*
X005313Y005037D01*
X005374Y005081D01*
X005427Y005135D01*
X005459Y005179D01*
X005581Y005057D01*
X005750Y004987D01*
X005933Y004987D01*
X005681Y005016D02*
X005272Y005016D01*
X005407Y005114D02*
X005524Y005114D01*
X005101Y005114D02*
X005021Y005114D01*
X005021Y005016D02*
X005101Y005016D01*
X004851Y005016D02*
X004452Y005016D01*
X004452Y005114D02*
X004715Y005114D01*
X004642Y005213D02*
X004452Y005213D01*
X004452Y005311D02*
X004601Y005311D01*
X004452Y005410D02*
X005021Y005410D01*
X005021Y005487D02*
X004582Y005487D01*
X004593Y005560D01*
X004616Y005631D01*
X004651Y005699D01*
X004695Y005760D01*
X004749Y005813D01*
X004810Y005858D01*
X004877Y005892D01*
X004949Y005915D01*
X005021Y005927D01*
X005021Y005487D01*
X005021Y005508D02*
X005101Y005508D01*
X005101Y005607D02*
X005021Y005607D01*
X005021Y005705D02*
X005101Y005705D01*
X005101Y005804D02*
X005021Y005804D01*
X005021Y005902D02*
X005101Y005902D01*
X005214Y005902D02*
X005738Y005902D01*
X005679Y006001D02*
X005224Y006001D01*
X005380Y006099D02*
X005523Y006099D01*
X005944Y005902D02*
X006871Y005902D01*
X006871Y005804D02*
X006135Y005804D01*
X006232Y005705D02*
X006923Y005705D01*
X007011Y005450D02*
X007041Y005452D01*
X007071Y005457D01*
X007100Y005466D01*
X007127Y005479D01*
X007153Y005494D01*
X007177Y005513D01*
X007198Y005534D01*
X007217Y005558D01*
X007232Y005584D01*
X007245Y005611D01*
X007254Y005640D01*
X007259Y005670D01*
X007261Y005700D01*
X007261Y005889D01*
X007311Y005939D01*
X007751Y005902D02*
X007784Y005902D01*
X007784Y005804D02*
X007751Y005804D01*
X007784Y005705D02*
X007700Y005705D01*
X007784Y005607D02*
X007601Y005607D01*
X007503Y005508D02*
X007784Y005508D01*
X007784Y005410D02*
X007340Y005410D01*
X007198Y005311D02*
X007784Y005311D01*
X007784Y005213D02*
X006242Y005213D01*
X006159Y005114D02*
X007784Y005114D01*
X007011Y005450D02*
X005861Y005450D01*
X005841Y005447D01*
X005101Y005311D02*
X005021Y005311D01*
X005021Y005213D02*
X005101Y005213D01*
X004666Y004599D02*
X004627Y004601D01*
X004589Y004607D01*
X004552Y004616D01*
X004515Y004629D01*
X004480Y004646D01*
X004447Y004665D01*
X004416Y004688D01*
X004387Y004714D01*
X004361Y004743D01*
X004338Y004774D01*
X004319Y004807D01*
X004302Y004842D01*
X004289Y004879D01*
X004280Y004916D01*
X004274Y004954D01*
X004272Y004993D01*
X004272Y006181D01*
X004452Y006099D02*
X004743Y006099D01*
X004899Y006001D02*
X004452Y006001D01*
X004452Y005902D02*
X004909Y005902D01*
X004739Y005804D02*
X004452Y005804D01*
X004452Y005705D02*
X004655Y005705D01*
X004608Y005607D02*
X004452Y005607D01*
X004452Y005508D02*
X004585Y005508D01*
X005383Y005804D02*
X005547Y005804D01*
X006004Y006001D02*
X006871Y006001D01*
X006871Y006099D02*
X006160Y006099D01*
X006242Y006198D02*
X006948Y006198D01*
X007046Y006296D02*
X006283Y006296D01*
X005451Y006692D02*
X005451Y006692D01*
X005451Y006692D01*
X005354Y006789D02*
X005548Y006789D01*
X005681Y006887D02*
X005163Y006887D01*
X007577Y007183D02*
X007784Y007183D01*
X007784Y007281D02*
X007676Y007281D01*
X007751Y007380D02*
X007784Y007380D01*
X007784Y007478D02*
X007751Y007478D01*
X007784Y007872D02*
X007600Y007872D01*
X007964Y007892D02*
X007964Y000983D01*
X007784Y000977D02*
X003623Y000977D01*
X003688Y001076D02*
X007784Y001076D01*
X007784Y001174D02*
X003729Y001174D01*
X003770Y001273D02*
X007784Y001273D01*
X007784Y001371D02*
X003791Y001371D01*
X003791Y001470D02*
X007784Y001470D01*
X007784Y001568D02*
X003791Y001568D01*
X003786Y001667D02*
X007784Y001667D01*
X007784Y001765D02*
X003745Y001765D01*
X003704Y001864D02*
X007784Y001864D01*
X007784Y001962D02*
X003662Y001962D01*
X003563Y002061D02*
X007784Y002061D01*
X007784Y002159D02*
X003465Y002159D01*
X004290Y002849D02*
X007784Y002849D01*
X007784Y002947D02*
X004472Y002947D01*
X004571Y003046D02*
X007784Y003046D01*
X007784Y003144D02*
X004659Y003144D01*
X004700Y003243D02*
X007784Y003243D01*
X007784Y003341D02*
X004741Y003341D01*
X004771Y003440D02*
X007784Y003440D01*
X007784Y003538D02*
X004771Y003538D01*
X004771Y003637D02*
X007784Y003637D01*
X007784Y003735D02*
X004767Y003735D01*
X004726Y003834D02*
X007784Y003834D01*
X007096Y003932D02*
X004685Y003932D01*
X004633Y004031D02*
X006997Y004031D01*
X006899Y004129D02*
X004534Y004129D01*
X004436Y004228D02*
X006871Y004228D01*
X006871Y004326D02*
X004202Y004326D01*
X004666Y004599D02*
X007261Y004599D01*
X007311Y004339D01*
X008449Y003248D02*
X008451Y003218D01*
X008456Y003188D01*
X008465Y003159D01*
X008478Y003132D01*
X008493Y003106D01*
X008512Y003082D01*
X008533Y003061D01*
X008557Y003042D01*
X008583Y003027D01*
X008610Y003014D01*
X008639Y003005D01*
X008669Y003000D01*
X008699Y002998D01*
X008144Y002652D02*
X009481Y002652D01*
X009481Y002553D02*
X008144Y002553D01*
X008144Y002455D02*
X009481Y002455D01*
X009481Y002356D02*
X008144Y002356D01*
X008144Y002258D02*
X008467Y002258D01*
X008352Y002159D02*
X008144Y002159D01*
X008144Y002061D02*
X008283Y002061D01*
X008243Y001962D02*
X008144Y001962D01*
X008144Y001864D02*
X008231Y001864D01*
X008231Y001765D02*
X008144Y001765D01*
X008144Y001667D02*
X008231Y001667D01*
X008231Y001568D02*
X008144Y001568D01*
X008144Y001470D02*
X008231Y001470D01*
X008231Y001371D02*
X008144Y001371D01*
X008144Y001273D02*
X008231Y001273D01*
X008231Y001174D02*
X008144Y001174D01*
X008144Y001076D02*
X008231Y001076D01*
X008259Y000977D02*
X008145Y000977D01*
X008174Y000879D02*
X008300Y000879D01*
X008300Y000780D02*
X008391Y000780D01*
X008358Y000589D02*
X014268Y000589D01*
X014754Y000658D02*
X014754Y000658D01*
X014861Y000682D02*
X015508Y000682D01*
X015363Y000780D02*
X015031Y000780D01*
X015123Y000879D02*
X015283Y000879D01*
X015238Y000977D02*
X015164Y000977D01*
X015191Y001076D02*
X015215Y001076D01*
X015211Y001174D02*
X015191Y001174D01*
X015191Y001273D02*
X015211Y001273D01*
X015211Y001371D02*
X015191Y001371D01*
X014231Y001371D02*
X014191Y001371D01*
X014191Y001273D02*
X014231Y001273D01*
X014231Y001174D02*
X014191Y001174D01*
X014191Y001076D02*
X014231Y001076D01*
X013761Y001489D02*
X013711Y001489D01*
X013761Y001489D02*
X013766Y003339D01*
X014358Y003539D02*
X014358Y004640D01*
X014538Y004622D02*
X014831Y004622D01*
X014831Y004720D02*
X014538Y004720D01*
X014538Y004722D02*
X014465Y004849D01*
X014831Y004849D01*
X014831Y004406D01*
X014728Y004363D01*
X014587Y004223D01*
X014538Y004104D01*
X014538Y004722D01*
X014482Y004819D02*
X014831Y004819D01*
X014831Y004523D02*
X014538Y004523D01*
X014538Y004425D02*
X014831Y004425D01*
X014691Y004326D02*
X014538Y004326D01*
X014538Y004228D02*
X014593Y004228D01*
X014549Y004129D02*
X014538Y004129D01*
X014538Y003538D02*
X014705Y003538D01*
X012467Y002258D02*
X011955Y002258D01*
X012070Y002159D02*
X012352Y002159D01*
X012283Y002061D02*
X012139Y002061D01*
X012180Y001962D02*
X012243Y001962D01*
X012231Y001864D02*
X012191Y001864D01*
X012191Y001765D02*
X012231Y001765D01*
X012231Y001667D02*
X012191Y001667D01*
X012191Y001568D02*
X012231Y001568D01*
X012231Y001470D02*
X012191Y001470D01*
X012191Y001371D02*
X012231Y001371D01*
X012231Y001273D02*
X012191Y001273D01*
X012191Y001174D02*
X012231Y001174D01*
X012231Y001076D02*
X012191Y001076D01*
X012164Y000977D02*
X012259Y000977D01*
X012300Y000879D02*
X012123Y000879D01*
X012031Y000780D02*
X012391Y000780D01*
X011391Y000780D02*
X011031Y000780D01*
X011123Y000879D02*
X011300Y000879D01*
X011259Y000977D02*
X011164Y000977D01*
X011191Y001076D02*
X011231Y001076D01*
X011231Y001174D02*
X011191Y001174D01*
X011191Y001273D02*
X011231Y001273D01*
X011231Y001371D02*
X011191Y001371D01*
X011191Y001470D02*
X011231Y001470D01*
X011231Y001568D02*
X011191Y001568D01*
X011191Y001667D02*
X011231Y001667D01*
X011231Y001765D02*
X011191Y001765D01*
X011191Y001864D02*
X011231Y001864D01*
X011243Y001962D02*
X011180Y001962D01*
X011139Y002061D02*
X011283Y002061D01*
X011352Y002159D02*
X011070Y002159D01*
X010955Y002258D02*
X011467Y002258D01*
X010467Y002258D02*
X009955Y002258D01*
X010070Y002159D02*
X010352Y002159D01*
X010283Y002061D02*
X010139Y002061D01*
X010180Y001962D02*
X010243Y001962D01*
X010231Y001864D02*
X010191Y001864D01*
X010191Y001765D02*
X010231Y001765D01*
X010231Y001667D02*
X010191Y001667D01*
X010191Y001568D02*
X010231Y001568D01*
X010231Y001470D02*
X010191Y001470D01*
X010191Y001371D02*
X010231Y001371D01*
X010231Y001273D02*
X010191Y001273D01*
X010191Y001174D02*
X010231Y001174D01*
X010231Y001076D02*
X010191Y001076D01*
X010164Y000977D02*
X010259Y000977D01*
X010300Y000879D02*
X010123Y000879D01*
X010031Y000780D02*
X010391Y000780D01*
X009391Y000780D02*
X009031Y000780D01*
X009123Y000879D02*
X009300Y000879D01*
X009259Y000977D02*
X009164Y000977D01*
X009191Y001076D02*
X009231Y001076D01*
X009231Y001174D02*
X009191Y001174D01*
X009191Y001273D02*
X009231Y001273D01*
X009231Y001371D02*
X009191Y001371D01*
X009191Y001470D02*
X009231Y001470D01*
X009231Y001568D02*
X009191Y001568D01*
X009191Y001667D02*
X009231Y001667D01*
X009231Y001765D02*
X009191Y001765D01*
X009191Y001864D02*
X009231Y001864D01*
X009243Y001962D02*
X009180Y001962D01*
X009139Y002061D02*
X009283Y002061D01*
X009352Y002159D02*
X009070Y002159D01*
X008955Y002258D02*
X009467Y002258D01*
X009661Y002748D02*
X009661Y001489D01*
X009711Y001489D01*
X008358Y000589D02*
X008319Y000591D01*
X008281Y000597D01*
X008244Y000606D01*
X008207Y000619D01*
X008172Y000636D01*
X008139Y000655D01*
X008108Y000678D01*
X008079Y000704D01*
X008053Y000733D01*
X008030Y000764D01*
X008011Y000797D01*
X007994Y000832D01*
X007981Y000869D01*
X007972Y000906D01*
X007966Y000944D01*
X007964Y000983D01*
X007784Y000879D02*
X003524Y000879D01*
X003418Y000780D02*
X007821Y000780D01*
X007862Y000682D02*
X003180Y000682D01*
X007872Y000658D02*
X007872Y000658D01*
X019356Y003932D02*
X019567Y003932D01*
X019526Y004031D02*
X019397Y004031D01*
X019401Y004129D02*
X019521Y004129D01*
X019521Y004228D02*
X019401Y004228D01*
X019401Y004326D02*
X019521Y004326D01*
X018336Y006017D02*
X018356Y006019D01*
X018375Y006023D01*
X018393Y006031D01*
X018409Y006041D01*
X018424Y006054D01*
X018437Y006069D01*
X018447Y006085D01*
X018455Y006103D01*
X018459Y006122D01*
X018461Y006142D01*
X018281Y008069D02*
X018263Y008069D01*
X018281Y008168D02*
X018141Y008168D01*
X018141Y008266D02*
X018281Y008266D01*
X018641Y008069D02*
X018659Y008069D01*
X011181Y009547D02*
X010907Y009547D01*
X011036Y009645D02*
X011181Y009645D01*
X007472Y008142D02*
X007442Y008144D01*
X007412Y008149D01*
X007383Y008158D01*
X007356Y008171D01*
X007330Y008186D01*
X007306Y008205D01*
X007285Y008226D01*
X007266Y008250D01*
X007251Y008276D01*
X007238Y008303D01*
X007229Y008332D01*
X007224Y008362D01*
X007222Y008392D01*
X007576Y006296D02*
X007784Y006296D01*
X007784Y006198D02*
X007675Y006198D01*
X007751Y006099D02*
X007784Y006099D01*
X007784Y006001D02*
X007751Y006001D01*
X001800Y011024D02*
X037892Y011024D01*
X037810Y011123D02*
X001883Y011123D01*
X001596Y011410D02*
X001503Y011317D01*
X001502Y011410D01*
X001596Y011410D01*
X001506Y011320D02*
X001503Y011320D01*
X032411Y005114D02*
X032511Y005114D01*
X032511Y005016D02*
X032411Y005016D01*
X032745Y005016D02*
X033206Y005016D01*
X033107Y005114D02*
X032843Y005114D01*
X032942Y005213D02*
X033009Y005213D01*
X032981Y005311D02*
X032961Y005311D01*
X034776Y005804D02*
X034787Y005804D01*
X034787Y005902D02*
X034677Y005902D01*
X034702Y006001D02*
X034787Y006001D01*
X034787Y006887D02*
X034692Y006887D01*
X038195Y011312D02*
X038136Y011371D01*
X038195Y011370D01*
X038195Y011312D01*
X038195Y011320D02*
X038187Y011320D01*
D25*
X024160Y009520D03*
X019081Y009520D03*
X017153Y006017D03*
X015798Y005556D03*
X009361Y005029D03*
X013766Y003339D03*
X018061Y003289D03*
X033382Y001129D03*
M02*
