G75*
%MOIN*%
%OFA0B0*%
%FSLAX24Y24*%
%IPPOS*%
%LPD*%
%AMOC8*
5,1,8,0,0,1.08239X$1,22.5*
%
%ADD10C,0.0080*%
%ADD11C,0.0060*%
D10*
X002720Y001820D02*
X002790Y001750D01*
X002720Y001820D02*
X002720Y001960D01*
X002790Y002030D01*
X002860Y002030D01*
X002930Y001960D01*
X002930Y001890D01*
X002930Y001960D02*
X003000Y002030D01*
X003070Y002030D01*
X003140Y001960D01*
X003140Y001820D01*
X003070Y001750D01*
X002790Y002210D02*
X002790Y002280D01*
X002720Y002280D01*
X002720Y002210D01*
X002790Y002210D01*
X002790Y002441D02*
X002720Y002511D01*
X002720Y002651D01*
X002790Y002721D01*
X002860Y002721D01*
X002930Y002651D01*
X002930Y002581D01*
X002930Y002651D02*
X003000Y002721D01*
X003070Y002721D01*
X003140Y002651D01*
X003140Y002511D01*
X003070Y002441D01*
X003140Y002901D02*
X002860Y002901D01*
X002720Y003041D01*
X002860Y003181D01*
X003140Y003181D01*
X004720Y003258D02*
X004720Y003048D01*
X004790Y002978D01*
X004860Y003048D01*
X004860Y003258D01*
X004930Y003258D02*
X004720Y003258D01*
X004930Y003258D02*
X005000Y003188D01*
X005000Y003048D01*
X005000Y002811D02*
X005000Y002671D01*
X005070Y002741D02*
X004790Y002741D01*
X004720Y002811D01*
X004720Y002491D02*
X004720Y002280D01*
X004790Y002210D01*
X004860Y002280D01*
X004860Y002491D01*
X004930Y002491D02*
X004720Y002491D01*
X004930Y002491D02*
X005000Y002421D01*
X005000Y002280D01*
X005070Y002030D02*
X004790Y002030D01*
X004720Y001960D01*
X004720Y001750D01*
X005140Y001750D01*
X005140Y001960D01*
X005070Y002030D01*
X007720Y001960D02*
X007720Y001820D01*
X007790Y001750D01*
X008070Y001750D01*
X008140Y001820D01*
X008140Y001960D01*
X008070Y002030D01*
X007930Y002030D02*
X007930Y001890D01*
X007930Y002030D02*
X007790Y002030D01*
X007720Y001960D01*
X007720Y002210D02*
X008000Y002210D01*
X008000Y002421D01*
X007930Y002491D01*
X007720Y002491D01*
X007790Y002671D02*
X007930Y002671D01*
X008000Y002741D01*
X008000Y002951D01*
X008140Y002951D02*
X007720Y002951D01*
X007720Y002741D01*
X007790Y002671D01*
D11*
X002680Y000410D02*
X002430Y000660D01*
X002430Y001160D01*
X002680Y001410D01*
X003180Y001410D01*
X003430Y001160D01*
X003430Y000660D01*
X003180Y000410D01*
X002680Y000410D01*
X003430Y000660D02*
X003680Y000410D01*
X004180Y000410D01*
X004430Y000660D01*
X004680Y000410D01*
X005180Y000410D01*
X005430Y000660D01*
X005680Y000410D01*
X006180Y000410D01*
X006430Y000660D01*
X006680Y000410D01*
X007180Y000410D01*
X007430Y000660D01*
X007680Y000410D01*
X008180Y000410D01*
X008430Y000660D01*
X008430Y001160D01*
X008180Y001410D01*
X007680Y001410D01*
X007430Y001160D01*
X007180Y001410D01*
X006680Y001410D01*
X006430Y001160D01*
X006430Y000660D01*
X006430Y001160D02*
X006180Y001410D01*
X005680Y001410D01*
X005430Y001160D01*
X005180Y001410D01*
X004680Y001410D01*
X004430Y001160D01*
X004180Y001410D01*
X003680Y001410D01*
X003430Y001160D01*
X004430Y001160D02*
X004430Y000660D01*
X005430Y000660D02*
X005430Y001160D01*
X007430Y001160D02*
X007430Y000660D01*
M02*
