G75*
%MOIN*%
%OFA0B0*%
%FSLAX24Y24*%
%IPPOS*%
%LPD*%
%AMOC8*
5,1,8,0,0,1.08239X$1,22.5*
%
%ADD10C,0.1266*%
%ADD11C,0.0600*%
%ADD12C,0.0160*%
D10*
X003805Y004435D03*
X005405Y004435D03*
X007005Y004435D03*
D11*
X006930Y001210D02*
X006930Y000610D01*
X005930Y000610D02*
X005930Y001210D01*
X004930Y001210D02*
X004930Y000610D01*
X003930Y000610D02*
X003930Y001210D01*
X002930Y001210D02*
X002930Y000610D01*
X007930Y000610D02*
X007930Y001210D01*
D12*
X000660Y001367D02*
X000660Y008410D01*
X000666Y008472D01*
X000714Y008588D01*
X000802Y008676D01*
X000918Y008724D01*
X000980Y008730D01*
X009880Y008730D01*
X009942Y008724D01*
X010058Y008676D01*
X010146Y008588D01*
X010194Y008472D01*
X010200Y008410D01*
X010200Y001367D01*
X010117Y001569D01*
X009889Y001797D01*
X009591Y001920D01*
X009269Y001920D01*
X008971Y001797D01*
X008743Y001569D01*
X008620Y001271D01*
X008620Y000949D01*
X008743Y000651D01*
X008971Y000423D01*
X009052Y000390D01*
X008357Y000390D01*
X008375Y000426D01*
X008398Y000498D01*
X008410Y000572D01*
X008410Y000890D01*
X007950Y000890D01*
X007950Y000930D01*
X008410Y000930D01*
X008410Y001248D01*
X008398Y001322D01*
X008375Y001394D01*
X008341Y001462D01*
X008296Y001523D01*
X008243Y001576D01*
X008182Y001621D01*
X008114Y001655D01*
X008042Y001678D01*
X007968Y001690D01*
X007950Y001690D01*
X007950Y000930D01*
X007910Y000930D01*
X007910Y001690D01*
X007892Y001690D01*
X007818Y001678D01*
X007746Y001655D01*
X007678Y001621D01*
X007617Y001576D01*
X007564Y001523D01*
X007519Y001462D01*
X007485Y001394D01*
X007462Y001322D01*
X007450Y001248D01*
X007450Y000930D01*
X007910Y000930D01*
X007910Y000890D01*
X007450Y000890D01*
X007450Y000572D01*
X007462Y000498D01*
X007485Y000426D01*
X007503Y000390D01*
X007337Y000390D01*
X007390Y000518D01*
X007390Y001301D01*
X007320Y001471D01*
X007191Y001600D01*
X007021Y001670D01*
X006838Y001670D01*
X006669Y001600D01*
X006540Y001471D01*
X006470Y001301D01*
X006470Y000518D01*
X006523Y000390D01*
X006337Y000390D01*
X006390Y000518D01*
X006390Y001301D01*
X006320Y001471D01*
X006191Y001600D01*
X006021Y001670D01*
X005838Y001670D01*
X005669Y001600D01*
X005540Y001471D01*
X005470Y001301D01*
X005470Y000518D01*
X005523Y000390D01*
X005337Y000390D01*
X005390Y000518D01*
X005390Y001301D01*
X005320Y001471D01*
X005191Y001600D01*
X005021Y001670D01*
X004838Y001670D01*
X004669Y001600D01*
X004540Y001471D01*
X004470Y001301D01*
X004470Y000518D01*
X004523Y000390D01*
X004337Y000390D01*
X004390Y000518D01*
X004390Y001301D01*
X004320Y001471D01*
X004191Y001600D01*
X004021Y001670D01*
X003838Y001670D01*
X003669Y001600D01*
X003540Y001471D01*
X003470Y001301D01*
X003470Y000518D01*
X003523Y000390D01*
X003337Y000390D01*
X003390Y000518D01*
X003390Y001301D01*
X003320Y001471D01*
X003191Y001600D01*
X003021Y001670D01*
X002838Y001670D01*
X002669Y001600D01*
X002540Y001471D01*
X002470Y001301D01*
X002470Y000518D01*
X002523Y000390D01*
X001808Y000390D01*
X001889Y000423D01*
X002117Y000651D01*
X002240Y000949D01*
X002240Y001271D01*
X002117Y001569D01*
X001889Y001797D01*
X001591Y001920D01*
X001269Y001920D01*
X000971Y001797D01*
X000743Y001569D01*
X000660Y001367D01*
X000660Y001478D02*
X000706Y001478D01*
X000660Y001637D02*
X000811Y001637D01*
X000660Y001795D02*
X000970Y001795D01*
X000660Y001954D02*
X010200Y001954D01*
X010200Y001795D02*
X009890Y001795D01*
X010049Y001637D02*
X010200Y001637D01*
X010200Y001478D02*
X010154Y001478D01*
X010200Y002112D02*
X000660Y002112D01*
X000660Y002271D02*
X010200Y002271D01*
X010200Y002429D02*
X000660Y002429D01*
X000660Y002588D02*
X010200Y002588D01*
X010200Y002746D02*
X000660Y002746D01*
X000660Y002905D02*
X010200Y002905D01*
X010200Y003063D02*
X000660Y003063D01*
X000660Y003222D02*
X010200Y003222D01*
X010200Y003380D02*
X000660Y003380D01*
X000660Y003539D02*
X010200Y003539D01*
X010200Y003697D02*
X007348Y003697D01*
X007366Y003704D02*
X007458Y003758D01*
X007542Y003823D01*
X007618Y003898D01*
X007683Y003983D01*
X007736Y004075D01*
X007777Y004173D01*
X007804Y004276D01*
X007815Y004355D01*
X007085Y004355D01*
X007085Y003626D01*
X007164Y003636D01*
X007267Y003664D01*
X007366Y003704D01*
X007575Y003856D02*
X010200Y003856D01*
X010200Y004014D02*
X007701Y004014D01*
X007776Y004173D02*
X010200Y004173D01*
X010200Y004331D02*
X007812Y004331D01*
X007815Y004515D02*
X007804Y004594D01*
X007777Y004697D01*
X007736Y004796D01*
X007683Y004888D01*
X007618Y004972D01*
X007542Y005048D01*
X007458Y005113D01*
X007366Y005166D01*
X007267Y005207D01*
X007164Y005234D01*
X007085Y005245D01*
X007085Y004515D01*
X007815Y004515D01*
X007790Y004648D02*
X010200Y004648D01*
X010200Y004490D02*
X007085Y004490D01*
X007085Y004515D02*
X007085Y004355D01*
X006925Y004355D01*
X006925Y003626D01*
X006846Y003636D01*
X006743Y003664D01*
X006645Y003704D01*
X006553Y003758D01*
X006468Y003823D01*
X006393Y003898D01*
X006328Y003983D01*
X006274Y004075D01*
X006234Y004173D01*
X006206Y004276D01*
X006198Y004335D01*
X006198Y004277D01*
X006078Y003986D01*
X005854Y003763D01*
X005563Y003642D01*
X005247Y003642D01*
X004956Y003763D01*
X004733Y003986D01*
X004612Y004277D01*
X004612Y004593D01*
X004733Y004884D01*
X004956Y005108D01*
X005247Y005228D01*
X005563Y005228D01*
X005854Y005108D01*
X006078Y004884D01*
X006198Y004593D01*
X006198Y004535D01*
X006206Y004594D01*
X006234Y004697D01*
X006274Y004796D01*
X006328Y004888D01*
X006393Y004972D01*
X006468Y005048D01*
X006553Y005113D01*
X006645Y005166D01*
X006743Y005207D01*
X006846Y005234D01*
X006925Y005245D01*
X006925Y004515D01*
X007085Y004515D01*
X007085Y004648D02*
X006925Y004648D01*
X006925Y004807D02*
X007085Y004807D01*
X007085Y004965D02*
X006925Y004965D01*
X006925Y005124D02*
X007085Y005124D01*
X007439Y005124D02*
X010200Y005124D01*
X010200Y005282D02*
X000660Y005282D01*
X000660Y005441D02*
X010200Y005441D01*
X010200Y005599D02*
X000660Y005599D01*
X000660Y005758D02*
X010200Y005758D01*
X010200Y005916D02*
X000660Y005916D01*
X000660Y006075D02*
X010200Y006075D01*
X010200Y006233D02*
X000660Y006233D01*
X000660Y006392D02*
X010200Y006392D01*
X010200Y006550D02*
X000660Y006550D01*
X000660Y006709D02*
X010200Y006709D01*
X010200Y006867D02*
X000660Y006867D01*
X000660Y007026D02*
X010200Y007026D01*
X010200Y007184D02*
X000660Y007184D01*
X000660Y007343D02*
X010200Y007343D01*
X010200Y007501D02*
X000660Y007501D01*
X000660Y007660D02*
X010200Y007660D01*
X010200Y007818D02*
X000660Y007818D01*
X000660Y007977D02*
X010200Y007977D01*
X010200Y008135D02*
X000660Y008135D01*
X000660Y008294D02*
X010200Y008294D01*
X010196Y008452D02*
X000664Y008452D01*
X000737Y008611D02*
X010123Y008611D01*
X006571Y005124D02*
X005816Y005124D01*
X005997Y004965D02*
X006387Y004965D01*
X006281Y004807D02*
X006110Y004807D01*
X006175Y004648D02*
X006220Y004648D01*
X006198Y004331D02*
X006199Y004331D01*
X006234Y004173D02*
X006155Y004173D01*
X006089Y004014D02*
X006310Y004014D01*
X006435Y003856D02*
X005947Y003856D01*
X005695Y003697D02*
X006663Y003697D01*
X006925Y003697D02*
X007085Y003697D01*
X007085Y003856D02*
X006925Y003856D01*
X006925Y004014D02*
X007085Y004014D01*
X007085Y004173D02*
X006925Y004173D01*
X006925Y004331D02*
X007085Y004331D01*
X007730Y004807D02*
X010200Y004807D01*
X010200Y004965D02*
X007624Y004965D01*
X005115Y003697D02*
X004095Y003697D01*
X003963Y003642D02*
X004254Y003763D01*
X004478Y003986D01*
X004598Y004277D01*
X004598Y004593D01*
X004478Y004884D01*
X004254Y005108D01*
X003963Y005228D01*
X003647Y005228D01*
X003356Y005108D01*
X003133Y004884D01*
X003012Y004593D01*
X003012Y004277D01*
X003133Y003986D01*
X003356Y003763D01*
X003647Y003642D01*
X003963Y003642D01*
X004347Y003856D02*
X004863Y003856D01*
X004721Y004014D02*
X004489Y004014D01*
X004555Y004173D02*
X004656Y004173D01*
X004612Y004331D02*
X004598Y004331D01*
X004598Y004490D02*
X004612Y004490D01*
X004635Y004648D02*
X004575Y004648D01*
X004510Y004807D02*
X004701Y004807D01*
X004813Y004965D02*
X004397Y004965D01*
X004216Y005124D02*
X004995Y005124D01*
X003395Y005124D02*
X000660Y005124D01*
X000660Y004965D02*
X003213Y004965D01*
X003101Y004807D02*
X000660Y004807D01*
X000660Y004648D02*
X003035Y004648D01*
X003012Y004490D02*
X000660Y004490D01*
X000660Y004331D02*
X003012Y004331D01*
X003056Y004173D02*
X000660Y004173D01*
X000660Y004014D02*
X003121Y004014D01*
X003263Y003856D02*
X000660Y003856D01*
X000660Y003697D02*
X003515Y003697D01*
X001890Y001795D02*
X008970Y001795D01*
X008811Y001637D02*
X008150Y001637D01*
X007950Y001637D02*
X007910Y001637D01*
X007910Y001478D02*
X007950Y001478D01*
X007950Y001320D02*
X007910Y001320D01*
X007910Y001161D02*
X007950Y001161D01*
X007950Y001003D02*
X007910Y001003D01*
X007450Y001003D02*
X007390Y001003D01*
X007390Y001161D02*
X007450Y001161D01*
X007461Y001320D02*
X007383Y001320D01*
X007313Y001478D02*
X007531Y001478D01*
X007710Y001637D02*
X007102Y001637D01*
X006758Y001637D02*
X006102Y001637D01*
X006313Y001478D02*
X006547Y001478D01*
X006477Y001320D02*
X006383Y001320D01*
X006390Y001161D02*
X006470Y001161D01*
X006470Y001003D02*
X006390Y001003D01*
X006390Y000844D02*
X006470Y000844D01*
X006470Y000686D02*
X006390Y000686D01*
X006390Y000527D02*
X006470Y000527D01*
X007390Y000527D02*
X007457Y000527D01*
X007450Y000686D02*
X007390Y000686D01*
X007390Y000844D02*
X007450Y000844D01*
X008329Y001478D02*
X008706Y001478D01*
X008640Y001320D02*
X008399Y001320D01*
X008410Y001161D02*
X008620Y001161D01*
X008620Y001003D02*
X008410Y001003D01*
X008410Y000844D02*
X008664Y000844D01*
X008729Y000686D02*
X008410Y000686D01*
X008403Y000527D02*
X008868Y000527D01*
X005758Y001637D02*
X005102Y001637D01*
X005313Y001478D02*
X005547Y001478D01*
X005477Y001320D02*
X005383Y001320D01*
X005390Y001161D02*
X005470Y001161D01*
X005470Y001003D02*
X005390Y001003D01*
X005390Y000844D02*
X005470Y000844D01*
X005470Y000686D02*
X005390Y000686D01*
X005390Y000527D02*
X005470Y000527D01*
X004470Y000527D02*
X004390Y000527D01*
X004390Y000686D02*
X004470Y000686D01*
X004470Y000844D02*
X004390Y000844D01*
X004390Y001003D02*
X004470Y001003D01*
X004470Y001161D02*
X004390Y001161D01*
X004383Y001320D02*
X004477Y001320D01*
X004547Y001478D02*
X004313Y001478D01*
X004102Y001637D02*
X004758Y001637D01*
X003758Y001637D02*
X003102Y001637D01*
X003313Y001478D02*
X003547Y001478D01*
X003477Y001320D02*
X003383Y001320D01*
X003390Y001161D02*
X003470Y001161D01*
X003470Y001003D02*
X003390Y001003D01*
X003390Y000844D02*
X003470Y000844D01*
X003470Y000686D02*
X003390Y000686D01*
X003390Y000527D02*
X003470Y000527D01*
X002470Y000527D02*
X001992Y000527D01*
X002131Y000686D02*
X002470Y000686D01*
X002470Y000844D02*
X002196Y000844D01*
X002240Y001003D02*
X002470Y001003D01*
X002470Y001161D02*
X002240Y001161D01*
X002220Y001320D02*
X002477Y001320D01*
X002547Y001478D02*
X002154Y001478D01*
X002049Y001637D02*
X002758Y001637D01*
M02*
