G75*
%MOIN*%
%OFA0B0*%
%FSLAX24Y24*%
%IPPOS*%
%LPD*%
%AMOC8*
5,1,8,0,0,1.08239X$1,22.5*
%
%ADD10C,0.1266*%
%ADD11C,0.0600*%
%ADD12C,0.0160*%
D10*
X003805Y004435D03*
X005405Y004435D03*
X007005Y004435D03*
D11*
X002930Y001210D02*
X002930Y000610D01*
X003930Y000610D02*
X003930Y001210D01*
X004930Y001210D02*
X004930Y000610D01*
X005930Y000610D02*
X005930Y001210D01*
X006930Y001210D02*
X006930Y000610D01*
X007930Y000610D02*
X007930Y001210D01*
D12*
X004930Y000910D02*
X004930Y003960D01*
X004932Y004001D01*
X004937Y004042D01*
X004946Y004083D01*
X004959Y004122D01*
X004975Y004161D01*
X004994Y004198D01*
X005016Y004232D01*
X005041Y004265D01*
X005069Y004296D01*
X005100Y004324D01*
X005133Y004349D01*
X005168Y004371D01*
X005204Y004390D01*
X005243Y004406D01*
X005282Y004419D01*
X005323Y004428D01*
X005364Y004433D01*
X005405Y004435D01*
X003805Y004435D02*
X003430Y004435D01*
X003386Y004433D01*
X003343Y004427D01*
X003301Y004418D01*
X003259Y004405D01*
X003219Y004388D01*
X003180Y004368D01*
X003143Y004345D01*
X003109Y004318D01*
X003076Y004289D01*
X003047Y004256D01*
X003020Y004222D01*
X002997Y004185D01*
X002977Y004146D01*
X002960Y004106D01*
X002947Y004064D01*
X002938Y004022D01*
X002932Y003979D01*
X002930Y003935D01*
X002930Y000910D01*
M02*
