G75*
%MOIN*%
%OFA0B0*%
%FSLAX24Y24*%
%IPPOS*%
%LPD*%
%AMOC8*
5,1,8,0,0,1.08239X$1,22.5*
%
%ADD10C,0.0000*%
D10*
X000480Y000710D02*
X000480Y008410D01*
X000482Y008454D01*
X000488Y008497D01*
X000497Y008539D01*
X000510Y008581D01*
X000527Y008621D01*
X000547Y008660D01*
X000570Y008697D01*
X000597Y008731D01*
X000626Y008764D01*
X000659Y008793D01*
X000693Y008820D01*
X000730Y008843D01*
X000769Y008863D01*
X000809Y008880D01*
X000851Y008893D01*
X000893Y008902D01*
X000936Y008908D01*
X000980Y008910D01*
X009880Y008910D01*
X009924Y008908D01*
X009967Y008902D01*
X010009Y008893D01*
X010051Y008880D01*
X010091Y008863D01*
X010130Y008843D01*
X010167Y008820D01*
X010201Y008793D01*
X010234Y008764D01*
X010263Y008731D01*
X010290Y008697D01*
X010313Y008660D01*
X010333Y008621D01*
X010350Y008581D01*
X010363Y008539D01*
X010372Y008497D01*
X010378Y008454D01*
X010380Y008410D01*
X010380Y000710D01*
X010378Y000666D01*
X010372Y000623D01*
X010363Y000581D01*
X010350Y000539D01*
X010333Y000499D01*
X010313Y000460D01*
X010290Y000423D01*
X010263Y000389D01*
X010234Y000356D01*
X010201Y000327D01*
X010167Y000300D01*
X010130Y000277D01*
X010091Y000257D01*
X010051Y000240D01*
X010009Y000227D01*
X009967Y000218D01*
X009924Y000212D01*
X009880Y000210D01*
X000980Y000210D01*
X000936Y000212D01*
X000893Y000218D01*
X000851Y000227D01*
X000809Y000240D01*
X000769Y000257D01*
X000730Y000277D01*
X000693Y000300D01*
X000659Y000327D01*
X000626Y000356D01*
X000597Y000389D01*
X000570Y000423D01*
X000547Y000460D01*
X000527Y000499D01*
X000510Y000539D01*
X000497Y000581D01*
X000488Y000623D01*
X000482Y000666D01*
X000480Y000710D01*
X000800Y001110D02*
X000802Y001160D01*
X000808Y001210D01*
X000818Y001259D01*
X000832Y001307D01*
X000849Y001354D01*
X000870Y001399D01*
X000895Y001443D01*
X000923Y001484D01*
X000955Y001523D01*
X000989Y001560D01*
X001026Y001594D01*
X001066Y001624D01*
X001108Y001651D01*
X001152Y001675D01*
X001198Y001696D01*
X001245Y001712D01*
X001293Y001725D01*
X001343Y001734D01*
X001392Y001739D01*
X001443Y001740D01*
X001493Y001737D01*
X001542Y001730D01*
X001591Y001719D01*
X001639Y001704D01*
X001685Y001686D01*
X001730Y001664D01*
X001773Y001638D01*
X001814Y001609D01*
X001853Y001577D01*
X001889Y001542D01*
X001921Y001504D01*
X001951Y001464D01*
X001978Y001421D01*
X002001Y001377D01*
X002020Y001331D01*
X002036Y001283D01*
X002048Y001234D01*
X002056Y001185D01*
X002060Y001135D01*
X002060Y001085D01*
X002056Y001035D01*
X002048Y000986D01*
X002036Y000937D01*
X002020Y000889D01*
X002001Y000843D01*
X001978Y000799D01*
X001951Y000756D01*
X001921Y000716D01*
X001889Y000678D01*
X001853Y000643D01*
X001814Y000611D01*
X001773Y000582D01*
X001730Y000556D01*
X001685Y000534D01*
X001639Y000516D01*
X001591Y000501D01*
X001542Y000490D01*
X001493Y000483D01*
X001443Y000480D01*
X001392Y000481D01*
X001343Y000486D01*
X001293Y000495D01*
X001245Y000508D01*
X001198Y000524D01*
X001152Y000545D01*
X001108Y000569D01*
X001066Y000596D01*
X001026Y000626D01*
X000989Y000660D01*
X000955Y000697D01*
X000923Y000736D01*
X000895Y000777D01*
X000870Y000821D01*
X000849Y000866D01*
X000832Y000913D01*
X000818Y000961D01*
X000808Y001010D01*
X000802Y001060D01*
X000800Y001110D01*
X008800Y001110D02*
X008802Y001160D01*
X008808Y001210D01*
X008818Y001259D01*
X008832Y001307D01*
X008849Y001354D01*
X008870Y001399D01*
X008895Y001443D01*
X008923Y001484D01*
X008955Y001523D01*
X008989Y001560D01*
X009026Y001594D01*
X009066Y001624D01*
X009108Y001651D01*
X009152Y001675D01*
X009198Y001696D01*
X009245Y001712D01*
X009293Y001725D01*
X009343Y001734D01*
X009392Y001739D01*
X009443Y001740D01*
X009493Y001737D01*
X009542Y001730D01*
X009591Y001719D01*
X009639Y001704D01*
X009685Y001686D01*
X009730Y001664D01*
X009773Y001638D01*
X009814Y001609D01*
X009853Y001577D01*
X009889Y001542D01*
X009921Y001504D01*
X009951Y001464D01*
X009978Y001421D01*
X010001Y001377D01*
X010020Y001331D01*
X010036Y001283D01*
X010048Y001234D01*
X010056Y001185D01*
X010060Y001135D01*
X010060Y001085D01*
X010056Y001035D01*
X010048Y000986D01*
X010036Y000937D01*
X010020Y000889D01*
X010001Y000843D01*
X009978Y000799D01*
X009951Y000756D01*
X009921Y000716D01*
X009889Y000678D01*
X009853Y000643D01*
X009814Y000611D01*
X009773Y000582D01*
X009730Y000556D01*
X009685Y000534D01*
X009639Y000516D01*
X009591Y000501D01*
X009542Y000490D01*
X009493Y000483D01*
X009443Y000480D01*
X009392Y000481D01*
X009343Y000486D01*
X009293Y000495D01*
X009245Y000508D01*
X009198Y000524D01*
X009152Y000545D01*
X009108Y000569D01*
X009066Y000596D01*
X009026Y000626D01*
X008989Y000660D01*
X008955Y000697D01*
X008923Y000736D01*
X008895Y000777D01*
X008870Y000821D01*
X008849Y000866D01*
X008832Y000913D01*
X008818Y000961D01*
X008808Y001010D01*
X008802Y001060D01*
X008800Y001110D01*
M02*
