G75*
%MOIN*%
%OFA0B0*%
%FSLAX24Y24*%
%IPPOS*%
%LPD*%
%AMOC8*
5,1,8,0,0,1.08239X$1,22.5*
%
%ADD10C,0.0080*%
%ADD11C,0.0050*%
D10*
X003055Y004435D02*
X003057Y004489D01*
X003063Y004543D01*
X003073Y004596D01*
X003086Y004649D01*
X003103Y004700D01*
X003124Y004750D01*
X003149Y004798D01*
X003177Y004845D01*
X003208Y004889D01*
X003242Y004931D01*
X003279Y004970D01*
X003319Y005007D01*
X003362Y005040D01*
X003407Y005071D01*
X003454Y005098D01*
X003502Y005121D01*
X003553Y005141D01*
X003604Y005158D01*
X003657Y005170D01*
X003710Y005179D01*
X003764Y005184D01*
X003819Y005185D01*
X003873Y005182D01*
X003926Y005175D01*
X003979Y005164D01*
X004032Y005150D01*
X004083Y005132D01*
X004132Y005110D01*
X004180Y005085D01*
X004226Y005056D01*
X004270Y005024D01*
X004311Y004989D01*
X004349Y004951D01*
X004385Y004910D01*
X004418Y004867D01*
X004448Y004822D01*
X004474Y004774D01*
X004497Y004725D01*
X004516Y004674D01*
X004531Y004623D01*
X004543Y004570D01*
X004551Y004516D01*
X004555Y004462D01*
X004555Y004408D01*
X004551Y004354D01*
X004543Y004300D01*
X004531Y004247D01*
X004516Y004196D01*
X004497Y004145D01*
X004474Y004096D01*
X004448Y004048D01*
X004418Y004003D01*
X004385Y003960D01*
X004349Y003919D01*
X004311Y003881D01*
X004270Y003846D01*
X004226Y003814D01*
X004180Y003785D01*
X004132Y003760D01*
X004083Y003738D01*
X004032Y003720D01*
X003979Y003706D01*
X003926Y003695D01*
X003873Y003688D01*
X003819Y003685D01*
X003764Y003686D01*
X003710Y003691D01*
X003657Y003700D01*
X003604Y003712D01*
X003553Y003729D01*
X003502Y003749D01*
X003454Y003772D01*
X003407Y003799D01*
X003362Y003830D01*
X003319Y003863D01*
X003279Y003900D01*
X003242Y003939D01*
X003208Y003981D01*
X003177Y004025D01*
X003149Y004072D01*
X003124Y004120D01*
X003103Y004170D01*
X003086Y004221D01*
X003073Y004274D01*
X003063Y004327D01*
X003057Y004381D01*
X003055Y004435D01*
X004655Y004435D02*
X004657Y004489D01*
X004663Y004543D01*
X004673Y004596D01*
X004686Y004649D01*
X004703Y004700D01*
X004724Y004750D01*
X004749Y004798D01*
X004777Y004845D01*
X004808Y004889D01*
X004842Y004931D01*
X004879Y004970D01*
X004919Y005007D01*
X004962Y005040D01*
X005007Y005071D01*
X005054Y005098D01*
X005102Y005121D01*
X005153Y005141D01*
X005204Y005158D01*
X005257Y005170D01*
X005310Y005179D01*
X005364Y005184D01*
X005419Y005185D01*
X005473Y005182D01*
X005526Y005175D01*
X005579Y005164D01*
X005632Y005150D01*
X005683Y005132D01*
X005732Y005110D01*
X005780Y005085D01*
X005826Y005056D01*
X005870Y005024D01*
X005911Y004989D01*
X005949Y004951D01*
X005985Y004910D01*
X006018Y004867D01*
X006048Y004822D01*
X006074Y004774D01*
X006097Y004725D01*
X006116Y004674D01*
X006131Y004623D01*
X006143Y004570D01*
X006151Y004516D01*
X006155Y004462D01*
X006155Y004408D01*
X006151Y004354D01*
X006143Y004300D01*
X006131Y004247D01*
X006116Y004196D01*
X006097Y004145D01*
X006074Y004096D01*
X006048Y004048D01*
X006018Y004003D01*
X005985Y003960D01*
X005949Y003919D01*
X005911Y003881D01*
X005870Y003846D01*
X005826Y003814D01*
X005780Y003785D01*
X005732Y003760D01*
X005683Y003738D01*
X005632Y003720D01*
X005579Y003706D01*
X005526Y003695D01*
X005473Y003688D01*
X005419Y003685D01*
X005364Y003686D01*
X005310Y003691D01*
X005257Y003700D01*
X005204Y003712D01*
X005153Y003729D01*
X005102Y003749D01*
X005054Y003772D01*
X005007Y003799D01*
X004962Y003830D01*
X004919Y003863D01*
X004879Y003900D01*
X004842Y003939D01*
X004808Y003981D01*
X004777Y004025D01*
X004749Y004072D01*
X004724Y004120D01*
X004703Y004170D01*
X004686Y004221D01*
X004673Y004274D01*
X004663Y004327D01*
X004657Y004381D01*
X004655Y004435D01*
X006255Y004435D02*
X006257Y004489D01*
X006263Y004543D01*
X006273Y004596D01*
X006286Y004649D01*
X006303Y004700D01*
X006324Y004750D01*
X006349Y004798D01*
X006377Y004845D01*
X006408Y004889D01*
X006442Y004931D01*
X006479Y004970D01*
X006519Y005007D01*
X006562Y005040D01*
X006607Y005071D01*
X006654Y005098D01*
X006702Y005121D01*
X006753Y005141D01*
X006804Y005158D01*
X006857Y005170D01*
X006910Y005179D01*
X006964Y005184D01*
X007019Y005185D01*
X007073Y005182D01*
X007126Y005175D01*
X007179Y005164D01*
X007232Y005150D01*
X007283Y005132D01*
X007332Y005110D01*
X007380Y005085D01*
X007426Y005056D01*
X007470Y005024D01*
X007511Y004989D01*
X007549Y004951D01*
X007585Y004910D01*
X007618Y004867D01*
X007648Y004822D01*
X007674Y004774D01*
X007697Y004725D01*
X007716Y004674D01*
X007731Y004623D01*
X007743Y004570D01*
X007751Y004516D01*
X007755Y004462D01*
X007755Y004408D01*
X007751Y004354D01*
X007743Y004300D01*
X007731Y004247D01*
X007716Y004196D01*
X007697Y004145D01*
X007674Y004096D01*
X007648Y004048D01*
X007618Y004003D01*
X007585Y003960D01*
X007549Y003919D01*
X007511Y003881D01*
X007470Y003846D01*
X007426Y003814D01*
X007380Y003785D01*
X007332Y003760D01*
X007283Y003738D01*
X007232Y003720D01*
X007179Y003706D01*
X007126Y003695D01*
X007073Y003688D01*
X007019Y003685D01*
X006964Y003686D01*
X006910Y003691D01*
X006857Y003700D01*
X006804Y003712D01*
X006753Y003729D01*
X006702Y003749D01*
X006654Y003772D01*
X006607Y003799D01*
X006562Y003830D01*
X006519Y003863D01*
X006479Y003900D01*
X006442Y003939D01*
X006408Y003981D01*
X006377Y004025D01*
X006349Y004072D01*
X006324Y004120D01*
X006303Y004170D01*
X006286Y004221D01*
X006273Y004274D01*
X006263Y004327D01*
X006257Y004381D01*
X006255Y004435D01*
D11*
X008923Y001969D02*
X001955Y001969D01*
X002112Y002284D02*
X008726Y002284D01*
X008923Y001969D02*
X008974Y001971D01*
X009024Y001976D01*
X009074Y001985D01*
X009123Y001998D01*
X009171Y002014D01*
X009218Y002033D01*
X009263Y002056D01*
X009306Y002082D01*
X009348Y002110D01*
X009387Y002142D01*
X009424Y002177D01*
X009459Y002214D01*
X009491Y002253D01*
X009519Y002295D01*
X009545Y002338D01*
X009568Y002383D01*
X009587Y002430D01*
X009603Y002478D01*
X009616Y002527D01*
X009625Y002577D01*
X009630Y002627D01*
X009632Y002678D01*
X009632Y004390D01*
X009278Y004449D02*
X009278Y002835D01*
X008766Y003032D02*
X008766Y004489D01*
X007900Y004528D02*
X007900Y003701D01*
X007899Y003701D02*
X007897Y003679D01*
X007893Y003657D01*
X007885Y003636D01*
X007874Y003616D01*
X007861Y003598D01*
X007845Y003582D01*
X007827Y003569D01*
X007807Y003558D01*
X007786Y003550D01*
X007764Y003546D01*
X007742Y003544D01*
X003097Y003544D01*
X003075Y003546D01*
X003053Y003550D01*
X003032Y003558D01*
X003012Y003569D01*
X002994Y003582D01*
X002978Y003598D01*
X002965Y003616D01*
X002954Y003636D01*
X002946Y003657D01*
X002942Y003679D01*
X002940Y003701D01*
X002939Y003701D02*
X002939Y004528D01*
X002073Y004489D02*
X002073Y003032D01*
X001561Y002835D02*
X001563Y002789D01*
X001569Y002744D01*
X001578Y002700D01*
X001591Y002656D01*
X001607Y002614D01*
X001627Y002573D01*
X001651Y002534D01*
X001677Y002497D01*
X001707Y002462D01*
X001739Y002430D01*
X001774Y002400D01*
X001811Y002374D01*
X001850Y002350D01*
X001891Y002330D01*
X001933Y002314D01*
X001977Y002301D01*
X002021Y002292D01*
X002066Y002286D01*
X002112Y002284D01*
X001955Y001969D02*
X001904Y001971D01*
X001854Y001976D01*
X001804Y001985D01*
X001755Y001998D01*
X001707Y002014D01*
X001660Y002033D01*
X001615Y002056D01*
X001572Y002082D01*
X001530Y002110D01*
X001491Y002142D01*
X001454Y002177D01*
X001419Y002214D01*
X001387Y002253D01*
X001359Y002295D01*
X001333Y002338D01*
X001310Y002383D01*
X001291Y002430D01*
X001275Y002478D01*
X001262Y002527D01*
X001253Y002577D01*
X001248Y002627D01*
X001246Y002678D01*
X001246Y004390D01*
X001561Y004449D02*
X001561Y002835D01*
X002349Y002756D02*
X008490Y002756D01*
X008726Y002284D02*
X008772Y002286D01*
X008817Y002292D01*
X008861Y002301D01*
X008905Y002314D01*
X008947Y002330D01*
X008988Y002350D01*
X009027Y002374D01*
X009064Y002400D01*
X009099Y002430D01*
X009131Y002462D01*
X009161Y002497D01*
X009187Y002534D01*
X009211Y002573D01*
X009231Y002614D01*
X009247Y002656D01*
X009260Y002700D01*
X009269Y002744D01*
X009275Y002789D01*
X009277Y002835D01*
X008766Y003032D02*
X008764Y003001D01*
X008759Y002971D01*
X008751Y002941D01*
X008739Y002912D01*
X008724Y002885D01*
X008706Y002860D01*
X008685Y002837D01*
X008662Y002816D01*
X008637Y002798D01*
X008610Y002783D01*
X008581Y002771D01*
X008551Y002763D01*
X008521Y002758D01*
X008490Y002756D01*
X005439Y008583D02*
X005310Y008581D01*
X005181Y008575D01*
X005052Y008565D01*
X004924Y008551D01*
X004796Y008533D01*
X004669Y008512D01*
X004542Y008486D01*
X004416Y008456D01*
X004292Y008423D01*
X004168Y008386D01*
X004045Y008345D01*
X003924Y008300D01*
X003805Y008251D01*
X003686Y008199D01*
X003570Y008143D01*
X003455Y008084D01*
X003343Y008021D01*
X003232Y007955D01*
X003123Y007885D01*
X003016Y007812D01*
X002912Y007736D01*
X002810Y007657D01*
X002711Y007574D01*
X002614Y007489D01*
X002520Y007400D01*
X002429Y007309D01*
X002340Y007215D01*
X002255Y007118D01*
X002172Y007019D01*
X002093Y006917D01*
X002017Y006813D01*
X001944Y006706D01*
X001874Y006597D01*
X001808Y006487D01*
X001745Y006374D01*
X001686Y006259D01*
X001630Y006143D01*
X001578Y006024D01*
X001529Y005905D01*
X001484Y005784D01*
X001443Y005661D01*
X001406Y005537D01*
X001373Y005413D01*
X001343Y005287D01*
X001317Y005160D01*
X001296Y005033D01*
X001278Y004905D01*
X001264Y004777D01*
X001254Y004648D01*
X001248Y004519D01*
X001246Y004390D01*
X002073Y003032D02*
X002075Y003001D01*
X002080Y002971D01*
X002088Y002941D01*
X002100Y002912D01*
X002115Y002885D01*
X002133Y002860D01*
X002154Y002837D01*
X002177Y002816D01*
X002202Y002798D01*
X002229Y002783D01*
X002258Y002771D01*
X002288Y002763D01*
X002318Y002758D01*
X002349Y002756D01*
X005419Y008307D02*
X005543Y008305D01*
X005666Y008299D01*
X005789Y008289D01*
X005912Y008275D01*
X006035Y008258D01*
X006156Y008236D01*
X006277Y008210D01*
X006398Y008181D01*
X006517Y008148D01*
X006635Y008110D01*
X006751Y008070D01*
X006867Y008025D01*
X006981Y007977D01*
X007093Y007925D01*
X007203Y007870D01*
X007312Y007811D01*
X007419Y007748D01*
X007524Y007682D01*
X007626Y007613D01*
X007727Y007541D01*
X007824Y007465D01*
X007920Y007387D01*
X008013Y007305D01*
X008103Y007220D01*
X008190Y007133D01*
X008275Y007043D01*
X008357Y006950D01*
X008435Y006854D01*
X008511Y006757D01*
X008583Y006656D01*
X008652Y006554D01*
X008718Y006449D01*
X008781Y006342D01*
X008840Y006233D01*
X008895Y006123D01*
X008947Y006011D01*
X008995Y005897D01*
X009040Y005781D01*
X009080Y005665D01*
X009118Y005547D01*
X009151Y005428D01*
X009180Y005307D01*
X009206Y005186D01*
X009228Y005065D01*
X009245Y004942D01*
X009259Y004819D01*
X009269Y004696D01*
X009275Y004573D01*
X009277Y004449D01*
X009632Y004390D02*
X009630Y004519D01*
X009624Y004648D01*
X009614Y004777D01*
X009600Y004905D01*
X009582Y005033D01*
X009561Y005160D01*
X009535Y005287D01*
X009505Y005413D01*
X009472Y005537D01*
X009435Y005661D01*
X009394Y005784D01*
X009349Y005905D01*
X009300Y006024D01*
X009248Y006143D01*
X009192Y006259D01*
X009133Y006374D01*
X009070Y006486D01*
X009004Y006597D01*
X008934Y006706D01*
X008861Y006813D01*
X008785Y006917D01*
X008706Y007019D01*
X008623Y007118D01*
X008538Y007215D01*
X008449Y007309D01*
X008358Y007400D01*
X008264Y007489D01*
X008167Y007574D01*
X008068Y007657D01*
X007966Y007736D01*
X007862Y007812D01*
X007755Y007885D01*
X007646Y007955D01*
X007535Y008021D01*
X007423Y008084D01*
X007308Y008143D01*
X007192Y008199D01*
X007073Y008251D01*
X006954Y008300D01*
X006833Y008345D01*
X006710Y008386D01*
X006586Y008423D01*
X006462Y008456D01*
X006336Y008486D01*
X006209Y008512D01*
X006082Y008533D01*
X005954Y008551D01*
X005826Y008565D01*
X005697Y008575D01*
X005568Y008581D01*
X005439Y008583D01*
X005419Y007008D02*
X005516Y007006D01*
X005614Y007000D01*
X005710Y006991D01*
X005807Y006977D01*
X005903Y006960D01*
X005998Y006939D01*
X006092Y006915D01*
X006185Y006887D01*
X006277Y006855D01*
X006368Y006819D01*
X006457Y006780D01*
X006545Y006738D01*
X006631Y006692D01*
X006715Y006643D01*
X006797Y006590D01*
X006877Y006534D01*
X006954Y006476D01*
X007030Y006414D01*
X007102Y006349D01*
X007173Y006282D01*
X007240Y006211D01*
X007305Y006139D01*
X007367Y006063D01*
X007425Y005986D01*
X007481Y005906D01*
X007534Y005824D01*
X007583Y005740D01*
X007629Y005654D01*
X007671Y005566D01*
X007710Y005477D01*
X007746Y005386D01*
X007778Y005294D01*
X007806Y005201D01*
X007830Y005107D01*
X007851Y005012D01*
X007868Y004916D01*
X007882Y004819D01*
X007891Y004723D01*
X007897Y004625D01*
X007899Y004528D01*
X005419Y007008D02*
X005322Y007006D01*
X005224Y007000D01*
X005128Y006991D01*
X005031Y006977D01*
X004935Y006960D01*
X004840Y006939D01*
X004746Y006915D01*
X004653Y006887D01*
X004561Y006855D01*
X004470Y006819D01*
X004381Y006780D01*
X004293Y006738D01*
X004207Y006692D01*
X004123Y006643D01*
X004041Y006590D01*
X003961Y006534D01*
X003884Y006476D01*
X003808Y006414D01*
X003736Y006349D01*
X003665Y006282D01*
X003598Y006211D01*
X003533Y006139D01*
X003471Y006063D01*
X003413Y005986D01*
X003357Y005906D01*
X003304Y005824D01*
X003255Y005740D01*
X003209Y005654D01*
X003167Y005566D01*
X003128Y005477D01*
X003092Y005386D01*
X003060Y005294D01*
X003032Y005201D01*
X003008Y005107D01*
X002987Y005012D01*
X002970Y004916D01*
X002956Y004819D01*
X002947Y004723D01*
X002941Y004625D01*
X002939Y004528D01*
X005419Y007835D02*
X005533Y007833D01*
X005647Y007827D01*
X005761Y007817D01*
X005875Y007804D01*
X005988Y007786D01*
X006100Y007765D01*
X006211Y007740D01*
X006322Y007711D01*
X006431Y007678D01*
X006540Y007642D01*
X006646Y007602D01*
X006752Y007558D01*
X006856Y007511D01*
X006958Y007460D01*
X007059Y007406D01*
X007158Y007348D01*
X007254Y007287D01*
X007349Y007223D01*
X007441Y007155D01*
X007531Y007085D01*
X007618Y007011D01*
X007703Y006934D01*
X007785Y006855D01*
X007864Y006773D01*
X007941Y006688D01*
X008015Y006601D01*
X008085Y006511D01*
X008153Y006419D01*
X008217Y006324D01*
X008278Y006228D01*
X008336Y006129D01*
X008390Y006028D01*
X008441Y005926D01*
X008488Y005822D01*
X008532Y005716D01*
X008572Y005610D01*
X008608Y005501D01*
X008641Y005392D01*
X008670Y005281D01*
X008695Y005170D01*
X008716Y005058D01*
X008734Y004945D01*
X008747Y004831D01*
X008757Y004717D01*
X008763Y004603D01*
X008765Y004489D01*
X005419Y007835D02*
X005305Y007833D01*
X005191Y007827D01*
X005077Y007817D01*
X004963Y007804D01*
X004850Y007786D01*
X004738Y007765D01*
X004627Y007740D01*
X004516Y007711D01*
X004407Y007678D01*
X004298Y007642D01*
X004192Y007602D01*
X004086Y007558D01*
X003982Y007511D01*
X003880Y007460D01*
X003779Y007406D01*
X003680Y007348D01*
X003584Y007287D01*
X003489Y007223D01*
X003397Y007155D01*
X003307Y007085D01*
X003220Y007011D01*
X003135Y006934D01*
X003053Y006855D01*
X002974Y006773D01*
X002897Y006688D01*
X002823Y006601D01*
X002753Y006511D01*
X002685Y006419D01*
X002621Y006324D01*
X002560Y006228D01*
X002502Y006129D01*
X002448Y006028D01*
X002397Y005926D01*
X002350Y005822D01*
X002306Y005716D01*
X002266Y005610D01*
X002230Y005501D01*
X002197Y005392D01*
X002168Y005281D01*
X002143Y005170D01*
X002122Y005058D01*
X002104Y004945D01*
X002091Y004831D01*
X002081Y004717D01*
X002075Y004603D01*
X002073Y004489D01*
X001561Y004449D02*
X001563Y004570D01*
X001569Y004691D01*
X001578Y004812D01*
X001591Y004933D01*
X001608Y005053D01*
X001629Y005172D01*
X001654Y005291D01*
X001682Y005408D01*
X001714Y005525D01*
X001750Y005641D01*
X001789Y005756D01*
X001832Y005869D01*
X001878Y005981D01*
X001928Y006092D01*
X001981Y006200D01*
X002038Y006308D01*
X002098Y006413D01*
X002162Y006516D01*
X002228Y006618D01*
X002298Y006717D01*
X002371Y006814D01*
X002446Y006908D01*
X002525Y007000D01*
X002607Y007090D01*
X002691Y007177D01*
X002778Y007261D01*
X002868Y007343D01*
X002960Y007422D01*
X003054Y007497D01*
X003151Y007570D01*
X003250Y007640D01*
X003352Y007706D01*
X003455Y007770D01*
X003560Y007830D01*
X003668Y007887D01*
X003776Y007940D01*
X003887Y007990D01*
X003999Y008036D01*
X004112Y008079D01*
X004227Y008118D01*
X004343Y008154D01*
X004460Y008186D01*
X004577Y008214D01*
X004696Y008239D01*
X004815Y008260D01*
X004935Y008277D01*
X005056Y008290D01*
X005177Y008299D01*
X005298Y008305D01*
X005419Y008307D01*
M02*
