G75*
%MOIN*%
%OFA0B0*%
%FSLAX24Y24*%
%IPPOS*%
%LPD*%
%AMOC8*
5,1,8,0,0,1.08239X$1,22.5*
%
%ADD10C,0.0000*%
D10*
X000680Y000210D02*
X009550Y000210D01*
X009594Y000212D01*
X009637Y000218D01*
X009679Y000227D01*
X009721Y000240D01*
X009761Y000257D01*
X009800Y000277D01*
X009837Y000300D01*
X009871Y000327D01*
X009904Y000356D01*
X009933Y000389D01*
X009960Y000423D01*
X009983Y000460D01*
X010003Y000499D01*
X010020Y000539D01*
X010033Y000581D01*
X010042Y000623D01*
X010048Y000666D01*
X010050Y000710D01*
X010050Y007960D01*
X010048Y008004D01*
X010042Y008047D01*
X010033Y008089D01*
X010020Y008131D01*
X010003Y008171D01*
X009983Y008210D01*
X009960Y008247D01*
X009933Y008281D01*
X009904Y008314D01*
X009871Y008343D01*
X009837Y008370D01*
X009800Y008393D01*
X009761Y008413D01*
X009721Y008430D01*
X009679Y008443D01*
X009637Y008452D01*
X009594Y008458D01*
X009550Y008460D01*
X000680Y008460D01*
X000636Y008458D01*
X000593Y008452D01*
X000551Y008443D01*
X000509Y008430D01*
X000469Y008413D01*
X000430Y008393D01*
X000393Y008370D01*
X000359Y008343D01*
X000326Y008314D01*
X000297Y008281D01*
X000270Y008247D01*
X000247Y008210D01*
X000227Y008171D01*
X000210Y008131D01*
X000197Y008089D01*
X000188Y008047D01*
X000182Y008004D01*
X000180Y007960D01*
X000180Y000710D01*
X000182Y000666D01*
X000188Y000623D01*
X000197Y000581D01*
X000210Y000539D01*
X000227Y000499D01*
X000247Y000460D01*
X000270Y000423D01*
X000297Y000389D01*
X000326Y000356D01*
X000359Y000327D01*
X000393Y000300D01*
X000430Y000277D01*
X000469Y000257D01*
X000509Y000240D01*
X000551Y000227D01*
X000593Y000218D01*
X000636Y000212D01*
X000680Y000210D01*
X000485Y001110D02*
X000487Y001160D01*
X000493Y001210D01*
X000503Y001259D01*
X000517Y001307D01*
X000534Y001354D01*
X000555Y001399D01*
X000580Y001443D01*
X000608Y001484D01*
X000640Y001523D01*
X000674Y001560D01*
X000711Y001594D01*
X000751Y001624D01*
X000793Y001651D01*
X000837Y001675D01*
X000883Y001696D01*
X000930Y001712D01*
X000978Y001725D01*
X001028Y001734D01*
X001077Y001739D01*
X001128Y001740D01*
X001178Y001737D01*
X001227Y001730D01*
X001276Y001719D01*
X001324Y001704D01*
X001370Y001686D01*
X001415Y001664D01*
X001458Y001638D01*
X001499Y001609D01*
X001538Y001577D01*
X001574Y001542D01*
X001606Y001504D01*
X001636Y001464D01*
X001663Y001421D01*
X001686Y001377D01*
X001705Y001331D01*
X001721Y001283D01*
X001733Y001234D01*
X001741Y001185D01*
X001745Y001135D01*
X001745Y001085D01*
X001741Y001035D01*
X001733Y000986D01*
X001721Y000937D01*
X001705Y000889D01*
X001686Y000843D01*
X001663Y000799D01*
X001636Y000756D01*
X001606Y000716D01*
X001574Y000678D01*
X001538Y000643D01*
X001499Y000611D01*
X001458Y000582D01*
X001415Y000556D01*
X001370Y000534D01*
X001324Y000516D01*
X001276Y000501D01*
X001227Y000490D01*
X001178Y000483D01*
X001128Y000480D01*
X001077Y000481D01*
X001028Y000486D01*
X000978Y000495D01*
X000930Y000508D01*
X000883Y000524D01*
X000837Y000545D01*
X000793Y000569D01*
X000751Y000596D01*
X000711Y000626D01*
X000674Y000660D01*
X000640Y000697D01*
X000608Y000736D01*
X000580Y000777D01*
X000555Y000821D01*
X000534Y000866D01*
X000517Y000913D01*
X000503Y000961D01*
X000493Y001010D01*
X000487Y001060D01*
X000485Y001110D01*
X000879Y002810D02*
X000881Y002857D01*
X000887Y002903D01*
X000897Y002949D01*
X000910Y002994D01*
X000928Y003037D01*
X000949Y003079D01*
X000973Y003119D01*
X001001Y003156D01*
X001032Y003191D01*
X001066Y003224D01*
X001102Y003253D01*
X001141Y003279D01*
X001182Y003302D01*
X001225Y003321D01*
X001269Y003337D01*
X001314Y003349D01*
X001360Y003357D01*
X001407Y003361D01*
X001453Y003361D01*
X001500Y003357D01*
X001546Y003349D01*
X001591Y003337D01*
X001635Y003321D01*
X001678Y003302D01*
X001719Y003279D01*
X001758Y003253D01*
X001794Y003224D01*
X001828Y003191D01*
X001859Y003156D01*
X001887Y003119D01*
X001911Y003079D01*
X001932Y003037D01*
X001950Y002994D01*
X001963Y002949D01*
X001973Y002903D01*
X001979Y002857D01*
X001981Y002810D01*
X001979Y002763D01*
X001973Y002717D01*
X001963Y002671D01*
X001950Y002626D01*
X001932Y002583D01*
X001911Y002541D01*
X001887Y002501D01*
X001859Y002464D01*
X001828Y002429D01*
X001794Y002396D01*
X001758Y002367D01*
X001719Y002341D01*
X001678Y002318D01*
X001635Y002299D01*
X001591Y002283D01*
X001546Y002271D01*
X001500Y002263D01*
X001453Y002259D01*
X001407Y002259D01*
X001360Y002263D01*
X001314Y002271D01*
X001269Y002283D01*
X001225Y002299D01*
X001182Y002318D01*
X001141Y002341D01*
X001102Y002367D01*
X001066Y002396D01*
X001032Y002429D01*
X001001Y002464D01*
X000973Y002501D01*
X000949Y002541D01*
X000928Y002583D01*
X000910Y002626D01*
X000897Y002671D01*
X000887Y002717D01*
X000881Y002763D01*
X000879Y002810D01*
X008279Y007610D02*
X008281Y007657D01*
X008287Y007703D01*
X008297Y007749D01*
X008310Y007794D01*
X008328Y007837D01*
X008349Y007879D01*
X008373Y007919D01*
X008401Y007956D01*
X008432Y007991D01*
X008466Y008024D01*
X008502Y008053D01*
X008541Y008079D01*
X008582Y008102D01*
X008625Y008121D01*
X008669Y008137D01*
X008714Y008149D01*
X008760Y008157D01*
X008807Y008161D01*
X008853Y008161D01*
X008900Y008157D01*
X008946Y008149D01*
X008991Y008137D01*
X009035Y008121D01*
X009078Y008102D01*
X009119Y008079D01*
X009158Y008053D01*
X009194Y008024D01*
X009228Y007991D01*
X009259Y007956D01*
X009287Y007919D01*
X009311Y007879D01*
X009332Y007837D01*
X009350Y007794D01*
X009363Y007749D01*
X009373Y007703D01*
X009379Y007657D01*
X009381Y007610D01*
X009379Y007563D01*
X009373Y007517D01*
X009363Y007471D01*
X009350Y007426D01*
X009332Y007383D01*
X009311Y007341D01*
X009287Y007301D01*
X009259Y007264D01*
X009228Y007229D01*
X009194Y007196D01*
X009158Y007167D01*
X009119Y007141D01*
X009078Y007118D01*
X009035Y007099D01*
X008991Y007083D01*
X008946Y007071D01*
X008900Y007063D01*
X008853Y007059D01*
X008807Y007059D01*
X008760Y007063D01*
X008714Y007071D01*
X008669Y007083D01*
X008625Y007099D01*
X008582Y007118D01*
X008541Y007141D01*
X008502Y007167D01*
X008466Y007196D01*
X008432Y007229D01*
X008401Y007264D01*
X008373Y007301D01*
X008349Y007341D01*
X008328Y007383D01*
X008310Y007426D01*
X008297Y007471D01*
X008287Y007517D01*
X008281Y007563D01*
X008279Y007610D01*
X008485Y001110D02*
X008487Y001160D01*
X008493Y001210D01*
X008503Y001259D01*
X008517Y001307D01*
X008534Y001354D01*
X008555Y001399D01*
X008580Y001443D01*
X008608Y001484D01*
X008640Y001523D01*
X008674Y001560D01*
X008711Y001594D01*
X008751Y001624D01*
X008793Y001651D01*
X008837Y001675D01*
X008883Y001696D01*
X008930Y001712D01*
X008978Y001725D01*
X009028Y001734D01*
X009077Y001739D01*
X009128Y001740D01*
X009178Y001737D01*
X009227Y001730D01*
X009276Y001719D01*
X009324Y001704D01*
X009370Y001686D01*
X009415Y001664D01*
X009458Y001638D01*
X009499Y001609D01*
X009538Y001577D01*
X009574Y001542D01*
X009606Y001504D01*
X009636Y001464D01*
X009663Y001421D01*
X009686Y001377D01*
X009705Y001331D01*
X009721Y001283D01*
X009733Y001234D01*
X009741Y001185D01*
X009745Y001135D01*
X009745Y001085D01*
X009741Y001035D01*
X009733Y000986D01*
X009721Y000937D01*
X009705Y000889D01*
X009686Y000843D01*
X009663Y000799D01*
X009636Y000756D01*
X009606Y000716D01*
X009574Y000678D01*
X009538Y000643D01*
X009499Y000611D01*
X009458Y000582D01*
X009415Y000556D01*
X009370Y000534D01*
X009324Y000516D01*
X009276Y000501D01*
X009227Y000490D01*
X009178Y000483D01*
X009128Y000480D01*
X009077Y000481D01*
X009028Y000486D01*
X008978Y000495D01*
X008930Y000508D01*
X008883Y000524D01*
X008837Y000545D01*
X008793Y000569D01*
X008751Y000596D01*
X008711Y000626D01*
X008674Y000660D01*
X008640Y000697D01*
X008608Y000736D01*
X008580Y000777D01*
X008555Y000821D01*
X008534Y000866D01*
X008517Y000913D01*
X008503Y000961D01*
X008493Y001010D01*
X008487Y001060D01*
X008485Y001110D01*
M02*
