G75*
%MOIN*%
%OFA0B0*%
%FSLAX24Y24*%
%IPPOS*%
%LPD*%
%AMOC8*
5,1,8,0,0,1.08239X$1,22.5*
%
%ADD10C,0.0080*%
%ADD11C,0.0060*%
D10*
X003420Y001820D02*
X003490Y001750D01*
X003420Y001820D02*
X003420Y001960D01*
X003490Y002030D01*
X003630Y002030D01*
X003700Y001960D01*
X003700Y001890D01*
X003630Y001750D01*
X003840Y001750D01*
X003840Y002030D01*
X003840Y002210D02*
X003560Y002210D01*
X003420Y002351D01*
X003560Y002491D01*
X003840Y002491D01*
X004420Y002491D02*
X004420Y002280D01*
X004490Y002210D01*
X004560Y002280D01*
X004560Y002491D01*
X004630Y002491D02*
X004420Y002491D01*
X004630Y002491D02*
X004700Y002421D01*
X004700Y002280D01*
X004770Y002030D02*
X004490Y002030D01*
X004420Y001960D01*
X004420Y001750D01*
X004840Y001750D01*
X004840Y001960D01*
X004770Y002030D01*
X005420Y002030D02*
X005420Y001750D01*
X005840Y001750D01*
X005490Y002210D02*
X005560Y002280D01*
X005560Y002491D01*
X005630Y002491D02*
X005420Y002491D01*
X005420Y002280D01*
X005490Y002210D01*
X005700Y002280D02*
X005700Y002421D01*
X005630Y002491D01*
X005700Y002671D02*
X005700Y002811D01*
X005770Y002741D02*
X005490Y002741D01*
X005420Y002811D01*
X005490Y002978D02*
X005420Y003048D01*
X005420Y003258D01*
X005420Y003438D02*
X005840Y003438D01*
X005700Y003508D02*
X005700Y003648D01*
X005630Y003718D01*
X005420Y003718D01*
X005630Y003438D02*
X005700Y003508D01*
X005700Y003258D02*
X005700Y003048D01*
X005630Y002978D01*
X005490Y002978D01*
X004770Y002741D02*
X004490Y002741D01*
X004420Y002811D01*
X004490Y002978D02*
X004560Y003048D01*
X004560Y003258D01*
X004630Y003258D02*
X004420Y003258D01*
X004420Y003048D01*
X004490Y002978D01*
X004700Y003048D02*
X004700Y003188D01*
X004630Y003258D01*
X004700Y002811D02*
X004700Y002671D01*
X006420Y002728D02*
X006560Y002517D01*
X006700Y002728D01*
X006840Y002517D02*
X006420Y002517D01*
X006420Y002351D02*
X006420Y002210D01*
X006420Y002280D02*
X006840Y002280D01*
X006840Y002210D01*
X006770Y002030D02*
X006840Y001960D01*
X006840Y001820D01*
X006770Y001750D01*
X006490Y001750D01*
X006420Y001820D01*
X006420Y001960D01*
X006490Y002030D01*
X007420Y001960D02*
X007420Y001820D01*
X007490Y001750D01*
X007770Y001750D01*
X007840Y001820D01*
X007840Y001960D01*
X007770Y002030D01*
X007630Y002030D02*
X007630Y001890D01*
X007630Y002030D02*
X007490Y002030D01*
X007420Y001960D01*
X007420Y002210D02*
X007700Y002210D01*
X007700Y002421D01*
X007630Y002491D01*
X007420Y002491D01*
X007490Y002671D02*
X007420Y002741D01*
X007420Y002951D01*
X007840Y002951D01*
X007700Y002951D02*
X007700Y002741D01*
X007630Y002671D01*
X007490Y002671D01*
D11*
X002365Y000410D02*
X002115Y000660D01*
X002115Y001160D01*
X002365Y001410D01*
X002865Y001410D01*
X003115Y001160D01*
X003115Y000660D01*
X002865Y000410D01*
X002365Y000410D01*
X003115Y000660D02*
X003365Y000410D01*
X003865Y000410D01*
X004115Y000660D01*
X004365Y000410D01*
X004865Y000410D01*
X005115Y000660D01*
X005365Y000410D01*
X005865Y000410D01*
X006115Y000660D01*
X006365Y000410D01*
X006865Y000410D01*
X007115Y000660D01*
X007365Y000410D01*
X007865Y000410D01*
X008115Y000660D01*
X008115Y001160D01*
X007865Y001410D01*
X007365Y001410D01*
X007115Y001160D01*
X006865Y001410D01*
X006365Y001410D01*
X006115Y001160D01*
X006115Y000660D01*
X006115Y001160D02*
X005865Y001410D01*
X005365Y001410D01*
X005115Y001160D01*
X004865Y001410D01*
X004365Y001410D01*
X004115Y001160D01*
X003865Y001410D01*
X003365Y001410D01*
X003115Y001160D01*
X004115Y001160D02*
X004115Y000660D01*
X005115Y000660D02*
X005115Y001160D01*
X007115Y001160D02*
X007115Y000660D01*
M02*
