G75*
%MOIN*%
%OFA0B0*%
%FSLAX24Y24*%
%IPPOS*%
%LPD*%
%AMOC8*
5,1,8,0,0,1.08239X$1,22.5*
%
%ADD10C,0.0050*%
%ADD11C,0.0080*%
D10*
X002430Y002610D02*
X005967Y002610D01*
X005857Y003510D02*
X002630Y003510D01*
X002430Y002610D02*
X002351Y002612D01*
X002273Y002618D01*
X002195Y002627D01*
X002118Y002641D01*
X002041Y002658D01*
X001966Y002679D01*
X001891Y002704D01*
X001818Y002732D01*
X001746Y002764D01*
X001676Y002799D01*
X001607Y002838D01*
X001541Y002880D01*
X001477Y002925D01*
X001415Y002973D01*
X001356Y003024D01*
X001299Y003079D01*
X001244Y003136D01*
X001193Y003195D01*
X001145Y003257D01*
X001100Y003321D01*
X001058Y003387D01*
X001019Y003456D01*
X000984Y003526D01*
X000952Y003598D01*
X000924Y003671D01*
X000899Y003746D01*
X000878Y003821D01*
X000861Y003898D01*
X000847Y003975D01*
X000838Y004053D01*
X000832Y004131D01*
X000830Y004210D01*
X000830Y006210D01*
X001730Y006010D02*
X001730Y004410D01*
X001732Y004351D01*
X001738Y004293D01*
X001747Y004234D01*
X001761Y004177D01*
X001778Y004121D01*
X001799Y004066D01*
X001823Y004012D01*
X001851Y003960D01*
X001882Y003910D01*
X001916Y003862D01*
X001953Y003817D01*
X001994Y003774D01*
X002037Y003733D01*
X002082Y003696D01*
X002130Y003662D01*
X002180Y003631D01*
X002232Y003603D01*
X002286Y003579D01*
X002341Y003558D01*
X002397Y003541D01*
X002454Y003527D01*
X002513Y003518D01*
X002571Y003512D01*
X002630Y003510D01*
X001730Y006010D02*
X001732Y006069D01*
X001738Y006127D01*
X001747Y006186D01*
X001761Y006243D01*
X001778Y006299D01*
X001799Y006354D01*
X001823Y006408D01*
X001851Y006460D01*
X001882Y006510D01*
X001916Y006558D01*
X001953Y006603D01*
X001994Y006646D01*
X002037Y006687D01*
X002082Y006724D01*
X002130Y006758D01*
X002180Y006789D01*
X002232Y006817D01*
X002286Y006841D01*
X002341Y006862D01*
X002397Y006879D01*
X002454Y006893D01*
X002513Y006902D01*
X002571Y006908D01*
X002630Y006910D01*
X007457Y006910D01*
X007648Y007810D02*
X007729Y007808D01*
X007810Y007802D01*
X007890Y007793D01*
X007970Y007779D01*
X008049Y007762D01*
X008127Y007741D01*
X008205Y007716D01*
X008280Y007688D01*
X008355Y007656D01*
X008428Y007621D01*
X008499Y007582D01*
X008568Y007540D01*
X008635Y007494D01*
X008700Y007446D01*
X008762Y007394D01*
X008822Y007340D01*
X008879Y007282D01*
X008934Y007222D01*
X008985Y007160D01*
X009034Y007095D01*
X009079Y007028D01*
X009121Y006959D01*
X009160Y006887D01*
X009195Y006815D01*
X009227Y006740D01*
X009255Y006664D01*
X009280Y006587D01*
X009301Y006509D01*
X009318Y006430D01*
X009331Y006350D01*
X009341Y006269D01*
X009346Y006188D01*
X009348Y006107D01*
X009346Y006027D01*
X009340Y005946D01*
X009330Y005865D01*
X009317Y005785D01*
X009299Y005706D01*
X009278Y005628D01*
X009253Y005551D01*
X009225Y005475D01*
X009193Y005401D01*
X009158Y005328D01*
X009119Y005257D01*
X009076Y005188D01*
X009031Y005121D01*
X008982Y005056D01*
X008930Y004994D01*
X008876Y004934D01*
X007099Y003079D01*
X006494Y003774D02*
X008094Y005374D01*
X008093Y005374D02*
X008134Y005417D01*
X008171Y005462D01*
X008205Y005510D01*
X008236Y005560D01*
X008264Y005612D01*
X008288Y005666D01*
X008309Y005721D01*
X008326Y005777D01*
X008340Y005834D01*
X008349Y005893D01*
X008355Y005951D01*
X008357Y006010D01*
X008355Y006069D01*
X008349Y006127D01*
X008340Y006186D01*
X008326Y006243D01*
X008309Y006299D01*
X008288Y006354D01*
X008264Y006408D01*
X008236Y006460D01*
X008205Y006510D01*
X008171Y006558D01*
X008134Y006603D01*
X008093Y006646D01*
X008050Y006687D01*
X008005Y006724D01*
X007957Y006758D01*
X007907Y006789D01*
X007855Y006817D01*
X007801Y006841D01*
X007746Y006862D01*
X007690Y006879D01*
X007633Y006893D01*
X007574Y006902D01*
X007516Y006908D01*
X007457Y006910D01*
X007648Y007810D02*
X002430Y007810D01*
X002351Y007808D01*
X002273Y007802D01*
X002195Y007793D01*
X002118Y007779D01*
X002041Y007762D01*
X001966Y007741D01*
X001891Y007716D01*
X001818Y007688D01*
X001746Y007656D01*
X001676Y007621D01*
X001607Y007582D01*
X001541Y007540D01*
X001477Y007495D01*
X001415Y007447D01*
X001356Y007396D01*
X001299Y007341D01*
X001244Y007284D01*
X001193Y007225D01*
X001145Y007163D01*
X001100Y007099D01*
X001058Y007033D01*
X001019Y006964D01*
X000984Y006894D01*
X000952Y006822D01*
X000924Y006749D01*
X000899Y006674D01*
X000878Y006599D01*
X000861Y006522D01*
X000847Y006445D01*
X000838Y006367D01*
X000832Y006289D01*
X000830Y006210D01*
X005857Y003510D02*
X005916Y003512D01*
X005974Y003518D01*
X006033Y003527D01*
X006090Y003541D01*
X006146Y003558D01*
X006201Y003579D01*
X006255Y003603D01*
X006307Y003631D01*
X006357Y003662D01*
X006405Y003696D01*
X006450Y003733D01*
X006493Y003774D01*
X007098Y003079D02*
X007041Y003024D01*
X006982Y002973D01*
X006920Y002925D01*
X006856Y002880D01*
X006790Y002838D01*
X006721Y002799D01*
X006651Y002764D01*
X006579Y002732D01*
X006506Y002704D01*
X006431Y002679D01*
X006356Y002658D01*
X006279Y002641D01*
X006202Y002627D01*
X006124Y002618D01*
X006046Y002612D01*
X005967Y002610D01*
D11*
X009130Y001940D02*
X001130Y001940D01*
X001071Y001942D01*
X001013Y001948D01*
X000954Y001957D01*
X000897Y001971D01*
X000841Y001988D01*
X000786Y002009D01*
X000732Y002033D01*
X000680Y002061D01*
X000630Y002092D01*
X000582Y002126D01*
X000537Y002163D01*
X000494Y002204D01*
X000453Y002247D01*
X000416Y002292D01*
X000382Y002340D01*
X000351Y002390D01*
X000323Y002442D01*
X000299Y002496D01*
X000278Y002551D01*
X000261Y002607D01*
X000247Y002664D01*
X000238Y002723D01*
X000232Y002781D01*
X000230Y002840D01*
X000230Y007510D01*
X000232Y007569D01*
X000238Y007627D01*
X000247Y007686D01*
X000261Y007743D01*
X000278Y007799D01*
X000299Y007854D01*
X000323Y007908D01*
X000351Y007960D01*
X000382Y008010D01*
X000416Y008058D01*
X000453Y008103D01*
X000494Y008146D01*
X000537Y008187D01*
X000582Y008224D01*
X000630Y008258D01*
X000680Y008289D01*
X000732Y008317D01*
X000786Y008341D01*
X000841Y008362D01*
X000897Y008379D01*
X000954Y008393D01*
X001013Y008402D01*
X001071Y008408D01*
X001130Y008410D01*
X009130Y008410D01*
X009189Y008408D01*
X009247Y008402D01*
X009306Y008393D01*
X009363Y008379D01*
X009419Y008362D01*
X009474Y008341D01*
X009528Y008317D01*
X009580Y008289D01*
X009630Y008258D01*
X009678Y008224D01*
X009723Y008187D01*
X009766Y008146D01*
X009807Y008103D01*
X009844Y008058D01*
X009878Y008010D01*
X009909Y007960D01*
X009937Y007908D01*
X009961Y007854D01*
X009982Y007799D01*
X009999Y007743D01*
X010013Y007686D01*
X010022Y007627D01*
X010028Y007569D01*
X010030Y007510D01*
X010030Y006420D01*
X010030Y002840D01*
X010028Y002781D01*
X010022Y002723D01*
X010013Y002664D01*
X009999Y002607D01*
X009982Y002551D01*
X009961Y002496D01*
X009937Y002442D01*
X009909Y002390D01*
X009878Y002340D01*
X009844Y002292D01*
X009807Y002247D01*
X009766Y002204D01*
X009723Y002163D01*
X009678Y002126D01*
X009630Y002092D01*
X009580Y002061D01*
X009528Y002033D01*
X009474Y002009D01*
X009419Y001988D01*
X009363Y001971D01*
X009306Y001957D01*
X009247Y001948D01*
X009189Y001942D01*
X009130Y001940D01*
X005080Y004410D02*
X005082Y004464D01*
X005088Y004518D01*
X005098Y004571D01*
X005111Y004624D01*
X005128Y004675D01*
X005149Y004725D01*
X005174Y004773D01*
X005202Y004820D01*
X005233Y004864D01*
X005267Y004906D01*
X005304Y004945D01*
X005344Y004982D01*
X005387Y005015D01*
X005432Y005046D01*
X005479Y005073D01*
X005527Y005096D01*
X005578Y005116D01*
X005629Y005133D01*
X005682Y005145D01*
X005735Y005154D01*
X005789Y005159D01*
X005844Y005160D01*
X005898Y005157D01*
X005951Y005150D01*
X006004Y005139D01*
X006057Y005125D01*
X006108Y005107D01*
X006157Y005085D01*
X006205Y005060D01*
X006251Y005031D01*
X006295Y004999D01*
X006336Y004964D01*
X006374Y004926D01*
X006410Y004885D01*
X006443Y004842D01*
X006473Y004797D01*
X006499Y004749D01*
X006522Y004700D01*
X006541Y004649D01*
X006556Y004598D01*
X006568Y004545D01*
X006576Y004491D01*
X006580Y004437D01*
X006580Y004383D01*
X006576Y004329D01*
X006568Y004275D01*
X006556Y004222D01*
X006541Y004171D01*
X006522Y004120D01*
X006499Y004071D01*
X006473Y004023D01*
X006443Y003978D01*
X006410Y003935D01*
X006374Y003894D01*
X006336Y003856D01*
X006295Y003821D01*
X006251Y003789D01*
X006205Y003760D01*
X006157Y003735D01*
X006108Y003713D01*
X006057Y003695D01*
X006004Y003681D01*
X005951Y003670D01*
X005898Y003663D01*
X005844Y003660D01*
X005789Y003661D01*
X005735Y003666D01*
X005682Y003675D01*
X005629Y003687D01*
X005578Y003704D01*
X005527Y003724D01*
X005479Y003747D01*
X005432Y003774D01*
X005387Y003805D01*
X005344Y003838D01*
X005304Y003875D01*
X005267Y003914D01*
X005233Y003956D01*
X005202Y004000D01*
X005174Y004047D01*
X005149Y004095D01*
X005128Y004145D01*
X005111Y004196D01*
X005098Y004249D01*
X005088Y004302D01*
X005082Y004356D01*
X005080Y004410D01*
X003480Y004410D02*
X003482Y004464D01*
X003488Y004518D01*
X003498Y004571D01*
X003511Y004624D01*
X003528Y004675D01*
X003549Y004725D01*
X003574Y004773D01*
X003602Y004820D01*
X003633Y004864D01*
X003667Y004906D01*
X003704Y004945D01*
X003744Y004982D01*
X003787Y005015D01*
X003832Y005046D01*
X003879Y005073D01*
X003927Y005096D01*
X003978Y005116D01*
X004029Y005133D01*
X004082Y005145D01*
X004135Y005154D01*
X004189Y005159D01*
X004244Y005160D01*
X004298Y005157D01*
X004351Y005150D01*
X004404Y005139D01*
X004457Y005125D01*
X004508Y005107D01*
X004557Y005085D01*
X004605Y005060D01*
X004651Y005031D01*
X004695Y004999D01*
X004736Y004964D01*
X004774Y004926D01*
X004810Y004885D01*
X004843Y004842D01*
X004873Y004797D01*
X004899Y004749D01*
X004922Y004700D01*
X004941Y004649D01*
X004956Y004598D01*
X004968Y004545D01*
X004976Y004491D01*
X004980Y004437D01*
X004980Y004383D01*
X004976Y004329D01*
X004968Y004275D01*
X004956Y004222D01*
X004941Y004171D01*
X004922Y004120D01*
X004899Y004071D01*
X004873Y004023D01*
X004843Y003978D01*
X004810Y003935D01*
X004774Y003894D01*
X004736Y003856D01*
X004695Y003821D01*
X004651Y003789D01*
X004605Y003760D01*
X004557Y003735D01*
X004508Y003713D01*
X004457Y003695D01*
X004404Y003681D01*
X004351Y003670D01*
X004298Y003663D01*
X004244Y003660D01*
X004189Y003661D01*
X004135Y003666D01*
X004082Y003675D01*
X004029Y003687D01*
X003978Y003704D01*
X003927Y003724D01*
X003879Y003747D01*
X003832Y003774D01*
X003787Y003805D01*
X003744Y003838D01*
X003704Y003875D01*
X003667Y003914D01*
X003633Y003956D01*
X003602Y004000D01*
X003574Y004047D01*
X003549Y004095D01*
X003528Y004145D01*
X003511Y004196D01*
X003498Y004249D01*
X003488Y004302D01*
X003482Y004356D01*
X003480Y004410D01*
X001880Y004410D02*
X001882Y004464D01*
X001888Y004518D01*
X001898Y004571D01*
X001911Y004624D01*
X001928Y004675D01*
X001949Y004725D01*
X001974Y004773D01*
X002002Y004820D01*
X002033Y004864D01*
X002067Y004906D01*
X002104Y004945D01*
X002144Y004982D01*
X002187Y005015D01*
X002232Y005046D01*
X002279Y005073D01*
X002327Y005096D01*
X002378Y005116D01*
X002429Y005133D01*
X002482Y005145D01*
X002535Y005154D01*
X002589Y005159D01*
X002644Y005160D01*
X002698Y005157D01*
X002751Y005150D01*
X002804Y005139D01*
X002857Y005125D01*
X002908Y005107D01*
X002957Y005085D01*
X003005Y005060D01*
X003051Y005031D01*
X003095Y004999D01*
X003136Y004964D01*
X003174Y004926D01*
X003210Y004885D01*
X003243Y004842D01*
X003273Y004797D01*
X003299Y004749D01*
X003322Y004700D01*
X003341Y004649D01*
X003356Y004598D01*
X003368Y004545D01*
X003376Y004491D01*
X003380Y004437D01*
X003380Y004383D01*
X003376Y004329D01*
X003368Y004275D01*
X003356Y004222D01*
X003341Y004171D01*
X003322Y004120D01*
X003299Y004071D01*
X003273Y004023D01*
X003243Y003978D01*
X003210Y003935D01*
X003174Y003894D01*
X003136Y003856D01*
X003095Y003821D01*
X003051Y003789D01*
X003005Y003760D01*
X002957Y003735D01*
X002908Y003713D01*
X002857Y003695D01*
X002804Y003681D01*
X002751Y003670D01*
X002698Y003663D01*
X002644Y003660D01*
X002589Y003661D01*
X002535Y003666D01*
X002482Y003675D01*
X002429Y003687D01*
X002378Y003704D01*
X002327Y003724D01*
X002279Y003747D01*
X002232Y003774D01*
X002187Y003805D01*
X002144Y003838D01*
X002104Y003875D01*
X002067Y003914D01*
X002033Y003956D01*
X002002Y004000D01*
X001974Y004047D01*
X001949Y004095D01*
X001928Y004145D01*
X001911Y004196D01*
X001898Y004249D01*
X001888Y004302D01*
X001882Y004356D01*
X001880Y004410D01*
X001880Y006010D02*
X001882Y006064D01*
X001888Y006118D01*
X001898Y006171D01*
X001911Y006224D01*
X001928Y006275D01*
X001949Y006325D01*
X001974Y006373D01*
X002002Y006420D01*
X002033Y006464D01*
X002067Y006506D01*
X002104Y006545D01*
X002144Y006582D01*
X002187Y006615D01*
X002232Y006646D01*
X002279Y006673D01*
X002327Y006696D01*
X002378Y006716D01*
X002429Y006733D01*
X002482Y006745D01*
X002535Y006754D01*
X002589Y006759D01*
X002644Y006760D01*
X002698Y006757D01*
X002751Y006750D01*
X002804Y006739D01*
X002857Y006725D01*
X002908Y006707D01*
X002957Y006685D01*
X003005Y006660D01*
X003051Y006631D01*
X003095Y006599D01*
X003136Y006564D01*
X003174Y006526D01*
X003210Y006485D01*
X003243Y006442D01*
X003273Y006397D01*
X003299Y006349D01*
X003322Y006300D01*
X003341Y006249D01*
X003356Y006198D01*
X003368Y006145D01*
X003376Y006091D01*
X003380Y006037D01*
X003380Y005983D01*
X003376Y005929D01*
X003368Y005875D01*
X003356Y005822D01*
X003341Y005771D01*
X003322Y005720D01*
X003299Y005671D01*
X003273Y005623D01*
X003243Y005578D01*
X003210Y005535D01*
X003174Y005494D01*
X003136Y005456D01*
X003095Y005421D01*
X003051Y005389D01*
X003005Y005360D01*
X002957Y005335D01*
X002908Y005313D01*
X002857Y005295D01*
X002804Y005281D01*
X002751Y005270D01*
X002698Y005263D01*
X002644Y005260D01*
X002589Y005261D01*
X002535Y005266D01*
X002482Y005275D01*
X002429Y005287D01*
X002378Y005304D01*
X002327Y005324D01*
X002279Y005347D01*
X002232Y005374D01*
X002187Y005405D01*
X002144Y005438D01*
X002104Y005475D01*
X002067Y005514D01*
X002033Y005556D01*
X002002Y005600D01*
X001974Y005647D01*
X001949Y005695D01*
X001928Y005745D01*
X001911Y005796D01*
X001898Y005849D01*
X001888Y005902D01*
X001882Y005956D01*
X001880Y006010D01*
X003480Y006010D02*
X003482Y006064D01*
X003488Y006118D01*
X003498Y006171D01*
X003511Y006224D01*
X003528Y006275D01*
X003549Y006325D01*
X003574Y006373D01*
X003602Y006420D01*
X003633Y006464D01*
X003667Y006506D01*
X003704Y006545D01*
X003744Y006582D01*
X003787Y006615D01*
X003832Y006646D01*
X003879Y006673D01*
X003927Y006696D01*
X003978Y006716D01*
X004029Y006733D01*
X004082Y006745D01*
X004135Y006754D01*
X004189Y006759D01*
X004244Y006760D01*
X004298Y006757D01*
X004351Y006750D01*
X004404Y006739D01*
X004457Y006725D01*
X004508Y006707D01*
X004557Y006685D01*
X004605Y006660D01*
X004651Y006631D01*
X004695Y006599D01*
X004736Y006564D01*
X004774Y006526D01*
X004810Y006485D01*
X004843Y006442D01*
X004873Y006397D01*
X004899Y006349D01*
X004922Y006300D01*
X004941Y006249D01*
X004956Y006198D01*
X004968Y006145D01*
X004976Y006091D01*
X004980Y006037D01*
X004980Y005983D01*
X004976Y005929D01*
X004968Y005875D01*
X004956Y005822D01*
X004941Y005771D01*
X004922Y005720D01*
X004899Y005671D01*
X004873Y005623D01*
X004843Y005578D01*
X004810Y005535D01*
X004774Y005494D01*
X004736Y005456D01*
X004695Y005421D01*
X004651Y005389D01*
X004605Y005360D01*
X004557Y005335D01*
X004508Y005313D01*
X004457Y005295D01*
X004404Y005281D01*
X004351Y005270D01*
X004298Y005263D01*
X004244Y005260D01*
X004189Y005261D01*
X004135Y005266D01*
X004082Y005275D01*
X004029Y005287D01*
X003978Y005304D01*
X003927Y005324D01*
X003879Y005347D01*
X003832Y005374D01*
X003787Y005405D01*
X003744Y005438D01*
X003704Y005475D01*
X003667Y005514D01*
X003633Y005556D01*
X003602Y005600D01*
X003574Y005647D01*
X003549Y005695D01*
X003528Y005745D01*
X003511Y005796D01*
X003498Y005849D01*
X003488Y005902D01*
X003482Y005956D01*
X003480Y006010D01*
X005080Y006010D02*
X005082Y006064D01*
X005088Y006118D01*
X005098Y006171D01*
X005111Y006224D01*
X005128Y006275D01*
X005149Y006325D01*
X005174Y006373D01*
X005202Y006420D01*
X005233Y006464D01*
X005267Y006506D01*
X005304Y006545D01*
X005344Y006582D01*
X005387Y006615D01*
X005432Y006646D01*
X005479Y006673D01*
X005527Y006696D01*
X005578Y006716D01*
X005629Y006733D01*
X005682Y006745D01*
X005735Y006754D01*
X005789Y006759D01*
X005844Y006760D01*
X005898Y006757D01*
X005951Y006750D01*
X006004Y006739D01*
X006057Y006725D01*
X006108Y006707D01*
X006157Y006685D01*
X006205Y006660D01*
X006251Y006631D01*
X006295Y006599D01*
X006336Y006564D01*
X006374Y006526D01*
X006410Y006485D01*
X006443Y006442D01*
X006473Y006397D01*
X006499Y006349D01*
X006522Y006300D01*
X006541Y006249D01*
X006556Y006198D01*
X006568Y006145D01*
X006576Y006091D01*
X006580Y006037D01*
X006580Y005983D01*
X006576Y005929D01*
X006568Y005875D01*
X006556Y005822D01*
X006541Y005771D01*
X006522Y005720D01*
X006499Y005671D01*
X006473Y005623D01*
X006443Y005578D01*
X006410Y005535D01*
X006374Y005494D01*
X006336Y005456D01*
X006295Y005421D01*
X006251Y005389D01*
X006205Y005360D01*
X006157Y005335D01*
X006108Y005313D01*
X006057Y005295D01*
X006004Y005281D01*
X005951Y005270D01*
X005898Y005263D01*
X005844Y005260D01*
X005789Y005261D01*
X005735Y005266D01*
X005682Y005275D01*
X005629Y005287D01*
X005578Y005304D01*
X005527Y005324D01*
X005479Y005347D01*
X005432Y005374D01*
X005387Y005405D01*
X005344Y005438D01*
X005304Y005475D01*
X005267Y005514D01*
X005233Y005556D01*
X005202Y005600D01*
X005174Y005647D01*
X005149Y005695D01*
X005128Y005745D01*
X005111Y005796D01*
X005098Y005849D01*
X005088Y005902D01*
X005082Y005956D01*
X005080Y006010D01*
X006680Y006010D02*
X006682Y006064D01*
X006688Y006118D01*
X006698Y006171D01*
X006711Y006224D01*
X006728Y006275D01*
X006749Y006325D01*
X006774Y006373D01*
X006802Y006420D01*
X006833Y006464D01*
X006867Y006506D01*
X006904Y006545D01*
X006944Y006582D01*
X006987Y006615D01*
X007032Y006646D01*
X007079Y006673D01*
X007127Y006696D01*
X007178Y006716D01*
X007229Y006733D01*
X007282Y006745D01*
X007335Y006754D01*
X007389Y006759D01*
X007444Y006760D01*
X007498Y006757D01*
X007551Y006750D01*
X007604Y006739D01*
X007657Y006725D01*
X007708Y006707D01*
X007757Y006685D01*
X007805Y006660D01*
X007851Y006631D01*
X007895Y006599D01*
X007936Y006564D01*
X007974Y006526D01*
X008010Y006485D01*
X008043Y006442D01*
X008073Y006397D01*
X008099Y006349D01*
X008122Y006300D01*
X008141Y006249D01*
X008156Y006198D01*
X008168Y006145D01*
X008176Y006091D01*
X008180Y006037D01*
X008180Y005983D01*
X008176Y005929D01*
X008168Y005875D01*
X008156Y005822D01*
X008141Y005771D01*
X008122Y005720D01*
X008099Y005671D01*
X008073Y005623D01*
X008043Y005578D01*
X008010Y005535D01*
X007974Y005494D01*
X007936Y005456D01*
X007895Y005421D01*
X007851Y005389D01*
X007805Y005360D01*
X007757Y005335D01*
X007708Y005313D01*
X007657Y005295D01*
X007604Y005281D01*
X007551Y005270D01*
X007498Y005263D01*
X007444Y005260D01*
X007389Y005261D01*
X007335Y005266D01*
X007282Y005275D01*
X007229Y005287D01*
X007178Y005304D01*
X007127Y005324D01*
X007079Y005347D01*
X007032Y005374D01*
X006987Y005405D01*
X006944Y005438D01*
X006904Y005475D01*
X006867Y005514D01*
X006833Y005556D01*
X006802Y005600D01*
X006774Y005647D01*
X006749Y005695D01*
X006728Y005745D01*
X006711Y005796D01*
X006698Y005849D01*
X006688Y005902D01*
X006682Y005956D01*
X006680Y006010D01*
M02*
